G04 start of page 8 for group -4079 idx -4079 *
G04 Title: (unknown), topsilk *
G04 Creator: pcb 20140316 *
G04 CreationDate: Mon 18 May 2015 09:38:21 PM GMT UTC *
G04 For: ndholmes *
G04 Format: Gerber/RS-274X *
G04 PCB-Dimensions (mil): 3500.00 1900.00 *
G04 PCB-Coordinate-Origin: lower left *
%MOIN*%
%FSLAX25Y25*%
%LNTOPSILK*%
%ADD103C,0.0080*%
%ADD102C,0.0200*%
%ADD101C,0.0060*%
%ADD100C,0.0100*%
G54D100*X500Y189500D02*X349500D01*
X500Y500D02*X349500D01*
X500D02*Y189500D01*
X144000Y153500D02*X142000Y151500D01*
X144500Y153500D02*X146500Y151500D01*
X274500Y159500D02*X271000Y156000D01*
X274500Y159500D02*Y157500D01*
X272500Y159500D02*X274000D01*
X349500Y189500D02*Y500D01*
X311000Y127500D02*X319000D01*
X310500Y67000D02*X318500D01*
X144000Y153500D02*G75*G03X148000Y149500I4000J0D01*G01*
G75*G03X152000Y153500I0J4000D01*G01*
G75*G03X148000Y157500I-4000J0D01*G01*
G54D101*X139000Y12500D02*X141000D01*
X140000Y13500D02*Y11500D01*
X162000Y12500D02*X164000D01*
X163000Y13500D02*Y11500D01*
X299000Y125500D02*X300500D01*
X298500Y126000D02*X299000Y125500D01*
X298500Y129000D02*Y126000D01*
Y129000D02*X299000Y129500D01*
X300500D01*
X301700D02*Y125500D01*
X304200Y129500D02*Y125500D01*
X301700Y127500D02*X304200D01*
X305400D02*X307400Y129500D01*
X305400Y127500D02*X307900D01*
X307400Y129500D02*Y125500D01*
X299000Y105000D02*X300500D01*
X298500Y105500D02*X299000Y105000D01*
X298500Y108500D02*Y105500D01*
Y108500D02*X299000Y109000D01*
X300500D01*
X301700D02*Y105000D01*
X304200Y109000D02*Y105000D01*
X301700Y107000D02*X304200D01*
X305400Y108500D02*X305900Y109000D01*
X306900D01*
X307400Y108500D01*
Y105500D01*
X306900Y105000D02*X307400Y105500D01*
X305900Y105000D02*X306900D01*
X305400Y105500D02*X305900Y105000D01*
Y107000D02*X307400D01*
X298500Y85000D02*X300000D01*
X298000Y85500D02*X298500Y85000D01*
X298000Y88500D02*Y85500D01*
Y88500D02*X298500Y89000D01*
X300000D01*
X301200D02*Y85000D01*
X303700Y89000D02*Y85000D01*
X301200Y87000D02*X303700D01*
X304900Y88500D02*X305400Y89000D01*
X306900D01*
X307400Y88500D01*
Y87500D01*
X304900Y85000D02*X307400Y87500D01*
X304900Y85000D02*X307400D01*
X298500Y65000D02*X300000D01*
X298000Y65500D02*X298500Y65000D01*
X298000Y68500D02*Y65500D01*
Y68500D02*X298500Y69000D01*
X300000D01*
X301200D02*Y65000D01*
X303700Y69000D02*Y65000D01*
X301200Y67000D02*X303700D01*
X305400Y65000D02*X306400D01*
X305900Y69000D02*Y65000D01*
X304900Y68000D02*X305900Y69000D01*
X297000Y47000D02*X299000D01*
X298000Y48000D02*Y46000D01*
X300200Y49000D02*X302200D01*
X300200D02*Y47000D01*
X300700Y47500D01*
X301700D01*
X302200Y47000D01*
Y45500D01*
X301700Y45000D02*X302200Y45500D01*
X300700Y45000D02*X301700D01*
X300200Y45500D02*X300700Y45000D01*
X303400Y49000D02*Y46000D01*
X304400Y45000D01*
X305400Y46000D01*
Y49000D02*Y46000D01*
X300500Y147000D02*X301000Y146500D01*
X299000Y147000D02*X300500D01*
X298500Y146500D02*X299000Y147000D01*
X298500Y146500D02*Y143500D01*
X299000Y143000D01*
X300500D01*
X301000Y143500D01*
Y144500D02*Y143500D01*
X300500Y145000D02*X301000Y144500D01*
X299500Y145000D02*X300500D01*
X302200Y147000D02*Y143000D01*
Y147000D02*Y146500D01*
X304700Y144000D01*
Y147000D02*Y143000D01*
X306400Y147000D02*Y143000D01*
X307900Y147000D02*X308400Y146500D01*
Y143500D01*
X307900Y143000D02*X308400Y143500D01*
X305900Y143000D02*X307900D01*
X305900Y147000D02*X307900D01*
X4500Y127500D02*X7500D01*
X4500D02*X3500Y126500D01*
X4500Y125500D01*
X7500D01*
Y124300D02*Y123300D01*
X3500Y123800D02*X7500D01*
X3500Y124300D02*Y123300D01*
Y122100D02*X7500D01*
X7000D02*X7500D01*
X7000D02*X4500Y119600D01*
X3500D02*X7500D01*
X3700Y143620D02*X6740D01*
Y144000D02*Y142480D01*
X6360Y142100D01*
X5600D02*X6360D01*
X5220Y142480D02*X5600Y142100D01*
X5220Y143620D02*Y142480D01*
X3700Y141188D02*X6740D01*
X3700D02*X4840Y140048D01*
X3700Y138908D01*
X6740D01*
Y137996D02*Y136476D01*
X6360Y136096D01*
X5600D02*X6360D01*
X5220Y136476D02*X5600Y136096D01*
X5220Y137616D02*Y136476D01*
X3700Y137616D02*X6740D01*
X5220D02*X3700Y136096D01*
X3650Y153115D02*X6730D01*
Y153500D02*Y151960D01*
X6345Y151575D01*
X5575D02*X6345D01*
X5190Y151960D02*X5575Y151575D01*
X5190Y153115D02*Y151960D01*
X3650Y150651D02*X6730D01*
X5190D02*X6730Y149111D01*
X5190Y150651D02*X3650Y149111D01*
X6730Y148187D02*Y146647D01*
X3650Y147417D02*X6730D01*
X3500Y64000D02*Y62000D01*
X4000Y61500D01*
X5000D01*
X5500Y62000D02*X5000Y61500D01*
X5500Y63500D02*Y62000D01*
X3500Y63500D02*X7500D01*
Y64000D02*Y62000D01*
X7000Y61500D01*
X6000D02*X7000D01*
X5500Y62000D02*X6000Y61500D01*
X7500Y105000D02*X7000Y104500D01*
X7500Y106500D02*Y105000D01*
X7000Y107000D02*X7500Y106500D01*
X4000Y107000D02*X7000D01*
X4000D02*X3500Y106500D01*
Y105000D01*
X4000Y104500D01*
X5000D01*
X5500Y105000D02*X5000Y104500D01*
X5500Y106000D02*Y105000D01*
X3500Y103300D02*X7500D01*
X7000D02*X7500D01*
X7000D02*X4500Y100800D01*
X3500D02*X7500D01*
X3500Y99100D02*X7500D01*
Y97600D02*X7000Y97100D01*
X4000D02*X7000D01*
X3500Y97600D02*X4000Y97100D01*
X3500Y99600D02*Y97600D01*
X7500Y99600D02*Y97600D01*
X3500Y84500D02*X7000D01*
X7500Y84000D01*
Y82500D01*
X7000Y82000D01*
X3500D02*X7000D01*
X5500Y84500D02*Y82000D01*
X26500Y46500D02*X28500D01*
X27500Y47500D02*Y45500D01*
X24000Y140500D02*X26000D01*
X25000Y141500D02*Y139500D01*
X24000Y150000D02*X26000D01*
X25000Y151000D02*Y149000D01*
X120000Y177000D02*X122000D01*
X121000Y178000D02*Y176000D01*
X179000Y177000D02*X181000D01*
X180000Y178000D02*Y176000D01*
X146270Y160000D02*X149350D01*
X146270D02*X147425Y161155D01*
X146270Y162310D01*
X149350D01*
X146655Y163234D02*X148965D01*
X146655D02*X146270Y163619D01*
Y164389D02*Y163619D01*
Y164389D02*X146655Y164774D01*
X148965D01*
X149350Y164389D02*X148965Y164774D01*
X149350Y164389D02*Y163619D01*
X148965Y163234D02*X149350Y163619D01*
X146270Y167238D02*Y165698D01*
Y167238D02*X146655Y167623D01*
X147425D01*
X147810Y167238D02*X147425Y167623D01*
X147810Y167238D02*Y166083D01*
X146270D02*X149350D01*
X147810D02*X149350Y167623D01*
X147810Y169702D02*Y168547D01*
X149350Y170087D02*Y168547D01*
X146270D02*X149350D01*
X146270Y170087D02*Y168547D01*
X154270Y152040D02*X154655Y152425D01*
X154270Y152040D02*Y150885D01*
X154655Y150500D02*X154270Y150885D01*
X154655Y150500D02*X155425D01*
X155810Y150885D01*
Y152040D02*Y150885D01*
Y152040D02*X156195Y152425D01*
X156965D01*
X157350Y152040D02*X156965Y152425D01*
X157350Y152040D02*Y150885D01*
X156965Y150500D02*X157350Y150885D01*
X155810Y154504D02*Y153349D01*
X157350Y154889D02*Y153349D01*
X154270D02*X157350D01*
X154270Y154889D02*Y153349D01*
Y155813D02*X157350D01*
X154270D02*X154655D01*
X156580Y157738D01*
X154270D02*X157350D01*
X154270Y160202D02*X154655Y160587D01*
X154270Y160202D02*Y159047D01*
X154655Y158662D02*X154270Y159047D01*
X154655Y158662D02*X155425D01*
X155810Y159047D01*
Y160202D02*Y159047D01*
Y160202D02*X156195Y160587D01*
X156965D01*
X157350Y160202D02*X156965Y160587D01*
X157350Y160202D02*Y159047D01*
X156965Y158662D02*X157350Y159047D01*
X154270Y162281D02*Y161511D01*
Y161896D02*X157350D01*
Y162281D02*Y161511D01*
X154270Y164745D02*Y163205D01*
Y163975D02*X157350D01*
X154270Y166439D02*Y165669D01*
Y166054D02*X157350D01*
Y166439D02*Y165669D01*
X154270Y167363D02*X156580D01*
X157350Y168133D01*
X156580Y168903D01*
X154270D02*X156580D01*
X155810Y170982D02*Y169827D01*
X157350Y171367D02*Y169827D01*
X154270D02*X157350D01*
X154270Y171367D02*Y169827D01*
G54D102*X348500Y39500D02*X348520Y91500D01*
X277200D02*Y39500D01*
X348500D01*
X277200Y91500D02*X348500D01*
G54D100*X255273Y42400D02*X263673D01*
X255273Y33600D02*X263673D01*
X253873Y40560D03*
X259607Y74755D02*X260393D01*
X259607Y69245D02*X260393D01*
X348800Y77000D02*Y37000D01*
X318800Y77000D02*Y37000D01*
X323200Y77000D02*Y37000D01*
X318800D02*X348800D01*
X318800Y77000D02*X348800D01*
G54D102*X348500Y97000D02*X348520Y149000D01*
X277200D02*Y97000D01*
X348500D01*
X277200Y149000D02*X348500D01*
G54D100*X263755Y87893D02*Y87107D01*
X258245Y87893D02*Y87107D01*
X348800Y157000D02*Y117000D01*
X318800Y157000D02*Y117000D01*
X323200Y157000D02*Y117000D01*
X318800D02*X348800D01*
X318800Y157000D02*X348800D01*
X256745Y23893D02*Y23107D01*
X262255Y23893D02*Y23107D01*
X298245Y19393D02*Y18607D01*
X303755Y19393D02*Y18607D01*
X289245Y19893D02*Y19107D01*
X294755Y19893D02*Y19107D01*
X280755Y19893D02*Y19107D01*
X275245Y19893D02*Y19107D01*
X255800Y157400D02*X264200D01*
X255800Y148600D02*X264200D01*
X254400Y155560D03*
X274600Y36500D02*X294300D01*
X274600Y28500D02*X294300D01*
Y36500D02*Y28500D01*
X274600Y36500D02*Y28500D01*
X287500Y36500D02*Y28500D01*
X348800Y117000D02*Y77000D01*
X318800Y117000D02*Y77000D01*
X323200Y117000D02*Y77000D01*
X318800D02*X348800D01*
X318800Y117000D02*X348800D01*
X10200Y52500D02*X40200D01*
X10200Y92500D02*X40200D01*
X35800D02*Y52500D01*
X40200Y92500D02*Y52500D01*
X10200Y92500D02*Y52500D01*
X36800Y160100D02*X45200D01*
X36800Y168900D02*X45200D01*
X46600Y161940D03*
X16064Y152755D02*X16850D01*
X16064Y147245D02*X16850D01*
X45298Y178893D02*Y178107D01*
X39788Y178893D02*Y178107D01*
X121400Y146050D02*X140600D01*
X121400Y173950D02*X140600D01*
X121400D02*Y146050D01*
X139000Y173950D02*Y146050D01*
X118500Y184750D02*Y146250D01*
X49500Y184750D02*Y146250D01*
X118500D01*
X49500Y184750D02*X118500D01*
X10200Y92500D02*X40200D01*
X10200Y132500D02*X40200D01*
X35800D02*Y92500D01*
X40200Y132500D02*Y92500D01*
X10200Y132500D02*Y92500D01*
X28000Y154800D02*Y135100D01*
X36000Y154800D02*Y135100D01*
X28000Y154800D02*X36000D01*
X28000Y135100D02*X36000D01*
X28000Y148000D02*X36000D01*
X16064Y143255D02*X16850D01*
X16064Y137745D02*X16850D01*
X91150Y53255D02*X91936D01*
X91150Y47745D02*X91936D01*
X91107Y61255D02*X91893D01*
X91107Y55745D02*X91893D01*
X117500Y91500D02*Y72500D01*
X86500Y91500D02*X117500D01*
X86500D02*Y72500D01*
X104500D02*X117500D01*
X86500D02*X99500D01*
X104500D02*G75*G03X99500Y72500I-2500J0D01*G01*
X118107Y133745D02*X118893D01*
X118107Y139255D02*X118893D01*
X137400Y129700D02*Y121300D01*
X128600Y129700D02*Y121300D01*
X135560Y131100D03*
X118107Y130255D02*X118893D01*
X118107Y124745D02*X118893D01*
X112600Y118000D02*X126500D01*
X112600D02*Y105200D01*
X126500D01*
Y118000D02*Y105200D01*
X120245Y81893D02*Y81107D01*
X125755Y81893D02*Y81107D01*
X181755Y72936D02*Y72150D01*
X176245Y72936D02*Y72150D01*
X131064Y10755D02*X131850D01*
X131064Y5245D02*X131850D01*
X171150D02*X171936D01*
X171150Y10755D02*X171936D01*
X120900Y43950D02*X140100D01*
X120900Y16050D02*X140100D01*
Y43950D02*Y16050D01*
X122500Y43950D02*Y16050D01*
X113564Y95745D02*X114350D01*
X113564Y101255D02*X114350D01*
X92107Y95745D02*X92893D01*
X92107Y101255D02*X92893D01*
X91150Y63745D02*X91936D01*
X91150Y69255D02*X91936D01*
G54D102*X10000Y50000D02*X81300D01*
X10000Y110000D02*X81300D01*
Y50000D01*
X10000Y110000D02*X9980Y50000D01*
G54D100*X118000Y43750D02*Y5250D01*
X49000Y43750D02*Y5250D01*
X118000D01*
X49000Y43750D02*X118000D01*
X36800Y33600D02*X45200D01*
X36800Y42400D02*X45200D01*
X46600Y35440D03*
X39745Y23893D02*Y23107D01*
X45255Y23893D02*Y23107D01*
X275500Y160500D02*X305500D01*
Y180500D02*Y160500D01*
X275500Y180500D02*X305500D01*
X275500D02*Y160500D01*
X285500Y170500D02*Y160500D01*
X275500Y170500D02*X285500D01*
X129107Y179202D02*X129893D01*
X129107Y184712D02*X129893D01*
X262755Y166936D02*Y166150D01*
X257245Y166936D02*Y166150D01*
X160900Y43950D02*X180100D01*
X160900Y16050D02*X180100D01*
Y43950D02*Y16050D01*
X162500Y43950D02*Y16050D01*
X168000Y95000D02*Y61000D01*
X137000Y95000D02*X168000D01*
X137000D02*Y61000D01*
X155000D02*X168000D01*
X137000D02*X150000D01*
X155000D02*G75*G03X150000Y61000I-2500J0D01*G01*
X145397Y46740D02*X157995D01*
Y32960D01*
X145397D02*X157995D01*
X145397Y46740D02*Y32960D01*
X148800Y58400D02*X157200D01*
X148800Y49600D02*X157200D01*
X147400Y56560D03*
X170607Y184755D02*X171393D01*
X170607Y179245D02*X171393D01*
X183000Y184750D02*Y146250D01*
X252000Y184750D02*Y146250D01*
X183000Y184750D02*X252000D01*
X183000Y146250D02*X252000D01*
X206741Y124799D02*Y112201D01*
X199259D02*X206741D01*
X199259Y124799D02*Y112201D01*
Y124799D02*X206741D01*
Y141299D02*Y128701D01*
X199259D02*X206741D01*
X199259Y141299D02*Y128701D01*
Y141299D02*X206741D01*
G54D103*X230121Y125379D02*Y101521D01*
Y125379D02*X256879D01*
Y98621D01*
X233021D02*X256879D01*
X233021D02*X230121Y101521D01*
X233021Y100521D02*G75*G03X233021Y100521I0J1000D01*G01*
G54D100*X250607Y142755D02*X251393D01*
X250607Y137245D02*X251393D01*
X221745Y136393D02*Y135607D01*
X227255Y136393D02*Y135607D01*
X240607Y86755D02*X241393D01*
X240607Y81245D02*X241393D01*
X183000Y43750D02*Y5250D01*
X252000Y43750D02*Y5250D01*
X183000Y43750D02*X252000D01*
X183000Y5250D02*X252000D01*
X245650Y68745D02*X246436D01*
X245650Y74255D02*X246436D01*
X212110Y81299D02*Y68701D01*
Y81299D02*X225890D01*
Y68701D01*
X212110D02*X225890D01*
X216362Y64350D02*X261638D01*
Y45650D01*
X216362D01*
Y64350D01*
X161400Y146050D02*X180600D01*
X161400Y173950D02*X180600D01*
X161400D02*Y146050D01*
X179000Y173950D02*Y146050D01*
X86157Y143185D02*Y103815D01*
X107811Y143185D02*Y103815D01*
X101905Y143185D02*Y103815D01*
X86157D02*X107811D01*
X86157Y143185D02*X107811D01*
X46008Y116008D02*X52504D01*
X65496D02*X71992D01*
Y135496D02*Y116008D01*
X46008Y135496D02*Y116008D01*
X71992Y135496D02*X65496Y141992D01*
X46008Y135496D02*X52504Y141992D01*
X49000Y135000D02*X53000D01*
X51000Y137000D02*Y133000D01*
X194610Y81299D02*Y68701D01*
Y81299D02*X208390D01*
Y68701D01*
X194610D02*X208390D01*
X159500Y110500D02*X193500D01*
Y141500D02*Y110500D01*
X159500Y141500D02*X193500D01*
X159500Y123500D02*Y110500D01*
Y141500D02*Y128500D01*
Y123500D02*G75*G03X159500Y128500I0J2500D01*G01*
X218255Y132893D02*Y132107D01*
X212745Y132893D02*Y132107D01*
X140386Y132451D02*Y119853D01*
Y132451D02*X154166D01*
Y119853D01*
X140386D02*X154166D01*
X180201Y105390D02*X192799D01*
Y91610D01*
X180201D02*X192799D01*
X180201Y105390D02*Y91610D01*
X131701Y106241D02*X144299D01*
Y98759D01*
X131701D02*X144299D01*
X131701Y106241D02*Y98759D01*
X149201Y106241D02*X161799D01*
Y98759D01*
X149201D01*
Y106241D01*
X170607Y100745D02*X171393D01*
X170607Y106255D02*X171393D01*
G54D101*X308000Y179000D02*X309500D01*
Y175500D01*
X309000Y175000D02*X309500Y175500D01*
X308500Y175000D02*X309000D01*
X308000Y175500D02*X308500Y175000D01*
X310700Y178500D02*X311200Y179000D01*
X312200D01*
X312700Y178500D01*
Y175500D01*
X312200Y175000D02*X312700Y175500D01*
X311200Y175000D02*X312200D01*
X310700Y175500D02*X311200Y175000D01*
Y177000D02*X312700D01*
X139807Y183693D02*Y179693D01*
X141307Y183693D02*X141807Y183193D01*
Y180193D01*
X141307Y179693D02*X141807Y180193D01*
X139307Y179693D02*X141307D01*
X139307Y183693D02*X141307D01*
X143507Y179693D02*X144507D01*
X144007Y183693D02*Y179693D01*
X143007Y182693D02*X144007Y183693D01*
X145707Y183193D02*X146207Y183693D01*
X147707D01*
X148207Y183193D01*
Y182193D01*
X145707Y179693D02*X148207Y182193D01*
X145707Y179693D02*X148207D01*
X153764Y183650D02*Y179650D01*
X155264Y183650D02*X155764Y183150D01*
Y180150D01*
X155264Y179650D02*X155764Y180150D01*
X153264Y179650D02*X155264D01*
X153264Y183650D02*X155264D01*
X157464Y179650D02*X158464D01*
X157964Y183650D02*Y179650D01*
X156964Y182650D02*X157964Y183650D01*
X159664Y183150D02*X160164Y183650D01*
X161164D01*
X161664Y183150D01*
Y180150D01*
X161164Y179650D02*X161664Y180150D01*
X160164Y179650D02*X161164D01*
X159664Y180150D02*X160164Y179650D01*
Y181650D02*X161664D01*
X255000Y182000D02*X257000D01*
X256000D02*Y178000D01*
X258200Y180000D02*X260200Y182000D01*
X258200Y180000D02*X260700D01*
X260200Y182000D02*Y178000D01*
X142500Y176750D02*X144000D01*
X144375Y176375D01*
Y175625D01*
X144000Y175250D02*X144375Y175625D01*
X142875Y175250D02*X144000D01*
X142875Y176750D02*Y173750D01*
Y175250D02*X144375Y173750D01*
X145650D02*X146400D01*
X146025Y176750D02*Y173750D01*
X145275Y176000D02*X146025Y176750D01*
X148425D02*X148800Y176375D01*
X147675Y176750D02*X148425D01*
X147300Y176375D02*X147675Y176750D01*
X147300Y176375D02*Y174125D01*
X147675Y173750D01*
X148425Y175250D02*X148800Y174875D01*
X147300Y175250D02*X148425D01*
X147675Y173750D02*X148425D01*
X148800Y174125D01*
Y174875D02*Y174125D01*
X152500Y176730D02*X154040D01*
X154425Y176345D01*
Y175575D01*
X154040Y175190D02*X154425Y175575D01*
X152885Y175190D02*X154040D01*
X152885Y176730D02*Y173650D01*
Y175190D02*X154425Y173650D01*
X155734D02*X156504D01*
X156119Y176730D02*Y173650D01*
X155349Y175960D02*X156119Y176730D01*
X157428Y173650D02*X159353Y175575D01*
Y176730D02*Y175575D01*
X157428Y176730D02*X159353D01*
X149500Y112000D02*X151500D01*
X152000Y111500D01*
Y110500D01*
X151500Y110000D02*X152000Y110500D01*
X150000Y110000D02*X151500D01*
X150000Y112000D02*Y108000D01*
Y110000D02*X152000Y108000D01*
X153200D02*X155700Y110500D01*
Y112000D02*Y110500D01*
X153200Y112000D02*X155700D01*
X169807Y94650D02*X171307D01*
X169307Y95150D02*X169807Y94650D01*
X169307Y98150D02*Y95150D01*
Y98150D02*X169807Y98650D01*
X171307D01*
X172507Y96650D02*X174507Y98650D01*
X172507Y96650D02*X175007D01*
X174507Y98650D02*Y94650D01*
X211730Y122000D02*Y120460D01*
X211345Y120075D01*
X210575D02*X211345D01*
X210190Y120460D02*X210575Y120075D01*
X210190Y121615D02*Y120460D01*
X208650Y121615D02*X211730D01*
X210190D02*X208650Y120075D01*
Y118766D02*Y117996D01*
Y118381D02*X211730D01*
X210960Y119151D02*X211730Y118381D01*
X211345Y117072D02*X211730Y116687D01*
Y115917D01*
X211345Y115532D01*
X209035D02*X211345D01*
X208650Y115917D02*X209035Y115532D01*
X208650Y116687D02*Y115917D01*
X209035Y117072D02*X208650Y116687D01*
X210190D02*Y115532D01*
X197730Y137000D02*Y135460D01*
X197345Y135075D01*
X196575D02*X197345D01*
X196190Y135460D02*X196575Y135075D01*
X196190Y136615D02*Y135460D01*
X194650Y136615D02*X197730D01*
X196190D02*X194650Y135075D01*
Y133766D02*Y132996D01*
Y133381D02*X197730D01*
X196960Y134151D02*X197730Y133381D01*
X197345Y132072D02*X197730Y131687D01*
Y130532D01*
X197345Y130147D01*
X196575D02*X197345D01*
X194650Y132072D02*X196575Y130147D01*
X194650Y132072D02*Y130147D01*
X199000Y82500D02*X200500D01*
X198500Y83000D02*X199000Y82500D01*
X198500Y86000D02*Y83000D01*
Y86000D02*X199000Y86500D01*
X200500D01*
X201700Y86000D02*X202200Y86500D01*
X203200D01*
X203700Y86000D01*
Y83000D01*
X203200Y82500D02*X203700Y83000D01*
X202200Y82500D02*X203200D01*
X201700Y83000D02*X202200Y82500D01*
Y84500D02*X203700D01*
X238500Y110000D02*X242000D01*
X242500Y110500D01*
Y111500D02*Y110500D01*
Y111500D02*X242000Y112000D01*
X238500D02*X242000D01*
X238500Y114700D02*X239000Y115200D01*
X238500Y114700D02*Y113700D01*
X239000Y113200D02*X238500Y113700D01*
X239000Y113200D02*X242000D01*
X242500Y113700D01*
X240500Y114700D02*X241000Y115200D01*
X240500Y114700D02*Y113200D01*
X242500Y114700D02*Y113700D01*
Y114700D02*X242000Y115200D01*
X241000D02*X242000D01*
X229850Y138650D02*X231350D01*
X229350Y139150D02*X229850Y138650D01*
X229350Y142150D02*Y139150D01*
Y142150D02*X229850Y142650D01*
X231350D01*
X232550Y138650D02*X234550Y140650D01*
Y142150D02*Y140650D01*
X234050Y142650D02*X234550Y142150D01*
X233050Y142650D02*X234050D01*
X232550Y142150D02*X233050Y142650D01*
X232550Y142150D02*Y141150D01*
X233050Y140650D01*
X234550D01*
X29000Y161000D02*Y157000D01*
X30500Y161000D02*X31000Y160500D01*
Y157500D01*
X30500Y157000D02*X31000Y157500D01*
X28500Y157000D02*X30500D01*
X28500Y161000D02*X30500D01*
X32200Y157000D02*X34200Y159000D01*
Y160500D02*Y159000D01*
X33700Y161000D02*X34200Y160500D01*
X32700Y161000D02*X33700D01*
X32200Y160500D02*X32700Y161000D01*
X32200Y160500D02*Y159500D01*
X32700Y159000D01*
X34200D01*
X23687Y136890D02*Y133850D01*
X24827Y136890D02*X25207Y136510D01*
Y134230D01*
X24827Y133850D02*X25207Y134230D01*
X23307Y133850D02*X24827D01*
X23307Y136890D02*X24827D01*
X26499Y133850D02*X27259D01*
X26879Y136890D02*Y133850D01*
X26119Y136130D02*X26879Y136890D01*
X21144Y157390D02*Y154350D01*
X22284Y157390D02*X22664Y157010D01*
Y154730D01*
X22284Y154350D02*X22664Y154730D01*
X20764Y154350D02*X22284D01*
X20764Y157390D02*X22284D01*
X23576Y157010D02*X23956Y157390D01*
X25096D01*
X25476Y157010D01*
Y156250D01*
X23576Y154350D02*X25476Y156250D01*
X23576Y154350D02*X25476D01*
X37650Y183564D02*Y181564D01*
X37150Y181064D01*
X36150D02*X37150D01*
X35650Y181564D02*X36150Y181064D01*
X35650Y183064D02*Y181564D01*
X33650Y183064D02*X37650D01*
X35650D02*X33650Y181064D01*
X37150Y179864D02*X37650Y179364D01*
Y177864D01*
X37150Y177364D01*
X36150D02*X37150D01*
X33650Y179864D02*X36150Y177364D01*
X33650Y179864D02*Y177364D01*
Y175664D02*Y174664D01*
Y175164D02*X37650D01*
X36650Y176164D02*X37650Y175164D01*
X77658Y137355D02*Y132700D01*
X78323Y132035D01*
X79653D01*
X80318Y132700D01*
Y137355D02*Y132700D01*
X82579Y132035D02*X83909D01*
X83244Y137355D02*Y132035D01*
X81914Y136025D02*X83244Y137355D01*
X43000Y139000D02*X44500D01*
X42500Y139500D02*X43000Y139000D01*
X42500Y142500D02*Y139500D01*
Y142500D02*X43000Y143000D01*
X44500D01*
X46200Y139000D02*X47200D01*
X46700Y143000D02*Y139000D01*
X45700Y142000D02*X46700Y143000D01*
X40600Y157950D02*Y153950D01*
X42100Y157950D02*X42600Y157450D01*
Y154450D01*
X42100Y153950D02*X42600Y154450D01*
X40100Y153950D02*X42100D01*
X40100Y157950D02*X42100D01*
X43800Y153950D02*X46300Y156450D01*
Y157950D02*Y156450D01*
X43800Y157950D02*X46300D01*
X74000Y144000D02*X76000D01*
X75000D02*Y140000D01*
X77200Y143500D02*X77700Y144000D01*
X78700D01*
X79200Y143500D01*
Y140500D01*
X78700Y140000D02*X79200Y140500D01*
X77700Y140000D02*X78700D01*
X77200Y140500D02*X77700Y140000D01*
Y142000D02*X79200D01*
X42000Y9000D02*X44000D01*
X43000D02*Y5000D01*
X45700D02*X46700D01*
X46200Y9000D02*Y5000D01*
X45200Y8000D02*X46200Y9000D01*
X39807Y15650D02*X41807D01*
X42307Y15150D01*
Y14150D01*
X41807Y13650D02*X42307Y14150D01*
X40307Y13650D02*X41807D01*
X40307Y15650D02*Y11650D01*
Y13650D02*X42307Y11650D01*
X43507D02*X45507Y13650D01*
Y15150D02*Y13650D01*
X45007Y15650D02*X45507Y15150D01*
X44007Y15650D02*X45007D01*
X43507Y15150D02*X44007Y15650D01*
X43507Y15150D02*Y14150D01*
X44007Y13650D01*
X45507D01*
X28100Y41950D02*Y37950D01*
X29600Y41950D02*X30100Y41450D01*
Y38450D01*
X29600Y37950D02*X30100Y38450D01*
X27600Y37950D02*X29600D01*
X27600Y41950D02*X29600D01*
X31300Y41450D02*X31800Y41950D01*
X32800D01*
X33300Y41450D01*
Y38450D01*
X32800Y37950D02*X33300Y38450D01*
X31800Y37950D02*X32800D01*
X31300Y38450D02*X31800Y37950D01*
Y39950D02*X33300D01*
X120543Y92230D02*X122083D01*
X122468Y91845D01*
Y91075D01*
X122083Y90690D02*X122468Y91075D01*
X120928Y90690D02*X122083D01*
X120928Y92230D02*Y89150D01*
Y90690D02*X122468Y89150D01*
X123392Y90690D02*X124932Y92230D01*
X123392Y90690D02*X125317D01*
X124932Y92230D02*Y89150D01*
X186000Y90010D02*X187980D01*
X188475Y89515D01*
Y88525D01*
X187980Y88030D02*X188475Y88525D01*
X186495Y88030D02*X187980D01*
X186495Y90010D02*Y86050D01*
Y88030D02*X188475Y86050D01*
X189663Y86545D02*X190158Y86050D01*
X189663Y87535D02*Y86545D01*
Y87535D02*X190158Y88030D01*
X191148D01*
X191643Y87535D01*
Y86545D01*
X191148Y86050D02*X191643Y86545D01*
X190158Y86050D02*X191148D01*
X189663Y88525D02*X190158Y88030D01*
X189663Y89515D02*Y88525D01*
Y89515D02*X190158Y90010D01*
X191148D01*
X191643Y89515D01*
Y88525D01*
X191148Y88030D02*X191643Y88525D01*
X100902Y96650D02*X102402D01*
X100402Y97150D02*X100902Y96650D01*
X100402Y100150D02*Y97150D01*
Y100150D02*X100902Y100650D01*
X102402D01*
X103602Y100150D02*X104102Y100650D01*
X105602D01*
X106102Y100150D01*
Y99150D01*
X103602Y96650D02*X106102Y99150D01*
X103602Y96650D02*X106102D01*
X100764Y64650D02*X102264D01*
X100264Y65150D02*X100764Y64650D01*
X100264Y68150D02*Y65150D01*
Y68150D02*X100764Y68650D01*
X102264D01*
X103964Y64650D02*X104964D01*
X104464Y68650D02*Y64650D01*
X103464Y67650D02*X104464Y68650D01*
X106164D02*X108164D01*
X106164D02*Y66650D01*
X106664Y67150D01*
X107664D01*
X108164Y66650D01*
Y65150D01*
X107664Y64650D02*X108164Y65150D01*
X106664Y64650D02*X107664D01*
X106164Y65150D02*X106664Y64650D01*
X170650Y66236D02*Y64736D01*
X171150Y66736D02*X170650Y66236D01*
X171150Y66736D02*X174150D01*
X174650Y66236D01*
Y64736D01*
X170650Y63036D02*Y62036D01*
Y62536D02*X174650D01*
X173650Y63536D02*X174650Y62536D01*
X171150Y60836D02*X170650Y60336D01*
X171150Y60836D02*X172150D01*
X172650Y60336D01*
Y59336D01*
X172150Y58836D01*
X171150D02*X172150D01*
X170650Y59336D02*X171150Y58836D01*
X170650Y60336D02*Y59336D01*
X173150Y60836D02*X172650Y60336D01*
X173150Y60836D02*X174150D01*
X174650Y60336D01*
Y59336D01*
X174150Y58836D01*
X173150D02*X174150D01*
X172650Y59336D02*X173150Y58836D01*
X140764Y7650D02*Y3650D01*
X142264Y7650D02*X142764Y7150D01*
Y4150D01*
X142264Y3650D02*X142764Y4150D01*
X140264Y3650D02*X142264D01*
X140264Y7650D02*X142264D01*
X144464Y3650D02*X145464D01*
X144964Y7650D02*Y3650D01*
X143964Y6650D02*X144964Y7650D01*
X146664Y4150D02*X147164Y3650D01*
X146664Y7150D02*Y4150D01*
Y7150D02*X147164Y7650D01*
X148164D01*
X148664Y7150D01*
Y4150D01*
X148164Y3650D02*X148664Y4150D01*
X147164Y3650D02*X148164D01*
X146664Y4650D02*X148664Y6650D01*
X155264Y7650D02*Y3650D01*
X156764Y7650D02*X157264Y7150D01*
Y4150D01*
X156764Y3650D02*X157264Y4150D01*
X154764Y3650D02*X156764D01*
X154764Y7650D02*X156764D01*
X158964Y3650D02*X159964D01*
X159464Y7650D02*Y3650D01*
X158464Y6650D02*X159464Y7650D01*
X161664Y3650D02*X162664D01*
X162164Y7650D02*Y3650D01*
X161164Y6650D02*X162164Y7650D01*
X126000Y50500D02*X128000D01*
X128500Y50000D01*
Y49000D01*
X128000Y48500D02*X128500Y49000D01*
X126500Y48500D02*X128000D01*
X126500Y50500D02*Y46500D01*
Y48500D02*X128500Y46500D01*
X130200D02*X131200D01*
X130700Y50500D02*Y46500D01*
X129700Y49500D02*X130700Y50500D01*
X132400Y48500D02*X134400Y50500D01*
X132400Y48500D02*X134900D01*
X134400Y50500D02*Y46500D01*
X128750Y66250D02*Y62750D01*
X129250Y62250D01*
X130250D01*
X130750Y62750D01*
Y66250D02*Y62750D01*
X131950Y65750D02*X132450Y66250D01*
X133950D01*
X134450Y65750D01*
Y64750D01*
X131950Y62250D02*X134450Y64750D01*
X131950Y62250D02*X134450D01*
X99945Y51650D02*X101945D01*
X102445Y51150D01*
Y50150D01*
X101945Y49650D02*X102445Y50150D01*
X100445Y49650D02*X101945D01*
X100445Y51650D02*Y47650D01*
Y49650D02*X102445Y47650D01*
X103645Y51150D02*X104145Y51650D01*
X105645D01*
X106145Y51150D01*
Y50150D01*
X103645Y47650D02*X106145Y50150D01*
X103645Y47650D02*X106145D01*
X99936Y60650D02*X101936D01*
X102436Y60150D01*
Y59150D01*
X101936Y58650D02*X102436Y59150D01*
X100436Y58650D02*X101936D01*
X100436Y60650D02*Y56650D01*
Y58650D02*X102436Y56650D01*
X104136D02*X105136D01*
X104636Y60650D02*Y56650D01*
X103636Y59650D02*X104636Y60650D01*
X269500Y65500D02*X271000D01*
Y62000D01*
X270500Y61500D02*X271000Y62000D01*
X270000Y61500D02*X270500D01*
X269500Y62000D02*X270000Y61500D01*
X272200Y63500D02*X274200Y65500D01*
X272200Y63500D02*X274700D01*
X274200Y65500D02*Y61500D01*
X269436Y69650D02*X270936D01*
X268936Y70150D02*X269436Y69650D01*
X268936Y73150D02*Y70150D01*
Y73150D02*X269436Y73650D01*
X270936D01*
X272136Y70150D02*X272636Y69650D01*
X272136Y71150D02*Y70150D01*
Y71150D02*X272636Y71650D01*
X273636D01*
X274136Y71150D01*
Y70150D01*
X273636Y69650D02*X274136Y70150D01*
X272636Y69650D02*X273636D01*
X272136Y72150D02*X272636Y71650D01*
X272136Y73150D02*Y72150D01*
Y73150D02*X272636Y73650D01*
X273636D01*
X274136Y73150D01*
Y72150D01*
X273636Y71650D02*X274136Y72150D01*
X184500Y50000D02*X186500D01*
X185500D02*Y46000D01*
X187700Y49500D02*X188200Y50000D01*
X189700D01*
X190200Y49500D01*
Y48500D01*
X187700Y46000D02*X190200Y48500D01*
X187700Y46000D02*X190200D01*
X166500Y50500D02*X168500D01*
X169000Y50000D01*
Y49000D01*
X168500Y48500D02*X169000Y49000D01*
X167000Y48500D02*X168500D01*
X167000Y50500D02*Y46500D01*
Y48500D02*X169000Y46500D01*
X170700D02*X171700D01*
X171200Y50500D02*Y46500D01*
X170200Y49500D02*X171200Y50500D01*
X172900D02*X174900D01*
X172900D02*Y48500D01*
X173400Y49000D01*
X174400D01*
X174900Y48500D01*
Y47000D01*
X174400Y46500D02*X174900Y47000D01*
X173400Y46500D02*X174400D01*
X172900Y47000D02*X173400Y46500D01*
X148848Y30074D02*X150848D01*
X151348Y29574D01*
Y28574D01*
X150848Y28074D02*X151348Y28574D01*
X149348Y28074D02*X150848D01*
X149348Y30074D02*Y26074D01*
Y28074D02*X151348Y26074D01*
X152548Y30074D02*X154548D01*
X152548D02*Y28074D01*
X153048Y28574D01*
X154048D01*
X154548Y28074D01*
Y26574D01*
X154048Y26074D02*X154548Y26574D01*
X153048Y26074D02*X154048D01*
X152548Y26574D02*X153048Y26074D01*
X140600Y59950D02*Y55950D01*
X142100Y59950D02*X142600Y59450D01*
Y56450D01*
X142100Y55950D02*X142600Y56450D01*
X140100Y55950D02*X142100D01*
X140100Y59950D02*X142100D01*
X143800Y57950D02*X145800Y59950D01*
X143800Y57950D02*X146300D01*
X145800Y59950D02*Y55950D01*
X309650Y23693D02*Y21693D01*
X309150Y21193D01*
X308150D02*X309150D01*
X307650Y21693D02*X308150Y21193D01*
X307650Y23193D02*Y21693D01*
X305650Y23193D02*X309650D01*
X307650D02*X305650Y21193D01*
Y19493D02*Y18493D01*
Y18993D02*X309650D01*
X308650Y19993D02*X309650Y18993D01*
X305650Y17293D02*X307650Y15293D01*
X309150D01*
X309650Y15793D02*X309150Y15293D01*
X309650Y16793D02*Y15793D01*
X309150Y17293D02*X309650Y16793D01*
X308150Y17293D02*X309150D01*
X308150D02*X307650Y16793D01*
Y15293D01*
X264000Y49000D02*Y48500D01*
X265000Y47500D01*
X266000Y48500D01*
Y49000D02*Y48500D01*
X265000Y47500D02*Y45000D01*
X267700D02*X268700D01*
X268200Y49000D02*Y45000D01*
X267200Y48000D02*X268200Y49000D01*
X267600Y40423D02*Y36423D01*
X269100Y40423D02*X269600Y39923D01*
Y36923D01*
X269100Y36423D02*X269600Y36923D01*
X267100Y36423D02*X269100D01*
X267100Y40423D02*X269100D01*
X270800D02*X272800D01*
X270800D02*Y38423D01*
X271300Y38923D01*
X272300D01*
X272800Y38423D01*
Y36923D01*
X272300Y36423D02*X272800Y36923D01*
X271300Y36423D02*X272300D01*
X270800Y36923D02*X271300Y36423D01*
X267650Y28193D02*Y26193D01*
X267150Y25693D01*
X266150D02*X267150D01*
X265650Y26193D02*X266150Y25693D01*
X265650Y27693D02*Y26193D01*
X263650Y27693D02*X267650D01*
X265650D02*X263650Y25693D01*
Y23993D02*Y22993D01*
Y23493D02*X267650D01*
X266650Y24493D02*X267650Y23493D01*
X264150Y21793D02*X263650Y21293D01*
X264150Y21793D02*X267150D01*
X267650Y21293D01*
Y20293D01*
X267150Y19793D01*
X264150D02*X267150D01*
X263650Y20293D02*X264150Y19793D01*
X263650Y21293D02*Y20293D01*
X264650Y21793D02*X266650Y19793D01*
X287650Y24279D02*Y22279D01*
X287150Y21779D01*
X286150D02*X287150D01*
X285650Y22279D02*X286150Y21779D01*
X285650Y23779D02*Y22279D01*
X283650Y23779D02*X287650D01*
X285650D02*X283650Y21779D01*
X287150Y20579D02*X287650Y20079D01*
Y18579D01*
X287150Y18079D01*
X286150D02*X287150D01*
X283650Y20579D02*X286150Y18079D01*
X283650Y20579D02*Y18079D01*
X284150Y16879D02*X283650Y16379D01*
X284150Y16879D02*X287150D01*
X287650Y16379D01*
Y15379D01*
X287150Y14879D01*
X284150D02*X287150D01*
X283650Y15379D02*X284150Y14879D01*
X283650Y16379D02*Y15379D01*
X284650Y16879D02*X286650Y14879D01*
X298000Y34500D02*Y30500D01*
X299500Y34500D02*X300000Y34000D01*
Y31000D01*
X299500Y30500D02*X300000Y31000D01*
X297500Y30500D02*X299500D01*
X297500Y34500D02*X299500D01*
X301700Y30500D02*X302700D01*
X302200Y34500D02*Y30500D01*
X301200Y33500D02*X302200Y34500D01*
X303900Y32500D02*X305900Y34500D01*
X303900Y32500D02*X306400D01*
X305900Y34500D02*Y30500D01*
X269650Y22650D02*Y21150D01*
X270150Y23150D02*X269650Y22650D01*
X270150Y23150D02*X273150D01*
X273650Y22650D01*
Y21150D01*
X269650Y19450D02*Y18450D01*
Y18950D02*X273650D01*
X272650Y19950D02*X273650Y18950D01*
X269650Y17250D02*X271650Y15250D01*
X273150D01*
X273650Y15750D02*X273150Y15250D01*
X273650Y16750D02*Y15750D01*
X273150Y17250D02*X273650Y16750D01*
X272150Y17250D02*X273150D01*
X272150D02*X271650Y16750D01*
Y15250D01*
X152000Y140500D02*Y137000D01*
X152500Y136500D01*
X153500D01*
X154000Y137000D01*
Y140500D02*Y137000D01*
X155200Y140500D02*X157200D01*
X155200D02*Y138500D01*
X155700Y139000D01*
X156700D01*
X157200Y138500D01*
Y137000D01*
X156700Y136500D02*X157200Y137000D01*
X155700Y136500D02*X156700D01*
X155200Y137000D02*X155700Y136500D01*
X141152Y138224D02*X143152D01*
X143652Y137724D01*
Y136724D01*
X143152Y136224D02*X143652Y136724D01*
X141652Y136224D02*X143152D01*
X141652Y138224D02*Y134224D01*
Y136224D02*X143652Y134224D01*
X145352D02*X146352D01*
X145852Y138224D02*Y134224D01*
X144852Y137224D02*X145852Y138224D01*
X148052Y134224D02*X149052D01*
X148552Y138224D02*Y134224D01*
X147552Y137224D02*X148552Y138224D01*
X209807Y144650D02*X211807D01*
X212307Y144150D01*
Y143150D01*
X211807Y142650D02*X212307Y143150D01*
X210307Y142650D02*X211807D01*
X210307Y144650D02*Y140650D01*
Y142650D02*X212307Y140650D01*
X214007D02*X215007D01*
X214507Y144650D02*Y140650D01*
X213507Y143650D02*X214507Y144650D01*
X216207Y141150D02*X216707Y140650D01*
X216207Y142150D02*Y141150D01*
Y142150D02*X216707Y142650D01*
X217707D01*
X218207Y142150D01*
Y141150D01*
X217707Y140650D02*X218207Y141150D01*
X216707Y140650D02*X217707D01*
X216207Y143150D02*X216707Y142650D01*
X216207Y144150D02*Y143150D01*
Y144150D02*X216707Y144650D01*
X217707D01*
X218207Y144150D01*
Y143150D01*
X217707Y142650D02*X218207Y143150D01*
X113385Y141150D02*X114540D01*
X113000Y141535D02*X113385Y141150D01*
X113000Y143845D02*Y141535D01*
Y143845D02*X113385Y144230D01*
X114540D01*
X115849Y141150D02*X116619D01*
X116234Y144230D02*Y141150D01*
X115464Y143460D02*X116234Y144230D01*
X117543Y143845D02*X117928Y144230D01*
X119083D01*
X119468Y143845D01*
Y143075D01*
X117543Y141150D02*X119468Y143075D01*
X117543Y141150D02*X119468D01*
X128100Y135950D02*Y131950D01*
X129600Y135950D02*X130100Y135450D01*
Y132450D01*
X129600Y131950D02*X130100Y132450D01*
X127600Y131950D02*X129600D01*
X127600Y135950D02*X129600D01*
X132800D02*X133300Y135450D01*
X131800Y135950D02*X132800D01*
X131300Y135450D02*X131800Y135950D01*
X131300Y135450D02*Y132450D01*
X131800Y131950D01*
X132800Y133950D02*X133300Y133450D01*
X131300Y133950D02*X132800D01*
X131800Y131950D02*X132800D01*
X133300Y132450D01*
Y133450D02*Y132450D01*
X121914Y98730D02*X123454D01*
X123839Y98345D01*
Y97575D01*
X123454Y97190D02*X123839Y97575D01*
X122299Y97190D02*X123454D01*
X122299Y98730D02*Y95650D01*
Y97190D02*X123839Y95650D01*
X124763Y98345D02*X125148Y98730D01*
X125918D01*
X126303Y98345D01*
Y96035D01*
X125918Y95650D02*X126303Y96035D01*
X125148Y95650D02*X125918D01*
X124763Y96035D02*X125148Y95650D01*
Y97190D02*X126303D01*
X129000Y97000D02*Y93500D01*
X129500Y93000D01*
X130500D01*
X131000Y93500D01*
Y97000D02*Y93500D01*
X132200Y95000D02*X134200Y97000D01*
X132200Y95000D02*X134700D01*
X134200Y97000D02*Y93000D01*
X135500Y112000D02*X137500D01*
X138000Y111500D01*
Y110500D01*
X137500Y110000D02*X138000Y110500D01*
X136000Y110000D02*X137500D01*
X136000Y112000D02*Y108000D01*
Y110000D02*X138000Y108000D01*
X140700Y112000D02*X141200Y111500D01*
X139700Y112000D02*X140700D01*
X139200Y111500D02*X139700Y112000D01*
X139200Y111500D02*Y108500D01*
X139700Y108000D01*
X140700Y110000D02*X141200Y109500D01*
X139200Y110000D02*X140700D01*
X139700Y108000D02*X140700D01*
X141200Y108500D01*
Y109500D02*Y108500D01*
X114850Y122880D02*X116390D01*
X116775Y122495D01*
Y121725D01*
X116390Y121340D02*X116775Y121725D01*
X115235Y121340D02*X116390D01*
X115235Y122880D02*Y119800D01*
Y121340D02*X116775Y119800D01*
X117699Y122495D02*X118084Y122880D01*
X119239D01*
X119624Y122495D01*
Y121725D01*
X117699Y119800D02*X119624Y121725D01*
X117699Y119800D02*X119624D01*
X120548Y122495D02*X120933Y122880D01*
X121703D01*
X122088Y122495D01*
Y120185D01*
X121703Y119800D02*X122088Y120185D01*
X120933Y119800D02*X121703D01*
X120548Y120185D02*X120933Y119800D01*
Y121340D02*X122088D01*
X122500Y103230D02*Y100535D01*
X122885Y100150D01*
X123655D01*
X124040Y100535D01*
Y103230D02*Y100535D01*
X124964Y102845D02*X125349Y103230D01*
X126119D01*
X126504Y102845D01*
Y100535D01*
X126119Y100150D02*X126504Y100535D01*
X125349Y100150D02*X126119D01*
X124964Y100535D02*X125349Y100150D01*
Y101690D02*X126504D01*
X269064Y171607D02*Y169607D01*
X268564Y169107D01*
X267564D02*X268564D01*
X267064Y169607D02*X267564Y169107D01*
X267064Y171107D02*Y169607D01*
X265064Y171107D02*X269064D01*
X267064D02*X265064Y169107D01*
X268564Y167907D02*X269064Y167407D01*
Y165907D01*
X268564Y165407D01*
X267564D02*X268564D01*
X265064Y167907D02*X267564Y165407D01*
X265064Y167907D02*Y165407D01*
X268564Y164207D02*X269064Y163707D01*
Y162207D01*
X268564Y161707D01*
X267564D02*X268564D01*
X265064Y164207D02*X267564Y161707D01*
X265064Y164207D02*Y161707D01*
X267100Y151950D02*Y147950D01*
X268600Y151950D02*X269100Y151450D01*
Y148450D01*
X268600Y147950D02*X269100Y148450D01*
X266600Y147950D02*X268600D01*
X266600Y151950D02*X268600D01*
X270300Y148450D02*X270800Y147950D01*
X270300Y149450D02*Y148450D01*
Y149450D02*X270800Y149950D01*
X271800D01*
X272300Y149450D01*
Y148450D01*
X271800Y147950D02*X272300Y148450D01*
X270800Y147950D02*X271800D01*
X270300Y150450D02*X270800Y149950D01*
X270300Y151450D02*Y150450D01*
Y151450D02*X270800Y151950D01*
X271800D01*
X272300Y151450D01*
Y150450D01*
X271800Y149950D02*X272300Y150450D01*
X263307Y138150D02*X264807D01*
X262807Y138650D02*X263307Y138150D01*
X262807Y141650D02*Y138650D01*
Y141650D02*X263307Y142150D01*
X264807D01*
X266507Y138150D02*X267507D01*
X267007Y142150D02*Y138150D01*
X266007Y141150D02*X267007Y142150D01*
X268707Y138650D02*X269207Y138150D01*
X268707Y141650D02*Y138650D01*
Y141650D02*X269207Y142150D01*
X270207D01*
X270707Y141650D01*
Y138650D01*
X270207Y138150D02*X270707Y138650D01*
X269207Y138150D02*X270207D01*
X268707Y139150D02*X270707Y141150D01*
X248893Y82150D02*X250393D01*
X248393Y82650D02*X248893Y82150D01*
X248393Y85650D02*Y82650D01*
Y85650D02*X248893Y86150D01*
X250393D01*
X252093Y82150D02*X253093D01*
X252593Y86150D02*Y82150D01*
X251593Y85150D02*X252593Y86150D01*
X254293Y85650D02*X254793Y86150D01*
X255793D01*
X256293Y85650D01*
Y82650D01*
X255793Y82150D02*X256293Y82650D01*
X254793Y82150D02*X255793D01*
X254293Y82650D02*X254793Y82150D01*
Y84150D02*X256293D01*
X232764Y69150D02*X234264D01*
X232264Y69650D02*X232764Y69150D01*
X232264Y72650D02*Y69650D01*
Y72650D02*X232764Y73150D01*
X234264D01*
X235464Y69150D02*X237964Y71650D01*
Y73150D02*Y71650D01*
X235464Y73150D02*X237964D01*
X215456Y82725D02*X216956D01*
X214956Y83225D02*X215456Y82725D01*
X214956Y86225D02*Y83225D01*
Y86225D02*X215456Y86725D01*
X216956D01*
X218656Y82725D02*X219656D01*
X219156Y86725D02*Y82725D01*
X218156Y85725D02*X219156Y86725D01*
X221356Y82725D02*X222356D01*
X221856Y86725D02*Y82725D01*
X220856Y85725D02*X221856Y86725D01*
X269500Y118500D02*X271000D01*
Y115000D01*
X270500Y114500D02*X271000Y115000D01*
X270000Y114500D02*X270500D01*
X269500Y115000D02*X270000Y114500D01*
X272200Y118500D02*X274200D01*
X272200D02*Y116500D01*
X272700Y117000D01*
X273700D01*
X274200Y116500D01*
Y115000D01*
X273700Y114500D02*X274200Y115000D01*
X272700Y114500D02*X273700D01*
X272200Y115000D02*X272700Y114500D01*
X266150Y91650D02*Y90150D01*
X266650Y92150D02*X266150Y91650D01*
X266650Y92150D02*X269650D01*
X270150Y91650D01*
Y90150D01*
X266150Y88450D02*Y87450D01*
Y87950D02*X270150D01*
X269150Y88950D02*X270150Y87950D01*
X268150Y86250D02*X270150Y84250D01*
X268150Y86250D02*Y83750D01*
X266150Y84250D02*X270150D01*
M02*
