G04 start of page 7 for group -4062 idx -4062 *
G04 Title: (unknown), soldermask *
G04 Creator: pcb 20140316 *
G04 CreationDate: Mon 18 May 2015 09:38:21 PM GMT UTC *
G04 For: ndholmes *
G04 Format: Gerber/RS-274X *
G04 PCB-Dimensions (mil): 3500.00 1900.00 *
G04 PCB-Coordinate-Origin: lower left *
%MOIN*%
%FSLAX25Y25*%
%LNBOTTOMMASK*%
%ADD99C,0.0900*%
%ADD98C,0.0660*%
%ADD97C,0.0760*%
%ADD96C,0.0750*%
%ADD95C,0.1560*%
%ADD94C,0.0001*%
%ADD93C,0.1500*%
%ADD92C,0.0860*%
%ADD91C,0.2997*%
G54D91*X17000Y17000D03*
G54D92*X23000Y62500D03*
G54D93*X41000Y57500D03*
G54D94*G36*
X54200Y28800D02*Y20200D01*
X62800D01*
Y28800D01*
X54200D01*
G37*
G54D95*X317500Y45500D03*
G54D91*X333000Y17000D03*
G54D94*G36*
X331700Y51300D02*Y42700D01*
X340300D01*
Y51300D01*
X331700D01*
G37*
G54D92*X336000Y67000D03*
G54D96*X282500Y53000D03*
X292500Y58000D03*
X282500Y63000D03*
X292500Y68000D03*
X282500Y73000D03*
G54D94*G36*
X238200Y28800D02*Y20200D01*
X246800D01*
Y28800D01*
X238200D01*
G37*
G54D92*X192500Y24500D03*
G54D94*G36*
X166700Y23800D02*Y16200D01*
X174300D01*
Y23800D01*
X166700D01*
G37*
G54D97*X170500Y30000D03*
Y40000D03*
G54D95*X317500Y85500D03*
Y103000D03*
G54D94*G36*
X331700Y91300D02*Y82700D01*
X340300D01*
Y91300D01*
X331700D01*
G37*
G54D92*X336000Y107000D03*
G54D96*X292500Y78000D03*
X282500Y110500D03*
X292500Y115500D03*
Y125500D03*
Y135500D03*
X282500Y120500D03*
Y130500D03*
G54D94*G36*
X277200Y168800D02*Y162200D01*
X283800D01*
Y168800D01*
X277200D01*
G37*
G54D98*X280500Y175500D03*
X290500Y165500D03*
X300500D03*
X290500Y175500D03*
X300500D03*
G54D91*X333000Y173000D03*
G54D95*X317500Y143000D03*
G54D94*G36*
X331700Y131300D02*Y122700D01*
X340300D01*
Y131300D01*
X331700D01*
G37*
G54D92*X336000Y147000D03*
G54D94*G36*
X18700Y86800D02*Y78200D01*
X27300D01*
Y86800D01*
X18700D01*
G37*
G54D91*X17000Y173000D03*
G54D94*G36*
X18700Y126800D02*Y118200D01*
X27300D01*
Y126800D01*
X18700D01*
G37*
G54D92*X23000Y102500D03*
G54D93*X41000D03*
G54D99*X96000Y113500D03*
G54D92*X108500Y24500D03*
G54D99*X96000Y123500D03*
G54D94*G36*
X91500Y138000D02*Y129000D01*
X100500D01*
Y138000D01*
X91500D01*
G37*
G36*
X54700Y169800D02*Y161200D01*
X63300D01*
Y169800D01*
X54700D01*
G37*
G54D92*X109000Y165500D03*
G54D97*X66000Y97500D03*
X76000Y92500D03*
X66000Y87500D03*
X76000Y82500D03*
X66000Y77500D03*
X76000Y72500D03*
X66000Y67500D03*
X76000Y62500D03*
G54D94*G36*
X127200Y173800D02*Y166200D01*
X134800D01*
Y173800D01*
X127200D01*
G37*
G54D97*X131000Y160000D03*
Y150000D03*
G54D94*G36*
X126700Y23800D02*Y16200D01*
X134300D01*
Y23800D01*
X126700D01*
G37*
G54D97*X130500Y30000D03*
Y40000D03*
G54D94*G36*
X238200Y169800D02*Y161200D01*
X246800D01*
Y169800D01*
X238200D01*
G37*
G54D92*X192500Y165500D03*
G54D94*G36*
X167200Y173800D02*Y166200D01*
X174800D01*
Y173800D01*
X167200D01*
G37*
G54D97*X171000Y160000D03*
Y150000D03*
M02*
