G04 start of page 12 for group -3984 idx -3984 *
G04 Title: (unknown), fab *
G04 Creator: pcb 20140316 *
G04 CreationDate: Mon 18 May 2015 09:38:21 PM GMT UTC *
G04 For: ndholmes *
G04 Format: Gerber/RS-274X *
G04 PCB-Dimensions (mil): 3500.00 1900.00 *
G04 PCB-Coordinate-Origin: lower left *
%MOIN*%
%FSLAX25Y25*%
%LNFAB*%
%ADD117C,0.0100*%
%ADD116C,0.0060*%
%ADD115R,0.0080X0.0080*%
G54D115*X16200Y17000D02*G75*G03X17800Y17000I800J0D01*G01*
G75*G03X16200Y17000I-800J0D01*G01*
X14600D02*G75*G03X19400Y17000I2400J0D01*G01*
G75*G03X14600Y17000I-2400J0D01*G01*
X332200D02*G75*G03X333800Y17000I800J0D01*G01*
G75*G03X332200Y17000I-800J0D01*G01*
X330600D02*G75*G03X335400Y17000I2400J0D01*G01*
G75*G03X330600Y17000I-2400J0D01*G01*
X16200Y173000D02*G75*G03X17800Y173000I800J0D01*G01*
G75*G03X16200Y173000I-800J0D01*G01*
X14600D02*G75*G03X19400Y173000I2400J0D01*G01*
G75*G03X14600Y173000I-2400J0D01*G01*
X332200D02*G75*G03X333800Y173000I800J0D01*G01*
G75*G03X332200Y173000I-800J0D01*G01*
X330600D02*G75*G03X335400Y173000I2400J0D01*G01*
G75*G03X330600Y173000I-2400J0D01*G01*
X14200Y201250D02*G75*G03X15800Y201250I800J0D01*G01*
G75*G03X14200Y201250I-800J0D01*G01*
X12600D02*G75*G03X17400Y201250I2400J0D01*G01*
G75*G03X12600Y201250I-2400J0D01*G01*
G54D116*X135000Y203500D02*Y202750D01*
X136500Y201250D01*
X138000Y202750D01*
Y203500D02*Y202750D01*
X136500Y201250D02*Y197500D01*
X139800Y200500D02*X142050D01*
X139800Y197500D02*X142800D01*
X139800Y203500D02*Y197500D01*
Y203500D02*X142800D01*
X147600D02*X148350Y202750D01*
X145350Y203500D02*X147600D01*
X144600Y202750D02*X145350Y203500D01*
X144600Y202750D02*Y201250D01*
X145350Y200500D01*
X147600D01*
X148350Y199750D01*
Y198250D01*
X147600Y197500D02*X148350Y198250D01*
X145350Y197500D02*X147600D01*
X144600Y198250D02*X145350Y197500D01*
X98000Y200500D02*X101000Y203500D01*
X98000Y200500D02*X101750D01*
X101000Y203500D02*Y197500D01*
X45000Y198250D02*X45750Y197500D01*
X45000Y202750D02*Y198250D01*
Y202750D02*X45750Y203500D01*
X47250D01*
X48000Y202750D01*
Y198250D01*
X47250Y197500D02*X48000Y198250D01*
X45750Y197500D02*X47250D01*
X45000Y199000D02*X48000Y202000D01*
X49800Y197500D02*X50550D01*
X53100D02*X54600D01*
X53850Y203500D02*Y197500D01*
X52350Y202000D02*X53850Y203500D01*
X56400Y202750D02*X57150Y203500D01*
X59400D01*
X60150Y202750D01*
Y201250D01*
X56400Y197500D02*X60150Y201250D01*
X56400Y197500D02*X60150D01*
X61950D02*X64950Y200500D01*
Y202750D02*Y200500D01*
X64200Y203500D02*X64950Y202750D01*
X62700Y203500D02*X64200D01*
X61950Y202750D02*X62700Y203500D01*
X61950Y202750D02*Y201250D01*
X62700Y200500D01*
X64950D01*
X315100Y47900D02*X319900Y43100D01*
X315100D02*X319900Y47900D01*
X315900Y47100D02*X319100D01*
X315900D02*Y43900D01*
X319100D01*
Y47100D02*Y43900D01*
X315100Y87900D02*X319900Y83100D01*
X315100D02*X319900Y87900D01*
X315900Y87100D02*X319100D01*
X315900D02*Y83900D01*
X319100D01*
Y87100D02*Y83900D01*
X315100Y105400D02*X319900Y100600D01*
X315100D02*X319900Y105400D01*
X315900Y104600D02*X319100D01*
X315900D02*Y101400D01*
X319100D01*
Y104600D02*Y101400D01*
X315100Y145400D02*X319900Y140600D01*
X315100D02*X319900Y145400D01*
X315900Y144600D02*X319100D01*
X315900D02*Y141400D01*
X319100D01*
Y144600D02*Y141400D01*
X12600Y218650D02*X17400Y213850D01*
X12600D02*X17400Y218650D01*
X13400Y217850D02*X16600D01*
X13400D02*Y214650D01*
X16600D01*
Y217850D02*Y214650D01*
X135000Y218500D02*Y217750D01*
X136500Y216250D01*
X138000Y217750D01*
Y218500D02*Y217750D01*
X136500Y216250D02*Y212500D01*
X139800Y215500D02*X142050D01*
X139800Y212500D02*X142800D01*
X139800Y218500D02*Y212500D01*
Y218500D02*X142800D01*
X147600D02*X148350Y217750D01*
X145350Y218500D02*X147600D01*
X144600Y217750D02*X145350Y218500D01*
X144600Y217750D02*Y216250D01*
X145350Y215500D01*
X147600D01*
X148350Y214750D01*
Y213250D01*
X147600Y212500D02*X148350Y213250D01*
X145350Y212500D02*X147600D01*
X144600Y213250D02*X145350Y212500D01*
X98000Y215500D02*X101000Y218500D01*
X98000Y215500D02*X101750D01*
X101000Y218500D02*Y212500D01*
X45000Y213250D02*X45750Y212500D01*
X45000Y217750D02*Y213250D01*
Y217750D02*X45750Y218500D01*
X47250D01*
X48000Y217750D01*
Y213250D01*
X47250Y212500D02*X48000Y213250D01*
X45750Y212500D02*X47250D01*
X45000Y214000D02*X48000Y217000D01*
X49800Y212500D02*X50550D01*
X53100D02*X54600D01*
X53850Y218500D02*Y212500D01*
X52350Y217000D02*X53850Y218500D01*
X56400Y217750D02*X57150Y218500D01*
X59400D01*
X60150Y217750D01*
Y216250D01*
X56400Y212500D02*X60150Y216250D01*
X56400Y212500D02*X60150D01*
X61950Y213250D02*X62700Y212500D01*
X61950Y214750D02*Y213250D01*
Y214750D02*X62700Y215500D01*
X64200D01*
X64950Y214750D01*
Y213250D01*
X64200Y212500D02*X64950Y213250D01*
X62700Y212500D02*X64200D01*
X61950Y216250D02*X62700Y215500D01*
X61950Y217750D02*Y216250D01*
Y217750D02*X62700Y218500D01*
X64200D01*
X64950Y217750D01*
Y216250D01*
X64200Y215500D02*X64950Y216250D01*
X41000Y105700D02*Y99300D01*
X37800Y102500D02*X44200D01*
X39400Y104100D02*X42600D01*
X39400D02*Y100900D01*
X42600D01*
Y104100D02*Y100900D01*
X41000Y60700D02*Y54300D01*
X37800Y57500D02*X44200D01*
X39400Y59100D02*X42600D01*
X39400D02*Y55900D01*
X42600D01*
Y59100D02*Y55900D01*
X15000Y234450D02*Y228050D01*
X11800Y231250D02*X18200D01*
X13400Y232850D02*X16600D01*
X13400D02*Y229650D01*
X16600D01*
Y232850D02*Y229650D01*
X135000Y233500D02*Y232750D01*
X136500Y231250D01*
X138000Y232750D01*
Y233500D02*Y232750D01*
X136500Y231250D02*Y227500D01*
X139800Y230500D02*X142050D01*
X139800Y227500D02*X142800D01*
X139800Y233500D02*Y227500D01*
Y233500D02*X142800D01*
X147600D02*X148350Y232750D01*
X145350Y233500D02*X147600D01*
X144600Y232750D02*X145350Y233500D01*
X144600Y232750D02*Y231250D01*
X145350Y230500D01*
X147600D01*
X148350Y229750D01*
Y228250D01*
X147600Y227500D02*X148350Y228250D01*
X145350Y227500D02*X147600D01*
X144600Y228250D02*X145350Y227500D01*
X98000Y232750D02*X98750Y233500D01*
X101000D01*
X101750Y232750D01*
Y231250D01*
X98000Y227500D02*X101750Y231250D01*
X98000Y227500D02*X101750D01*
X45000Y228250D02*X45750Y227500D01*
X45000Y232750D02*Y228250D01*
Y232750D02*X45750Y233500D01*
X47250D01*
X48000Y232750D01*
Y228250D01*
X47250Y227500D02*X48000Y228250D01*
X45750Y227500D02*X47250D01*
X45000Y229000D02*X48000Y232000D01*
X49800Y227500D02*X50550D01*
X53100D02*X54600D01*
X53850Y233500D02*Y227500D01*
X52350Y232000D02*X53850Y233500D01*
X56400Y232750D02*X57150Y233500D01*
X59400D01*
X60150Y232750D01*
Y231250D01*
X56400Y227500D02*X60150Y231250D01*
X56400Y227500D02*X60150D01*
X61950Y232750D02*X62700Y233500D01*
X64950D01*
X65700Y232750D01*
Y231250D01*
X61950Y227500D02*X65700Y231250D01*
X61950Y227500D02*X65700D01*
X23000Y82500D02*Y79300D01*
Y82500D02*X25773Y84100D01*
X23000Y82500D02*X20227Y84100D01*
X21400Y82500D02*G75*G03X24600Y82500I1600J0D01*G01*
G75*G03X21400Y82500I-1600J0D01*G01*
X23000Y62500D02*Y59300D01*
Y62500D02*X25773Y64100D01*
X23000Y62500D02*X20227Y64100D01*
X21400Y62500D02*G75*G03X24600Y62500I1600J0D01*G01*
G75*G03X21400Y62500I-1600J0D01*G01*
X23000Y122500D02*Y119300D01*
Y122500D02*X25773Y124100D01*
X23000Y122500D02*X20227Y124100D01*
X21400Y122500D02*G75*G03X24600Y122500I1600J0D01*G01*
G75*G03X21400Y122500I-1600J0D01*G01*
X23000Y102500D02*Y99300D01*
Y102500D02*X25773Y104100D01*
X23000Y102500D02*X20227Y104100D01*
X21400Y102500D02*G75*G03X24600Y102500I1600J0D01*G01*
G75*G03X21400Y102500I-1600J0D01*G01*
X59000Y165500D02*Y162300D01*
Y165500D02*X61773Y167100D01*
X59000Y165500D02*X56227Y167100D01*
X57400Y165500D02*G75*G03X60600Y165500I1600J0D01*G01*
G75*G03X57400Y165500I-1600J0D01*G01*
X109000D02*Y162300D01*
Y165500D02*X111773Y167100D01*
X109000Y165500D02*X106227Y167100D01*
X107400Y165500D02*G75*G03X110600Y165500I1600J0D01*G01*
G75*G03X107400Y165500I-1600J0D01*G01*
X58500Y24500D02*Y21300D01*
Y24500D02*X61273Y26100D01*
X58500Y24500D02*X55727Y26100D01*
X56900Y24500D02*G75*G03X60100Y24500I1600J0D01*G01*
G75*G03X56900Y24500I-1600J0D01*G01*
X108500D02*Y21300D01*
Y24500D02*X111273Y26100D01*
X108500Y24500D02*X105727Y26100D01*
X106900Y24500D02*G75*G03X110100Y24500I1600J0D01*G01*
G75*G03X106900Y24500I-1600J0D01*G01*
X242500Y165500D02*Y162300D01*
Y165500D02*X245273Y167100D01*
X242500Y165500D02*X239727Y167100D01*
X240900Y165500D02*G75*G03X244100Y165500I1600J0D01*G01*
G75*G03X240900Y165500I-1600J0D01*G01*
X192500D02*Y162300D01*
Y165500D02*X195273Y167100D01*
X192500Y165500D02*X189727Y167100D01*
X190900Y165500D02*G75*G03X194100Y165500I1600J0D01*G01*
G75*G03X190900Y165500I-1600J0D01*G01*
X242500Y24500D02*Y21300D01*
Y24500D02*X245273Y26100D01*
X242500Y24500D02*X239727Y26100D01*
X240900Y24500D02*G75*G03X244100Y24500I1600J0D01*G01*
G75*G03X240900Y24500I-1600J0D01*G01*
X192500D02*Y21300D01*
Y24500D02*X195273Y26100D01*
X192500Y24500D02*X189727Y26100D01*
X190900Y24500D02*G75*G03X194100Y24500I1600J0D01*G01*
G75*G03X190900Y24500I-1600J0D01*G01*
X336000Y87000D02*Y83800D01*
Y87000D02*X338773Y88600D01*
X336000Y87000D02*X333227Y88600D01*
X334400Y87000D02*G75*G03X337600Y87000I1600J0D01*G01*
G75*G03X334400Y87000I-1600J0D01*G01*
X336000Y107000D02*Y103800D01*
Y107000D02*X338773Y108600D01*
X336000Y107000D02*X333227Y108600D01*
X334400Y107000D02*G75*G03X337600Y107000I1600J0D01*G01*
G75*G03X334400Y107000I-1600J0D01*G01*
X336000Y47000D02*Y43800D01*
Y47000D02*X338773Y48600D01*
X336000Y47000D02*X333227Y48600D01*
X334400Y47000D02*G75*G03X337600Y47000I1600J0D01*G01*
G75*G03X334400Y47000I-1600J0D01*G01*
X336000Y67000D02*Y63800D01*
Y67000D02*X338773Y68600D01*
X336000Y67000D02*X333227Y68600D01*
X334400Y67000D02*G75*G03X337600Y67000I1600J0D01*G01*
G75*G03X334400Y67000I-1600J0D01*G01*
X336000Y127000D02*Y123800D01*
Y127000D02*X338773Y128600D01*
X336000Y127000D02*X333227Y128600D01*
X334400Y127000D02*G75*G03X337600Y127000I1600J0D01*G01*
G75*G03X334400Y127000I-1600J0D01*G01*
X336000Y147000D02*Y143800D01*
Y147000D02*X338773Y148600D01*
X336000Y147000D02*X333227Y148600D01*
X334400Y147000D02*G75*G03X337600Y147000I1600J0D01*G01*
G75*G03X334400Y147000I-1600J0D01*G01*
X15000Y246250D02*Y243050D01*
Y246250D02*X17773Y247850D01*
X15000Y246250D02*X12227Y247850D01*
X13400Y246250D02*G75*G03X16600Y246250I1600J0D01*G01*
G75*G03X13400Y246250I-1600J0D01*G01*
X135000Y248500D02*Y247750D01*
X136500Y246250D01*
X138000Y247750D01*
Y248500D02*Y247750D01*
X136500Y246250D02*Y242500D01*
X139800Y245500D02*X142050D01*
X139800Y242500D02*X142800D01*
X139800Y248500D02*Y242500D01*
Y248500D02*X142800D01*
X147600D02*X148350Y247750D01*
X145350Y248500D02*X147600D01*
X144600Y247750D02*X145350Y248500D01*
X144600Y247750D02*Y246250D01*
X145350Y245500D01*
X147600D01*
X148350Y244750D01*
Y243250D01*
X147600Y242500D02*X148350Y243250D01*
X145350Y242500D02*X147600D01*
X144600Y243250D02*X145350Y242500D01*
X98750D02*X100250D01*
X99500Y248500D02*Y242500D01*
X98000Y247000D02*X99500Y248500D01*
X102050Y243250D02*X102800Y242500D01*
X102050Y244750D02*Y243250D01*
Y244750D02*X102800Y245500D01*
X104300D01*
X105050Y244750D01*
Y243250D01*
X104300Y242500D02*X105050Y243250D01*
X102800Y242500D02*X104300D01*
X102050Y246250D02*X102800Y245500D01*
X102050Y247750D02*Y246250D01*
Y247750D02*X102800Y248500D01*
X104300D01*
X105050Y247750D01*
Y246250D01*
X104300Y245500D02*X105050Y246250D01*
X45000Y243250D02*X45750Y242500D01*
X45000Y247750D02*Y243250D01*
Y247750D02*X45750Y248500D01*
X47250D01*
X48000Y247750D01*
Y243250D01*
X47250Y242500D02*X48000Y243250D01*
X45750Y242500D02*X47250D01*
X45000Y244000D02*X48000Y247000D01*
X49800Y242500D02*X50550D01*
X52350Y243250D02*X53100Y242500D01*
X52350Y247750D02*Y243250D01*
Y247750D02*X53100Y248500D01*
X54600D01*
X55350Y247750D01*
Y243250D01*
X54600Y242500D02*X55350Y243250D01*
X53100Y242500D02*X54600D01*
X52350Y244000D02*X55350Y247000D01*
X57150Y245500D02*X60150Y248500D01*
X57150Y245500D02*X60900D01*
X60150Y248500D02*Y242500D01*
X62700Y243250D02*X63450Y242500D01*
X62700Y244750D02*Y243250D01*
Y244750D02*X63450Y245500D01*
X64950D01*
X65700Y244750D01*
Y243250D01*
X64950Y242500D02*X65700Y243250D01*
X63450Y242500D02*X64950D01*
X62700Y246250D02*X63450Y245500D01*
X62700Y247750D02*Y246250D01*
Y247750D02*X63450Y248500D01*
X64950D01*
X65700Y247750D01*
Y246250D01*
X64950Y245500D02*X65700Y246250D01*
X94400Y115100D02*X97600D01*
X94400D02*Y111900D01*
X97600D01*
Y115100D02*Y111900D01*
X94400Y125100D02*X97600D01*
X94400D02*Y121900D01*
X97600D01*
Y125100D02*Y121900D01*
X94400Y135100D02*X97600D01*
X94400D02*Y131900D01*
X97600D01*
Y135100D02*Y131900D01*
X13400Y262850D02*X16600D01*
X13400D02*Y259650D01*
X16600D01*
Y262850D02*Y259650D01*
X135000Y263500D02*Y262750D01*
X136500Y261250D01*
X138000Y262750D01*
Y263500D02*Y262750D01*
X136500Y261250D02*Y257500D01*
X139800Y260500D02*X142050D01*
X139800Y257500D02*X142800D01*
X139800Y263500D02*Y257500D01*
Y263500D02*X142800D01*
X147600D02*X148350Y262750D01*
X145350Y263500D02*X147600D01*
X144600Y262750D02*X145350Y263500D01*
X144600Y262750D02*Y261250D01*
X145350Y260500D01*
X147600D01*
X148350Y259750D01*
Y258250D01*
X147600Y257500D02*X148350Y258250D01*
X145350Y257500D02*X147600D01*
X144600Y258250D02*X145350Y257500D01*
X98000Y262750D02*X98750Y263500D01*
X100250D01*
X101000Y262750D01*
Y258250D01*
X100250Y257500D02*X101000Y258250D01*
X98750Y257500D02*X100250D01*
X98000Y258250D02*X98750Y257500D01*
Y260500D02*X101000D01*
X45000Y258250D02*X45750Y257500D01*
X45000Y262750D02*Y258250D01*
Y262750D02*X45750Y263500D01*
X47250D01*
X48000Y262750D01*
Y258250D01*
X47250Y257500D02*X48000Y258250D01*
X45750Y257500D02*X47250D01*
X45000Y259000D02*X48000Y262000D01*
X49800Y257500D02*X50550D01*
X52350Y258250D02*X53100Y257500D01*
X52350Y262750D02*Y258250D01*
Y262750D02*X53100Y263500D01*
X54600D01*
X55350Y262750D01*
Y258250D01*
X54600Y257500D02*X55350Y258250D01*
X53100Y257500D02*X54600D01*
X52350Y259000D02*X55350Y262000D01*
X57150Y260500D02*X60150Y263500D01*
X57150Y260500D02*X60900D01*
X60150Y263500D02*Y257500D01*
X62700Y263500D02*X65700D01*
X62700D02*Y260500D01*
X63450Y261250D01*
X64950D01*
X65700Y260500D01*
Y258250D01*
X64950Y257500D02*X65700Y258250D01*
X63450Y257500D02*X64950D01*
X62700Y258250D02*X63450Y257500D01*
X130200Y170000D02*G75*G03X131800Y170000I800J0D01*G01*
G75*G03X130200Y170000I-800J0D01*G01*
Y160000D02*G75*G03X131800Y160000I800J0D01*G01*
G75*G03X130200Y160000I-800J0D01*G01*
Y150000D02*G75*G03X131800Y150000I800J0D01*G01*
G75*G03X130200Y150000I-800J0D01*G01*
X129700Y20000D02*G75*G03X131300Y20000I800J0D01*G01*
G75*G03X129700Y20000I-800J0D01*G01*
Y30000D02*G75*G03X131300Y30000I800J0D01*G01*
G75*G03X129700Y30000I-800J0D01*G01*
Y40000D02*G75*G03X131300Y40000I800J0D01*G01*
G75*G03X129700Y40000I-800J0D01*G01*
X169700Y20000D02*G75*G03X171300Y20000I800J0D01*G01*
G75*G03X169700Y20000I-800J0D01*G01*
Y30000D02*G75*G03X171300Y30000I800J0D01*G01*
G75*G03X169700Y30000I-800J0D01*G01*
Y40000D02*G75*G03X171300Y40000I800J0D01*G01*
G75*G03X169700Y40000I-800J0D01*G01*
X170200Y170000D02*G75*G03X171800Y170000I800J0D01*G01*
G75*G03X170200Y170000I-800J0D01*G01*
Y160000D02*G75*G03X171800Y160000I800J0D01*G01*
G75*G03X170200Y160000I-800J0D01*G01*
Y150000D02*G75*G03X171800Y150000I800J0D01*G01*
G75*G03X170200Y150000I-800J0D01*G01*
X14200Y276250D02*G75*G03X15800Y276250I800J0D01*G01*
G75*G03X14200Y276250I-800J0D01*G01*
X135000Y278500D02*Y277750D01*
X136500Y276250D01*
X138000Y277750D01*
Y278500D02*Y277750D01*
X136500Y276250D02*Y272500D01*
X139800Y275500D02*X142050D01*
X139800Y272500D02*X142800D01*
X139800Y278500D02*Y272500D01*
Y278500D02*X142800D01*
X147600D02*X148350Y277750D01*
X145350Y278500D02*X147600D01*
X144600Y277750D02*X145350Y278500D01*
X144600Y277750D02*Y276250D01*
X145350Y275500D01*
X147600D01*
X148350Y274750D01*
Y273250D01*
X147600Y272500D02*X148350Y273250D01*
X145350Y272500D02*X147600D01*
X144600Y273250D02*X145350Y272500D01*
X98750D02*X100250D01*
X99500Y278500D02*Y272500D01*
X98000Y277000D02*X99500Y278500D01*
X102050Y277750D02*X102800Y278500D01*
X105050D01*
X105800Y277750D01*
Y276250D01*
X102050Y272500D02*X105800Y276250D01*
X102050Y272500D02*X105800D01*
X45000Y273250D02*X45750Y272500D01*
X45000Y277750D02*Y273250D01*
Y277750D02*X45750Y278500D01*
X47250D01*
X48000Y277750D01*
Y273250D01*
X47250Y272500D02*X48000Y273250D01*
X45750Y272500D02*X47250D01*
X45000Y274000D02*X48000Y277000D01*
X49800Y272500D02*X50550D01*
X52350Y273250D02*X53100Y272500D01*
X52350Y277750D02*Y273250D01*
Y277750D02*X53100Y278500D01*
X54600D01*
X55350Y277750D01*
Y273250D01*
X54600Y272500D02*X55350Y273250D01*
X53100Y272500D02*X54600D01*
X52350Y274000D02*X55350Y277000D01*
X57150Y277750D02*X57900Y278500D01*
X59400D01*
X60150Y277750D01*
Y273250D01*
X59400Y272500D02*X60150Y273250D01*
X57900Y272500D02*X59400D01*
X57150Y273250D02*X57900Y272500D01*
Y275500D02*X60150D01*
X61950Y272500D02*X64950Y275500D01*
Y277750D02*Y275500D01*
X64200Y278500D02*X64950Y277750D01*
X62700Y278500D02*X64200D01*
X61950Y277750D02*X62700Y278500D01*
X61950Y277750D02*Y276250D01*
X62700Y275500D01*
X64950D01*
X279300Y166700D02*X281700Y164300D01*
X279300D02*X281700Y166700D01*
X289300D02*X291700Y164300D01*
X289300D02*X291700Y166700D01*
X299300D02*X301700Y164300D01*
X299300D02*X301700Y166700D01*
X279300Y176700D02*X281700Y174300D01*
X279300D02*X281700Y176700D01*
X289300D02*X291700Y174300D01*
X289300D02*X291700Y176700D01*
X299300D02*X301700Y174300D01*
X299300D02*X301700Y176700D01*
X13800Y292450D02*X16200Y290050D01*
X13800D02*X16200Y292450D01*
X135000Y293500D02*Y292750D01*
X136500Y291250D01*
X138000Y292750D01*
Y293500D02*Y292750D01*
X136500Y291250D02*Y287500D01*
X139800Y290500D02*X142050D01*
X139800Y287500D02*X142800D01*
X139800Y293500D02*Y287500D01*
Y293500D02*X142800D01*
X147600D02*X148350Y292750D01*
X145350Y293500D02*X147600D01*
X144600Y292750D02*X145350Y293500D01*
X144600Y292750D02*Y291250D01*
X145350Y290500D01*
X147600D01*
X148350Y289750D01*
Y288250D01*
X147600Y287500D02*X148350Y288250D01*
X145350Y287500D02*X147600D01*
X144600Y288250D02*X145350Y287500D01*
X100250Y293500D02*X101000Y292750D01*
X98750Y293500D02*X100250D01*
X98000Y292750D02*X98750Y293500D01*
X98000Y292750D02*Y288250D01*
X98750Y287500D01*
X100250Y290500D02*X101000Y289750D01*
X98000Y290500D02*X100250D01*
X98750Y287500D02*X100250D01*
X101000Y288250D01*
Y289750D02*Y288250D01*
X45000D02*X45750Y287500D01*
X45000Y292750D02*Y288250D01*
Y292750D02*X45750Y293500D01*
X47250D01*
X48000Y292750D01*
Y288250D01*
X47250Y287500D02*X48000Y288250D01*
X45750Y287500D02*X47250D01*
X45000Y289000D02*X48000Y292000D01*
X49800Y287500D02*X50550D01*
X52350Y288250D02*X53100Y287500D01*
X52350Y292750D02*Y288250D01*
Y292750D02*X53100Y293500D01*
X54600D01*
X55350Y292750D01*
Y288250D01*
X54600Y287500D02*X55350Y288250D01*
X53100Y287500D02*X54600D01*
X52350Y289000D02*X55350Y292000D01*
X57150Y292750D02*X57900Y293500D01*
X59400D01*
X60150Y292750D01*
Y288250D01*
X59400Y287500D02*X60150Y288250D01*
X57900Y287500D02*X59400D01*
X57150Y288250D02*X57900Y287500D01*
Y290500D02*X60150D01*
X61950Y288250D02*X62700Y287500D01*
X61950Y289750D02*Y288250D01*
Y289750D02*X62700Y290500D01*
X64200D01*
X64950Y289750D01*
Y288250D01*
X64200Y287500D02*X64950Y288250D01*
X62700Y287500D02*X64200D01*
X61950Y291250D02*X62700Y290500D01*
X61950Y292750D02*Y291250D01*
Y292750D02*X62700Y293500D01*
X64200D01*
X64950Y292750D01*
Y291250D01*
X64200Y290500D02*X64950Y291250D01*
X282500Y54600D02*Y51400D01*
X280900Y53000D02*X284100D01*
X292500Y59600D02*Y56400D01*
X290900Y58000D02*X294100D01*
X282500Y64600D02*Y61400D01*
X280900Y63000D02*X284100D01*
X292500Y69600D02*Y66400D01*
X290900Y68000D02*X294100D01*
X282500Y74600D02*Y71400D01*
X280900Y73000D02*X284100D01*
X292500Y79600D02*Y76400D01*
X290900Y78000D02*X294100D01*
X282500Y112100D02*Y108900D01*
X280900Y110500D02*X284100D01*
X292500Y117100D02*Y113900D01*
X290900Y115500D02*X294100D01*
X282500Y122100D02*Y118900D01*
X280900Y120500D02*X284100D01*
X292500Y127100D02*Y123900D01*
X290900Y125500D02*X294100D01*
X282500Y132100D02*Y128900D01*
X280900Y130500D02*X284100D01*
X292500Y137100D02*Y133900D01*
X290900Y135500D02*X294100D01*
X66000Y99100D02*Y95900D01*
X64400Y97500D02*X67600D01*
X76000Y94100D02*Y90900D01*
X74400Y92500D02*X77600D01*
X66000Y89100D02*Y85900D01*
X64400Y87500D02*X67600D01*
X76000Y84100D02*Y80900D01*
X74400Y82500D02*X77600D01*
X66000Y79100D02*Y75900D01*
X64400Y77500D02*X67600D01*
X76000Y74100D02*Y70900D01*
X74400Y72500D02*X77600D01*
X66000Y69100D02*Y65900D01*
X64400Y67500D02*X67600D01*
X76000Y64100D02*Y60900D01*
X74400Y62500D02*X77600D01*
X15000Y307850D02*Y304650D01*
X13400Y306250D02*X16600D01*
X135000Y308500D02*Y307750D01*
X136500Y306250D01*
X138000Y307750D01*
Y308500D02*Y307750D01*
X136500Y306250D02*Y302500D01*
X139800Y305500D02*X142050D01*
X139800Y302500D02*X142800D01*
X139800Y308500D02*Y302500D01*
Y308500D02*X142800D01*
X147600D02*X148350Y307750D01*
X145350Y308500D02*X147600D01*
X144600Y307750D02*X145350Y308500D01*
X144600Y307750D02*Y306250D01*
X145350Y305500D01*
X147600D01*
X148350Y304750D01*
Y303250D01*
X147600Y302500D02*X148350Y303250D01*
X145350Y302500D02*X147600D01*
X144600Y303250D02*X145350Y302500D01*
X98000Y307750D02*X98750Y308500D01*
X101000D01*
X101750Y307750D01*
Y306250D01*
X98000Y302500D02*X101750Y306250D01*
X98000Y302500D02*X101750D01*
X103550Y303250D02*X104300Y302500D01*
X103550Y307750D02*Y303250D01*
Y307750D02*X104300Y308500D01*
X105800D01*
X106550Y307750D01*
Y303250D01*
X105800Y302500D02*X106550Y303250D01*
X104300Y302500D02*X105800D01*
X103550Y304000D02*X106550Y307000D01*
X45000Y303250D02*X45750Y302500D01*
X45000Y307750D02*Y303250D01*
Y307750D02*X45750Y308500D01*
X47250D01*
X48000Y307750D01*
Y303250D01*
X47250Y302500D02*X48000Y303250D01*
X45750Y302500D02*X47250D01*
X45000Y304000D02*X48000Y307000D01*
X49800Y302500D02*X50550D01*
X52350Y303250D02*X53100Y302500D01*
X52350Y307750D02*Y303250D01*
Y307750D02*X53100Y308500D01*
X54600D01*
X55350Y307750D01*
Y303250D01*
X54600Y302500D02*X55350Y303250D01*
X53100Y302500D02*X54600D01*
X52350Y304000D02*X55350Y307000D01*
X57150Y307750D02*X57900Y308500D01*
X59400D01*
X60150Y307750D01*
Y303250D01*
X59400Y302500D02*X60150Y303250D01*
X57900Y302500D02*X59400D01*
X57150Y303250D02*X57900Y302500D01*
Y305500D02*X60150D01*
X61950Y303250D02*X62700Y302500D01*
X61950Y307750D02*Y303250D01*
Y307750D02*X62700Y308500D01*
X64200D01*
X64950Y307750D01*
Y303250D01*
X64200Y302500D02*X64950Y303250D01*
X62700Y302500D02*X64200D01*
X61950Y304000D02*X64950Y307000D01*
X54000Y106000D02*Y104400D01*
Y106000D02*X55387Y106800D01*
X54000Y106000D02*X52613Y106800D01*
X59000Y106000D02*Y104400D01*
Y106000D02*X60387Y106800D01*
X59000Y106000D02*X57613Y106800D01*
X64000Y106000D02*Y104400D01*
Y106000D02*X65387Y106800D01*
X64000Y106000D02*X62613Y106800D01*
X69000Y106000D02*Y104400D01*
Y106000D02*X70387Y106800D01*
X69000Y106000D02*X67613Y106800D01*
X74000Y106000D02*Y104400D01*
Y106000D02*X75387Y106800D01*
X74000Y106000D02*X72613Y106800D01*
X43500Y125500D02*Y123900D01*
Y125500D02*X44887Y126300D01*
X43500Y125500D02*X42113Y126300D01*
X43500Y120500D02*Y118900D01*
Y120500D02*X44887Y121300D01*
X43500Y120500D02*X42113Y121300D01*
X43500Y115500D02*Y113900D01*
Y115500D02*X44887Y116300D01*
X43500Y115500D02*X42113Y116300D01*
X49000Y125500D02*Y123900D01*
Y125500D02*X50387Y126300D01*
X49000Y125500D02*X47613Y126300D01*
X49000Y120500D02*Y118900D01*
Y120500D02*X50387Y121300D01*
X49000Y120500D02*X47613Y121300D01*
X49000Y115500D02*Y113900D01*
Y115500D02*X50387Y116300D01*
X49000Y115500D02*X47613Y116300D01*
X69500Y125500D02*Y123900D01*
Y125500D02*X70887Y126300D01*
X69500Y125500D02*X68113Y126300D01*
X69500Y120500D02*Y118900D01*
Y120500D02*X70887Y121300D01*
X69500Y120500D02*X68113Y121300D01*
X74500Y120500D02*Y118900D01*
Y120500D02*X75887Y121300D01*
X74500Y120500D02*X73113Y121300D01*
X74500Y115500D02*Y113900D01*
Y115500D02*X75887Y116300D01*
X74500Y115500D02*X73113Y116300D01*
X79500Y120500D02*Y118900D01*
Y120500D02*X80887Y121300D01*
X79500Y120500D02*X78113Y121300D01*
X79500Y115500D02*Y113900D01*
Y115500D02*X80887Y116300D01*
X79500Y115500D02*X78113Y116300D01*
X13000Y134500D02*Y132900D01*
Y134500D02*X14387Y135300D01*
X13000Y134500D02*X11613Y135300D01*
X69500Y115500D02*Y113900D01*
Y115500D02*X70887Y116300D01*
X69500Y115500D02*X68113Y116300D01*
X133000Y73000D02*Y71400D01*
Y73000D02*X134387Y73800D01*
X133000Y73000D02*X131613Y73800D01*
X171000Y73000D02*Y71400D01*
Y73000D02*X172387Y73800D01*
X171000Y73000D02*X169613Y73800D01*
X145500Y51500D02*Y49900D01*
Y51500D02*X146887Y52300D01*
X145500Y51500D02*X144113Y52300D01*
X134500Y78000D02*Y76400D01*
Y78000D02*X135887Y78800D01*
X134500Y78000D02*X133113Y78800D01*
X129500Y78000D02*Y76400D01*
Y78000D02*X130887Y78800D01*
X129500Y78000D02*X128113Y78800D01*
X131500Y87500D02*Y85900D01*
Y87500D02*X132887Y88300D01*
X131500Y87500D02*X130113Y88300D01*
X242500Y78000D02*Y76400D01*
Y78000D02*X243887Y78800D01*
X242500Y78000D02*X241113Y78800D01*
X247500Y78000D02*Y76400D01*
Y78000D02*X248887Y78800D01*
X247500Y78000D02*X246113Y78800D01*
X274500Y134500D02*Y132900D01*
Y134500D02*X275887Y135300D01*
X274500Y134500D02*X273113Y135300D01*
X269500Y126500D02*Y124900D01*
Y126500D02*X270887Y127300D01*
X269500Y126500D02*X268113Y127300D01*
X161000Y55500D02*Y53900D01*
Y55500D02*X162387Y56300D01*
X161000Y55500D02*X159613Y56300D01*
X179000Y62500D02*Y60900D01*
Y62500D02*X180387Y63300D01*
X179000Y62500D02*X177613Y63300D01*
X179000Y57500D02*Y55900D01*
Y57500D02*X180387Y58300D01*
X179000Y57500D02*X177613Y58300D01*
X242500Y64000D02*Y62400D01*
Y64000D02*X243887Y64800D01*
X242500Y64000D02*X241113Y64800D01*
X264000Y64000D02*Y62400D01*
Y64000D02*X265387Y64800D01*
X264000Y64000D02*X262613Y64800D01*
X262500Y78000D02*Y76400D01*
Y78000D02*X263887Y78800D01*
X262500Y78000D02*X261113Y78800D01*
X253500Y123000D02*Y121400D01*
Y123000D02*X254887Y123800D01*
X253500Y123000D02*X252113Y123800D01*
X249000Y119000D02*Y117400D01*
Y119000D02*X250387Y119800D01*
X249000Y119000D02*X247613Y119800D01*
X250500Y100000D02*Y98400D01*
Y100000D02*X251887Y100800D01*
X250500Y100000D02*X249113Y100800D01*
X250500Y105500D02*Y103900D01*
Y105500D02*X251887Y106300D01*
X250500Y105500D02*X249113Y106300D01*
X244500Y103500D02*Y101900D01*
Y103500D02*X245887Y104300D01*
X244500Y103500D02*X243113Y104300D01*
X265000Y97000D02*Y95400D01*
Y97000D02*X266387Y97800D01*
X265000Y97000D02*X263613Y97800D01*
X256000Y104000D02*Y102400D01*
Y104000D02*X257387Y104800D01*
X256000Y104000D02*X254613Y104800D01*
X292500Y102500D02*Y100900D01*
Y102500D02*X293887Y103300D01*
X292500Y102500D02*X291113Y103300D01*
X292500Y97000D02*Y95400D01*
Y97000D02*X293887Y97800D01*
X292500Y97000D02*X291113Y97800D01*
X179000Y109000D02*Y107400D01*
Y109000D02*X180387Y109800D01*
X179000Y109000D02*X177613Y109800D01*
X136000Y117500D02*Y115900D01*
Y117500D02*X137387Y118300D01*
X136000Y117500D02*X134613Y118300D01*
X157000Y132000D02*Y130400D01*
Y132000D02*X158387Y132800D01*
X157000Y132000D02*X155613Y132800D01*
X138500Y134000D02*Y132400D01*
Y134000D02*X139887Y134800D01*
X138500Y134000D02*X137113Y134800D01*
X117500Y148500D02*Y146900D01*
Y148500D02*X118887Y149300D01*
X117500Y148500D02*X116113Y149300D01*
X184000Y109000D02*Y107400D01*
Y109000D02*X185387Y109800D01*
X184000Y109000D02*X182613Y109800D01*
X177500Y91000D02*Y89400D01*
Y91000D02*X178887Y91800D01*
X177500Y91000D02*X176113Y91800D01*
X157000Y127000D02*Y125400D01*
Y127000D02*X158387Y127800D01*
X157000Y127000D02*X155613Y127800D01*
X196500Y89500D02*Y87900D01*
Y89500D02*X197887Y90300D01*
X196500Y89500D02*X195113Y90300D01*
X200000Y100000D02*Y98400D01*
Y100000D02*X201387Y100800D01*
X200000Y100000D02*X198613Y100800D01*
X203500Y96500D02*Y94900D01*
Y96500D02*X204887Y97300D01*
X203500Y96500D02*X202113Y97300D01*
X196500Y103500D02*Y101900D01*
Y103500D02*X197887Y104300D01*
X196500Y103500D02*X195113Y104300D01*
X201500Y89500D02*Y87900D01*
Y89500D02*X202887Y90300D01*
X201500Y89500D02*X200113Y90300D01*
X186500Y82500D02*Y80900D01*
Y82500D02*X187887Y83300D01*
X186500Y82500D02*X185113Y83300D01*
X186500Y77500D02*Y75900D01*
Y77500D02*X187887Y78300D01*
X186500Y77500D02*X185113Y78300D01*
X176000Y82500D02*Y80900D01*
Y82500D02*X177387Y83300D01*
X176000Y82500D02*X174613Y83300D01*
X181000Y82500D02*Y80900D01*
Y82500D02*X182387Y83300D01*
X181000Y82500D02*X179613Y83300D01*
X206500Y89500D02*Y87900D01*
Y89500D02*X207887Y90300D01*
X206500Y89500D02*X205113Y90300D01*
X198500Y65000D02*Y63400D01*
Y65000D02*X199887Y65800D01*
X198500Y65000D02*X197113Y65800D01*
X204500Y65000D02*Y63400D01*
Y65000D02*X205887Y65800D01*
X204500Y65000D02*X203113Y65800D01*
X216000Y65000D02*Y63400D01*
Y65000D02*X217387Y65800D01*
X216000Y65000D02*X214613Y65800D01*
X222000Y65000D02*Y63400D01*
Y65000D02*X223387Y65800D01*
X222000Y65000D02*X220613Y65800D01*
X242000Y147000D02*Y145400D01*
Y147000D02*X243387Y147800D01*
X242000Y147000D02*X240613Y147800D01*
X242000Y142000D02*Y140400D01*
Y142000D02*X243387Y142800D01*
X242000Y142000D02*X240613Y142800D01*
X220000Y95500D02*Y93900D01*
Y95500D02*X221387Y96300D01*
X220000Y95500D02*X218613Y96300D01*
X125500Y69000D02*Y67400D01*
Y69000D02*X126887Y69800D01*
X125500Y69000D02*X124113Y69800D01*
X122000Y65000D02*Y63400D01*
Y65000D02*X123387Y65800D01*
X122000Y65000D02*X120613Y65800D01*
X223500Y91500D02*Y89900D01*
Y91500D02*X224887Y92300D01*
X223500Y91500D02*X222113Y92300D01*
X233000Y111000D02*Y109400D01*
Y111000D02*X234387Y111800D01*
X233000Y111000D02*X231613Y111800D01*
X235000Y124500D02*Y122900D01*
Y124500D02*X236387Y125300D01*
X235000Y124500D02*X233613Y125300D01*
X122000Y60000D02*Y58400D01*
Y60000D02*X123387Y60800D01*
X122000Y60000D02*X120613Y60800D01*
X177500Y35000D02*Y33400D01*
Y35000D02*X178887Y35800D01*
X177500Y35000D02*X176113Y35800D01*
X242500Y124500D02*Y122900D01*
Y124500D02*X243887Y125300D01*
X242500Y124500D02*X241113Y125300D01*
X245500Y114000D02*Y112400D01*
Y114000D02*X246887Y114800D01*
X245500Y114000D02*X244113Y114800D01*
X260500Y140000D02*Y138400D01*
Y140000D02*X261887Y140800D01*
X260500Y140000D02*X259113Y140800D01*
X224000Y145000D02*Y143400D01*
Y145000D02*X225387Y145800D01*
X224000Y145000D02*X222613Y145800D01*
X221500Y127000D02*Y125400D01*
Y127000D02*X222887Y127800D01*
X221500Y127000D02*X220113Y127800D01*
X227500Y126900D02*Y125300D01*
Y126900D02*X228887Y127700D01*
X227500Y126900D02*X226113Y127700D01*
X256500Y8000D02*Y6400D01*
Y8000D02*X257887Y8800D01*
X256500Y8000D02*X255113Y8800D01*
X271000Y182000D02*Y180400D01*
Y182000D02*X272387Y182800D01*
X271000Y182000D02*X269613Y182800D01*
X206000Y151000D02*Y149400D01*
Y151000D02*X207387Y151800D01*
X206000Y151000D02*X204613Y151800D01*
X199500Y149500D02*Y147900D01*
Y149500D02*X200887Y150300D01*
X199500Y149500D02*X198113Y150300D01*
X141500Y117500D02*Y115900D01*
Y117500D02*X142887Y118300D01*
X141500Y117500D02*X140113Y118300D01*
X309000Y4500D02*Y2900D01*
Y4500D02*X310387Y5300D01*
X309000Y4500D02*X307613Y5300D01*
X314000Y9000D02*Y7400D01*
Y9000D02*X315387Y9800D01*
X314000Y9000D02*X312613Y9800D01*
X275500Y10000D02*Y8400D01*
Y10000D02*X276887Y10800D01*
X275500Y10000D02*X274113Y10800D01*
X280500Y10000D02*Y8400D01*
Y10000D02*X281887Y10800D01*
X280500Y10000D02*X279113Y10800D01*
X301000Y10000D02*Y8400D01*
Y10000D02*X302387Y10800D01*
X301000Y10000D02*X299613Y10800D01*
X292000Y7500D02*Y5900D01*
Y7500D02*X293387Y8300D01*
X292000Y7500D02*X290613Y8300D01*
X183500Y126500D02*Y124900D01*
Y126500D02*X184887Y127300D01*
X183500Y126500D02*X182113Y127300D01*
X176500Y128500D02*Y126900D01*
Y128500D02*X177887Y129300D01*
X176500Y128500D02*X175113Y129300D01*
X180000Y123000D02*Y121400D01*
Y123000D02*X181387Y123800D01*
X180000Y123000D02*X178613Y123800D01*
X153000Y145500D02*Y143900D01*
Y145500D02*X154387Y146300D01*
X153000Y145500D02*X151613Y146300D01*
X15000Y321250D02*Y319650D01*
Y321250D02*X16387Y322050D01*
X15000Y321250D02*X13613Y322050D01*
X135000Y323500D02*Y322750D01*
X136500Y321250D01*
X138000Y322750D01*
Y323500D02*Y322750D01*
X136500Y321250D02*Y317500D01*
X139800Y320500D02*X142050D01*
X139800Y317500D02*X142800D01*
X139800Y323500D02*Y317500D01*
Y323500D02*X142800D01*
X147600D02*X148350Y322750D01*
X145350Y323500D02*X147600D01*
X144600Y322750D02*X145350Y323500D01*
X144600Y322750D02*Y321250D01*
X145350Y320500D01*
X147600D01*
X148350Y319750D01*
Y318250D01*
X147600Y317500D02*X148350Y318250D01*
X145350Y317500D02*X147600D01*
X144600Y318250D02*X145350Y317500D01*
X98000D02*X101000Y320500D01*
Y322750D02*Y320500D01*
X100250Y323500D02*X101000Y322750D01*
X98750Y323500D02*X100250D01*
X98000Y322750D02*X98750Y323500D01*
X98000Y322750D02*Y321250D01*
X98750Y320500D01*
X101000D01*
X102800Y317500D02*X106550Y321250D01*
Y323500D02*Y321250D01*
X102800Y323500D02*X106550D01*
X45000Y318250D02*X45750Y317500D01*
X45000Y322750D02*Y318250D01*
Y322750D02*X45750Y323500D01*
X47250D01*
X48000Y322750D01*
Y318250D01*
X47250Y317500D02*X48000Y318250D01*
X45750Y317500D02*X47250D01*
X45000Y319000D02*X48000Y322000D01*
X49800Y317500D02*X50550D01*
X52350Y318250D02*X53100Y317500D01*
X52350Y322750D02*Y318250D01*
Y322750D02*X53100Y323500D01*
X54600D01*
X55350Y322750D01*
Y318250D01*
X54600Y317500D02*X55350Y318250D01*
X53100Y317500D02*X54600D01*
X52350Y319000D02*X55350Y322000D01*
X57150Y322750D02*X57900Y323500D01*
X60150D01*
X60900Y322750D01*
Y321250D01*
X57150Y317500D02*X60900Y321250D01*
X57150Y317500D02*X60900D01*
X62700Y318250D02*X63450Y317500D01*
X62700Y322750D02*Y318250D01*
Y322750D02*X63450Y323500D01*
X64950D01*
X65700Y322750D01*
Y318250D01*
X64950Y317500D02*X65700Y318250D01*
X63450Y317500D02*X64950D01*
X62700Y319000D02*X65700Y322000D01*
X3000Y338500D02*X3750Y337750D01*
X750Y338500D02*X3000D01*
X0Y337750D02*X750Y338500D01*
X0Y337750D02*Y336250D01*
X750Y335500D01*
X3000D01*
X3750Y334750D01*
Y333250D01*
X3000Y332500D02*X3750Y333250D01*
X750Y332500D02*X3000D01*
X0Y333250D02*X750Y332500D01*
X5550Y335500D02*Y333250D01*
X6300Y332500D01*
X8550Y335500D02*Y331000D01*
X7800Y330250D02*X8550Y331000D01*
X6300Y330250D02*X7800D01*
X5550Y331000D02*X6300Y330250D01*
Y332500D02*X7800D01*
X8550Y333250D01*
X11100Y334750D02*Y332500D01*
Y334750D02*X11850Y335500D01*
X12600D01*
X13350Y334750D01*
Y332500D01*
Y334750D02*X14100Y335500D01*
X14850D01*
X15600Y334750D01*
Y332500D01*
X10350Y335500D02*X11100Y334750D01*
X17400Y338500D02*Y332500D01*
Y333250D02*X18150Y332500D01*
X19650D01*
X20400Y333250D01*
Y334750D02*Y333250D01*
X19650Y335500D02*X20400Y334750D01*
X18150Y335500D02*X19650D01*
X17400Y334750D02*X18150Y335500D01*
X22200Y334750D02*Y333250D01*
Y334750D02*X22950Y335500D01*
X24450D01*
X25200Y334750D01*
Y333250D01*
X24450Y332500D02*X25200Y333250D01*
X22950Y332500D02*X24450D01*
X22200Y333250D02*X22950Y332500D01*
X27000Y338500D02*Y333250D01*
X27750Y332500D01*
X0Y329250D02*X29250D01*
X41750Y338500D02*Y332500D01*
X44000Y338500D02*X44750Y337750D01*
Y333250D01*
X44000Y332500D02*X44750Y333250D01*
X41000Y332500D02*X44000D01*
X41000Y338500D02*X44000D01*
X46550Y337000D02*Y336250D01*
Y334750D02*Y332500D01*
X50300Y335500D02*X51050Y334750D01*
X48800Y335500D02*X50300D01*
X48050Y334750D02*X48800Y335500D01*
X48050Y334750D02*Y333250D01*
X48800Y332500D01*
X51050Y335500D02*Y333250D01*
X51800Y332500D01*
X48800D02*X50300D01*
X51050Y333250D01*
X54350Y334750D02*Y332500D01*
Y334750D02*X55100Y335500D01*
X55850D01*
X56600Y334750D01*
Y332500D01*
Y334750D02*X57350Y335500D01*
X58100D01*
X58850Y334750D01*
Y332500D01*
X53600Y335500D02*X54350Y334750D01*
X60650Y332500D02*X61400D01*
X65900Y333250D02*X66650Y332500D01*
X65900Y337750D02*X66650Y338500D01*
X65900Y337750D02*Y333250D01*
X68450Y338500D02*X69950D01*
X69200D02*Y332500D01*
X68450D02*X69950D01*
X72500Y334750D02*Y332500D01*
Y334750D02*X73250Y335500D01*
X74000D01*
X74750Y334750D01*
Y332500D01*
X71750Y335500D02*X72500Y334750D01*
X77300Y335500D02*X79550D01*
X76550Y334750D02*X77300Y335500D01*
X76550Y334750D02*Y333250D01*
X77300Y332500D01*
X79550D01*
X81350Y338500D02*Y332500D01*
Y334750D02*X82100Y335500D01*
X83600D01*
X84350Y334750D01*
Y332500D01*
X86150Y338500D02*X86900Y337750D01*
Y333250D01*
X86150Y332500D02*X86900Y333250D01*
X41000Y329250D02*X88700D01*
X95750Y332500D02*X98000D01*
X95000Y333250D02*X95750Y332500D01*
X95000Y337750D02*Y333250D01*
Y337750D02*X95750Y338500D01*
X98000D01*
X99800Y334750D02*Y333250D01*
Y334750D02*X100550Y335500D01*
X102050D01*
X102800Y334750D01*
Y333250D01*
X102050Y332500D02*X102800Y333250D01*
X100550Y332500D02*X102050D01*
X99800Y333250D02*X100550Y332500D01*
X104600Y335500D02*Y333250D01*
X105350Y332500D01*
X106850D01*
X107600Y333250D01*
Y335500D02*Y333250D01*
X110150Y334750D02*Y332500D01*
Y334750D02*X110900Y335500D01*
X111650D01*
X112400Y334750D01*
Y332500D01*
X109400Y335500D02*X110150Y334750D01*
X114950Y338500D02*Y333250D01*
X115700Y332500D01*
X114200Y336250D02*X115700D01*
X95000Y329250D02*X117200D01*
X130750Y338500D02*Y332500D01*
X130000Y338500D02*X133000D01*
X133750Y337750D01*
Y336250D01*
X133000Y335500D02*X133750Y336250D01*
X130750Y335500D02*X133000D01*
X135550Y338500D02*Y333250D01*
X136300Y332500D01*
X140050Y335500D02*X140800Y334750D01*
X138550Y335500D02*X140050D01*
X137800Y334750D02*X138550Y335500D01*
X137800Y334750D02*Y333250D01*
X138550Y332500D01*
X140800Y335500D02*Y333250D01*
X141550Y332500D01*
X138550D02*X140050D01*
X140800Y333250D01*
X144100Y338500D02*Y333250D01*
X144850Y332500D01*
X143350Y336250D02*X144850D01*
X147100Y332500D02*X149350D01*
X146350Y333250D02*X147100Y332500D01*
X146350Y334750D02*Y333250D01*
Y334750D02*X147100Y335500D01*
X148600D01*
X149350Y334750D01*
X146350Y334000D02*X149350D01*
Y334750D02*Y334000D01*
X154150Y338500D02*Y332500D01*
X153400D02*X154150Y333250D01*
X151900Y332500D02*X153400D01*
X151150Y333250D02*X151900Y332500D01*
X151150Y334750D02*Y333250D01*
Y334750D02*X151900Y335500D01*
X153400D01*
X154150Y334750D01*
X157450Y335500D02*Y334750D01*
Y333250D02*Y332500D01*
X155950Y337750D02*Y337000D01*
Y337750D02*X156700Y338500D01*
X158200D01*
X158950Y337750D01*
Y337000D01*
X157450Y335500D02*X158950Y337000D01*
X130000Y329250D02*X160750D01*
X0Y353500D02*X3000D01*
X1500D02*Y347500D01*
X4800Y353500D02*Y347500D01*
Y349750D02*X5550Y350500D01*
X7050D01*
X7800Y349750D01*
Y347500D01*
X10350D02*X12600D01*
X9600Y348250D02*X10350Y347500D01*
X9600Y349750D02*Y348250D01*
Y349750D02*X10350Y350500D01*
X11850D01*
X12600Y349750D01*
X9600Y349000D02*X12600D01*
Y349750D02*Y349000D01*
X15150Y349750D02*Y347500D01*
Y349750D02*X15900Y350500D01*
X17400D01*
X14400D02*X15150Y349750D01*
X19950Y347500D02*X22200D01*
X19200Y348250D02*X19950Y347500D01*
X19200Y349750D02*Y348250D01*
Y349750D02*X19950Y350500D01*
X21450D01*
X22200Y349750D01*
X19200Y349000D02*X22200D01*
Y349750D02*Y349000D01*
X28950Y350500D02*X29700Y349750D01*
X27450Y350500D02*X28950D01*
X26700Y349750D02*X27450Y350500D01*
X26700Y349750D02*Y348250D01*
X27450Y347500D01*
X29700Y350500D02*Y348250D01*
X30450Y347500D01*
X27450D02*X28950D01*
X29700Y348250D01*
X33000Y349750D02*Y347500D01*
Y349750D02*X33750Y350500D01*
X35250D01*
X32250D02*X33000Y349750D01*
X37800Y347500D02*X40050D01*
X37050Y348250D02*X37800Y347500D01*
X37050Y349750D02*Y348250D01*
Y349750D02*X37800Y350500D01*
X39300D01*
X40050Y349750D01*
X37050Y349000D02*X40050D01*
Y349750D02*Y349000D01*
X44550Y347500D02*X47550Y350500D01*
Y352750D02*Y350500D01*
X46800Y353500D02*X47550Y352750D01*
X45300Y353500D02*X46800D01*
X44550Y352750D02*X45300Y353500D01*
X44550Y352750D02*Y351250D01*
X45300Y350500D01*
X47550D01*
X55050Y353500D02*Y347500D01*
X54300D02*X55050Y348250D01*
X52800Y347500D02*X54300D01*
X52050Y348250D02*X52800Y347500D01*
X52050Y349750D02*Y348250D01*
Y349750D02*X52800Y350500D01*
X54300D01*
X55050Y349750D01*
X56850Y352000D02*Y351250D01*
Y349750D02*Y347500D01*
X59100Y352750D02*Y347500D01*
Y352750D02*X59850Y353500D01*
X60600D01*
X58350Y350500D02*X59850D01*
X62850Y352750D02*Y347500D01*
Y352750D02*X63600Y353500D01*
X64350D01*
X62100Y350500D02*X63600D01*
X66600Y347500D02*X68850D01*
X65850Y348250D02*X66600Y347500D01*
X65850Y349750D02*Y348250D01*
Y349750D02*X66600Y350500D01*
X68100D01*
X68850Y349750D01*
X65850Y349000D02*X68850D01*
Y349750D02*Y349000D01*
X71400Y349750D02*Y347500D01*
Y349750D02*X72150Y350500D01*
X73650D01*
X70650D02*X71400Y349750D01*
X76200Y347500D02*X78450D01*
X75450Y348250D02*X76200Y347500D01*
X75450Y349750D02*Y348250D01*
Y349750D02*X76200Y350500D01*
X77700D01*
X78450Y349750D01*
X75450Y349000D02*X78450D01*
Y349750D02*Y349000D01*
X81000Y349750D02*Y347500D01*
Y349750D02*X81750Y350500D01*
X82500D01*
X83250Y349750D01*
Y347500D01*
X80250Y350500D02*X81000Y349750D01*
X85800Y353500D02*Y348250D01*
X86550Y347500D01*
X85050Y351250D02*X86550D01*
X93750Y353500D02*Y347500D01*
X93000D02*X93750Y348250D01*
X91500Y347500D02*X93000D01*
X90750Y348250D02*X91500Y347500D01*
X90750Y349750D02*Y348250D01*
Y349750D02*X91500Y350500D01*
X93000D01*
X93750Y349750D01*
X96300D02*Y347500D01*
Y349750D02*X97050Y350500D01*
X98550D01*
X95550D02*X96300Y349750D01*
X100350Y352000D02*Y351250D01*
Y349750D02*Y347500D01*
X101850Y353500D02*Y348250D01*
X102600Y347500D01*
X104100Y353500D02*Y348250D01*
X104850Y347500D01*
X109800D02*X112050D01*
X112800Y348250D01*
X112050Y349000D02*X112800Y348250D01*
X109800Y349000D02*X112050D01*
X109050Y349750D02*X109800Y349000D01*
X109050Y349750D02*X109800Y350500D01*
X112050D01*
X112800Y349750D01*
X109050Y348250D02*X109800Y347500D01*
X114600Y352000D02*Y351250D01*
Y349750D02*Y347500D01*
X116100Y350500D02*X119100D01*
X116100Y347500D02*X119100Y350500D01*
X116100Y347500D02*X119100D01*
X121650D02*X123900D01*
X120900Y348250D02*X121650Y347500D01*
X120900Y349750D02*Y348250D01*
Y349750D02*X121650Y350500D01*
X123150D01*
X123900Y349750D01*
X120900Y349000D02*X123900D01*
Y349750D02*Y349000D01*
X126450Y347500D02*X128700D01*
X129450Y348250D01*
X128700Y349000D02*X129450Y348250D01*
X126450Y349000D02*X128700D01*
X125700Y349750D02*X126450Y349000D01*
X125700Y349750D02*X126450Y350500D01*
X128700D01*
X129450Y349750D01*
X125700Y348250D02*X126450Y347500D01*
X133950Y350500D02*Y348250D01*
X134700Y347500D01*
X136200D01*
X136950Y348250D01*
Y350500D02*Y348250D01*
X139500Y347500D02*X141750D01*
X142500Y348250D01*
X141750Y349000D02*X142500Y348250D01*
X139500Y349000D02*X141750D01*
X138750Y349750D02*X139500Y349000D01*
X138750Y349750D02*X139500Y350500D01*
X141750D01*
X142500Y349750D01*
X138750Y348250D02*X139500Y347500D01*
X145050D02*X147300D01*
X144300Y348250D02*X145050Y347500D01*
X144300Y349750D02*Y348250D01*
Y349750D02*X145050Y350500D01*
X146550D01*
X147300Y349750D01*
X144300Y349000D02*X147300D01*
Y349750D02*Y349000D01*
X152100Y353500D02*Y347500D01*
X151350D02*X152100Y348250D01*
X149850Y347500D02*X151350D01*
X149100Y348250D02*X149850Y347500D01*
X149100Y349750D02*Y348250D01*
Y349750D02*X149850Y350500D01*
X151350D01*
X152100Y349750D01*
X156600Y352000D02*Y351250D01*
Y349750D02*Y347500D01*
X158850Y349750D02*Y347500D01*
Y349750D02*X159600Y350500D01*
X160350D01*
X161100Y349750D01*
Y347500D01*
X158100Y350500D02*X158850Y349750D01*
X166350Y353500D02*Y348250D01*
X167100Y347500D01*
X165600Y351250D02*X167100D01*
X168600Y353500D02*Y347500D01*
Y349750D02*X169350Y350500D01*
X170850D01*
X171600Y349750D01*
Y347500D01*
X173400Y352000D02*Y351250D01*
Y349750D02*Y347500D01*
X175650D02*X177900D01*
X178650Y348250D01*
X177900Y349000D02*X178650Y348250D01*
X175650Y349000D02*X177900D01*
X174900Y349750D02*X175650Y349000D01*
X174900Y349750D02*X175650Y350500D01*
X177900D01*
X178650Y349750D01*
X174900Y348250D02*X175650Y347500D01*
X183150Y353500D02*Y348250D01*
X183900Y347500D01*
X187650Y350500D02*X188400Y349750D01*
X186150Y350500D02*X187650D01*
X185400Y349750D02*X186150Y350500D01*
X185400Y349750D02*Y348250D01*
X186150Y347500D01*
X188400Y350500D02*Y348250D01*
X189150Y347500D01*
X186150D02*X187650D01*
X188400Y348250D01*
X190950Y350500D02*Y348250D01*
X191700Y347500D01*
X193950Y350500D02*Y346000D01*
X193200Y345250D02*X193950Y346000D01*
X191700Y345250D02*X193200D01*
X190950Y346000D02*X191700Y345250D01*
Y347500D02*X193200D01*
X193950Y348250D01*
X195750Y349750D02*Y348250D01*
Y349750D02*X196500Y350500D01*
X198000D01*
X198750Y349750D01*
Y348250D01*
X198000Y347500D02*X198750Y348250D01*
X196500Y347500D02*X198000D01*
X195750Y348250D02*X196500Y347500D01*
X200550Y350500D02*Y348250D01*
X201300Y347500D01*
X202800D01*
X203550Y348250D01*
Y350500D02*Y348250D01*
X206100Y353500D02*Y348250D01*
X206850Y347500D01*
X205350Y351250D02*X206850D01*
X208350Y346000D02*X209850Y347500D01*
X215100D02*X216600D01*
X215850Y353500D02*Y347500D01*
X214350Y352000D02*X215850Y353500D01*
X220650D02*X221400Y352750D01*
X219150Y353500D02*X220650D01*
X218400Y352750D02*X219150Y353500D01*
X218400Y352750D02*Y348250D01*
X219150Y347500D01*
X220650Y350500D02*X221400Y349750D01*
X218400Y350500D02*X220650D01*
X219150Y347500D02*X220650D01*
X221400Y348250D01*
Y349750D02*Y348250D01*
X225450Y353500D02*X226200Y352750D01*
X223950Y353500D02*X225450D01*
X223200Y352750D02*X223950Y353500D01*
X223200Y352750D02*Y348250D01*
X223950Y347500D01*
X225450Y350500D02*X226200Y349750D01*
X223200Y350500D02*X225450D01*
X223950Y347500D02*X225450D01*
X226200Y348250D01*
Y349750D02*Y348250D01*
X230700Y353500D02*Y347500D01*
Y349750D02*X231450Y350500D01*
X232950D01*
X233700Y349750D01*
Y347500D01*
X235500Y349750D02*Y348250D01*
Y349750D02*X236250Y350500D01*
X237750D01*
X238500Y349750D01*
Y348250D01*
X237750Y347500D02*X238500Y348250D01*
X236250Y347500D02*X237750D01*
X235500Y348250D02*X236250Y347500D01*
X240300Y353500D02*Y348250D01*
X241050Y347500D01*
X243300D02*X245550D01*
X242550Y348250D02*X243300Y347500D01*
X242550Y349750D02*Y348250D01*
Y349750D02*X243300Y350500D01*
X244800D01*
X245550Y349750D01*
X242550Y349000D02*X245550D01*
Y349750D02*Y349000D01*
X248100Y347500D02*X250350D01*
X251100Y348250D01*
X250350Y349000D02*X251100Y348250D01*
X248100Y349000D02*X250350D01*
X247350Y349750D02*X248100Y349000D01*
X247350Y349750D02*X248100Y350500D01*
X250350D01*
X251100Y349750D01*
X247350Y348250D02*X248100Y347500D01*
X256350Y353500D02*Y348250D01*
X257100Y347500D01*
X255600Y351250D02*X257100D01*
X258600Y349750D02*Y348250D01*
Y349750D02*X259350Y350500D01*
X260850D01*
X261600Y349750D01*
Y348250D01*
X260850Y347500D02*X261600Y348250D01*
X259350Y347500D02*X260850D01*
X258600Y348250D02*X259350Y347500D01*
X264150Y353500D02*Y348250D01*
X264900Y347500D01*
X263400Y351250D02*X264900D01*
X268650Y350500D02*X269400Y349750D01*
X267150Y350500D02*X268650D01*
X266400Y349750D02*X267150Y350500D01*
X266400Y349750D02*Y348250D01*
X267150Y347500D01*
X269400Y350500D02*Y348250D01*
X270150Y347500D01*
X267150D02*X268650D01*
X269400Y348250D01*
X271950Y353500D02*Y348250D01*
X272700Y347500D01*
G54D117*X0Y0D02*X350000D01*
Y190000D01*
X0D01*
Y0D01*
G54D116*X88675Y-9500D02*X91675D01*
X92425Y-8750D01*
Y-7250D02*Y-8750D01*
X91675Y-6500D02*X92425Y-7250D01*
X89425Y-6500D02*X91675D01*
X89425Y-3500D02*Y-9500D01*
X88675Y-3500D02*X91675D01*
X92425Y-4250D01*
Y-5750D01*
X91675Y-6500D02*X92425Y-5750D01*
X94225Y-7250D02*Y-8750D01*
Y-7250D02*X94975Y-6500D01*
X96475D01*
X97225Y-7250D01*
Y-8750D01*
X96475Y-9500D02*X97225Y-8750D01*
X94975Y-9500D02*X96475D01*
X94225Y-8750D02*X94975Y-9500D01*
X101275Y-6500D02*X102025Y-7250D01*
X99775Y-6500D02*X101275D01*
X99025Y-7250D02*X99775Y-6500D01*
X99025Y-7250D02*Y-8750D01*
X99775Y-9500D01*
X102025Y-6500D02*Y-8750D01*
X102775Y-9500D01*
X99775D02*X101275D01*
X102025Y-8750D01*
X105325Y-7250D02*Y-9500D01*
Y-7250D02*X106075Y-6500D01*
X107575D01*
X104575D02*X105325Y-7250D01*
X112375Y-3500D02*Y-9500D01*
X111625D02*X112375Y-8750D01*
X110125Y-9500D02*X111625D01*
X109375Y-8750D02*X110125Y-9500D01*
X109375Y-7250D02*Y-8750D01*
Y-7250D02*X110125Y-6500D01*
X111625D01*
X112375Y-7250D01*
X116875D02*Y-8750D01*
Y-7250D02*X117625Y-6500D01*
X119125D01*
X119875Y-7250D01*
Y-8750D01*
X119125Y-9500D02*X119875Y-8750D01*
X117625Y-9500D02*X119125D01*
X116875Y-8750D02*X117625Y-9500D01*
X121675Y-6500D02*Y-8750D01*
X122425Y-9500D01*
X123925D01*
X124675Y-8750D01*
Y-6500D02*Y-8750D01*
X127225Y-3500D02*Y-8750D01*
X127975Y-9500D01*
X126475Y-5750D02*X127975D01*
X129475Y-3500D02*Y-8750D01*
X130225Y-9500D01*
X131725Y-5000D02*Y-5750D01*
Y-7250D02*Y-9500D01*
X133975Y-7250D02*Y-9500D01*
Y-7250D02*X134725Y-6500D01*
X135475D01*
X136225Y-7250D01*
Y-9500D01*
X133225Y-6500D02*X133975Y-7250D01*
X138775Y-9500D02*X141025D01*
X138025Y-8750D02*X138775Y-9500D01*
X138025Y-7250D02*Y-8750D01*
Y-7250D02*X138775Y-6500D01*
X140275D01*
X141025Y-7250D01*
X138025Y-8000D02*X141025D01*
Y-7250D02*Y-8000D01*
X145525Y-5000D02*Y-5750D01*
Y-7250D02*Y-9500D01*
X147775D02*X150025D01*
X150775Y-8750D01*
X150025Y-8000D02*X150775Y-8750D01*
X147775Y-8000D02*X150025D01*
X147025Y-7250D02*X147775Y-8000D01*
X147025Y-7250D02*X147775Y-6500D01*
X150025D01*
X150775Y-7250D01*
X147025Y-8750D02*X147775Y-9500D01*
X156025Y-3500D02*Y-8750D01*
X156775Y-9500D01*
X155275Y-5750D02*X156775D01*
X158275Y-3500D02*Y-9500D01*
Y-7250D02*X159025Y-6500D01*
X160525D01*
X161275Y-7250D01*
Y-9500D01*
X163825D02*X166075D01*
X163075Y-8750D02*X163825Y-9500D01*
X163075Y-7250D02*Y-8750D01*
Y-7250D02*X163825Y-6500D01*
X165325D01*
X166075Y-7250D01*
X163075Y-8000D02*X166075D01*
Y-7250D02*Y-8000D01*
X171325Y-6500D02*X173575D01*
X170575Y-7250D02*X171325Y-6500D01*
X170575Y-7250D02*Y-8750D01*
X171325Y-9500D01*
X173575D01*
X176125D02*X178375D01*
X175375Y-8750D02*X176125Y-9500D01*
X175375Y-7250D02*Y-8750D01*
Y-7250D02*X176125Y-6500D01*
X177625D01*
X178375Y-7250D01*
X175375Y-8000D02*X178375D01*
Y-7250D02*Y-8000D01*
X180925Y-7250D02*Y-9500D01*
Y-7250D02*X181675Y-6500D01*
X182425D01*
X183175Y-7250D01*
Y-9500D01*
X180175Y-6500D02*X180925Y-7250D01*
X185725Y-3500D02*Y-8750D01*
X186475Y-9500D01*
X184975Y-5750D02*X186475D01*
X188725Y-9500D02*X190975D01*
X187975Y-8750D02*X188725Y-9500D01*
X187975Y-7250D02*Y-8750D01*
Y-7250D02*X188725Y-6500D01*
X190225D01*
X190975Y-7250D01*
X187975Y-8000D02*X190975D01*
Y-7250D02*Y-8000D01*
X193525Y-7250D02*Y-9500D01*
Y-7250D02*X194275Y-6500D01*
X195775D01*
X192775D02*X193525Y-7250D01*
X197575Y-3500D02*Y-8750D01*
X198325Y-9500D01*
X199825Y-5000D02*Y-5750D01*
Y-7250D02*Y-9500D01*
X202075Y-7250D02*Y-9500D01*
Y-7250D02*X202825Y-6500D01*
X203575D01*
X204325Y-7250D01*
Y-9500D01*
X201325Y-6500D02*X202075Y-7250D01*
X206875Y-9500D02*X209125D01*
X206125Y-8750D02*X206875Y-9500D01*
X206125Y-7250D02*Y-8750D01*
Y-7250D02*X206875Y-6500D01*
X208375D01*
X209125Y-7250D01*
X206125Y-8000D02*X209125D01*
Y-7250D02*Y-8000D01*
X213625Y-7250D02*Y-8750D01*
Y-7250D02*X214375Y-6500D01*
X215875D01*
X216625Y-7250D01*
Y-8750D01*
X215875Y-9500D02*X216625Y-8750D01*
X214375Y-9500D02*X215875D01*
X213625Y-8750D02*X214375Y-9500D01*
X219175Y-4250D02*Y-9500D01*
Y-4250D02*X219925Y-3500D01*
X220675D01*
X218425Y-6500D02*X219925D01*
X225625Y-3500D02*Y-8750D01*
X226375Y-9500D01*
X224875Y-5750D02*X226375D01*
X227875Y-3500D02*Y-9500D01*
Y-7250D02*X228625Y-6500D01*
X230125D01*
X230875Y-7250D01*
Y-9500D01*
X232675Y-5000D02*Y-5750D01*
Y-7250D02*Y-9500D01*
X234925D02*X237175D01*
X237925Y-8750D01*
X237175Y-8000D02*X237925Y-8750D01*
X234925Y-8000D02*X237175D01*
X234175Y-7250D02*X234925Y-8000D01*
X234175Y-7250D02*X234925Y-6500D01*
X237175D01*
X237925Y-7250D01*
X234175Y-8750D02*X234925Y-9500D01*
X243175Y-7250D02*Y-11750D01*
X242425Y-6500D02*X243175Y-7250D01*
X243925Y-6500D01*
X245425D01*
X246175Y-7250D01*
Y-8750D01*
X245425Y-9500D02*X246175Y-8750D01*
X243925Y-9500D02*X245425D01*
X243175Y-8750D02*X243925Y-9500D01*
X250225Y-6500D02*X250975Y-7250D01*
X248725Y-6500D02*X250225D01*
X247975Y-7250D02*X248725Y-6500D01*
X247975Y-7250D02*Y-8750D01*
X248725Y-9500D01*
X250975Y-6500D02*Y-8750D01*
X251725Y-9500D01*
X248725D02*X250225D01*
X250975Y-8750D01*
X254275Y-3500D02*Y-8750D01*
X255025Y-9500D01*
X253525Y-5750D02*X255025D01*
X256525Y-3500D02*Y-9500D01*
Y-7250D02*X257275Y-6500D01*
X258775D01*
X259525Y-7250D01*
Y-9500D01*
X200750Y218500D02*Y212500D01*
X203000Y218500D02*X203750Y217750D01*
Y213250D01*
X203000Y212500D02*X203750Y213250D01*
X200000Y212500D02*X203000D01*
X200000Y218500D02*X203000D01*
X207800Y215500D02*X208550Y214750D01*
X206300Y215500D02*X207800D01*
X205550Y214750D02*X206300Y215500D01*
X205550Y214750D02*Y213250D01*
X206300Y212500D01*
X208550Y215500D02*Y213250D01*
X209300Y212500D01*
X206300D02*X207800D01*
X208550Y213250D01*
X211850Y218500D02*Y213250D01*
X212600Y212500D01*
X211100Y216250D02*X212600D01*
X214850Y212500D02*X217100D01*
X214100Y213250D02*X214850Y212500D01*
X214100Y214750D02*Y213250D01*
Y214750D02*X214850Y215500D01*
X216350D01*
X217100Y214750D01*
X214100Y214000D02*X217100D01*
Y214750D02*Y214000D01*
X218900Y216250D02*X219650D01*
X218900Y214750D02*X219650D01*
X224150Y218500D02*Y212500D01*
Y218500D02*X226400Y216250D01*
X228650Y218500D01*
Y212500D01*
X230450Y214750D02*Y213250D01*
Y214750D02*X231200Y215500D01*
X232700D01*
X233450Y214750D01*
Y213250D01*
X232700Y212500D02*X233450Y213250D01*
X231200Y212500D02*X232700D01*
X230450Y213250D02*X231200Y212500D01*
X236000Y214750D02*Y212500D01*
Y214750D02*X236750Y215500D01*
X237500D01*
X238250Y214750D01*
Y212500D01*
X235250Y215500D02*X236000Y214750D01*
X243500Y212500D02*X245000D01*
X244250Y218500D02*Y212500D01*
X242750Y217000D02*X244250Y218500D01*
X246800Y213250D02*X247550Y212500D01*
X246800Y214750D02*Y213250D01*
Y214750D02*X247550Y215500D01*
X249050D01*
X249800Y214750D01*
Y213250D01*
X249050Y212500D02*X249800Y213250D01*
X247550Y212500D02*X249050D01*
X246800Y216250D02*X247550Y215500D01*
X246800Y217750D02*Y216250D01*
Y217750D02*X247550Y218500D01*
X249050D01*
X249800Y217750D01*
Y216250D01*
X249050Y215500D02*X249800Y216250D01*
X254300Y218500D02*Y212500D01*
Y218500D02*X256550Y216250D01*
X258800Y218500D01*
Y212500D01*
X262850Y215500D02*X263600Y214750D01*
X261350Y215500D02*X262850D01*
X260600Y214750D02*X261350Y215500D01*
X260600Y214750D02*Y213250D01*
X261350Y212500D01*
X263600Y215500D02*Y213250D01*
X264350Y212500D01*
X261350D02*X262850D01*
X263600Y213250D01*
X266150Y215500D02*Y213250D01*
X266900Y212500D01*
X269150Y215500D02*Y211000D01*
X268400Y210250D02*X269150Y211000D01*
X266900Y210250D02*X268400D01*
X266150Y211000D02*X266900Y210250D01*
Y212500D02*X268400D01*
X269150Y213250D01*
X273650Y217750D02*X274400Y218500D01*
X276650D01*
X277400Y217750D01*
Y216250D01*
X273650Y212500D02*X277400Y216250D01*
X273650Y212500D02*X277400D01*
X279200Y213250D02*X279950Y212500D01*
X279200Y217750D02*Y213250D01*
Y217750D02*X279950Y218500D01*
X281450D01*
X282200Y217750D01*
Y213250D01*
X281450Y212500D02*X282200Y213250D01*
X279950Y212500D02*X281450D01*
X279200Y214000D02*X282200Y217000D01*
X284750Y212500D02*X286250D01*
X285500Y218500D02*Y212500D01*
X284000Y217000D02*X285500Y218500D01*
X288050D02*X291050D01*
X288050D02*Y215500D01*
X288800Y216250D01*
X290300D01*
X291050Y215500D01*
Y213250D01*
X290300Y212500D02*X291050Y213250D01*
X288800Y212500D02*X290300D01*
X288050Y213250D02*X288800Y212500D01*
X295550Y213250D02*X296300Y212500D01*
X295550Y217750D02*Y213250D01*
Y217750D02*X296300Y218500D01*
X297800D01*
X298550Y217750D01*
Y213250D01*
X297800Y212500D02*X298550Y213250D01*
X296300Y212500D02*X297800D01*
X295550Y214000D02*X298550Y217000D01*
X300350Y212500D02*X303350Y215500D01*
Y217750D02*Y215500D01*
X302600Y218500D02*X303350Y217750D01*
X301100Y218500D02*X302600D01*
X300350Y217750D02*X301100Y218500D01*
X300350Y217750D02*Y216250D01*
X301100Y215500D01*
X303350D01*
X305150Y216250D02*X305900D01*
X305150Y214750D02*X305900D01*
X307700Y217750D02*X308450Y218500D01*
X309950D01*
X310700Y217750D01*
Y213250D01*
X309950Y212500D02*X310700Y213250D01*
X308450Y212500D02*X309950D01*
X307700Y213250D02*X308450Y212500D01*
Y215500D02*X310700D01*
X312500Y213250D02*X313250Y212500D01*
X312500Y214750D02*Y213250D01*
Y214750D02*X313250Y215500D01*
X314750D01*
X315500Y214750D01*
Y213250D01*
X314750Y212500D02*X315500Y213250D01*
X313250Y212500D02*X314750D01*
X312500Y216250D02*X313250Y215500D01*
X312500Y217750D02*Y216250D01*
Y217750D02*X313250Y218500D01*
X314750D01*
X315500Y217750D01*
Y216250D01*
X314750Y215500D02*X315500Y216250D01*
X317300D02*X318050D01*
X317300Y214750D02*X318050D01*
X319850Y217750D02*X320600Y218500D01*
X322850D01*
X323600Y217750D01*
Y216250D01*
X319850Y212500D02*X323600Y216250D01*
X319850Y212500D02*X323600D01*
X326150D02*X327650D01*
X326900Y218500D02*Y212500D01*
X325400Y217000D02*X326900Y218500D01*
X332900D02*Y212500D01*
X332150Y218500D02*X335150D01*
X335900Y217750D01*
Y216250D01*
X335150Y215500D02*X335900Y216250D01*
X332900Y215500D02*X335150D01*
X337700Y218500D02*Y212500D01*
Y218500D02*X339950Y216250D01*
X342200Y218500D01*
Y212500D01*
X349700Y218500D02*X350450Y217750D01*
X347450Y218500D02*X349700D01*
X346700Y217750D02*X347450Y218500D01*
X346700Y217750D02*Y213250D01*
X347450Y212500D01*
X349700D01*
X350450Y213250D01*
Y214750D02*Y213250D01*
X349700Y215500D02*X350450Y214750D01*
X348200Y215500D02*X349700D01*
X352250Y218500D02*Y212500D01*
Y218500D02*X354500Y216250D01*
X356750Y218500D01*
Y212500D01*
X358550Y218500D02*X361550D01*
X360050D02*Y212500D01*
X366050Y218500D02*Y213250D01*
X366800Y212500D01*
X368300D01*
X369050Y213250D01*
Y218500D02*Y213250D01*
X370850Y218500D02*X373850D01*
X372350D02*Y212500D01*
X376400D02*X378650D01*
X375650Y213250D02*X376400Y212500D01*
X375650Y217750D02*Y213250D01*
Y217750D02*X376400Y218500D01*
X378650D01*
X200000Y232750D02*Y227500D01*
Y232750D02*X200750Y233500D01*
X203000D01*
X203750Y232750D01*
Y227500D01*
X200000Y230500D02*X203750D01*
X205550D02*Y228250D01*
X206300Y227500D01*
X207800D01*
X208550Y228250D01*
Y230500D02*Y228250D01*
X211100Y233500D02*Y228250D01*
X211850Y227500D01*
X210350Y231250D02*X211850D01*
X213350Y233500D02*Y227500D01*
Y229750D02*X214100Y230500D01*
X215600D01*
X216350Y229750D01*
Y227500D01*
X218150Y229750D02*Y228250D01*
Y229750D02*X218900Y230500D01*
X220400D01*
X221150Y229750D01*
Y228250D01*
X220400Y227500D02*X221150Y228250D01*
X218900Y227500D02*X220400D01*
X218150Y228250D02*X218900Y227500D01*
X223700Y229750D02*Y227500D01*
Y229750D02*X224450Y230500D01*
X225950D01*
X222950D02*X223700Y229750D01*
X227750Y231250D02*X228500D01*
X227750Y229750D02*X228500D01*
X233000Y233500D02*Y227500D01*
Y233500D02*Y232750D01*
X236750Y229000D01*
Y233500D02*Y227500D01*
X240800Y230500D02*X241550Y229750D01*
X239300Y230500D02*X240800D01*
X238550Y229750D02*X239300Y230500D01*
X238550Y229750D02*Y228250D01*
X239300Y227500D01*
X241550Y230500D02*Y228250D01*
X242300Y227500D01*
X239300D02*X240800D01*
X241550Y228250D01*
X244850Y233500D02*Y228250D01*
X245600Y227500D01*
X244100Y231250D02*X245600D01*
X247100Y233500D02*Y227500D01*
Y229750D02*X247850Y230500D01*
X249350D01*
X250100Y229750D01*
Y227500D01*
X254150Y230500D02*X254900Y229750D01*
X252650Y230500D02*X254150D01*
X251900Y229750D02*X252650Y230500D01*
X251900Y229750D02*Y228250D01*
X252650Y227500D01*
X254900Y230500D02*Y228250D01*
X255650Y227500D01*
X252650D02*X254150D01*
X254900Y228250D01*
X258200Y229750D02*Y227500D01*
Y229750D02*X258950Y230500D01*
X259700D01*
X260450Y229750D01*
Y227500D01*
X257450Y230500D02*X258200Y229750D01*
X265700Y233500D02*Y227500D01*
X267950Y233500D02*X268700Y232750D01*
Y228250D01*
X267950Y227500D02*X268700Y228250D01*
X264950Y227500D02*X267950D01*
X264950Y233500D02*X267950D01*
X270500Y227500D02*X271250D01*
X275750Y233500D02*Y227500D01*
X279500Y233500D02*Y227500D01*
X275750Y230500D02*X279500D01*
X281300Y229750D02*Y228250D01*
Y229750D02*X282050Y230500D01*
X283550D01*
X284300Y229750D01*
Y228250D01*
X283550Y227500D02*X284300Y228250D01*
X282050Y227500D02*X283550D01*
X281300Y228250D02*X282050Y227500D01*
X286100Y233500D02*Y228250D01*
X286850Y227500D01*
X289100Y229750D02*Y227500D01*
Y229750D02*X289850Y230500D01*
X290600D01*
X291350Y229750D01*
Y227500D01*
Y229750D02*X292100Y230500D01*
X292850D01*
X293600Y229750D01*
Y227500D01*
X288350Y230500D02*X289100Y229750D01*
X296150Y227500D02*X298400D01*
X295400Y228250D02*X296150Y227500D01*
X295400Y229750D02*Y228250D01*
Y229750D02*X296150Y230500D01*
X297650D01*
X298400Y229750D01*
X295400Y229000D02*X298400D01*
Y229750D02*Y229000D01*
X300950Y227500D02*X303200D01*
X303950Y228250D01*
X303200Y229000D02*X303950Y228250D01*
X300950Y229000D02*X303200D01*
X300200Y229750D02*X300950Y229000D01*
X300200Y229750D02*X300950Y230500D01*
X303200D01*
X303950Y229750D01*
X300200Y228250D02*X300950Y227500D01*
X200000Y248500D02*X203000D01*
X201500D02*Y242500D01*
X204800Y247000D02*Y246250D01*
Y244750D02*Y242500D01*
X207050Y248500D02*Y243250D01*
X207800Y242500D01*
X206300Y246250D02*X207800D01*
X209300Y248500D02*Y243250D01*
X210050Y242500D01*
X212300D02*X214550D01*
X211550Y243250D02*X212300Y242500D01*
X211550Y244750D02*Y243250D01*
Y244750D02*X212300Y245500D01*
X213800D01*
X214550Y244750D01*
X211550Y244000D02*X214550D01*
Y244750D02*Y244000D01*
X216350Y246250D02*X217100D01*
X216350Y244750D02*X217100D01*
X221600Y243250D02*X222350Y242500D01*
X221600Y247750D02*X222350Y248500D01*
X221600Y247750D02*Y243250D01*
X224150Y245500D02*Y243250D01*
X224900Y242500D01*
X226400D01*
X227150Y243250D01*
Y245500D02*Y243250D01*
X229700Y244750D02*Y242500D01*
Y244750D02*X230450Y245500D01*
X231200D01*
X231950Y244750D01*
Y242500D01*
X228950Y245500D02*X229700Y244750D01*
X233750Y248500D02*Y242500D01*
Y244750D02*X236000Y242500D01*
X233750Y244750D02*X235250Y246250D01*
X238550Y244750D02*Y242500D01*
Y244750D02*X239300Y245500D01*
X240050D01*
X240800Y244750D01*
Y242500D01*
X237800Y245500D02*X238550Y244750D01*
X242600D02*Y243250D01*
Y244750D02*X243350Y245500D01*
X244850D01*
X245600Y244750D01*
Y243250D01*
X244850Y242500D02*X245600Y243250D01*
X243350Y242500D02*X244850D01*
X242600Y243250D02*X243350Y242500D01*
X247400Y245500D02*Y243250D01*
X248150Y242500D01*
X248900D01*
X249650Y243250D01*
Y245500D02*Y243250D01*
X250400Y242500D01*
X251150D01*
X251900Y243250D01*
Y245500D02*Y243250D01*
X254450Y244750D02*Y242500D01*
Y244750D02*X255200Y245500D01*
X255950D01*
X256700Y244750D01*
Y242500D01*
X253700Y245500D02*X254450Y244750D01*
X258500Y248500D02*X259250Y247750D01*
Y243250D01*
X258500Y242500D02*X259250Y243250D01*
X263750Y245500D02*X266750D01*
X271250Y248500D02*Y242500D01*
Y248500D02*X274250D01*
X271250Y245500D02*X273500D01*
X278300D02*X279050Y244750D01*
X276800Y245500D02*X278300D01*
X276050Y244750D02*X276800Y245500D01*
X276050Y244750D02*Y243250D01*
X276800Y242500D01*
X279050Y245500D02*Y243250D01*
X279800Y242500D01*
X276800D02*X278300D01*
X279050Y243250D01*
X281600Y248500D02*Y242500D01*
Y243250D02*X282350Y242500D01*
X283850D01*
X284600Y243250D01*
Y244750D02*Y243250D01*
X283850Y245500D02*X284600Y244750D01*
X282350Y245500D02*X283850D01*
X281600Y244750D02*X282350Y245500D01*
X287150Y244750D02*Y242500D01*
Y244750D02*X287900Y245500D01*
X289400D01*
X286400D02*X287150Y244750D01*
X291200Y247000D02*Y246250D01*
Y244750D02*Y242500D01*
X293450Y245500D02*X295700D01*
X292700Y244750D02*X293450Y245500D01*
X292700Y244750D02*Y243250D01*
X293450Y242500D01*
X295700D01*
X299750Y245500D02*X300500Y244750D01*
X298250Y245500D02*X299750D01*
X297500Y244750D02*X298250Y245500D01*
X297500Y244750D02*Y243250D01*
X298250Y242500D01*
X300500Y245500D02*Y243250D01*
X301250Y242500D01*
X298250D02*X299750D01*
X300500Y243250D01*
X303800Y248500D02*Y243250D01*
X304550Y242500D01*
X303050Y246250D02*X304550D01*
X306050Y247000D02*Y246250D01*
Y244750D02*Y242500D01*
X307550Y244750D02*Y243250D01*
Y244750D02*X308300Y245500D01*
X309800D01*
X310550Y244750D01*
Y243250D01*
X309800Y242500D02*X310550Y243250D01*
X308300Y242500D02*X309800D01*
X307550Y243250D02*X308300Y242500D01*
X313100Y244750D02*Y242500D01*
Y244750D02*X313850Y245500D01*
X314600D01*
X315350Y244750D01*
Y242500D01*
X312350Y245500D02*X313100Y244750D01*
X320600Y248500D02*Y242500D01*
X322850Y248500D02*X323600Y247750D01*
Y243250D01*
X322850Y242500D02*X323600Y243250D01*
X319850Y242500D02*X322850D01*
X319850Y248500D02*X322850D01*
X326150Y244750D02*Y242500D01*
Y244750D02*X326900Y245500D01*
X328400D01*
X325400D02*X326150Y244750D01*
X332450Y245500D02*X333200Y244750D01*
X330950Y245500D02*X332450D01*
X330200Y244750D02*X330950Y245500D01*
X330200Y244750D02*Y243250D01*
X330950Y242500D01*
X333200Y245500D02*Y243250D01*
X333950Y242500D01*
X330950D02*X332450D01*
X333200Y243250D01*
X335750Y245500D02*Y243250D01*
X336500Y242500D01*
X337250D01*
X338000Y243250D01*
Y245500D02*Y243250D01*
X338750Y242500D01*
X339500D01*
X340250Y243250D01*
Y245500D02*Y243250D01*
X342050Y247000D02*Y246250D01*
Y244750D02*Y242500D01*
X344300Y244750D02*Y242500D01*
Y244750D02*X345050Y245500D01*
X345800D01*
X346550Y244750D01*
Y242500D01*
X343550Y245500D02*X344300Y244750D01*
X350600Y245500D02*X351350Y244750D01*
X349100Y245500D02*X350600D01*
X348350Y244750D02*X349100Y245500D01*
X348350Y244750D02*Y243250D01*
X349100Y242500D01*
X350600D01*
X351350Y243250D01*
X348350Y241000D02*X349100Y240250D01*
X350600D01*
X351350Y241000D01*
Y245500D02*Y241000D01*
M02*
