M48
INCH
T67C0.035
T66C0.020
T65C0.045
T64C0.038
T63C0.128
T62C0.030
T61C0.129
T60C0.039
T59C0.028
T58C0.048
%
T66
X025550Y005339
X025550Y007261
X027800Y009150
X023850Y010200
X023850Y009400
X023300Y010100
X026500Y010550
X026500Y009650
X025650Y009950
X027100Y011850
X027100Y012450
X008500Y004500
X011950Y006900
X010250Y004100
X012400Y005700
X012550Y006900
X003750Y011150
X003750Y010450
X004300Y010900
X016500Y006400
X014700Y005850
X015550Y009350
X019000Y008600
X020400Y008700
X020800Y006400
X020950Y007400
X020250Y005500
X024050Y006450
X023850Y007000
X024050Y005300
X017750Y015600
X017950Y015050
X018550Y014650
X023950Y013750
X027100Y013400
X026450Y013400
X024950Y014300
X029150Y014550
X025800Y015450
X014000Y009350
X014350Y012500
X014350Y015050
X016850Y009700
X016850Y012750
X021450Y007250
X020800Y008050
X019400Y010050
X019400Y010700
X020100Y011250
X018850Y012850
X020450Y012450
X020950Y012450
X021900Y010450
X021900Y011600
X022250Y011150
X011700Y011550
X011200Y011550
X012600Y011500
X010650Y011550
X007650Y012200
X007650Y011700
X008400Y010800
T59
X004900Y005200
X005900Y005200
X006900Y005200
X007900Y005200
X007900Y008200
X006900Y008200
X005900Y008200
X004900Y008200
T62
X028250Y005300
X029250Y005800
X029250Y006800
X028250Y006300
X028250Y007300
X029250Y007800
X028250Y011050
X029250Y011550
X028250Y012050
X029250Y012550
X028250Y013050
X029250Y013550
T67
X030600Y011850
X005900Y003800
X013700Y000550
X011150Y002050
X014600Y007600
X013250Y009350
X023200Y000600
X019350Y006200
X023800Y004550
X023100Y018200
X022600Y014250
X013650Y018400
X011100Y014900
X012950Y015300
T64
X030100Y017400
X029100Y017400
X028100Y017400
X030100Y016400
X029100Y016400
X028100Y016400
T60
X022450Y001450
X022450Y002450
X022450Y003450
X012000Y001400
X012000Y002400
X012000Y003400
X022500Y015600
X022500Y016600
X022500Y017600
X012000Y015600
X012000Y016600
X012000Y017600
T65
X005700Y010200
X005700Y011200
X005700Y012200
T58
X004850Y002400
X009850Y002400
X015350Y002400
X020350Y002400
X015300Y016550
X009850Y016550
X020300Y016550
X002300Y012250
X002300Y010250
X002300Y008250
X002300Y006250
X004850Y016550
T63
X031750Y004550
X031750Y008550
X031750Y010300
X031750Y014300
T61
X001800Y001800
X033300Y001750
X033250Y017300
X001650Y017300
M30
