G04 start of page 7 for group -4062 idx -4062 *
G04 Title: (unknown), soldermask *
G04 Creator: pcb 20110918 *
G04 CreationDate: Thu 28 Mar 2013 10:57:24 PM GMT UTC *
G04 For: railfan *
G04 Format: Gerber/RS-274X *
G04 PCB-Dimensions: 350000 190000 *
G04 PCB-Coordinate-Origin: lower left *
%MOIN*%
%FSLAX25Y25*%
%LNBOTTOMMASK*%
%ADD90C,0.0907*%
%ADD89C,0.0900*%
%ADD88C,0.1560*%
%ADD87C,0.0750*%
%ADD86C,0.2937*%
%ADD85C,0.0760*%
%ADD84C,0.0660*%
%ADD83C,0.0860*%
%ADD82C,0.0001*%
G54D82*G36*
X44200Y28300D02*Y19700D01*
X52800D01*
Y28300D01*
X44200D01*
G37*
G54D83*X98500Y24000D03*
G54D82*G36*
X45700Y55300D02*Y48700D01*
X52300D01*
Y55300D01*
X45700D01*
G37*
G54D84*X59000Y52000D03*
X69000D03*
X79000D03*
G54D82*G36*
X220700Y18300D02*Y10700D01*
X228300D01*
Y18300D01*
X220700D01*
G37*
G54D85*X224500Y24500D03*
Y34500D03*
G54D82*G36*
X149200Y28300D02*Y19700D01*
X157800D01*
Y28300D01*
X149200D01*
G37*
G54D83*X203500Y24000D03*
G54D86*X18000Y18000D03*
G54D82*G36*
X116200Y17800D02*Y10200D01*
X123800D01*
Y17800D01*
X116200D01*
G37*
G54D85*X120000Y24000D03*
Y34000D03*
G54D87*X282500Y53000D03*
X292500Y58000D03*
Y68000D03*
G54D88*X317500Y45500D03*
G54D86*X333000Y17500D03*
G54D82*G36*
X297700Y177300D02*Y170700D01*
X304300D01*
Y177300D01*
X297700D01*
G37*
G54D84*X291000Y174000D03*
X281000D03*
X301000Y164000D03*
X291000D03*
X281000D03*
G54D82*G36*
X221200Y159800D02*Y152200D01*
X228800D01*
Y159800D01*
X221200D01*
G37*
G54D85*X225000Y166000D03*
Y176000D03*
G54D86*X332500Y173000D03*
G54D82*G36*
X148700Y169800D02*Y161200D01*
X157300D01*
Y169800D01*
X148700D01*
G37*
G54D83*X98500Y165500D03*
G54D82*G36*
X116200Y159800D02*Y152200D01*
X123800D01*
Y159800D01*
X116200D01*
G37*
G54D85*X120000Y166000D03*
Y176000D03*
G54D83*X203000Y165500D03*
G54D82*G36*
X18700Y126800D02*Y118200D01*
X27300D01*
Y126800D01*
X18700D01*
G37*
G54D83*X23000Y102500D03*
G54D82*G36*
X18700Y86800D02*Y78200D01*
X27300D01*
Y86800D01*
X18700D01*
G37*
G54D83*X23000Y62500D03*
G54D86*X16500Y173000D03*
G54D89*X57000Y102000D03*
Y112000D03*
G54D82*G36*
X52500Y126500D02*Y117500D01*
X61500D01*
Y126500D01*
X52500D01*
G37*
G36*
X44200Y169800D02*Y161200D01*
X52800D01*
Y169800D01*
X44200D01*
G37*
G54D84*X79000Y82000D03*
X69000D03*
X59000D03*
X49000D03*
G54D87*X282500Y63000D03*
Y73000D03*
X292500Y78000D03*
G54D88*X317500Y85500D03*
G54D82*G36*
X251700Y57194D02*Y49594D01*
X259300D01*
Y57194D01*
X251700D01*
G37*
G54D85*X255500Y72606D03*
G54D87*X282500Y110500D03*
X292500Y115500D03*
X282500Y120500D03*
X292500Y125500D03*
X282500Y130500D03*
X292500Y135500D03*
G54D88*X317500Y103000D03*
Y143000D03*
G54D90*X53063Y112000D02*X60937D01*
X53063Y122000D02*X60937D01*
X53063Y102000D02*X60937D01*
M02*
