G04 start of page 12 for group -3984 idx -3984 *
G04 Title: (unknown), fab *
G04 Creator: pcb 20110918 *
G04 CreationDate: Thu 28 Mar 2013 10:57:24 PM GMT UTC *
G04 For: railfan *
G04 Format: Gerber/RS-274X *
G04 PCB-Dimensions: 350000 190000 *
G04 PCB-Coordinate-Origin: lower left *
%MOIN*%
%FSLAX25Y25*%
%LNFAB*%
%ADD101C,0.0100*%
%ADD100C,0.0060*%
%ADD99R,0.0080X0.0080*%
G54D99*X16400Y19600D02*X19600D01*
X16400D02*Y16400D01*
X19600D01*
Y19600D02*Y16400D01*
X14800Y21200D02*X21200D01*
X14800D02*Y14800D01*
X21200D01*
Y21200D02*Y14800D01*
X331400Y19100D02*X334600D01*
X331400D02*Y15900D01*
X334600D01*
Y19100D02*Y15900D01*
X329800Y20700D02*X336200D01*
X329800D02*Y14300D01*
X336200D01*
Y20700D02*Y14300D01*
X14900Y174600D02*X18100D01*
X14900D02*Y171400D01*
X18100D01*
Y174600D02*Y171400D01*
X13300Y176200D02*X19700D01*
X13300D02*Y169800D01*
X19700D01*
Y176200D02*Y169800D01*
X330900Y174600D02*X334100D01*
X330900D02*Y171400D01*
X334100D01*
Y174600D02*Y171400D01*
X329300Y176200D02*X335700D01*
X329300D02*Y169800D01*
X335700D01*
Y176200D02*Y169800D01*
X13400Y202850D02*X16600D01*
X13400D02*Y199650D01*
X16600D01*
Y202850D02*Y199650D01*
X11800Y204450D02*X18200D01*
X11800D02*Y198050D01*
X18200D01*
Y204450D02*Y198050D01*
G54D100*X135000Y203500D02*Y202750D01*
X136500Y201250D01*
X138000Y202750D01*
Y203500D02*Y202750D01*
X136500Y201250D02*Y197500D01*
X139800Y200500D02*X142050D01*
X139800Y197500D02*X142800D01*
X139800Y203500D02*Y197500D01*
Y203500D02*X142800D01*
X147600D02*X148350Y202750D01*
X145350Y203500D02*X147600D01*
X144600Y202750D02*X145350Y203500D01*
X144600Y202750D02*Y201250D01*
X145350Y200500D01*
X147600D01*
X148350Y199750D01*
Y198250D01*
X147600Y197500D02*X148350Y198250D01*
X145350Y197500D02*X147600D01*
X144600Y198250D02*X145350Y197500D01*
X98000Y200500D02*X101000Y203500D01*
X98000Y200500D02*X101750D01*
X101000Y203500D02*Y197500D01*
X45000Y198250D02*X45750Y197500D01*
X45000Y202750D02*Y198250D01*
Y202750D02*X45750Y203500D01*
X47250D01*
X48000Y202750D01*
Y198250D01*
X47250Y197500D02*X48000Y198250D01*
X45750Y197500D02*X47250D01*
X45000Y199000D02*X48000Y202000D01*
X49800Y197500D02*X50550D01*
X53100D02*X54600D01*
X53850Y203500D02*Y197500D01*
X52350Y202000D02*X53850Y203500D01*
X56400Y202750D02*X57150Y203500D01*
X59400D01*
X60150Y202750D01*
Y201250D01*
X56400Y197500D02*X60150Y201250D01*
X56400Y197500D02*X60150D01*
X61950D02*X64950Y200500D01*
Y202750D02*Y200500D01*
X64200Y203500D02*X64950Y202750D01*
X62700Y203500D02*X64200D01*
X61950Y202750D02*X62700Y203500D01*
X61950Y202750D02*Y201250D01*
X62700Y200500D01*
X64950D01*
X316700Y45500D02*G75*G03X318300Y45500I800J0D01*G01*
G75*G03X316700Y45500I-800J0D01*G01*
X315100D02*G75*G03X319900Y45500I2400J0D01*G01*
G75*G03X315100Y45500I-2400J0D01*G01*
X316700Y85500D02*G75*G03X318300Y85500I800J0D01*G01*
G75*G03X316700Y85500I-800J0D01*G01*
X315100D02*G75*G03X319900Y85500I2400J0D01*G01*
G75*G03X315100Y85500I-2400J0D01*G01*
X316700Y103000D02*G75*G03X318300Y103000I800J0D01*G01*
G75*G03X316700Y103000I-800J0D01*G01*
X315100D02*G75*G03X319900Y103000I2400J0D01*G01*
G75*G03X315100Y103000I-2400J0D01*G01*
X316700Y143000D02*G75*G03X318300Y143000I800J0D01*G01*
G75*G03X316700Y143000I-800J0D01*G01*
X315100D02*G75*G03X319900Y143000I2400J0D01*G01*
G75*G03X315100Y143000I-2400J0D01*G01*
X14200Y216250D02*G75*G03X15800Y216250I800J0D01*G01*
G75*G03X14200Y216250I-800J0D01*G01*
X12600D02*G75*G03X17400Y216250I2400J0D01*G01*
G75*G03X12600Y216250I-2400J0D01*G01*
X135000Y218500D02*Y217750D01*
X136500Y216250D01*
X138000Y217750D01*
Y218500D02*Y217750D01*
X136500Y216250D02*Y212500D01*
X139800Y215500D02*X142050D01*
X139800Y212500D02*X142800D01*
X139800Y218500D02*Y212500D01*
Y218500D02*X142800D01*
X147600D02*X148350Y217750D01*
X145350Y218500D02*X147600D01*
X144600Y217750D02*X145350Y218500D01*
X144600Y217750D02*Y216250D01*
X145350Y215500D01*
X147600D01*
X148350Y214750D01*
Y213250D01*
X147600Y212500D02*X148350Y213250D01*
X145350Y212500D02*X147600D01*
X144600Y213250D02*X145350Y212500D01*
X98000Y215500D02*X101000Y218500D01*
X98000Y215500D02*X101750D01*
X101000Y218500D02*Y212500D01*
X45000Y213250D02*X45750Y212500D01*
X45000Y217750D02*Y213250D01*
Y217750D02*X45750Y218500D01*
X47250D01*
X48000Y217750D01*
Y213250D01*
X47250Y212500D02*X48000Y213250D01*
X45750Y212500D02*X47250D01*
X45000Y214000D02*X48000Y217000D01*
X49800Y212500D02*X50550D01*
X53100D02*X54600D01*
X53850Y218500D02*Y212500D01*
X52350Y217000D02*X53850Y218500D01*
X56400Y217750D02*X57150Y218500D01*
X59400D01*
X60150Y217750D01*
Y216250D01*
X56400Y212500D02*X60150Y216250D01*
X56400Y212500D02*X60150D01*
X61950Y213250D02*X62700Y212500D01*
X61950Y214750D02*Y213250D01*
Y214750D02*X62700Y215500D01*
X64200D01*
X64950Y214750D01*
Y213250D01*
X64200Y212500D02*X64950Y213250D01*
X62700Y212500D02*X64200D01*
X61950Y216250D02*X62700Y215500D01*
X61950Y217750D02*Y216250D01*
Y217750D02*X62700Y218500D01*
X64200D01*
X64950Y217750D01*
Y216250D01*
X64200Y215500D02*X64950Y216250D01*
X46100Y26400D02*X50900Y21600D01*
X46100D02*X50900Y26400D01*
X46900Y25600D02*X50100D01*
X46900D02*Y22400D01*
X50100D01*
Y25600D02*Y22400D01*
X96100Y26400D02*X100900Y21600D01*
X96100D02*X100900Y26400D01*
X96900Y25600D02*X100100D01*
X96900D02*Y22400D01*
X100100D01*
Y25600D02*Y22400D01*
X151100Y26400D02*X155900Y21600D01*
X151100D02*X155900Y26400D01*
X151900Y25600D02*X155100D01*
X151900D02*Y22400D01*
X155100D01*
Y25600D02*Y22400D01*
X201100Y26400D02*X205900Y21600D01*
X201100D02*X205900Y26400D01*
X201900Y25600D02*X205100D01*
X201900D02*Y22400D01*
X205100D01*
Y25600D02*Y22400D01*
X150600Y167900D02*X155400Y163100D01*
X150600D02*X155400Y167900D01*
X151400Y167100D02*X154600D01*
X151400D02*Y163900D01*
X154600D01*
Y167100D02*Y163900D01*
X200600Y167900D02*X205400Y163100D01*
X200600D02*X205400Y167900D01*
X201400Y167100D02*X204600D01*
X201400D02*Y163900D01*
X204600D01*
Y167100D02*Y163900D01*
X20600Y124900D02*X25400Y120100D01*
X20600D02*X25400Y124900D01*
X21400Y124100D02*X24600D01*
X21400D02*Y120900D01*
X24600D01*
Y124100D02*Y120900D01*
X20600Y104900D02*X25400Y100100D01*
X20600D02*X25400Y104900D01*
X21400Y104100D02*X24600D01*
X21400D02*Y100900D01*
X24600D01*
Y104100D02*Y100900D01*
X20600Y84900D02*X25400Y80100D01*
X20600D02*X25400Y84900D01*
X21400Y84100D02*X24600D01*
X21400D02*Y80900D01*
X24600D01*
Y84100D02*Y80900D01*
X20600Y64900D02*X25400Y60100D01*
X20600D02*X25400Y64900D01*
X21400Y64100D02*X24600D01*
X21400D02*Y60900D01*
X24600D01*
Y64100D02*Y60900D01*
X46100Y167900D02*X50900Y163100D01*
X46100D02*X50900Y167900D01*
X46900Y167100D02*X50100D01*
X46900D02*Y163900D01*
X50100D01*
Y167100D02*Y163900D01*
X96100Y167900D02*X100900Y163100D01*
X96100D02*X100900Y167900D01*
X96900Y167100D02*X100100D01*
X96900D02*Y163900D01*
X100100D01*
Y167100D02*Y163900D01*
X12600Y233650D02*X17400Y228850D01*
X12600D02*X17400Y233650D01*
X13400Y232850D02*X16600D01*
X13400D02*Y229650D01*
X16600D01*
Y232850D02*Y229650D01*
X135000Y233500D02*Y232750D01*
X136500Y231250D01*
X138000Y232750D01*
Y233500D02*Y232750D01*
X136500Y231250D02*Y227500D01*
X139800Y230500D02*X142050D01*
X139800Y227500D02*X142800D01*
X139800Y233500D02*Y227500D01*
Y233500D02*X142800D01*
X147600D02*X148350Y232750D01*
X145350Y233500D02*X147600D01*
X144600Y232750D02*X145350Y233500D01*
X144600Y232750D02*Y231250D01*
X145350Y230500D01*
X147600D01*
X148350Y229750D01*
Y228250D01*
X147600Y227500D02*X148350Y228250D01*
X145350Y227500D02*X147600D01*
X144600Y228250D02*X145350Y227500D01*
X98750D02*X100250D01*
X99500Y233500D02*Y227500D01*
X98000Y232000D02*X99500Y233500D01*
X102050Y232750D02*X102800Y233500D01*
X105050D01*
X105800Y232750D01*
Y231250D01*
X102050Y227500D02*X105800Y231250D01*
X102050Y227500D02*X105800D01*
X45000Y228250D02*X45750Y227500D01*
X45000Y232750D02*Y228250D01*
Y232750D02*X45750Y233500D01*
X47250D01*
X48000Y232750D01*
Y228250D01*
X47250Y227500D02*X48000Y228250D01*
X45750Y227500D02*X47250D01*
X45000Y229000D02*X48000Y232000D01*
X49800Y227500D02*X50550D01*
X52350Y228250D02*X53100Y227500D01*
X52350Y232750D02*Y228250D01*
Y232750D02*X53100Y233500D01*
X54600D01*
X55350Y232750D01*
Y228250D01*
X54600Y227500D02*X55350Y228250D01*
X53100Y227500D02*X54600D01*
X52350Y229000D02*X55350Y232000D01*
X57150Y230500D02*X60150Y233500D01*
X57150Y230500D02*X60900D01*
X60150Y233500D02*Y227500D01*
X62700Y228250D02*X63450Y227500D01*
X62700Y229750D02*Y228250D01*
Y229750D02*X63450Y230500D01*
X64950D01*
X65700Y229750D01*
Y228250D01*
X64950Y227500D02*X65700Y228250D01*
X63450Y227500D02*X64950D01*
X62700Y231250D02*X63450Y230500D01*
X62700Y232750D02*Y231250D01*
Y232750D02*X63450Y233500D01*
X64950D01*
X65700Y232750D01*
Y231250D01*
X64950Y230500D02*X65700Y231250D01*
X57000Y105200D02*Y98800D01*
X53800Y102000D02*X60200D01*
X55400Y103600D02*X58600D01*
X55400D02*Y100400D01*
X58600D01*
Y103600D02*Y100400D01*
X57000Y115200D02*Y108800D01*
X53800Y112000D02*X60200D01*
X55400Y113600D02*X58600D01*
X55400D02*Y110400D01*
X58600D01*
Y113600D02*Y110400D01*
X57000Y125200D02*Y118800D01*
X53800Y122000D02*X60200D01*
X55400Y123600D02*X58600D01*
X55400D02*Y120400D01*
X58600D01*
Y123600D02*Y120400D01*
X15000Y249450D02*Y243050D01*
X11800Y246250D02*X18200D01*
X13400Y247850D02*X16600D01*
X13400D02*Y244650D01*
X16600D01*
Y247850D02*Y244650D01*
X135000Y248500D02*Y247750D01*
X136500Y246250D01*
X138000Y247750D01*
Y248500D02*Y247750D01*
X136500Y246250D02*Y242500D01*
X139800Y245500D02*X142050D01*
X139800Y242500D02*X142800D01*
X139800Y248500D02*Y242500D01*
Y248500D02*X142800D01*
X147600D02*X148350Y247750D01*
X145350Y248500D02*X147600D01*
X144600Y247750D02*X145350Y248500D01*
X144600Y247750D02*Y246250D01*
X145350Y245500D01*
X147600D01*
X148350Y244750D01*
Y243250D01*
X147600Y242500D02*X148350Y243250D01*
X145350Y242500D02*X147600D01*
X144600Y243250D02*X145350Y242500D01*
X98000Y247750D02*X98750Y248500D01*
X100250D01*
X101000Y247750D01*
Y243250D01*
X100250Y242500D02*X101000Y243250D01*
X98750Y242500D02*X100250D01*
X98000Y243250D02*X98750Y242500D01*
Y245500D02*X101000D01*
X45000Y243250D02*X45750Y242500D01*
X45000Y247750D02*Y243250D01*
Y247750D02*X45750Y248500D01*
X47250D01*
X48000Y247750D01*
Y243250D01*
X47250Y242500D02*X48000Y243250D01*
X45750Y242500D02*X47250D01*
X45000Y244000D02*X48000Y247000D01*
X49800Y242500D02*X50550D01*
X52350Y243250D02*X53100Y242500D01*
X52350Y247750D02*Y243250D01*
Y247750D02*X53100Y248500D01*
X54600D01*
X55350Y247750D01*
Y243250D01*
X54600Y242500D02*X55350Y243250D01*
X53100Y242500D02*X54600D01*
X52350Y244000D02*X55350Y247000D01*
X57150Y245500D02*X60150Y248500D01*
X57150Y245500D02*X60900D01*
X60150Y248500D02*Y242500D01*
X62700Y248500D02*X65700D01*
X62700D02*Y245500D01*
X63450Y246250D01*
X64950D01*
X65700Y245500D01*
Y243250D01*
X64950Y242500D02*X65700Y243250D01*
X63450Y242500D02*X64950D01*
X62700Y243250D02*X63450Y242500D01*
X224500Y14500D02*Y11300D01*
Y14500D02*X227273Y16100D01*
X224500Y14500D02*X221727Y16100D01*
X222900Y14500D02*G75*G03X226100Y14500I1600J0D01*G01*
G75*G03X222900Y14500I-1600J0D01*G01*
X224500Y24500D02*Y21300D01*
Y24500D02*X227273Y26100D01*
X224500Y24500D02*X221727Y26100D01*
X222900Y24500D02*G75*G03X226100Y24500I1600J0D01*G01*
G75*G03X222900Y24500I-1600J0D01*G01*
X224500Y34500D02*Y31300D01*
Y34500D02*X227273Y36100D01*
X224500Y34500D02*X221727Y36100D01*
X222900Y34500D02*G75*G03X226100Y34500I1600J0D01*G01*
G75*G03X222900Y34500I-1600J0D01*G01*
X225000Y156000D02*Y152800D01*
Y156000D02*X227773Y157600D01*
X225000Y156000D02*X222227Y157600D01*
X223400Y156000D02*G75*G03X226600Y156000I1600J0D01*G01*
G75*G03X223400Y156000I-1600J0D01*G01*
X225000Y166000D02*Y162800D01*
Y166000D02*X227773Y167600D01*
X225000Y166000D02*X222227Y167600D01*
X223400Y166000D02*G75*G03X226600Y166000I1600J0D01*G01*
G75*G03X223400Y166000I-1600J0D01*G01*
X225000Y176000D02*Y172800D01*
Y176000D02*X227773Y177600D01*
X225000Y176000D02*X222227Y177600D01*
X223400Y176000D02*G75*G03X226600Y176000I1600J0D01*G01*
G75*G03X223400Y176000I-1600J0D01*G01*
X120000Y156000D02*Y152800D01*
Y156000D02*X122773Y157600D01*
X120000Y156000D02*X117227Y157600D01*
X118400Y156000D02*G75*G03X121600Y156000I1600J0D01*G01*
G75*G03X118400Y156000I-1600J0D01*G01*
X120000Y166000D02*Y162800D01*
Y166000D02*X122773Y167600D01*
X120000Y166000D02*X117227Y167600D01*
X118400Y166000D02*G75*G03X121600Y166000I1600J0D01*G01*
G75*G03X118400Y166000I-1600J0D01*G01*
X120000Y176000D02*Y172800D01*
Y176000D02*X122773Y177600D01*
X120000Y176000D02*X117227Y177600D01*
X118400Y176000D02*G75*G03X121600Y176000I1600J0D01*G01*
G75*G03X118400Y176000I-1600J0D01*G01*
X120000Y14000D02*Y10800D01*
Y14000D02*X122773Y15600D01*
X120000Y14000D02*X117227Y15600D01*
X118400Y14000D02*G75*G03X121600Y14000I1600J0D01*G01*
G75*G03X118400Y14000I-1600J0D01*G01*
X120000Y24000D02*Y20800D01*
Y24000D02*X122773Y25600D01*
X120000Y24000D02*X117227Y25600D01*
X118400Y24000D02*G75*G03X121600Y24000I1600J0D01*G01*
G75*G03X118400Y24000I-1600J0D01*G01*
X120000Y34000D02*Y30800D01*
Y34000D02*X122773Y35600D01*
X120000Y34000D02*X117227Y35600D01*
X118400Y34000D02*G75*G03X121600Y34000I1600J0D01*G01*
G75*G03X118400Y34000I-1600J0D01*G01*
X15000Y261250D02*Y258050D01*
Y261250D02*X17773Y262850D01*
X15000Y261250D02*X12227Y262850D01*
X13400Y261250D02*G75*G03X16600Y261250I1600J0D01*G01*
G75*G03X13400Y261250I-1600J0D01*G01*
X135000Y263500D02*Y262750D01*
X136500Y261250D01*
X138000Y262750D01*
Y263500D02*Y262750D01*
X136500Y261250D02*Y257500D01*
X139800Y260500D02*X142050D01*
X139800Y257500D02*X142800D01*
X139800Y263500D02*Y257500D01*
Y263500D02*X142800D01*
X147600D02*X148350Y262750D01*
X145350Y263500D02*X147600D01*
X144600Y262750D02*X145350Y263500D01*
X144600Y262750D02*Y261250D01*
X145350Y260500D01*
X147600D01*
X148350Y259750D01*
Y258250D01*
X147600Y257500D02*X148350Y258250D01*
X145350Y257500D02*X147600D01*
X144600Y258250D02*X145350Y257500D01*
X98750D02*X100250D01*
X99500Y263500D02*Y257500D01*
X98000Y262000D02*X99500Y263500D01*
X102050Y262750D02*X102800Y263500D01*
X105050D01*
X105800Y262750D01*
Y261250D01*
X102050Y257500D02*X105800Y261250D01*
X102050Y257500D02*X105800D01*
X45000Y258250D02*X45750Y257500D01*
X45000Y262750D02*Y258250D01*
Y262750D02*X45750Y263500D01*
X47250D01*
X48000Y262750D01*
Y258250D01*
X47250Y257500D02*X48000Y258250D01*
X45750Y257500D02*X47250D01*
X45000Y259000D02*X48000Y262000D01*
X49800Y257500D02*X50550D01*
X52350Y258250D02*X53100Y257500D01*
X52350Y262750D02*Y258250D01*
Y262750D02*X53100Y263500D01*
X54600D01*
X55350Y262750D01*
Y258250D01*
X54600Y257500D02*X55350Y258250D01*
X53100Y257500D02*X54600D01*
X52350Y259000D02*X55350Y262000D01*
X57150Y262750D02*X57900Y263500D01*
X59400D01*
X60150Y262750D01*
Y258250D01*
X59400Y257500D02*X60150Y258250D01*
X57900Y257500D02*X59400D01*
X57150Y258250D02*X57900Y257500D01*
Y260500D02*X60150D01*
X61950Y257500D02*X64950Y260500D01*
Y262750D02*Y260500D01*
X64200Y263500D02*X64950Y262750D01*
X62700Y263500D02*X64200D01*
X61950Y262750D02*X62700Y263500D01*
X61950Y262750D02*Y261250D01*
X62700Y260500D01*
X64950D01*
X299400Y175600D02*X302600D01*
X299400D02*Y172400D01*
X302600D01*
Y175600D02*Y172400D01*
X289400Y175600D02*X292600D01*
X289400D02*Y172400D01*
X292600D01*
Y175600D02*Y172400D01*
X279400Y175600D02*X282600D01*
X279400D02*Y172400D01*
X282600D01*
Y175600D02*Y172400D01*
X299400Y165600D02*X302600D01*
X299400D02*Y162400D01*
X302600D01*
Y165600D02*Y162400D01*
X289400Y165600D02*X292600D01*
X289400D02*Y162400D01*
X292600D01*
Y165600D02*Y162400D01*
X279400Y165600D02*X282600D01*
X279400D02*Y162400D01*
X282600D01*
Y165600D02*Y162400D01*
X13400Y277850D02*X16600D01*
X13400D02*Y274650D01*
X16600D01*
Y277850D02*Y274650D01*
X135000Y278500D02*Y277750D01*
X136500Y276250D01*
X138000Y277750D01*
Y278500D02*Y277750D01*
X136500Y276250D02*Y272500D01*
X139800Y275500D02*X142050D01*
X139800Y272500D02*X142800D01*
X139800Y278500D02*Y272500D01*
Y278500D02*X142800D01*
X147600D02*X148350Y277750D01*
X145350Y278500D02*X147600D01*
X144600Y277750D02*X145350Y278500D01*
X144600Y277750D02*Y276250D01*
X145350Y275500D01*
X147600D01*
X148350Y274750D01*
Y273250D01*
X147600Y272500D02*X148350Y273250D01*
X145350Y272500D02*X147600D01*
X144600Y273250D02*X145350Y272500D01*
X100250Y278500D02*X101000Y277750D01*
X98750Y278500D02*X100250D01*
X98000Y277750D02*X98750Y278500D01*
X98000Y277750D02*Y273250D01*
X98750Y272500D01*
X100250Y275500D02*X101000Y274750D01*
X98000Y275500D02*X100250D01*
X98750Y272500D02*X100250D01*
X101000Y273250D01*
Y274750D02*Y273250D01*
X45000D02*X45750Y272500D01*
X45000Y277750D02*Y273250D01*
Y277750D02*X45750Y278500D01*
X47250D01*
X48000Y277750D01*
Y273250D01*
X47250Y272500D02*X48000Y273250D01*
X45750Y272500D02*X47250D01*
X45000Y274000D02*X48000Y277000D01*
X49800Y272500D02*X50550D01*
X52350Y273250D02*X53100Y272500D01*
X52350Y277750D02*Y273250D01*
Y277750D02*X53100Y278500D01*
X54600D01*
X55350Y277750D01*
Y273250D01*
X54600Y272500D02*X55350Y273250D01*
X53100Y272500D02*X54600D01*
X52350Y274000D02*X55350Y277000D01*
X57150Y277750D02*X57900Y278500D01*
X59400D01*
X60150Y277750D01*
Y273250D01*
X59400Y272500D02*X60150Y273250D01*
X57900Y272500D02*X59400D01*
X57150Y273250D02*X57900Y272500D01*
Y275500D02*X60150D01*
X61950Y273250D02*X62700Y272500D01*
X61950Y274750D02*Y273250D01*
Y274750D02*X62700Y275500D01*
X64200D01*
X64950Y274750D01*
Y273250D01*
X64200Y272500D02*X64950Y273250D01*
X62700Y272500D02*X64200D01*
X61950Y276250D02*X62700Y275500D01*
X61950Y277750D02*Y276250D01*
Y277750D02*X62700Y278500D01*
X64200D01*
X64950Y277750D01*
Y276250D01*
X64200Y275500D02*X64950Y276250D01*
X58200Y38000D02*G75*G03X59800Y38000I800J0D01*G01*
G75*G03X58200Y38000I-800J0D01*G01*
X110700Y20500D02*G75*G03X112300Y20500I800J0D01*G01*
G75*G03X110700Y20500I-800J0D01*G01*
X231200Y6000D02*G75*G03X232800Y6000I800J0D01*G01*
G75*G03X231200Y6000I-800J0D01*G01*
X230200Y182000D02*G75*G03X231800Y182000I800J0D01*G01*
G75*G03X230200Y182000I-800J0D01*G01*
X135700Y184000D02*G75*G03X137300Y184000I800J0D01*G01*
G75*G03X135700Y184000I-800J0D01*G01*
X110200Y149000D02*G75*G03X111800Y149000I800J0D01*G01*
G75*G03X110200Y149000I-800J0D01*G01*
X136200Y5500D02*G75*G03X137800Y5500I800J0D01*G01*
G75*G03X136200Y5500I-800J0D01*G01*
X128700Y153000D02*G75*G03X130300Y153000I800J0D01*G01*
G75*G03X128700Y153000I-800J0D01*G01*
X192700Y62000D02*G75*G03X194300Y62000I800J0D01*G01*
G75*G03X192700Y62000I-800J0D01*G01*
X131700Y93500D02*G75*G03X133300Y93500I800J0D01*G01*
G75*G03X131700Y93500I-800J0D01*G01*
X145200Y76000D02*G75*G03X146800Y76000I800J0D01*G01*
G75*G03X145200Y76000I-800J0D01*G01*
X225200Y142500D02*G75*G03X226800Y142500I800J0D01*G01*
G75*G03X225200Y142500I-800J0D01*G01*
X305200Y118500D02*G75*G03X306800Y118500I800J0D01*G01*
G75*G03X305200Y118500I-800J0D01*G01*
X237200Y45500D02*G75*G03X238800Y45500I800J0D01*G01*
G75*G03X237200Y45500I-800J0D01*G01*
X14200Y291250D02*G75*G03X15800Y291250I800J0D01*G01*
G75*G03X14200Y291250I-800J0D01*G01*
X135000Y293500D02*Y292750D01*
X136500Y291250D01*
X138000Y292750D01*
Y293500D02*Y292750D01*
X136500Y291250D02*Y287500D01*
X139800Y290500D02*X142050D01*
X139800Y287500D02*X142800D01*
X139800Y293500D02*Y287500D01*
Y293500D02*X142800D01*
X147600D02*X148350Y292750D01*
X145350Y293500D02*X147600D01*
X144600Y292750D02*X145350Y293500D01*
X144600Y292750D02*Y291250D01*
X145350Y290500D01*
X147600D01*
X148350Y289750D01*
Y288250D01*
X147600Y287500D02*X148350Y288250D01*
X145350Y287500D02*X147600D01*
X144600Y288250D02*X145350Y287500D01*
X98750D02*X100250D01*
X99500Y293500D02*Y287500D01*
X98000Y292000D02*X99500Y293500D01*
X102050Y290500D02*X105050Y293500D01*
X102050Y290500D02*X105800D01*
X105050Y293500D02*Y287500D01*
X45000Y288250D02*X45750Y287500D01*
X45000Y292750D02*Y288250D01*
Y292750D02*X45750Y293500D01*
X47250D01*
X48000Y292750D01*
Y288250D01*
X47250Y287500D02*X48000Y288250D01*
X45750Y287500D02*X47250D01*
X45000Y289000D02*X48000Y292000D01*
X49800Y287500D02*X50550D01*
X52350Y288250D02*X53100Y287500D01*
X52350Y292750D02*Y288250D01*
Y292750D02*X53100Y293500D01*
X54600D01*
X55350Y292750D01*
Y288250D01*
X54600Y287500D02*X55350Y288250D01*
X53100Y287500D02*X54600D01*
X52350Y289000D02*X55350Y292000D01*
X57150Y292750D02*X57900Y293500D01*
X59400D01*
X60150Y292750D01*
Y288250D01*
X59400Y287500D02*X60150Y288250D01*
X57900Y287500D02*X59400D01*
X57150Y288250D02*X57900Y287500D01*
Y290500D02*X60150D01*
X61950Y293500D02*X64950D01*
X61950D02*Y290500D01*
X62700Y291250D01*
X64200D01*
X64950Y290500D01*
Y288250D01*
X64200Y287500D02*X64950Y288250D01*
X62700Y287500D02*X64200D01*
X61950Y288250D02*X62700Y287500D01*
X281300Y54200D02*X283700Y51800D01*
X281300D02*X283700Y54200D01*
X291300Y59200D02*X293700Y56800D01*
X291300D02*X293700Y59200D01*
X281300Y64200D02*X283700Y61800D01*
X281300D02*X283700Y64200D01*
X291300Y69200D02*X293700Y66800D01*
X291300D02*X293700Y69200D01*
X281300Y74200D02*X283700Y71800D01*
X281300D02*X283700Y74200D01*
X291300Y79200D02*X293700Y76800D01*
X291300D02*X293700Y79200D01*
X281300Y111700D02*X283700Y109300D01*
X281300D02*X283700Y111700D01*
X291300Y116700D02*X293700Y114300D01*
X291300D02*X293700Y116700D01*
X281300Y121700D02*X283700Y119300D01*
X281300D02*X283700Y121700D01*
X291300Y126700D02*X293700Y124300D01*
X291300D02*X293700Y126700D01*
X281300Y131700D02*X283700Y129300D01*
X281300D02*X283700Y131700D01*
X291300Y136700D02*X293700Y134300D01*
X291300D02*X293700Y136700D01*
X13800Y307450D02*X16200Y305050D01*
X13800D02*X16200Y307450D01*
X135000Y308500D02*Y307750D01*
X136500Y306250D01*
X138000Y307750D01*
Y308500D02*Y307750D01*
X136500Y306250D02*Y302500D01*
X139800Y305500D02*X142050D01*
X139800Y302500D02*X142800D01*
X139800Y308500D02*Y302500D01*
Y308500D02*X142800D01*
X147600D02*X148350Y307750D01*
X145350Y308500D02*X147600D01*
X144600Y307750D02*X145350Y308500D01*
X144600Y307750D02*Y306250D01*
X145350Y305500D01*
X147600D01*
X148350Y304750D01*
Y303250D01*
X147600Y302500D02*X148350Y303250D01*
X145350Y302500D02*X147600D01*
X144600Y303250D02*X145350Y302500D01*
X98750D02*X100250D01*
X99500Y308500D02*Y302500D01*
X98000Y307000D02*X99500Y308500D01*
X102050Y307750D02*X102800Y308500D01*
X105050D01*
X105800Y307750D01*
Y306250D01*
X102050Y302500D02*X105800Y306250D01*
X102050Y302500D02*X105800D01*
X45000Y303250D02*X45750Y302500D01*
X45000Y307750D02*Y303250D01*
Y307750D02*X45750Y308500D01*
X47250D01*
X48000Y307750D01*
Y303250D01*
X47250Y302500D02*X48000Y303250D01*
X45750Y302500D02*X47250D01*
X45000Y304000D02*X48000Y307000D01*
X49800Y302500D02*X50550D01*
X52350Y303250D02*X53100Y302500D01*
X52350Y307750D02*Y303250D01*
Y307750D02*X53100Y308500D01*
X54600D01*
X55350Y307750D01*
Y303250D01*
X54600Y302500D02*X55350Y303250D01*
X53100Y302500D02*X54600D01*
X52350Y304000D02*X55350Y307000D01*
X57150Y307750D02*X57900Y308500D01*
X59400D01*
X60150Y307750D01*
Y303250D01*
X59400Y302500D02*X60150Y303250D01*
X57900Y302500D02*X59400D01*
X57150Y303250D02*X57900Y302500D01*
Y305500D02*X60150D01*
X61950Y303250D02*X62700Y302500D01*
X61950Y307750D02*Y303250D01*
Y307750D02*X62700Y308500D01*
X64200D01*
X64950Y307750D01*
Y303250D01*
X64200Y302500D02*X64950Y303250D01*
X62700Y302500D02*X64200D01*
X61950Y304000D02*X64950Y307000D01*
X49000Y53600D02*Y50400D01*
X47400Y52000D02*X50600D01*
X59000Y53600D02*Y50400D01*
X57400Y52000D02*X60600D01*
X69000Y53600D02*Y50400D01*
X67400Y52000D02*X70600D01*
X79000Y53600D02*Y50400D01*
X77400Y52000D02*X80600D01*
X79000Y83600D02*Y80400D01*
X77400Y82000D02*X80600D01*
X69000Y83600D02*Y80400D01*
X67400Y82000D02*X70600D01*
X59000Y83600D02*Y80400D01*
X57400Y82000D02*X60600D01*
X49000Y83600D02*Y80400D01*
X47400Y82000D02*X50600D01*
X15000Y322850D02*Y319650D01*
X13400Y321250D02*X16600D01*
X135000Y323500D02*Y322750D01*
X136500Y321250D01*
X138000Y322750D01*
Y323500D02*Y322750D01*
X136500Y321250D02*Y317500D01*
X139800Y320500D02*X142050D01*
X139800Y317500D02*X142800D01*
X139800Y323500D02*Y317500D01*
Y323500D02*X142800D01*
X147600D02*X148350Y322750D01*
X145350Y323500D02*X147600D01*
X144600Y322750D02*X145350Y323500D01*
X144600Y322750D02*Y321250D01*
X145350Y320500D01*
X147600D01*
X148350Y319750D01*
Y318250D01*
X147600Y317500D02*X148350Y318250D01*
X145350Y317500D02*X147600D01*
X144600Y318250D02*X145350Y317500D01*
X98000Y318250D02*X98750Y317500D01*
X98000Y319750D02*Y318250D01*
Y319750D02*X98750Y320500D01*
X100250D01*
X101000Y319750D01*
Y318250D01*
X100250Y317500D02*X101000Y318250D01*
X98750Y317500D02*X100250D01*
X98000Y321250D02*X98750Y320500D01*
X98000Y322750D02*Y321250D01*
Y322750D02*X98750Y323500D01*
X100250D01*
X101000Y322750D01*
Y321250D01*
X100250Y320500D02*X101000Y321250D01*
X45000Y318250D02*X45750Y317500D01*
X45000Y322750D02*Y318250D01*
Y322750D02*X45750Y323500D01*
X47250D01*
X48000Y322750D01*
Y318250D01*
X47250Y317500D02*X48000Y318250D01*
X45750Y317500D02*X47250D01*
X45000Y319000D02*X48000Y322000D01*
X49800Y317500D02*X50550D01*
X52350Y318250D02*X53100Y317500D01*
X52350Y322750D02*Y318250D01*
Y322750D02*X53100Y323500D01*
X54600D01*
X55350Y322750D01*
Y318250D01*
X54600Y317500D02*X55350Y318250D01*
X53100Y317500D02*X54600D01*
X52350Y319000D02*X55350Y322000D01*
X57150Y322750D02*X57900Y323500D01*
X60150D01*
X60900Y322750D01*
Y321250D01*
X57150Y317500D02*X60900Y321250D01*
X57150Y317500D02*X60900D01*
X62700Y318250D02*X63450Y317500D01*
X62700Y319750D02*Y318250D01*
Y319750D02*X63450Y320500D01*
X64950D01*
X65700Y319750D01*
Y318250D01*
X64950Y317500D02*X65700Y318250D01*
X63450Y317500D02*X64950D01*
X62700Y321250D02*X63450Y320500D01*
X62700Y322750D02*Y321250D01*
Y322750D02*X63450Y323500D01*
X64950D01*
X65700Y322750D01*
Y321250D01*
X64950Y320500D02*X65700Y321250D01*
X255500Y53394D02*Y51794D01*
Y53394D02*X256887Y54194D01*
X255500Y53394D02*X254113Y54194D01*
X255500Y72606D02*Y71006D01*
Y72606D02*X256887Y73406D01*
X255500Y72606D02*X254113Y73406D01*
X278000Y91500D02*Y89900D01*
Y91500D02*X279387Y92300D01*
X278000Y91500D02*X276613Y92300D01*
X85000Y45000D02*Y43400D01*
Y45000D02*X86387Y45800D01*
X85000Y45000D02*X83613Y45800D01*
X214500Y72500D02*Y70900D01*
Y72500D02*X215887Y73300D01*
X214500Y72500D02*X213113Y73300D01*
X119500Y69000D02*Y67400D01*
Y69000D02*X120887Y69800D01*
X119500Y69000D02*X118113Y69800D01*
X177500Y156000D02*Y154400D01*
Y156000D02*X178887Y156800D01*
X177500Y156000D02*X176113Y156800D01*
X165000Y64000D02*Y62400D01*
Y64000D02*X166387Y64800D01*
X165000Y64000D02*X163613Y64800D01*
X208000Y64000D02*Y62400D01*
Y64000D02*X209387Y64800D01*
X208000Y64000D02*X206613Y64800D01*
X209500Y74000D02*Y72400D01*
Y74000D02*X210887Y74800D01*
X209500Y74000D02*X208113Y74800D01*
X117000Y115500D02*Y113900D01*
Y115500D02*X118387Y116300D01*
X117000Y115500D02*X115613Y116300D01*
X126000Y115000D02*Y113400D01*
Y115000D02*X127387Y115800D01*
X126000Y115000D02*X124613Y115800D01*
X102500Y41000D02*Y39400D01*
Y41000D02*X103887Y41800D01*
X102500Y41000D02*X101113Y41800D01*
X208000Y80500D02*Y78900D01*
Y80500D02*X209387Y81300D01*
X208000Y80500D02*X206613Y81300D01*
X155500Y93500D02*Y91900D01*
Y93500D02*X156887Y94300D01*
X155500Y93500D02*X154113Y94300D01*
X140000Y93500D02*Y91900D01*
Y93500D02*X141387Y94300D01*
X140000Y93500D02*X138613Y94300D01*
X143500Y125000D02*Y123400D01*
Y125000D02*X144887Y125800D01*
X143500Y125000D02*X142113Y125800D01*
X143500Y150500D02*Y148900D01*
Y150500D02*X144887Y151300D01*
X143500Y150500D02*X142113Y151300D01*
X147000Y58500D02*Y56900D01*
Y58500D02*X148387Y59300D01*
X147000Y58500D02*X145613Y59300D01*
X240500Y64500D02*Y62900D01*
Y64500D02*X241887Y65300D01*
X240500Y64500D02*X239113Y65300D01*
X240500Y53000D02*Y51400D01*
Y53000D02*X241887Y53800D01*
X240500Y53000D02*X239113Y53800D01*
X168500Y97000D02*Y95400D01*
Y97000D02*X169887Y97800D01*
X168500Y97000D02*X167113Y97800D01*
X168500Y127500D02*Y125900D01*
Y127500D02*X169887Y128300D01*
X168500Y127500D02*X167113Y128300D01*
X238500Y102000D02*Y100400D01*
Y102000D02*X239887Y102800D01*
X238500Y102000D02*X237113Y102800D01*
X238500Y94000D02*Y92400D01*
Y94000D02*X239887Y94800D01*
X238500Y94000D02*X237113Y94800D01*
X194000Y100500D02*Y98900D01*
Y100500D02*X195387Y101300D01*
X194000Y100500D02*X192613Y101300D01*
X194000Y107000D02*Y105400D01*
Y107000D02*X195387Y107800D01*
X194000Y107000D02*X192613Y107800D01*
X179500Y150500D02*Y148900D01*
Y150500D02*X180887Y151300D01*
X179500Y150500D02*X178113Y151300D01*
X238500Y70000D02*Y68400D01*
Y70000D02*X239887Y70800D01*
X238500Y70000D02*X237113Y70800D01*
X185500Y146500D02*Y144900D01*
Y146500D02*X186887Y147300D01*
X185500Y146500D02*X184113Y147300D01*
X188500Y128500D02*Y126900D01*
Y128500D02*X189887Y129300D01*
X188500Y128500D02*X187113Y129300D01*
X239500Y137500D02*Y135900D01*
Y137500D02*X240887Y138300D01*
X239500Y137500D02*X238113Y138300D01*
X219000Y104500D02*Y102900D01*
Y104500D02*X220387Y105300D01*
X219000Y104500D02*X217613Y105300D01*
X265000Y105500D02*Y103900D01*
Y105500D02*X266387Y106300D01*
X265000Y105500D02*X263613Y106300D01*
X265000Y96500D02*Y94900D01*
Y96500D02*X266387Y97300D01*
X265000Y96500D02*X263613Y97300D01*
X201000Y112500D02*Y110900D01*
Y112500D02*X202387Y113300D01*
X201000Y112500D02*X199613Y113300D01*
X249500Y143000D02*Y141400D01*
Y143000D02*X250887Y143800D01*
X249500Y143000D02*X248113Y143800D01*
X258000Y154500D02*Y152900D01*
Y154500D02*X259387Y155300D01*
X258000Y154500D02*X256613Y155300D01*
X256500Y99500D02*Y97900D01*
Y99500D02*X257887Y100300D01*
X256500Y99500D02*X255113Y100300D01*
X271000Y118500D02*Y116900D01*
Y118500D02*X272387Y119300D01*
X271000Y118500D02*X269613Y119300D01*
X291500Y145500D02*Y143900D01*
Y145500D02*X292887Y146300D01*
X291500Y145500D02*X290113Y146300D01*
X204500Y124500D02*Y122900D01*
Y124500D02*X205887Y125300D01*
X204500Y124500D02*X203113Y125300D01*
X209500Y124500D02*Y122900D01*
Y124500D02*X210887Y125300D01*
X209500Y124500D02*X208113Y125300D01*
X271000Y134000D02*Y132400D01*
Y134000D02*X272387Y134800D01*
X271000Y134000D02*X269613Y134800D01*
X264500Y134000D02*Y132400D01*
Y134000D02*X265887Y134800D01*
X264500Y134000D02*X263113Y134800D01*
X219000Y116000D02*Y114400D01*
Y116000D02*X220387Y116800D01*
X219000Y116000D02*X217613Y116800D01*
X222500Y111500D02*Y109900D01*
Y111500D02*X223887Y112300D01*
X222500Y111500D02*X221113Y112300D01*
X271000Y124500D02*Y122900D01*
Y124500D02*X272387Y125300D01*
X271000Y124500D02*X269613Y125300D01*
X190000Y86000D02*Y84400D01*
Y86000D02*X191387Y86800D01*
X190000Y86000D02*X188613Y86800D01*
X202500Y55000D02*Y53400D01*
Y55000D02*X203887Y55800D01*
X202500Y55000D02*X201113Y55800D01*
X204000Y87000D02*Y85400D01*
Y87000D02*X205387Y87800D01*
X204000Y87000D02*X202613Y87800D01*
X233000Y101000D02*Y99400D01*
Y101000D02*X234387Y101800D01*
X233000Y101000D02*X231613Y101800D01*
X106500Y115500D02*Y113900D01*
Y115500D02*X107887Y116300D01*
X106500Y115500D02*X105113Y116300D01*
X112000Y115500D02*Y113900D01*
Y115500D02*X113387Y116300D01*
X112000Y115500D02*X110613Y116300D01*
X124000Y57000D02*Y55400D01*
Y57000D02*X125387Y57800D01*
X124000Y57000D02*X122613Y57800D01*
X125500Y69000D02*Y67400D01*
Y69000D02*X126887Y69800D01*
X125500Y69000D02*X124113Y69800D01*
X76500Y122000D02*Y120400D01*
Y122000D02*X77887Y122800D01*
X76500Y122000D02*X75113Y122800D01*
X76500Y117000D02*Y115400D01*
Y117000D02*X77887Y117800D01*
X76500Y117000D02*X75113Y117800D01*
X84000Y108000D02*Y106400D01*
Y108000D02*X85387Y108800D01*
X84000Y108000D02*X82613Y108800D01*
X37500Y111500D02*Y109900D01*
Y111500D02*X38887Y112300D01*
X37500Y111500D02*X36113Y112300D01*
X37500Y104500D02*Y102900D01*
Y104500D02*X38887Y105300D01*
X37500Y104500D02*X36113Y105300D01*
X43000Y109000D02*Y107400D01*
Y109000D02*X44387Y109800D01*
X43000Y109000D02*X41613Y109800D01*
X15000Y336250D02*Y334650D01*
Y336250D02*X16387Y337050D01*
X15000Y336250D02*X13613Y337050D01*
X135000Y338500D02*Y337750D01*
X136500Y336250D01*
X138000Y337750D01*
Y338500D02*Y337750D01*
X136500Y336250D02*Y332500D01*
X139800Y335500D02*X142050D01*
X139800Y332500D02*X142800D01*
X139800Y338500D02*Y332500D01*
Y338500D02*X142800D01*
X147600D02*X148350Y337750D01*
X145350Y338500D02*X147600D01*
X144600Y337750D02*X145350Y338500D01*
X144600Y337750D02*Y336250D01*
X145350Y335500D01*
X147600D01*
X148350Y334750D01*
Y333250D01*
X147600Y332500D02*X148350Y333250D01*
X145350Y332500D02*X147600D01*
X144600Y333250D02*X145350Y332500D01*
X100250Y338500D02*X101000Y337750D01*
X98750Y338500D02*X100250D01*
X98000Y337750D02*X98750Y338500D01*
X98000Y337750D02*Y333250D01*
X98750Y332500D01*
X100250Y335500D02*X101000Y334750D01*
X98000Y335500D02*X100250D01*
X98750Y332500D02*X100250D01*
X101000Y333250D01*
Y334750D02*Y333250D01*
X102800Y337750D02*X103550Y338500D01*
X105800D01*
X106550Y337750D01*
Y336250D01*
X102800Y332500D02*X106550Y336250D01*
X102800Y332500D02*X106550D01*
X45000Y333250D02*X45750Y332500D01*
X45000Y337750D02*Y333250D01*
Y337750D02*X45750Y338500D01*
X47250D01*
X48000Y337750D01*
Y333250D01*
X47250Y332500D02*X48000Y333250D01*
X45750Y332500D02*X47250D01*
X45000Y334000D02*X48000Y337000D01*
X49800Y332500D02*X50550D01*
X52350Y333250D02*X53100Y332500D01*
X52350Y337750D02*Y333250D01*
Y337750D02*X53100Y338500D01*
X54600D01*
X55350Y337750D01*
Y333250D01*
X54600Y332500D02*X55350Y333250D01*
X53100Y332500D02*X54600D01*
X52350Y334000D02*X55350Y337000D01*
X57150Y337750D02*X57900Y338500D01*
X60150D01*
X60900Y337750D01*
Y336250D01*
X57150Y332500D02*X60900Y336250D01*
X57150Y332500D02*X60900D01*
X62700Y333250D02*X63450Y332500D01*
X62700Y337750D02*Y333250D01*
Y337750D02*X63450Y338500D01*
X64950D01*
X65700Y337750D01*
Y333250D01*
X64950Y332500D02*X65700Y333250D01*
X63450Y332500D02*X64950D01*
X62700Y334000D02*X65700Y337000D01*
X3000Y353500D02*X3750Y352750D01*
X750Y353500D02*X3000D01*
X0Y352750D02*X750Y353500D01*
X0Y352750D02*Y351250D01*
X750Y350500D01*
X3000D01*
X3750Y349750D01*
Y348250D01*
X3000Y347500D02*X3750Y348250D01*
X750Y347500D02*X3000D01*
X0Y348250D02*X750Y347500D01*
X5550Y350500D02*Y348250D01*
X6300Y347500D01*
X8550Y350500D02*Y346000D01*
X7800Y345250D02*X8550Y346000D01*
X6300Y345250D02*X7800D01*
X5550Y346000D02*X6300Y345250D01*
Y347500D02*X7800D01*
X8550Y348250D01*
X11100Y349750D02*Y347500D01*
Y349750D02*X11850Y350500D01*
X12600D01*
X13350Y349750D01*
Y347500D01*
Y349750D02*X14100Y350500D01*
X14850D01*
X15600Y349750D01*
Y347500D01*
X10350Y350500D02*X11100Y349750D01*
X17400Y353500D02*Y347500D01*
Y348250D02*X18150Y347500D01*
X19650D01*
X20400Y348250D01*
Y349750D02*Y348250D01*
X19650Y350500D02*X20400Y349750D01*
X18150Y350500D02*X19650D01*
X17400Y349750D02*X18150Y350500D01*
X22200Y349750D02*Y348250D01*
Y349750D02*X22950Y350500D01*
X24450D01*
X25200Y349750D01*
Y348250D01*
X24450Y347500D02*X25200Y348250D01*
X22950Y347500D02*X24450D01*
X22200Y348250D02*X22950Y347500D01*
X27000Y353500D02*Y348250D01*
X27750Y347500D01*
X0Y344250D02*X29250D01*
X41750Y353500D02*Y347500D01*
X44000Y353500D02*X44750Y352750D01*
Y348250D01*
X44000Y347500D02*X44750Y348250D01*
X41000Y347500D02*X44000D01*
X41000Y353500D02*X44000D01*
X46550Y352000D02*Y351250D01*
Y349750D02*Y347500D01*
X50300Y350500D02*X51050Y349750D01*
X48800Y350500D02*X50300D01*
X48050Y349750D02*X48800Y350500D01*
X48050Y349750D02*Y348250D01*
X48800Y347500D01*
X51050Y350500D02*Y348250D01*
X51800Y347500D01*
X48800D02*X50300D01*
X51050Y348250D01*
X54350Y349750D02*Y347500D01*
Y349750D02*X55100Y350500D01*
X55850D01*
X56600Y349750D01*
Y347500D01*
Y349750D02*X57350Y350500D01*
X58100D01*
X58850Y349750D01*
Y347500D01*
X53600Y350500D02*X54350Y349750D01*
X60650Y347500D02*X61400D01*
X65900Y348250D02*X66650Y347500D01*
X65900Y352750D02*X66650Y353500D01*
X65900Y352750D02*Y348250D01*
X68450Y353500D02*X69950D01*
X69200D02*Y347500D01*
X68450D02*X69950D01*
X72500Y349750D02*Y347500D01*
Y349750D02*X73250Y350500D01*
X74000D01*
X74750Y349750D01*
Y347500D01*
X71750Y350500D02*X72500Y349750D01*
X77300Y350500D02*X79550D01*
X76550Y349750D02*X77300Y350500D01*
X76550Y349750D02*Y348250D01*
X77300Y347500D01*
X79550D01*
X81350Y353500D02*Y347500D01*
Y349750D02*X82100Y350500D01*
X83600D01*
X84350Y349750D01*
Y347500D01*
X86150Y353500D02*X86900Y352750D01*
Y348250D01*
X86150Y347500D02*X86900Y348250D01*
X41000Y344250D02*X88700D01*
X95750Y347500D02*X98000D01*
X95000Y348250D02*X95750Y347500D01*
X95000Y352750D02*Y348250D01*
Y352750D02*X95750Y353500D01*
X98000D01*
X99800Y349750D02*Y348250D01*
Y349750D02*X100550Y350500D01*
X102050D01*
X102800Y349750D01*
Y348250D01*
X102050Y347500D02*X102800Y348250D01*
X100550Y347500D02*X102050D01*
X99800Y348250D02*X100550Y347500D01*
X104600Y350500D02*Y348250D01*
X105350Y347500D01*
X106850D01*
X107600Y348250D01*
Y350500D02*Y348250D01*
X110150Y349750D02*Y347500D01*
Y349750D02*X110900Y350500D01*
X111650D01*
X112400Y349750D01*
Y347500D01*
X109400Y350500D02*X110150Y349750D01*
X114950Y353500D02*Y348250D01*
X115700Y347500D01*
X114200Y351250D02*X115700D01*
X95000Y344250D02*X117200D01*
X130750Y353500D02*Y347500D01*
X130000Y353500D02*X133000D01*
X133750Y352750D01*
Y351250D01*
X133000Y350500D02*X133750Y351250D01*
X130750Y350500D02*X133000D01*
X135550Y353500D02*Y348250D01*
X136300Y347500D01*
X140050Y350500D02*X140800Y349750D01*
X138550Y350500D02*X140050D01*
X137800Y349750D02*X138550Y350500D01*
X137800Y349750D02*Y348250D01*
X138550Y347500D01*
X140800Y350500D02*Y348250D01*
X141550Y347500D01*
X138550D02*X140050D01*
X140800Y348250D01*
X144100Y353500D02*Y348250D01*
X144850Y347500D01*
X143350Y351250D02*X144850D01*
X147100Y347500D02*X149350D01*
X146350Y348250D02*X147100Y347500D01*
X146350Y349750D02*Y348250D01*
Y349750D02*X147100Y350500D01*
X148600D01*
X149350Y349750D01*
X146350Y349000D02*X149350D01*
Y349750D02*Y349000D01*
X154150Y353500D02*Y347500D01*
X153400D02*X154150Y348250D01*
X151900Y347500D02*X153400D01*
X151150Y348250D02*X151900Y347500D01*
X151150Y349750D02*Y348250D01*
Y349750D02*X151900Y350500D01*
X153400D01*
X154150Y349750D01*
X157450Y350500D02*Y349750D01*
Y348250D02*Y347500D01*
X155950Y352750D02*Y352000D01*
Y352750D02*X156700Y353500D01*
X158200D01*
X158950Y352750D01*
Y352000D01*
X157450Y350500D02*X158950Y352000D01*
X130000Y344250D02*X160750D01*
X0Y368500D02*X3000D01*
X1500D02*Y362500D01*
X4800Y368500D02*Y362500D01*
Y364750D02*X5550Y365500D01*
X7050D01*
X7800Y364750D01*
Y362500D01*
X10350D02*X12600D01*
X9600Y363250D02*X10350Y362500D01*
X9600Y364750D02*Y363250D01*
Y364750D02*X10350Y365500D01*
X11850D01*
X12600Y364750D01*
X9600Y364000D02*X12600D01*
Y364750D02*Y364000D01*
X15150Y364750D02*Y362500D01*
Y364750D02*X15900Y365500D01*
X17400D01*
X14400D02*X15150Y364750D01*
X19950Y362500D02*X22200D01*
X19200Y363250D02*X19950Y362500D01*
X19200Y364750D02*Y363250D01*
Y364750D02*X19950Y365500D01*
X21450D01*
X22200Y364750D01*
X19200Y364000D02*X22200D01*
Y364750D02*Y364000D01*
X28950Y365500D02*X29700Y364750D01*
X27450Y365500D02*X28950D01*
X26700Y364750D02*X27450Y365500D01*
X26700Y364750D02*Y363250D01*
X27450Y362500D01*
X29700Y365500D02*Y363250D01*
X30450Y362500D01*
X27450D02*X28950D01*
X29700Y363250D01*
X33000Y364750D02*Y362500D01*
Y364750D02*X33750Y365500D01*
X35250D01*
X32250D02*X33000Y364750D01*
X37800Y362500D02*X40050D01*
X37050Y363250D02*X37800Y362500D01*
X37050Y364750D02*Y363250D01*
Y364750D02*X37800Y365500D01*
X39300D01*
X40050Y364750D01*
X37050Y364000D02*X40050D01*
Y364750D02*Y364000D01*
X45300Y362500D02*X46800D01*
X46050Y368500D02*Y362500D01*
X44550Y367000D02*X46050Y368500D01*
X48600Y363250D02*X49350Y362500D01*
X48600Y367750D02*Y363250D01*
Y367750D02*X49350Y368500D01*
X50850D01*
X51600Y367750D01*
Y363250D01*
X50850Y362500D02*X51600Y363250D01*
X49350Y362500D02*X50850D01*
X48600Y364000D02*X51600Y367000D01*
X59100Y368500D02*Y362500D01*
X58350D02*X59100Y363250D01*
X56850Y362500D02*X58350D01*
X56100Y363250D02*X56850Y362500D01*
X56100Y364750D02*Y363250D01*
Y364750D02*X56850Y365500D01*
X58350D01*
X59100Y364750D01*
X60900Y367000D02*Y366250D01*
Y364750D02*Y362500D01*
X63150Y367750D02*Y362500D01*
Y367750D02*X63900Y368500D01*
X64650D01*
X62400Y365500D02*X63900D01*
X66900Y367750D02*Y362500D01*
Y367750D02*X67650Y368500D01*
X68400D01*
X66150Y365500D02*X67650D01*
X70650Y362500D02*X72900D01*
X69900Y363250D02*X70650Y362500D01*
X69900Y364750D02*Y363250D01*
Y364750D02*X70650Y365500D01*
X72150D01*
X72900Y364750D01*
X69900Y364000D02*X72900D01*
Y364750D02*Y364000D01*
X75450Y364750D02*Y362500D01*
Y364750D02*X76200Y365500D01*
X77700D01*
X74700D02*X75450Y364750D01*
X80250Y362500D02*X82500D01*
X79500Y363250D02*X80250Y362500D01*
X79500Y364750D02*Y363250D01*
Y364750D02*X80250Y365500D01*
X81750D01*
X82500Y364750D01*
X79500Y364000D02*X82500D01*
Y364750D02*Y364000D01*
X85050Y364750D02*Y362500D01*
Y364750D02*X85800Y365500D01*
X86550D01*
X87300Y364750D01*
Y362500D01*
X84300Y365500D02*X85050Y364750D01*
X89850Y368500D02*Y363250D01*
X90600Y362500D01*
X89100Y366250D02*X90600D01*
X97800Y368500D02*Y362500D01*
X97050D02*X97800Y363250D01*
X95550Y362500D02*X97050D01*
X94800Y363250D02*X95550Y362500D01*
X94800Y364750D02*Y363250D01*
Y364750D02*X95550Y365500D01*
X97050D01*
X97800Y364750D01*
X100350D02*Y362500D01*
Y364750D02*X101100Y365500D01*
X102600D01*
X99600D02*X100350Y364750D01*
X104400Y367000D02*Y366250D01*
Y364750D02*Y362500D01*
X105900Y368500D02*Y363250D01*
X106650Y362500D01*
X108150Y368500D02*Y363250D01*
X108900Y362500D01*
X113850D02*X116100D01*
X116850Y363250D01*
X116100Y364000D02*X116850Y363250D01*
X113850Y364000D02*X116100D01*
X113100Y364750D02*X113850Y364000D01*
X113100Y364750D02*X113850Y365500D01*
X116100D01*
X116850Y364750D01*
X113100Y363250D02*X113850Y362500D01*
X118650Y367000D02*Y366250D01*
Y364750D02*Y362500D01*
X120150Y365500D02*X123150D01*
X120150Y362500D02*X123150Y365500D01*
X120150Y362500D02*X123150D01*
X125700D02*X127950D01*
X124950Y363250D02*X125700Y362500D01*
X124950Y364750D02*Y363250D01*
Y364750D02*X125700Y365500D01*
X127200D01*
X127950Y364750D01*
X124950Y364000D02*X127950D01*
Y364750D02*Y364000D01*
X130500Y362500D02*X132750D01*
X133500Y363250D01*
X132750Y364000D02*X133500Y363250D01*
X130500Y364000D02*X132750D01*
X129750Y364750D02*X130500Y364000D01*
X129750Y364750D02*X130500Y365500D01*
X132750D01*
X133500Y364750D01*
X129750Y363250D02*X130500Y362500D01*
X138000Y365500D02*Y363250D01*
X138750Y362500D01*
X140250D01*
X141000Y363250D01*
Y365500D02*Y363250D01*
X143550Y362500D02*X145800D01*
X146550Y363250D01*
X145800Y364000D02*X146550Y363250D01*
X143550Y364000D02*X145800D01*
X142800Y364750D02*X143550Y364000D01*
X142800Y364750D02*X143550Y365500D01*
X145800D01*
X146550Y364750D01*
X142800Y363250D02*X143550Y362500D01*
X149100D02*X151350D01*
X148350Y363250D02*X149100Y362500D01*
X148350Y364750D02*Y363250D01*
Y364750D02*X149100Y365500D01*
X150600D01*
X151350Y364750D01*
X148350Y364000D02*X151350D01*
Y364750D02*Y364000D01*
X156150Y368500D02*Y362500D01*
X155400D02*X156150Y363250D01*
X153900Y362500D02*X155400D01*
X153150Y363250D02*X153900Y362500D01*
X153150Y364750D02*Y363250D01*
Y364750D02*X153900Y365500D01*
X155400D01*
X156150Y364750D01*
X160650Y367000D02*Y366250D01*
Y364750D02*Y362500D01*
X162900Y364750D02*Y362500D01*
Y364750D02*X163650Y365500D01*
X164400D01*
X165150Y364750D01*
Y362500D01*
X162150Y365500D02*X162900Y364750D01*
X170400Y368500D02*Y363250D01*
X171150Y362500D01*
X169650Y366250D02*X171150D01*
X172650Y368500D02*Y362500D01*
Y364750D02*X173400Y365500D01*
X174900D01*
X175650Y364750D01*
Y362500D01*
X177450Y367000D02*Y366250D01*
Y364750D02*Y362500D01*
X179700D02*X181950D01*
X182700Y363250D01*
X181950Y364000D02*X182700Y363250D01*
X179700Y364000D02*X181950D01*
X178950Y364750D02*X179700Y364000D01*
X178950Y364750D02*X179700Y365500D01*
X181950D01*
X182700Y364750D01*
X178950Y363250D02*X179700Y362500D01*
X187200Y368500D02*Y363250D01*
X187950Y362500D01*
X191700Y365500D02*X192450Y364750D01*
X190200Y365500D02*X191700D01*
X189450Y364750D02*X190200Y365500D01*
X189450Y364750D02*Y363250D01*
X190200Y362500D01*
X192450Y365500D02*Y363250D01*
X193200Y362500D01*
X190200D02*X191700D01*
X192450Y363250D01*
X195000Y365500D02*Y363250D01*
X195750Y362500D01*
X198000Y365500D02*Y361000D01*
X197250Y360250D02*X198000Y361000D01*
X195750Y360250D02*X197250D01*
X195000Y361000D02*X195750Y360250D01*
Y362500D02*X197250D01*
X198000Y363250D01*
X199800Y364750D02*Y363250D01*
Y364750D02*X200550Y365500D01*
X202050D01*
X202800Y364750D01*
Y363250D01*
X202050Y362500D02*X202800Y363250D01*
X200550Y362500D02*X202050D01*
X199800Y363250D02*X200550Y362500D01*
X204600Y365500D02*Y363250D01*
X205350Y362500D01*
X206850D01*
X207600Y363250D01*
Y365500D02*Y363250D01*
X210150Y368500D02*Y363250D01*
X210900Y362500D01*
X209400Y366250D02*X210900D01*
X212400Y361000D02*X213900Y362500D01*
X219150D02*X220650D01*
X219900Y368500D02*Y362500D01*
X218400Y367000D02*X219900Y368500D01*
X222450Y367750D02*X223200Y368500D01*
X224700D01*
X225450Y367750D01*
Y363250D01*
X224700Y362500D02*X225450Y363250D01*
X223200Y362500D02*X224700D01*
X222450Y363250D02*X223200Y362500D01*
Y365500D02*X225450D01*
X227250Y362500D02*X231000Y366250D01*
Y368500D02*Y366250D01*
X227250Y368500D02*X231000D01*
X235500D02*Y362500D01*
Y364750D02*X236250Y365500D01*
X237750D01*
X238500Y364750D01*
Y362500D01*
X240300Y364750D02*Y363250D01*
Y364750D02*X241050Y365500D01*
X242550D01*
X243300Y364750D01*
Y363250D01*
X242550Y362500D02*X243300Y363250D01*
X241050Y362500D02*X242550D01*
X240300Y363250D02*X241050Y362500D01*
X245100Y368500D02*Y363250D01*
X245850Y362500D01*
X248100D02*X250350D01*
X247350Y363250D02*X248100Y362500D01*
X247350Y364750D02*Y363250D01*
Y364750D02*X248100Y365500D01*
X249600D01*
X250350Y364750D01*
X247350Y364000D02*X250350D01*
Y364750D02*Y364000D01*
X252900Y362500D02*X255150D01*
X255900Y363250D01*
X255150Y364000D02*X255900Y363250D01*
X252900Y364000D02*X255150D01*
X252150Y364750D02*X252900Y364000D01*
X252150Y364750D02*X252900Y365500D01*
X255150D01*
X255900Y364750D01*
X252150Y363250D02*X252900Y362500D01*
X261150Y368500D02*Y363250D01*
X261900Y362500D01*
X260400Y366250D02*X261900D01*
X263400Y364750D02*Y363250D01*
Y364750D02*X264150Y365500D01*
X265650D01*
X266400Y364750D01*
Y363250D01*
X265650Y362500D02*X266400Y363250D01*
X264150Y362500D02*X265650D01*
X263400Y363250D02*X264150Y362500D01*
X268950Y368500D02*Y363250D01*
X269700Y362500D01*
X268200Y366250D02*X269700D01*
X273450Y365500D02*X274200Y364750D01*
X271950Y365500D02*X273450D01*
X271200Y364750D02*X271950Y365500D01*
X271200Y364750D02*Y363250D01*
X271950Y362500D01*
X274200Y365500D02*Y363250D01*
X274950Y362500D01*
X271950D02*X273450D01*
X274200Y363250D01*
X276750Y368500D02*Y363250D01*
X277500Y362500D01*
G54D101*X0Y190000D02*X350000D01*
X0D02*Y0D01*
X350000Y190000D02*Y0D01*
X0D02*X350000D01*
G54D100*X200000Y203500D02*Y197500D01*
Y203500D02*X202250Y201250D01*
X204500Y203500D01*
Y197500D01*
X208550Y200500D02*X209300Y199750D01*
X207050Y200500D02*X208550D01*
X206300Y199750D02*X207050Y200500D01*
X206300Y199750D02*Y198250D01*
X207050Y197500D01*
X209300Y200500D02*Y198250D01*
X210050Y197500D01*
X207050D02*X208550D01*
X209300Y198250D01*
X211850Y200500D02*X214850Y197500D01*
X211850D02*X214850Y200500D01*
X216650Y202000D02*Y201250D01*
Y199750D02*Y197500D01*
X218900Y199750D02*Y197500D01*
Y199750D02*X219650Y200500D01*
X220400D01*
X221150Y199750D01*
Y197500D01*
Y199750D02*X221900Y200500D01*
X222650D01*
X223400Y199750D01*
Y197500D01*
X218150Y200500D02*X218900Y199750D01*
X225200Y200500D02*Y198250D01*
X225950Y197500D01*
X227450D01*
X228200Y198250D01*
Y200500D02*Y198250D01*
X230750Y199750D02*Y197500D01*
Y199750D02*X231500Y200500D01*
X232250D01*
X233000Y199750D01*
Y197500D01*
Y199750D02*X233750Y200500D01*
X234500D01*
X235250Y199750D01*
Y197500D01*
X230000Y200500D02*X230750Y199750D01*
X240500Y203500D02*Y197500D01*
X242750Y203500D02*X243500Y202750D01*
Y198250D01*
X242750Y197500D02*X243500Y198250D01*
X239750Y197500D02*X242750D01*
X239750Y203500D02*X242750D01*
X245300Y202000D02*Y201250D01*
Y199750D02*Y197500D01*
X247550Y199750D02*Y197500D01*
Y199750D02*X248300Y200500D01*
X249050D01*
X249800Y199750D01*
Y197500D01*
Y199750D02*X250550Y200500D01*
X251300D01*
X252050Y199750D01*
Y197500D01*
X246800Y200500D02*X247550Y199750D01*
X254600Y197500D02*X256850D01*
X253850Y198250D02*X254600Y197500D01*
X253850Y199750D02*Y198250D01*
Y199750D02*X254600Y200500D01*
X256100D01*
X256850Y199750D01*
X253850Y199000D02*X256850D01*
Y199750D02*Y199000D01*
X259400Y199750D02*Y197500D01*
Y199750D02*X260150Y200500D01*
X260900D01*
X261650Y199750D01*
Y197500D01*
X258650Y200500D02*X259400Y199750D01*
X264200Y197500D02*X266450D01*
X267200Y198250D01*
X266450Y199000D02*X267200Y198250D01*
X264200Y199000D02*X266450D01*
X263450Y199750D02*X264200Y199000D01*
X263450Y199750D02*X264200Y200500D01*
X266450D01*
X267200Y199750D01*
X263450Y198250D02*X264200Y197500D01*
X269000Y202000D02*Y201250D01*
Y199750D02*Y197500D01*
X270500Y199750D02*Y198250D01*
Y199750D02*X271250Y200500D01*
X272750D01*
X273500Y199750D01*
Y198250D01*
X272750Y197500D02*X273500Y198250D01*
X271250Y197500D02*X272750D01*
X270500Y198250D02*X271250Y197500D01*
X276050Y199750D02*Y197500D01*
Y199750D02*X276800Y200500D01*
X277550D01*
X278300Y199750D01*
Y197500D01*
X275300Y200500D02*X276050Y199750D01*
X280850Y197500D02*X283100D01*
X283850Y198250D01*
X283100Y199000D02*X283850Y198250D01*
X280850Y199000D02*X283100D01*
X280100Y199750D02*X280850Y199000D01*
X280100Y199750D02*X280850Y200500D01*
X283100D01*
X283850Y199750D01*
X280100Y198250D02*X280850Y197500D01*
X285650Y201250D02*X286400D01*
X285650Y199750D02*X286400D01*
X290900Y202750D02*X291650Y203500D01*
X293150D01*
X293900Y202750D01*
Y198250D01*
X293150Y197500D02*X293900Y198250D01*
X291650Y197500D02*X293150D01*
X290900Y198250D02*X291650Y197500D01*
Y200500D02*X293900D01*
X295700Y203500D02*X298700D01*
X295700D02*Y200500D01*
X296450Y201250D01*
X297950D01*
X298700Y200500D01*
Y198250D01*
X297950Y197500D02*X298700Y198250D01*
X296450Y197500D02*X297950D01*
X295700Y198250D02*X296450Y197500D01*
X300500Y198250D02*X301250Y197500D01*
X300500Y202750D02*Y198250D01*
Y202750D02*X301250Y203500D01*
X302750D01*
X303500Y202750D01*
Y198250D01*
X302750Y197500D02*X303500Y198250D01*
X301250Y197500D02*X302750D01*
X300500Y199000D02*X303500Y202000D01*
X305300Y198250D02*X306050Y197500D01*
X305300Y202750D02*Y198250D01*
Y202750D02*X306050Y203500D01*
X307550D01*
X308300Y202750D01*
Y198250D01*
X307550Y197500D02*X308300Y198250D01*
X306050Y197500D02*X307550D01*
X305300Y199000D02*X308300Y202000D01*
X310100Y197500D02*X310850D01*
X312650Y198250D02*X313400Y197500D01*
X312650Y202750D02*Y198250D01*
Y202750D02*X313400Y203500D01*
X314900D01*
X315650Y202750D01*
Y198250D01*
X314900Y197500D02*X315650Y198250D01*
X313400Y197500D02*X314900D01*
X312650Y199000D02*X315650Y202000D01*
X317450Y198250D02*X318200Y197500D01*
X317450Y202750D02*Y198250D01*
Y202750D02*X318200Y203500D01*
X319700D01*
X320450Y202750D01*
Y198250D01*
X319700Y197500D02*X320450Y198250D01*
X318200Y197500D02*X319700D01*
X317450Y199000D02*X320450Y202000D01*
X322250Y198250D02*X323000Y197500D01*
X322250Y202750D02*Y198250D01*
Y202750D02*X323000Y203500D01*
X324500D01*
X325250Y202750D01*
Y198250D01*
X324500Y197500D02*X325250Y198250D01*
X323000Y197500D02*X324500D01*
X322250Y199000D02*X325250Y202000D01*
X327050Y198250D02*X327800Y197500D01*
X327050Y202750D02*Y198250D01*
Y202750D02*X327800Y203500D01*
X329300D01*
X330050Y202750D01*
Y198250D01*
X329300Y197500D02*X330050Y198250D01*
X327800Y197500D02*X329300D01*
X327050Y199000D02*X330050Y202000D01*
X331850Y198250D02*X332600Y197500D01*
X331850Y202750D02*Y198250D01*
Y202750D02*X332600Y203500D01*
X334100D01*
X334850Y202750D01*
Y198250D01*
X334100Y197500D02*X334850Y198250D01*
X332600Y197500D02*X334100D01*
X331850Y199000D02*X334850Y202000D01*
X336650Y198250D02*X337400Y197500D01*
X336650Y202750D02*Y198250D01*
Y202750D02*X337400Y203500D01*
X338900D01*
X339650Y202750D01*
Y198250D01*
X338900Y197500D02*X339650Y198250D01*
X337400Y197500D02*X338900D01*
X336650Y199000D02*X339650Y202000D01*
X344900Y199750D02*Y197500D01*
Y199750D02*X345650Y200500D01*
X346400D01*
X347150Y199750D01*
Y197500D01*
Y199750D02*X347900Y200500D01*
X348650D01*
X349400Y199750D01*
Y197500D01*
X344150Y200500D02*X344900Y199750D01*
X351200Y202000D02*Y201250D01*
Y199750D02*Y197500D01*
X352700Y203500D02*Y198250D01*
X353450Y197500D01*
X355700D02*X357950D01*
X358700Y198250D01*
X357950Y199000D02*X358700Y198250D01*
X355700Y199000D02*X357950D01*
X354950Y199750D02*X355700Y199000D01*
X354950Y199750D02*X355700Y200500D01*
X357950D01*
X358700Y199750D01*
X354950Y198250D02*X355700Y197500D01*
X363200Y200500D02*Y198250D01*
X363950Y197500D01*
X364700D01*
X365450Y198250D01*
Y200500D02*Y198250D01*
X366200Y197500D01*
X366950D01*
X367700Y198250D01*
Y200500D02*Y198250D01*
X369500Y202000D02*Y201250D01*
Y199750D02*Y197500D01*
X374000Y203500D02*Y197500D01*
X373250D02*X374000Y198250D01*
X371750Y197500D02*X373250D01*
X371000Y198250D02*X371750Y197500D01*
X371000Y199750D02*Y198250D01*
Y199750D02*X371750Y200500D01*
X373250D01*
X374000Y199750D01*
X376550Y197500D02*X378800D01*
X375800Y198250D02*X376550Y197500D01*
X375800Y199750D02*Y198250D01*
Y199750D02*X376550Y200500D01*
X378050D01*
X378800Y199750D01*
X375800Y199000D02*X378800D01*
Y199750D02*Y199000D01*
X380600Y196000D02*X382100Y197500D01*
X387350D02*X388850D01*
X388100Y203500D02*Y197500D01*
X386600Y202000D02*X388100Y203500D01*
X390650Y197500D02*X393650Y200500D01*
Y202750D02*Y200500D01*
X392900Y203500D02*X393650Y202750D01*
X391400Y203500D02*X392900D01*
X390650Y202750D02*X391400Y203500D01*
X390650Y202750D02*Y201250D01*
X391400Y200500D01*
X393650D01*
X395450Y198250D02*X396200Y197500D01*
X395450Y202750D02*Y198250D01*
Y202750D02*X396200Y203500D01*
X397700D01*
X398450Y202750D01*
Y198250D01*
X397700Y197500D02*X398450Y198250D01*
X396200Y197500D02*X397700D01*
X395450Y199000D02*X398450Y202000D01*
X400250Y198250D02*X401000Y197500D01*
X400250Y202750D02*Y198250D01*
Y202750D02*X401000Y203500D01*
X402500D01*
X403250Y202750D01*
Y198250D01*
X402500Y197500D02*X403250Y198250D01*
X401000Y197500D02*X402500D01*
X400250Y199000D02*X403250Y202000D01*
X405050Y197500D02*X405800D01*
X407600Y198250D02*X408350Y197500D01*
X407600Y202750D02*Y198250D01*
Y202750D02*X408350Y203500D01*
X409850D01*
X410600Y202750D01*
Y198250D01*
X409850Y197500D02*X410600Y198250D01*
X408350Y197500D02*X409850D01*
X407600Y199000D02*X410600Y202000D01*
X412400Y198250D02*X413150Y197500D01*
X412400Y202750D02*Y198250D01*
Y202750D02*X413150Y203500D01*
X414650D01*
X415400Y202750D01*
Y198250D01*
X414650Y197500D02*X415400Y198250D01*
X413150Y197500D02*X414650D01*
X412400Y199000D02*X415400Y202000D01*
X417200Y198250D02*X417950Y197500D01*
X417200Y202750D02*Y198250D01*
Y202750D02*X417950Y203500D01*
X419450D01*
X420200Y202750D01*
Y198250D01*
X419450Y197500D02*X420200Y198250D01*
X417950Y197500D02*X419450D01*
X417200Y199000D02*X420200Y202000D01*
X422000Y198250D02*X422750Y197500D01*
X422000Y202750D02*Y198250D01*
Y202750D02*X422750Y203500D01*
X424250D01*
X425000Y202750D01*
Y198250D01*
X424250Y197500D02*X425000Y198250D01*
X422750Y197500D02*X424250D01*
X422000Y199000D02*X425000Y202000D01*
X426800Y198250D02*X427550Y197500D01*
X426800Y202750D02*Y198250D01*
Y202750D02*X427550Y203500D01*
X429050D01*
X429800Y202750D01*
Y198250D01*
X429050Y197500D02*X429800Y198250D01*
X427550Y197500D02*X429050D01*
X426800Y199000D02*X429800Y202000D01*
X431600Y198250D02*X432350Y197500D01*
X431600Y202750D02*Y198250D01*
Y202750D02*X432350Y203500D01*
X433850D01*
X434600Y202750D01*
Y198250D01*
X433850Y197500D02*X434600Y198250D01*
X432350Y197500D02*X433850D01*
X431600Y199000D02*X434600Y202000D01*
X439850Y199750D02*Y197500D01*
Y199750D02*X440600Y200500D01*
X441350D01*
X442100Y199750D01*
Y197500D01*
Y199750D02*X442850Y200500D01*
X443600D01*
X444350Y199750D01*
Y197500D01*
X439100Y200500D02*X439850Y199750D01*
X446150Y202000D02*Y201250D01*
Y199750D02*Y197500D01*
X447650Y203500D02*Y198250D01*
X448400Y197500D01*
X450650D02*X452900D01*
X453650Y198250D01*
X452900Y199000D02*X453650Y198250D01*
X450650Y199000D02*X452900D01*
X449900Y199750D02*X450650Y199000D01*
X449900Y199750D02*X450650Y200500D01*
X452900D01*
X453650Y199750D01*
X449900Y198250D02*X450650Y197500D01*
X458150Y203500D02*Y197500D01*
Y199750D02*X458900Y200500D01*
X460400D01*
X461150Y199750D01*
Y197500D01*
X462950Y202000D02*Y201250D01*
Y199750D02*Y197500D01*
X466700Y200500D02*X467450Y199750D01*
X465200Y200500D02*X466700D01*
X464450Y199750D02*X465200Y200500D01*
X464450Y199750D02*Y198250D01*
X465200Y197500D01*
X466700D01*
X467450Y198250D01*
X464450Y196000D02*X465200Y195250D01*
X466700D01*
X467450Y196000D01*
Y200500D02*Y196000D01*
X469250Y203500D02*Y197500D01*
Y199750D02*X470000Y200500D01*
X471500D01*
X472250Y199750D01*
Y197500D01*
X0Y-9500D02*X3000D01*
X3750Y-8750D01*
Y-7250D02*Y-8750D01*
X3000Y-6500D02*X3750Y-7250D01*
X750Y-6500D02*X3000D01*
X750Y-3500D02*Y-9500D01*
X0Y-3500D02*X3000D01*
X3750Y-4250D01*
Y-5750D01*
X3000Y-6500D02*X3750Y-5750D01*
X5550Y-7250D02*Y-8750D01*
Y-7250D02*X6300Y-6500D01*
X7800D01*
X8550Y-7250D01*
Y-8750D01*
X7800Y-9500D02*X8550Y-8750D01*
X6300Y-9500D02*X7800D01*
X5550Y-8750D02*X6300Y-9500D01*
X12600Y-6500D02*X13350Y-7250D01*
X11100Y-6500D02*X12600D01*
X10350Y-7250D02*X11100Y-6500D01*
X10350Y-7250D02*Y-8750D01*
X11100Y-9500D01*
X13350Y-6500D02*Y-8750D01*
X14100Y-9500D01*
X11100D02*X12600D01*
X13350Y-8750D01*
X16650Y-7250D02*Y-9500D01*
Y-7250D02*X17400Y-6500D01*
X18900D01*
X15900D02*X16650Y-7250D01*
X23700Y-3500D02*Y-9500D01*
X22950D02*X23700Y-8750D01*
X21450Y-9500D02*X22950D01*
X20700Y-8750D02*X21450Y-9500D01*
X20700Y-7250D02*Y-8750D01*
Y-7250D02*X21450Y-6500D01*
X22950D01*
X23700Y-7250D01*
X28200D02*Y-8750D01*
Y-7250D02*X28950Y-6500D01*
X30450D01*
X31200Y-7250D01*
Y-8750D01*
X30450Y-9500D02*X31200Y-8750D01*
X28950Y-9500D02*X30450D01*
X28200Y-8750D02*X28950Y-9500D01*
X33000Y-6500D02*Y-8750D01*
X33750Y-9500D01*
X35250D01*
X36000Y-8750D01*
Y-6500D02*Y-8750D01*
X38550Y-3500D02*Y-8750D01*
X39300Y-9500D01*
X37800Y-5750D02*X39300D01*
X40800Y-3500D02*Y-8750D01*
X41550Y-9500D01*
X43050Y-5000D02*Y-5750D01*
Y-7250D02*Y-9500D01*
X45300Y-7250D02*Y-9500D01*
Y-7250D02*X46050Y-6500D01*
X46800D01*
X47550Y-7250D01*
Y-9500D01*
X44550Y-6500D02*X45300Y-7250D01*
X50100Y-9500D02*X52350D01*
X49350Y-8750D02*X50100Y-9500D01*
X49350Y-7250D02*Y-8750D01*
Y-7250D02*X50100Y-6500D01*
X51600D01*
X52350Y-7250D01*
X49350Y-8000D02*X52350D01*
Y-7250D02*Y-8000D01*
X56850Y-5000D02*Y-5750D01*
Y-7250D02*Y-9500D01*
X59100D02*X61350D01*
X62100Y-8750D01*
X61350Y-8000D02*X62100Y-8750D01*
X59100Y-8000D02*X61350D01*
X58350Y-7250D02*X59100Y-8000D01*
X58350Y-7250D02*X59100Y-6500D01*
X61350D01*
X62100Y-7250D01*
X58350Y-8750D02*X59100Y-9500D01*
X67350Y-3500D02*Y-8750D01*
X68100Y-9500D01*
X66600Y-5750D02*X68100D01*
X69600Y-3500D02*Y-9500D01*
Y-7250D02*X70350Y-6500D01*
X71850D01*
X72600Y-7250D01*
Y-9500D01*
X75150D02*X77400D01*
X74400Y-8750D02*X75150Y-9500D01*
X74400Y-7250D02*Y-8750D01*
Y-7250D02*X75150Y-6500D01*
X76650D01*
X77400Y-7250D01*
X74400Y-8000D02*X77400D01*
Y-7250D02*Y-8000D01*
X82650Y-6500D02*X84900D01*
X81900Y-7250D02*X82650Y-6500D01*
X81900Y-7250D02*Y-8750D01*
X82650Y-9500D01*
X84900D01*
X87450D02*X89700D01*
X86700Y-8750D02*X87450Y-9500D01*
X86700Y-7250D02*Y-8750D01*
Y-7250D02*X87450Y-6500D01*
X88950D01*
X89700Y-7250D01*
X86700Y-8000D02*X89700D01*
Y-7250D02*Y-8000D01*
X92250Y-7250D02*Y-9500D01*
Y-7250D02*X93000Y-6500D01*
X93750D01*
X94500Y-7250D01*
Y-9500D01*
X91500Y-6500D02*X92250Y-7250D01*
X97050Y-3500D02*Y-8750D01*
X97800Y-9500D01*
X96300Y-5750D02*X97800D01*
X100050Y-9500D02*X102300D01*
X99300Y-8750D02*X100050Y-9500D01*
X99300Y-7250D02*Y-8750D01*
Y-7250D02*X100050Y-6500D01*
X101550D01*
X102300Y-7250D01*
X99300Y-8000D02*X102300D01*
Y-7250D02*Y-8000D01*
X104850Y-7250D02*Y-9500D01*
Y-7250D02*X105600Y-6500D01*
X107100D01*
X104100D02*X104850Y-7250D01*
X108900Y-3500D02*Y-8750D01*
X109650Y-9500D01*
X111150Y-5000D02*Y-5750D01*
Y-7250D02*Y-9500D01*
X113400Y-7250D02*Y-9500D01*
Y-7250D02*X114150Y-6500D01*
X114900D01*
X115650Y-7250D01*
Y-9500D01*
X112650Y-6500D02*X113400Y-7250D01*
X118200Y-9500D02*X120450D01*
X117450Y-8750D02*X118200Y-9500D01*
X117450Y-7250D02*Y-8750D01*
Y-7250D02*X118200Y-6500D01*
X119700D01*
X120450Y-7250D01*
X117450Y-8000D02*X120450D01*
Y-7250D02*Y-8000D01*
X124950Y-7250D02*Y-8750D01*
Y-7250D02*X125700Y-6500D01*
X127200D01*
X127950Y-7250D01*
Y-8750D01*
X127200Y-9500D02*X127950Y-8750D01*
X125700Y-9500D02*X127200D01*
X124950Y-8750D02*X125700Y-9500D01*
X130500Y-4250D02*Y-9500D01*
Y-4250D02*X131250Y-3500D01*
X132000D01*
X129750Y-6500D02*X131250D01*
X136950Y-3500D02*Y-8750D01*
X137700Y-9500D01*
X136200Y-5750D02*X137700D01*
X139200Y-3500D02*Y-9500D01*
Y-7250D02*X139950Y-6500D01*
X141450D01*
X142200Y-7250D01*
Y-9500D01*
X144000Y-5000D02*Y-5750D01*
Y-7250D02*Y-9500D01*
X146250D02*X148500D01*
X149250Y-8750D01*
X148500Y-8000D02*X149250Y-8750D01*
X146250Y-8000D02*X148500D01*
X145500Y-7250D02*X146250Y-8000D01*
X145500Y-7250D02*X146250Y-6500D01*
X148500D01*
X149250Y-7250D01*
X145500Y-8750D02*X146250Y-9500D01*
X153750Y-8750D02*X154500Y-9500D01*
X153750Y-7250D02*Y-8750D01*
Y-7250D02*X154500Y-6500D01*
X156000D01*
X156750Y-7250D01*
Y-8750D01*
X156000Y-9500D02*X156750Y-8750D01*
X154500Y-9500D02*X156000D01*
X153750Y-5750D02*X154500Y-6500D01*
X153750Y-4250D02*Y-5750D01*
Y-4250D02*X154500Y-3500D01*
X156000D01*
X156750Y-4250D01*
Y-5750D01*
X156000Y-6500D02*X156750Y-5750D01*
X158550Y-9500D02*X159300D01*
X161100Y-8750D02*X161850Y-9500D01*
X161100Y-4250D02*Y-8750D01*
Y-4250D02*X161850Y-3500D01*
X163350D01*
X164100Y-4250D01*
Y-8750D01*
X163350Y-9500D02*X164100Y-8750D01*
X161850Y-9500D02*X163350D01*
X161100Y-8000D02*X164100Y-5000D01*
X165900Y-8750D02*X166650Y-9500D01*
X165900Y-4250D02*Y-8750D01*
Y-4250D02*X166650Y-3500D01*
X168150D01*
X168900Y-4250D01*
Y-8750D01*
X168150Y-9500D02*X168900Y-8750D01*
X166650Y-9500D02*X168150D01*
X165900Y-8000D02*X168900Y-5000D01*
X170700Y-8750D02*X171450Y-9500D01*
X170700Y-4250D02*Y-8750D01*
Y-4250D02*X171450Y-3500D01*
X172950D01*
X173700Y-4250D01*
Y-8750D01*
X172950Y-9500D02*X173700Y-8750D01*
X171450Y-9500D02*X172950D01*
X170700Y-8000D02*X173700Y-5000D01*
X175500Y-8750D02*X176250Y-9500D01*
X175500Y-4250D02*Y-8750D01*
Y-4250D02*X176250Y-3500D01*
X177750D01*
X178500Y-4250D01*
Y-8750D01*
X177750Y-9500D02*X178500Y-8750D01*
X176250Y-9500D02*X177750D01*
X175500Y-8000D02*X178500Y-5000D01*
X180300Y-8750D02*X181050Y-9500D01*
X180300Y-4250D02*Y-8750D01*
Y-4250D02*X181050Y-3500D01*
X182550D01*
X183300Y-4250D01*
Y-8750D01*
X182550Y-9500D02*X183300Y-8750D01*
X181050Y-9500D02*X182550D01*
X180300Y-8000D02*X183300Y-5000D01*
X185100Y-8750D02*X185850Y-9500D01*
X185100Y-4250D02*Y-8750D01*
Y-4250D02*X185850Y-3500D01*
X187350D01*
X188100Y-4250D01*
Y-8750D01*
X187350Y-9500D02*X188100Y-8750D01*
X185850Y-9500D02*X187350D01*
X185100Y-8000D02*X188100Y-5000D01*
X193350Y-7250D02*Y-9500D01*
Y-7250D02*X194100Y-6500D01*
X194850D01*
X195600Y-7250D01*
Y-9500D01*
Y-7250D02*X196350Y-6500D01*
X197100D01*
X197850Y-7250D01*
Y-9500D01*
X192600Y-6500D02*X193350Y-7250D01*
X199650Y-5000D02*Y-5750D01*
Y-7250D02*Y-9500D01*
X201150Y-3500D02*Y-8750D01*
X201900Y-9500D01*
X206850Y-7250D02*Y-9500D01*
Y-7250D02*X207600Y-6500D01*
X209100D01*
X206100D02*X206850Y-7250D01*
X211650Y-9500D02*X213900D01*
X210900Y-8750D02*X211650Y-9500D01*
X210900Y-7250D02*Y-8750D01*
Y-7250D02*X211650Y-6500D01*
X213150D01*
X213900Y-7250D01*
X210900Y-8000D02*X213900D01*
Y-7250D02*Y-8000D01*
X216450Y-6500D02*X218700D01*
X215700Y-7250D02*X216450Y-6500D01*
X215700Y-7250D02*Y-8750D01*
X216450Y-9500D01*
X218700D01*
X221250Y-3500D02*Y-8750D01*
X222000Y-9500D01*
X220500Y-5750D02*X222000D01*
X225750Y-6500D02*X226500Y-7250D01*
X224250Y-6500D02*X225750D01*
X223500Y-7250D02*X224250Y-6500D01*
X223500Y-7250D02*Y-8750D01*
X224250Y-9500D01*
X226500Y-6500D02*Y-8750D01*
X227250Y-9500D01*
X224250D02*X225750D01*
X226500Y-8750D01*
X229800Y-7250D02*Y-9500D01*
Y-7250D02*X230550Y-6500D01*
X231300D01*
X232050Y-7250D01*
Y-9500D01*
X229050Y-6500D02*X229800Y-7250D01*
X236100Y-6500D02*X236850Y-7250D01*
X234600Y-6500D02*X236100D01*
X233850Y-7250D02*X234600Y-6500D01*
X233850Y-7250D02*Y-8750D01*
X234600Y-9500D01*
X236100D01*
X236850Y-8750D01*
X233850Y-11000D02*X234600Y-11750D01*
X236100D01*
X236850Y-11000D01*
Y-6500D02*Y-11000D01*
X238650Y-3500D02*Y-8750D01*
X239400Y-9500D01*
X241650D02*X243900D01*
X240900Y-8750D02*X241650Y-9500D01*
X240900Y-7250D02*Y-8750D01*
Y-7250D02*X241650Y-6500D01*
X243150D01*
X243900Y-7250D01*
X240900Y-8000D02*X243900D01*
Y-7250D02*Y-8000D01*
X248400Y-6500D02*X251400D01*
X255900Y-8750D02*X256650Y-9500D01*
X255900Y-4250D02*Y-8750D01*
Y-4250D02*X256650Y-3500D01*
X258150D01*
X258900Y-4250D01*
Y-8750D01*
X258150Y-9500D02*X258900Y-8750D01*
X256650Y-9500D02*X258150D01*
X255900Y-8000D02*X258900Y-5000D01*
X260700Y-11000D02*X262200Y-9500D01*
X264000Y-8750D02*X264750Y-9500D01*
X264000Y-4250D02*Y-8750D01*
Y-4250D02*X264750Y-3500D01*
X266250D01*
X267000Y-4250D01*
Y-8750D01*
X266250Y-9500D02*X267000Y-8750D01*
X264750Y-9500D02*X266250D01*
X264000Y-8000D02*X267000Y-5000D01*
X272250Y-3500D02*Y-8750D01*
X273000Y-9500D01*
X271500Y-5750D02*X273000D01*
X274500Y-7250D02*Y-8750D01*
Y-7250D02*X275250Y-6500D01*
X276750D01*
X277500Y-7250D01*
Y-8750D01*
X276750Y-9500D02*X277500Y-8750D01*
X275250Y-9500D02*X276750D01*
X274500Y-8750D02*X275250Y-9500D01*
X282000Y-4250D02*X282750Y-3500D01*
X284250D01*
X285000Y-4250D01*
Y-8750D01*
X284250Y-9500D02*X285000Y-8750D01*
X282750Y-9500D02*X284250D01*
X282000Y-8750D02*X282750Y-9500D01*
Y-6500D02*X285000D01*
X286800Y-3500D02*X289800D01*
X286800D02*Y-6500D01*
X287550Y-5750D01*
X289050D01*
X289800Y-6500D01*
Y-8750D01*
X289050Y-9500D02*X289800Y-8750D01*
X287550Y-9500D02*X289050D01*
X286800Y-8750D02*X287550Y-9500D01*
X291600Y-8750D02*X292350Y-9500D01*
X291600Y-4250D02*Y-8750D01*
Y-4250D02*X292350Y-3500D01*
X293850D01*
X294600Y-4250D01*
Y-8750D01*
X293850Y-9500D02*X294600Y-8750D01*
X292350Y-9500D02*X293850D01*
X291600Y-8000D02*X294600Y-5000D01*
X296400Y-8750D02*X297150Y-9500D01*
X296400Y-4250D02*Y-8750D01*
Y-4250D02*X297150Y-3500D01*
X298650D01*
X299400Y-4250D01*
Y-8750D01*
X298650Y-9500D02*X299400Y-8750D01*
X297150Y-9500D02*X298650D01*
X296400Y-8000D02*X299400Y-5000D01*
X301200Y-9500D02*X301950D01*
X303750Y-8750D02*X304500Y-9500D01*
X303750Y-4250D02*Y-8750D01*
Y-4250D02*X304500Y-3500D01*
X306000D01*
X306750Y-4250D01*
Y-8750D01*
X306000Y-9500D02*X306750Y-8750D01*
X304500Y-9500D02*X306000D01*
X303750Y-8000D02*X306750Y-5000D01*
X308550Y-8750D02*X309300Y-9500D01*
X308550Y-4250D02*Y-8750D01*
Y-4250D02*X309300Y-3500D01*
X310800D01*
X311550Y-4250D01*
Y-8750D01*
X310800Y-9500D02*X311550Y-8750D01*
X309300Y-9500D02*X310800D01*
X308550Y-8000D02*X311550Y-5000D01*
X313350Y-8750D02*X314100Y-9500D01*
X313350Y-4250D02*Y-8750D01*
Y-4250D02*X314100Y-3500D01*
X315600D01*
X316350Y-4250D01*
Y-8750D01*
X315600Y-9500D02*X316350Y-8750D01*
X314100Y-9500D02*X315600D01*
X313350Y-8000D02*X316350Y-5000D01*
X318150Y-8750D02*X318900Y-9500D01*
X318150Y-4250D02*Y-8750D01*
Y-4250D02*X318900Y-3500D01*
X320400D01*
X321150Y-4250D01*
Y-8750D01*
X320400Y-9500D02*X321150Y-8750D01*
X318900Y-9500D02*X320400D01*
X318150Y-8000D02*X321150Y-5000D01*
X322950Y-8750D02*X323700Y-9500D01*
X322950Y-4250D02*Y-8750D01*
Y-4250D02*X323700Y-3500D01*
X325200D01*
X325950Y-4250D01*
Y-8750D01*
X325200Y-9500D02*X325950Y-8750D01*
X323700Y-9500D02*X325200D01*
X322950Y-8000D02*X325950Y-5000D01*
X327750Y-8750D02*X328500Y-9500D01*
X327750Y-4250D02*Y-8750D01*
Y-4250D02*X328500Y-3500D01*
X330000D01*
X330750Y-4250D01*
Y-8750D01*
X330000Y-9500D02*X330750Y-8750D01*
X328500Y-9500D02*X330000D01*
X327750Y-8000D02*X330750Y-5000D01*
X332550Y-11000D02*X334050Y-9500D01*
X336600D02*X338100D01*
X337350Y-3500D02*Y-9500D01*
X335850Y-5000D02*X337350Y-3500D01*
X339900Y-9500D02*X342900Y-6500D01*
Y-4250D02*Y-6500D01*
X342150Y-3500D02*X342900Y-4250D01*
X340650Y-3500D02*X342150D01*
X339900Y-4250D02*X340650Y-3500D01*
X339900Y-4250D02*Y-5750D01*
X340650Y-6500D01*
X342900D01*
X344700Y-8750D02*X345450Y-9500D01*
X344700Y-4250D02*Y-8750D01*
Y-4250D02*X345450Y-3500D01*
X346950D01*
X347700Y-4250D01*
Y-8750D01*
X346950Y-9500D02*X347700Y-8750D01*
X345450Y-9500D02*X346950D01*
X344700Y-8000D02*X347700Y-5000D01*
X349500Y-8750D02*X350250Y-9500D01*
X349500Y-4250D02*Y-8750D01*
Y-4250D02*X350250Y-3500D01*
X351750D01*
X352500Y-4250D01*
Y-8750D01*
X351750Y-9500D02*X352500Y-8750D01*
X350250Y-9500D02*X351750D01*
X349500Y-8000D02*X352500Y-5000D01*
X354300Y-9500D02*X355050D01*
X356850Y-8750D02*X357600Y-9500D01*
X356850Y-4250D02*Y-8750D01*
Y-4250D02*X357600Y-3500D01*
X359100D01*
X359850Y-4250D01*
Y-8750D01*
X359100Y-9500D02*X359850Y-8750D01*
X357600Y-9500D02*X359100D01*
X356850Y-8000D02*X359850Y-5000D01*
X361650Y-8750D02*X362400Y-9500D01*
X361650Y-4250D02*Y-8750D01*
Y-4250D02*X362400Y-3500D01*
X363900D01*
X364650Y-4250D01*
Y-8750D01*
X363900Y-9500D02*X364650Y-8750D01*
X362400Y-9500D02*X363900D01*
X361650Y-8000D02*X364650Y-5000D01*
X366450Y-8750D02*X367200Y-9500D01*
X366450Y-4250D02*Y-8750D01*
Y-4250D02*X367200Y-3500D01*
X368700D01*
X369450Y-4250D01*
Y-8750D01*
X368700Y-9500D02*X369450Y-8750D01*
X367200Y-9500D02*X368700D01*
X366450Y-8000D02*X369450Y-5000D01*
X371250Y-8750D02*X372000Y-9500D01*
X371250Y-4250D02*Y-8750D01*
Y-4250D02*X372000Y-3500D01*
X373500D01*
X374250Y-4250D01*
Y-8750D01*
X373500Y-9500D02*X374250Y-8750D01*
X372000Y-9500D02*X373500D01*
X371250Y-8000D02*X374250Y-5000D01*
X376050Y-8750D02*X376800Y-9500D01*
X376050Y-4250D02*Y-8750D01*
Y-4250D02*X376800Y-3500D01*
X378300D01*
X379050Y-4250D01*
Y-8750D01*
X378300Y-9500D02*X379050Y-8750D01*
X376800Y-9500D02*X378300D01*
X376050Y-8000D02*X379050Y-5000D01*
X380850Y-8750D02*X381600Y-9500D01*
X380850Y-4250D02*Y-8750D01*
Y-4250D02*X381600Y-3500D01*
X383100D01*
X383850Y-4250D01*
Y-8750D01*
X383100Y-9500D02*X383850Y-8750D01*
X381600Y-9500D02*X383100D01*
X380850Y-8000D02*X383850Y-5000D01*
X389100Y-7250D02*Y-9500D01*
Y-7250D02*X389850Y-6500D01*
X390600D01*
X391350Y-7250D01*
Y-9500D01*
Y-7250D02*X392100Y-6500D01*
X392850D01*
X393600Y-7250D01*
Y-9500D01*
X388350Y-6500D02*X389100Y-7250D01*
X395400Y-5000D02*Y-5750D01*
Y-7250D02*Y-9500D01*
X396900Y-3500D02*Y-8750D01*
X397650Y-9500D01*
X399900D02*X402150D01*
X402900Y-8750D01*
X402150Y-8000D02*X402900Y-8750D01*
X399900Y-8000D02*X402150D01*
X399150Y-7250D02*X399900Y-8000D01*
X399150Y-7250D02*X399900Y-6500D01*
X402150D01*
X402900Y-7250D01*
X399150Y-8750D02*X399900Y-9500D01*
X200750Y218500D02*Y212500D01*
X203000Y218500D02*X203750Y217750D01*
Y213250D01*
X203000Y212500D02*X203750Y213250D01*
X200000Y212500D02*X203000D01*
X200000Y218500D02*X203000D01*
X207800Y215500D02*X208550Y214750D01*
X206300Y215500D02*X207800D01*
X205550Y214750D02*X206300Y215500D01*
X205550Y214750D02*Y213250D01*
X206300Y212500D01*
X208550Y215500D02*Y213250D01*
X209300Y212500D01*
X206300D02*X207800D01*
X208550Y213250D01*
X211850Y218500D02*Y213250D01*
X212600Y212500D01*
X211100Y216250D02*X212600D01*
X214850Y212500D02*X217100D01*
X214100Y213250D02*X214850Y212500D01*
X214100Y214750D02*Y213250D01*
Y214750D02*X214850Y215500D01*
X216350D01*
X217100Y214750D01*
X214100Y214000D02*X217100D01*
Y214750D02*Y214000D01*
X218900Y216250D02*X219650D01*
X218900Y214750D02*X219650D01*
X224150Y218500D02*X227150D01*
X225650D02*Y212500D01*
X228950Y218500D02*Y212500D01*
Y214750D02*X229700Y215500D01*
X231200D01*
X231950Y214750D01*
Y212500D01*
X233750Y215500D02*Y213250D01*
X234500Y212500D01*
X236000D01*
X236750Y213250D01*
Y215500D02*Y213250D01*
X241250Y217750D02*X242000Y218500D01*
X244250D01*
X245000Y217750D01*
Y216250D01*
X241250Y212500D02*X245000Y216250D01*
X241250Y212500D02*X245000D01*
X246800Y213250D02*X247550Y212500D01*
X246800Y214750D02*Y213250D01*
Y214750D02*X247550Y215500D01*
X249050D01*
X249800Y214750D01*
Y213250D01*
X249050Y212500D02*X249800Y213250D01*
X247550Y212500D02*X249050D01*
X246800Y216250D02*X247550Y215500D01*
X246800Y217750D02*Y216250D01*
Y217750D02*X247550Y218500D01*
X249050D01*
X249800Y217750D01*
Y216250D01*
X249050Y215500D02*X249800Y216250D01*
X254300Y218500D02*Y212500D01*
Y218500D02*X256550Y216250D01*
X258800Y218500D01*
Y212500D01*
X262850Y215500D02*X263600Y214750D01*
X261350Y215500D02*X262850D01*
X260600Y214750D02*X261350Y215500D01*
X260600Y214750D02*Y213250D01*
X261350Y212500D01*
X263600Y215500D02*Y213250D01*
X264350Y212500D01*
X261350D02*X262850D01*
X263600Y213250D01*
X266900Y214750D02*Y212500D01*
Y214750D02*X267650Y215500D01*
X269150D01*
X266150D02*X266900Y214750D01*
X273650Y217750D02*X274400Y218500D01*
X276650D01*
X277400Y217750D01*
Y216250D01*
X273650Y212500D02*X277400Y216250D01*
X273650Y212500D02*X277400D01*
X279200Y213250D02*X279950Y212500D01*
X279200Y217750D02*Y213250D01*
Y217750D02*X279950Y218500D01*
X281450D01*
X282200Y217750D01*
Y213250D01*
X281450Y212500D02*X282200Y213250D01*
X279950Y212500D02*X281450D01*
X279200Y214000D02*X282200Y217000D01*
X284750Y212500D02*X286250D01*
X285500Y218500D02*Y212500D01*
X284000Y217000D02*X285500Y218500D01*
X288050Y217750D02*X288800Y218500D01*
X290300D01*
X291050Y217750D01*
Y213250D01*
X290300Y212500D02*X291050Y213250D01*
X288800Y212500D02*X290300D01*
X288050Y213250D02*X288800Y212500D01*
Y215500D02*X291050D01*
X296300Y212500D02*X297800D01*
X297050Y218500D02*Y212500D01*
X295550Y217000D02*X297050Y218500D01*
X299600Y213250D02*X300350Y212500D01*
X299600Y217750D02*Y213250D01*
Y217750D02*X300350Y218500D01*
X301850D01*
X302600Y217750D01*
Y213250D01*
X301850Y212500D02*X302600Y213250D01*
X300350Y212500D02*X301850D01*
X299600Y214000D02*X302600Y217000D01*
X304400Y216250D02*X305150D01*
X304400Y214750D02*X305150D01*
X306950Y218500D02*X309950D01*
X306950D02*Y215500D01*
X307700Y216250D01*
X309200D01*
X309950Y215500D01*
Y213250D01*
X309200Y212500D02*X309950Y213250D01*
X307700Y212500D02*X309200D01*
X306950Y213250D02*X307700Y212500D01*
X311750D02*X315500Y216250D01*
Y218500D02*Y216250D01*
X311750Y218500D02*X315500D01*
X317300Y216250D02*X318050D01*
X317300Y214750D02*X318050D01*
X319850Y217750D02*X320600Y218500D01*
X322850D01*
X323600Y217750D01*
Y216250D01*
X319850Y212500D02*X323600Y216250D01*
X319850Y212500D02*X323600D01*
X325400Y215500D02*X328400Y218500D01*
X325400Y215500D02*X329150D01*
X328400Y218500D02*Y212500D01*
X334400Y218500D02*Y212500D01*
X333650Y218500D02*X336650D01*
X337400Y217750D01*
Y216250D01*
X336650Y215500D02*X337400Y216250D01*
X334400Y215500D02*X336650D01*
X339200Y218500D02*Y212500D01*
Y218500D02*X341450Y216250D01*
X343700Y218500D01*
Y212500D01*
X351200Y218500D02*X351950Y217750D01*
X348950Y218500D02*X351200D01*
X348200Y217750D02*X348950Y218500D01*
X348200Y217750D02*Y213250D01*
X348950Y212500D01*
X351200D01*
X351950Y213250D01*
Y214750D02*Y213250D01*
X351200Y215500D02*X351950Y214750D01*
X349700Y215500D02*X351200D01*
X353750Y218500D02*Y212500D01*
Y218500D02*X356000Y216250D01*
X358250Y218500D01*
Y212500D01*
X360050Y218500D02*X363050D01*
X361550D02*Y212500D01*
X367550Y218500D02*Y213250D01*
X368300Y212500D01*
X369800D01*
X370550Y213250D01*
Y218500D02*Y213250D01*
X372350Y218500D02*X375350D01*
X373850D02*Y212500D01*
X377900D02*X380150D01*
X377150Y213250D02*X377900Y212500D01*
X377150Y217750D02*Y213250D01*
Y217750D02*X377900Y218500D01*
X380150D01*
X200000Y232750D02*Y227500D01*
Y232750D02*X200750Y233500D01*
X203000D01*
X203750Y232750D01*
Y227500D01*
X200000Y230500D02*X203750D01*
X205550D02*Y228250D01*
X206300Y227500D01*
X207800D01*
X208550Y228250D01*
Y230500D02*Y228250D01*
X211100Y233500D02*Y228250D01*
X211850Y227500D01*
X210350Y231250D02*X211850D01*
X213350Y233500D02*Y227500D01*
Y229750D02*X214100Y230500D01*
X215600D01*
X216350Y229750D01*
Y227500D01*
X218150Y229750D02*Y228250D01*
Y229750D02*X218900Y230500D01*
X220400D01*
X221150Y229750D01*
Y228250D01*
X220400Y227500D02*X221150Y228250D01*
X218900Y227500D02*X220400D01*
X218150Y228250D02*X218900Y227500D01*
X223700Y229750D02*Y227500D01*
Y229750D02*X224450Y230500D01*
X225950D01*
X222950D02*X223700Y229750D01*
X227750Y231250D02*X228500D01*
X227750Y229750D02*X228500D01*
X233000Y233500D02*Y227500D01*
Y233500D02*X235250Y231250D01*
X237500Y233500D01*
Y227500D01*
X239300Y232000D02*Y231250D01*
Y229750D02*Y227500D01*
X241550Y230500D02*X243800D01*
X240800Y229750D02*X241550Y230500D01*
X240800Y229750D02*Y228250D01*
X241550Y227500D01*
X243800D01*
X245600Y233500D02*Y227500D01*
Y229750D02*X246350Y230500D01*
X247850D01*
X248600Y229750D01*
Y227500D01*
X252650Y230500D02*X253400Y229750D01*
X251150Y230500D02*X252650D01*
X250400Y229750D02*X251150Y230500D01*
X250400Y229750D02*Y228250D01*
X251150Y227500D01*
X253400Y230500D02*Y228250D01*
X254150Y227500D01*
X251150D02*X252650D01*
X253400Y228250D01*
X256700Y227500D02*X258950D01*
X255950Y228250D02*X256700Y227500D01*
X255950Y229750D02*Y228250D01*
Y229750D02*X256700Y230500D01*
X258200D01*
X258950Y229750D01*
X255950Y229000D02*X258950D01*
Y229750D02*Y229000D01*
X260750Y233500D02*Y228250D01*
X261500Y227500D01*
X266450Y233500D02*Y227500D01*
X265700Y233500D02*X268700D01*
X269450Y232750D01*
Y231250D01*
X268700Y230500D02*X269450Y231250D01*
X266450Y230500D02*X268700D01*
X272000Y227500D02*X274250D01*
X271250Y228250D02*X272000Y227500D01*
X271250Y229750D02*Y228250D01*
Y229750D02*X272000Y230500D01*
X273500D01*
X274250Y229750D01*
X271250Y229000D02*X274250D01*
Y229750D02*Y229000D01*
X276800Y233500D02*Y228250D01*
X277550Y227500D01*
X276050Y231250D02*X277550D01*
X279800Y227500D02*X282050D01*
X279050Y228250D02*X279800Y227500D01*
X279050Y229750D02*Y228250D01*
Y229750D02*X279800Y230500D01*
X281300D01*
X282050Y229750D01*
X279050Y229000D02*X282050D01*
Y229750D02*Y229000D01*
X284600Y229750D02*Y227500D01*
Y229750D02*X285350Y230500D01*
X286850D01*
X283850D02*X284600Y229750D01*
X289400Y227500D02*X291650D01*
X292400Y228250D01*
X291650Y229000D02*X292400Y228250D01*
X289400Y229000D02*X291650D01*
X288650Y229750D02*X289400Y229000D01*
X288650Y229750D02*X289400Y230500D01*
X291650D01*
X292400Y229750D01*
X288650Y228250D02*X289400Y227500D01*
X294950D02*X297200D01*
X294200Y228250D02*X294950Y227500D01*
X294200Y229750D02*Y228250D01*
Y229750D02*X294950Y230500D01*
X296450D01*
X297200Y229750D01*
X294200Y229000D02*X297200D01*
Y229750D02*Y229000D01*
X299750Y229750D02*Y227500D01*
Y229750D02*X300500Y230500D01*
X301250D01*
X302000Y229750D01*
Y227500D01*
X299000Y230500D02*X299750Y229750D01*
X200000Y248500D02*X203000D01*
X201500D02*Y242500D01*
X204800Y247000D02*Y246250D01*
Y244750D02*Y242500D01*
X207050Y248500D02*Y243250D01*
X207800Y242500D01*
X206300Y246250D02*X207800D01*
X209300Y248500D02*Y243250D01*
X210050Y242500D01*
X212300D02*X214550D01*
X211550Y243250D02*X212300Y242500D01*
X211550Y244750D02*Y243250D01*
Y244750D02*X212300Y245500D01*
X213800D01*
X214550Y244750D01*
X211550Y244000D02*X214550D01*
Y244750D02*Y244000D01*
X216350Y246250D02*X217100D01*
X216350Y244750D02*X217100D01*
X221600Y243250D02*X222350Y242500D01*
X221600Y247750D02*X222350Y248500D01*
X221600Y247750D02*Y243250D01*
X224150Y245500D02*Y243250D01*
X224900Y242500D01*
X226400D01*
X227150Y243250D01*
Y245500D02*Y243250D01*
X229700Y244750D02*Y242500D01*
Y244750D02*X230450Y245500D01*
X231200D01*
X231950Y244750D01*
Y242500D01*
X228950Y245500D02*X229700Y244750D01*
X233750Y248500D02*Y242500D01*
Y244750D02*X236000Y242500D01*
X233750Y244750D02*X235250Y246250D01*
X238550Y244750D02*Y242500D01*
Y244750D02*X239300Y245500D01*
X240050D01*
X240800Y244750D01*
Y242500D01*
X237800Y245500D02*X238550Y244750D01*
X242600D02*Y243250D01*
Y244750D02*X243350Y245500D01*
X244850D01*
X245600Y244750D01*
Y243250D01*
X244850Y242500D02*X245600Y243250D01*
X243350Y242500D02*X244850D01*
X242600Y243250D02*X243350Y242500D01*
X247400Y245500D02*Y243250D01*
X248150Y242500D01*
X248900D01*
X249650Y243250D01*
Y245500D02*Y243250D01*
X250400Y242500D01*
X251150D01*
X251900Y243250D01*
Y245500D02*Y243250D01*
X254450Y244750D02*Y242500D01*
Y244750D02*X255200Y245500D01*
X255950D01*
X256700Y244750D01*
Y242500D01*
X253700Y245500D02*X254450Y244750D01*
X258500Y248500D02*X259250Y247750D01*
Y243250D01*
X258500Y242500D02*X259250Y243250D01*
X263750Y245500D02*X266750D01*
X271250Y248500D02*Y242500D01*
Y248500D02*X274250D01*
X271250Y245500D02*X273500D01*
X278300D02*X279050Y244750D01*
X276800Y245500D02*X278300D01*
X276050Y244750D02*X276800Y245500D01*
X276050Y244750D02*Y243250D01*
X276800Y242500D01*
X279050Y245500D02*Y243250D01*
X279800Y242500D01*
X276800D02*X278300D01*
X279050Y243250D01*
X281600Y248500D02*Y242500D01*
Y243250D02*X282350Y242500D01*
X283850D01*
X284600Y243250D01*
Y244750D02*Y243250D01*
X283850Y245500D02*X284600Y244750D01*
X282350Y245500D02*X283850D01*
X281600Y244750D02*X282350Y245500D01*
X287150Y244750D02*Y242500D01*
Y244750D02*X287900Y245500D01*
X289400D01*
X286400D02*X287150Y244750D01*
X291200Y247000D02*Y246250D01*
Y244750D02*Y242500D01*
X293450Y245500D02*X295700D01*
X292700Y244750D02*X293450Y245500D01*
X292700Y244750D02*Y243250D01*
X293450Y242500D01*
X295700D01*
X299750Y245500D02*X300500Y244750D01*
X298250Y245500D02*X299750D01*
X297500Y244750D02*X298250Y245500D01*
X297500Y244750D02*Y243250D01*
X298250Y242500D01*
X300500Y245500D02*Y243250D01*
X301250Y242500D01*
X298250D02*X299750D01*
X300500Y243250D01*
X303800Y248500D02*Y243250D01*
X304550Y242500D01*
X303050Y246250D02*X304550D01*
X306050Y247000D02*Y246250D01*
Y244750D02*Y242500D01*
X307550Y244750D02*Y243250D01*
Y244750D02*X308300Y245500D01*
X309800D01*
X310550Y244750D01*
Y243250D01*
X309800Y242500D02*X310550Y243250D01*
X308300Y242500D02*X309800D01*
X307550Y243250D02*X308300Y242500D01*
X313100Y244750D02*Y242500D01*
Y244750D02*X313850Y245500D01*
X314600D01*
X315350Y244750D01*
Y242500D01*
X312350Y245500D02*X313100Y244750D01*
X320600Y248500D02*Y242500D01*
X322850Y248500D02*X323600Y247750D01*
Y243250D01*
X322850Y242500D02*X323600Y243250D01*
X319850Y242500D02*X322850D01*
X319850Y248500D02*X322850D01*
X326150Y244750D02*Y242500D01*
Y244750D02*X326900Y245500D01*
X328400D01*
X325400D02*X326150Y244750D01*
X332450Y245500D02*X333200Y244750D01*
X330950Y245500D02*X332450D01*
X330200Y244750D02*X330950Y245500D01*
X330200Y244750D02*Y243250D01*
X330950Y242500D01*
X333200Y245500D02*Y243250D01*
X333950Y242500D01*
X330950D02*X332450D01*
X333200Y243250D01*
X335750Y245500D02*Y243250D01*
X336500Y242500D01*
X337250D01*
X338000Y243250D01*
Y245500D02*Y243250D01*
X338750Y242500D01*
X339500D01*
X340250Y243250D01*
Y245500D02*Y243250D01*
X342050Y247000D02*Y246250D01*
Y244750D02*Y242500D01*
X344300Y244750D02*Y242500D01*
Y244750D02*X345050Y245500D01*
X345800D01*
X346550Y244750D01*
Y242500D01*
X343550Y245500D02*X344300Y244750D01*
X350600Y245500D02*X351350Y244750D01*
X349100Y245500D02*X350600D01*
X348350Y244750D02*X349100Y245500D01*
X348350Y244750D02*Y243250D01*
X349100Y242500D01*
X350600D01*
X351350Y243250D01*
X348350Y241000D02*X349100Y240250D01*
X350600D01*
X351350Y241000D01*
Y245500D02*Y241000D01*
M02*
