G04 start of page 2 for group 0 idx 0 *
G04 Title: (unknown), component *
G04 Creator: pcb 20110918 *
G04 CreationDate: Thu 28 Mar 2013 10:57:24 PM GMT UTC *
G04 For: railfan *
G04 Format: Gerber/RS-274X *
G04 PCB-Dimensions: 350000 190000 *
G04 PCB-Coordinate-Origin: lower left *
%MOIN*%
%FSLAX25Y25*%
%LNTOP*%
%ADD36C,0.0450*%
%ADD35C,0.0380*%
%ADD34C,0.1280*%
%ADD33C,0.0300*%
%ADD32C,0.1285*%
%ADD31C,0.0390*%
%ADD30C,0.0280*%
%ADD29C,0.0480*%
%ADD28C,0.0350*%
%ADD27C,0.0200*%
%ADD26R,0.0157X0.0157*%
%ADD25R,0.0200X0.0200*%
%ADD24R,0.0360X0.0360*%
%ADD23R,0.0630X0.0630*%
%ADD22R,0.0340X0.0340*%
%ADD21R,0.0512X0.0512*%
%ADD20C,0.0787*%
%ADD19C,0.1500*%
%ADD18C,0.2937*%
%ADD17C,0.0700*%
%ADD16C,0.0600*%
%ADD15C,0.0800*%
%ADD14C,0.0250*%
%ADD13C,0.0400*%
%ADD12C,0.0100*%
%ADD11C,0.0001*%
G54D11*G36*
X113500Y82000D02*X119500D01*
Y76000D01*
X113500D01*
Y82000D01*
G37*
G36*
X128000Y73500D02*Y65000D01*
X117000D01*
Y73500D01*
X128000D01*
G37*
G36*
X112000Y88000D02*X119500D01*
Y81500D01*
X113500D01*
Y83000D01*
X112000Y84500D01*
Y88000D01*
G37*
G36*
X113500Y77000D02*X119500D01*
Y76000D01*
X120500Y75000D01*
X128500D01*
Y73000D01*
X128000Y72500D01*
X117000D01*
X113500Y76000D01*
Y77000D01*
G37*
G36*
X127500Y72500D02*Y75000D01*
X128000D01*
X131000Y78000D01*
X140500D01*
Y75000D01*
X130500D01*
X128000Y72500D01*
X127500D01*
G37*
G36*
X224000Y82000D02*X229000D01*
Y50000D01*
X224000D01*
Y82000D01*
G37*
G36*
X231000Y78000D02*Y79000D01*
X233500Y81500D01*
Y84500D01*
X235000D01*
Y84000D01*
X236000Y83000D01*
Y77000D01*
X231000D01*
Y78000D01*
G37*
G36*
X223500Y93500D02*X225500D01*
Y50000D01*
X223500D01*
Y93500D01*
G37*
G36*
X103500Y106000D02*Y129500D01*
X114500D01*
X119500Y124500D01*
Y106000D01*
X103500D01*
G37*
G36*
X100500Y104000D02*X109500D01*
X119500Y94000D01*
Y87500D01*
X112000D01*
Y91500D01*
X107500Y96000D01*
X97500D01*
Y104000D01*
X100500D01*
G37*
G36*
Y85500D02*X90500D01*
Y136000D01*
X100500D01*
Y85500D01*
G37*
G36*
X90500Y138000D02*X127000D01*
Y131500D01*
X90500D01*
Y138000D01*
G37*
G36*
X126000Y135000D02*Y135500D01*
X129000D01*
Y133500D01*
X127000Y131500D01*
X126000D01*
Y135000D01*
G37*
G36*
X231900Y74600D02*X236100D01*
Y70200D01*
X231900D01*
Y74600D01*
G37*
G36*
X27750Y138500D02*X40000D01*
Y129500D01*
X29000Y118500D01*
X27750D01*
Y119248D01*
X27868Y119257D01*
X27982Y119285D01*
X28092Y119330D01*
X28192Y119391D01*
X28282Y119468D01*
X28359Y119558D01*
X28420Y119658D01*
X28465Y119768D01*
X28493Y119882D01*
X28500Y120000D01*
Y125000D01*
X28493Y125118D01*
X28465Y125232D01*
X28420Y125342D01*
X28359Y125442D01*
X28282Y125532D01*
X28192Y125609D01*
X28092Y125670D01*
X27982Y125715D01*
X27868Y125743D01*
X27750Y125752D01*
Y138500D01*
G37*
G36*
X23000Y136000D02*X25500Y138500D01*
X27750D01*
Y125752D01*
X27632Y125743D01*
X27518Y125715D01*
X27408Y125670D01*
X27308Y125609D01*
X27218Y125532D01*
X27141Y125442D01*
X27080Y125342D01*
X27035Y125232D01*
X27007Y125118D01*
X27000Y125000D01*
Y120000D01*
X27007Y119882D01*
X27035Y119768D01*
X27080Y119658D01*
X27141Y119558D01*
X27218Y119468D01*
X27308Y119391D01*
X27408Y119330D01*
X27518Y119285D01*
X27632Y119257D01*
X27750Y119248D01*
Y118500D01*
X25500D01*
X25500Y118500D01*
X23000D01*
Y126500D01*
X25500D01*
X25618Y126507D01*
X25732Y126535D01*
X25842Y126580D01*
X25942Y126641D01*
X26032Y126718D01*
X26109Y126808D01*
X26170Y126908D01*
X26215Y127018D01*
X26243Y127132D01*
X26252Y127250D01*
X26243Y127368D01*
X26215Y127482D01*
X26170Y127592D01*
X26109Y127692D01*
X26032Y127782D01*
X25942Y127859D01*
X25842Y127920D01*
X25732Y127965D01*
X25618Y127993D01*
X25500Y128000D01*
X23000D01*
Y136000D01*
G37*
G36*
X19000Y118500D02*Y132000D01*
X23000Y136000D01*
Y128000D01*
X20500D01*
X20382Y127993D01*
X20268Y127965D01*
X20158Y127920D01*
X20058Y127859D01*
X19968Y127782D01*
X19891Y127692D01*
X19830Y127592D01*
X19785Y127482D01*
X19757Y127368D01*
X19748Y127250D01*
X19757Y127132D01*
X19785Y127018D01*
X19830Y126908D01*
X19891Y126808D01*
X19968Y126718D01*
X20058Y126641D01*
X20158Y126580D01*
X20268Y126535D01*
X20382Y126507D01*
X20500Y126500D01*
X23000D01*
Y118500D01*
X20500D01*
X20500Y118500D01*
X19000D01*
G37*
G36*
X40000Y138500D02*X49000D01*
Y132500D01*
X42000D01*
X39000Y129500D01*
Y138500D01*
X40000D01*
G37*
G36*
X16500Y106500D02*Y110000D01*
X26500D01*
X29000Y107500D01*
Y106500D01*
X25864D01*
X25865Y106504D01*
X25893Y106619D01*
X25902Y106737D01*
X25892Y106855D01*
X25865Y106969D01*
X25819Y107078D01*
X25757Y107179D01*
X25681Y107269D01*
X25591Y107345D01*
X25489Y107405D01*
X25020Y107622D01*
X24531Y107789D01*
X24028Y107909D01*
X23516Y107982D01*
X23000Y108006D01*
X22484Y107982D01*
X21972Y107909D01*
X21469Y107789D01*
X20980Y107622D01*
X20508Y107410D01*
X20407Y107349D01*
X20316Y107272D01*
X20239Y107182D01*
X20177Y107080D01*
X20131Y106971D01*
X20103Y106855D01*
X20094Y106737D01*
X20103Y106619D01*
X20130Y106503D01*
X20132Y106500D01*
X16500D01*
G37*
G36*
X29000Y118500D02*Y117500D01*
X27750Y116250D01*
Y119248D01*
X27868Y119257D01*
X27982Y119285D01*
X28092Y119330D01*
X28192Y119391D01*
X28282Y119468D01*
X28359Y119558D01*
X28420Y119658D01*
X28465Y119768D01*
X28493Y119882D01*
X28500Y120000D01*
Y125000D01*
X28493Y125118D01*
X28465Y125232D01*
X28420Y125342D01*
X28359Y125442D01*
X28282Y125532D01*
X28192Y125609D01*
X28092Y125670D01*
X27982Y125715D01*
X27868Y125743D01*
X27750Y125752D01*
Y132000D01*
X29000D01*
Y118500D01*
G37*
G36*
X27750Y116250D02*X26500Y115000D01*
X23000D01*
Y117000D01*
X25500D01*
X25618Y117007D01*
X25732Y117035D01*
X25842Y117080D01*
X25942Y117141D01*
X26032Y117218D01*
X26109Y117308D01*
X26170Y117408D01*
X26215Y117518D01*
X26243Y117632D01*
X26252Y117750D01*
X26243Y117868D01*
X26215Y117982D01*
X26170Y118092D01*
X26109Y118192D01*
X26032Y118282D01*
X25942Y118359D01*
X25842Y118420D01*
X25732Y118465D01*
X25618Y118493D01*
X25500Y118500D01*
X23000D01*
Y126500D01*
X25500D01*
X25618Y126507D01*
X25732Y126535D01*
X25842Y126580D01*
X25942Y126641D01*
X26032Y126718D01*
X26109Y126808D01*
X26170Y126908D01*
X26215Y127018D01*
X26243Y127132D01*
X26252Y127250D01*
X26243Y127368D01*
X26215Y127482D01*
X26170Y127592D01*
X26109Y127692D01*
X26032Y127782D01*
X25942Y127859D01*
X25842Y127920D01*
X25732Y127965D01*
X25618Y127993D01*
X25500Y128000D01*
X23000D01*
Y132000D01*
X27750D01*
Y125752D01*
X27632Y125743D01*
X27518Y125715D01*
X27408Y125670D01*
X27308Y125609D01*
X27218Y125532D01*
X27141Y125442D01*
X27080Y125342D01*
X27035Y125232D01*
X27007Y125118D01*
X27000Y125000D01*
Y120000D01*
X27007Y119882D01*
X27035Y119768D01*
X27080Y119658D01*
X27141Y119558D01*
X27218Y119468D01*
X27308Y119391D01*
X27408Y119330D01*
X27518Y119285D01*
X27632Y119257D01*
X27750Y119248D01*
Y116250D01*
G37*
G36*
X23000Y115000D02*X18250D01*
Y119248D01*
X18368Y119257D01*
X18482Y119285D01*
X18592Y119330D01*
X18692Y119391D01*
X18782Y119468D01*
X18859Y119558D01*
X18920Y119658D01*
X18965Y119768D01*
X18993Y119882D01*
X19000Y120000D01*
Y125000D01*
X18993Y125118D01*
X18965Y125232D01*
X18920Y125342D01*
X18859Y125442D01*
X18782Y125532D01*
X18692Y125609D01*
X18592Y125670D01*
X18482Y125715D01*
X18368Y125743D01*
X18250Y125752D01*
Y131750D01*
X18500Y132000D01*
X23000D01*
Y128000D01*
X20500D01*
X20382Y127993D01*
X20268Y127965D01*
X20158Y127920D01*
X20058Y127859D01*
X19968Y127782D01*
X19891Y127692D01*
X19830Y127592D01*
X19785Y127482D01*
X19757Y127368D01*
X19748Y127250D01*
X19757Y127132D01*
X19785Y127018D01*
X19830Y126908D01*
X19891Y126808D01*
X19968Y126718D01*
X20058Y126641D01*
X20158Y126580D01*
X20268Y126535D01*
X20382Y126507D01*
X20500Y126500D01*
X23000D01*
Y118500D01*
X20500D01*
X20382Y118493D01*
X20268Y118465D01*
X20158Y118420D01*
X20058Y118359D01*
X19968Y118282D01*
X19891Y118192D01*
X19830Y118092D01*
X19785Y117982D01*
X19757Y117868D01*
X19748Y117750D01*
X19757Y117632D01*
X19785Y117518D01*
X19830Y117408D01*
X19891Y117308D01*
X19968Y117218D01*
X20058Y117141D01*
X20158Y117080D01*
X20268Y117035D01*
X20382Y117007D01*
X20500Y117000D01*
X23000D01*
Y115000D01*
G37*
G36*
X18250D02*X16500D01*
Y130000D01*
X18250Y131750D01*
Y125752D01*
X18132Y125743D01*
X18018Y125715D01*
X17908Y125670D01*
X17808Y125609D01*
X17718Y125532D01*
X17641Y125442D01*
X17580Y125342D01*
X17535Y125232D01*
X17507Y125118D01*
X17500Y125000D01*
Y120000D01*
X17507Y119882D01*
X17535Y119768D01*
X17580Y119658D01*
X17641Y119558D01*
X17718Y119468D01*
X17808Y119391D01*
X17908Y119330D01*
X18018Y119285D01*
X18132Y119257D01*
X18250Y119248D01*
Y115000D01*
G37*
G36*
X27493Y110500D02*X29500D01*
X34625Y105375D01*
X34528Y104971D01*
X34491Y104500D01*
X34528Y104029D01*
X34638Y103570D01*
X34819Y103134D01*
X35065Y102731D01*
X35372Y102372D01*
X35731Y102065D01*
X36134Y101819D01*
X36570Y101638D01*
X37029Y101528D01*
X37500Y101491D01*
X37971Y101528D01*
X38375Y101625D01*
X42500Y97500D01*
Y93000D01*
X27493D01*
Y99645D01*
X27578Y99681D01*
X27679Y99743D01*
X27769Y99819D01*
X27845Y99909D01*
X27905Y100011D01*
X28122Y100480D01*
X28289Y100969D01*
X28409Y101472D01*
X28482Y101984D01*
X28506Y102500D01*
X28482Y103016D01*
X28409Y103528D01*
X28289Y104031D01*
X28122Y104520D01*
X27910Y104992D01*
X27849Y105093D01*
X27772Y105184D01*
X27682Y105261D01*
X27580Y105323D01*
X27493Y105360D01*
Y110500D01*
G37*
G36*
X23002D02*X27493D01*
Y105360D01*
X27471Y105369D01*
X27355Y105397D01*
X27237Y105406D01*
X27119Y105397D01*
X27003Y105370D01*
X26893Y105324D01*
X26792Y105262D01*
X26702Y105186D01*
X26624Y105095D01*
X26562Y104994D01*
X26516Y104885D01*
X26489Y104769D01*
X26479Y104651D01*
X26488Y104532D01*
X26516Y104417D01*
X26563Y104308D01*
X26721Y103968D01*
X26842Y103612D01*
X26930Y103247D01*
X26982Y102875D01*
X27000Y102500D01*
X26982Y102125D01*
X26930Y101753D01*
X26842Y101388D01*
X26721Y101032D01*
X26567Y100690D01*
X26520Y100582D01*
X26493Y100467D01*
X26483Y100349D01*
X26493Y100232D01*
X26521Y100117D01*
X26566Y100008D01*
X26628Y99907D01*
X26705Y99818D01*
X26795Y99741D01*
X26895Y99680D01*
X27004Y99635D01*
X27119Y99607D01*
X27237Y99598D01*
X27355Y99608D01*
X27469Y99635D01*
X27493Y99645D01*
Y93000D01*
X23002D01*
Y96994D01*
X23516Y97018D01*
X24028Y97091D01*
X24531Y97211D01*
X25020Y97378D01*
X25492Y97590D01*
X25593Y97651D01*
X25684Y97728D01*
X25761Y97818D01*
X25823Y97920D01*
X25869Y98029D01*
X25897Y98145D01*
X25906Y98263D01*
X25897Y98381D01*
X25870Y98497D01*
X25824Y98607D01*
X25762Y98708D01*
X25686Y98798D01*
X25595Y98876D01*
X25494Y98938D01*
X25385Y98984D01*
X25269Y99011D01*
X25151Y99021D01*
X25032Y99012D01*
X24917Y98984D01*
X24808Y98937D01*
X24468Y98779D01*
X24112Y98658D01*
X23747Y98570D01*
X23375Y98518D01*
X23002Y98500D01*
Y106500D01*
X23375Y106482D01*
X23747Y106430D01*
X24112Y106342D01*
X24468Y106221D01*
X24810Y106067D01*
X24918Y106020D01*
X25033Y105993D01*
X25151Y105983D01*
X25268Y105993D01*
X25383Y106021D01*
X25492Y106066D01*
X25593Y106128D01*
X25682Y106205D01*
X25759Y106295D01*
X25820Y106395D01*
X25865Y106504D01*
X25893Y106619D01*
X25902Y106737D01*
X25892Y106855D01*
X25865Y106969D01*
X25819Y107078D01*
X25757Y107179D01*
X25681Y107269D01*
X25591Y107345D01*
X25489Y107405D01*
X25020Y107622D01*
X24531Y107789D01*
X24028Y107909D01*
X23516Y107982D01*
X23002Y108006D01*
Y110500D01*
G37*
G36*
X18507D02*X23002D01*
Y108006D01*
X23000Y108006D01*
X22484Y107982D01*
X21972Y107909D01*
X21469Y107789D01*
X20980Y107622D01*
X20508Y107410D01*
X20407Y107349D01*
X20316Y107272D01*
X20239Y107182D01*
X20177Y107080D01*
X20131Y106971D01*
X20103Y106855D01*
X20094Y106737D01*
X20103Y106619D01*
X20130Y106503D01*
X20176Y106393D01*
X20238Y106292D01*
X20314Y106202D01*
X20405Y106124D01*
X20506Y106062D01*
X20615Y106016D01*
X20731Y105989D01*
X20849Y105979D01*
X20968Y105988D01*
X21083Y106016D01*
X21192Y106063D01*
X21532Y106221D01*
X21888Y106342D01*
X22253Y106430D01*
X22625Y106482D01*
X23000Y106500D01*
X23002Y106500D01*
Y98500D01*
X23000Y98500D01*
X22625Y98518D01*
X22253Y98570D01*
X21888Y98658D01*
X21532Y98779D01*
X21190Y98933D01*
X21082Y98980D01*
X20967Y99007D01*
X20849Y99017D01*
X20732Y99007D01*
X20617Y98979D01*
X20508Y98934D01*
X20407Y98872D01*
X20318Y98795D01*
X20241Y98705D01*
X20180Y98605D01*
X20135Y98496D01*
X20107Y98381D01*
X20098Y98263D01*
X20108Y98145D01*
X20135Y98031D01*
X20181Y97922D01*
X20243Y97821D01*
X20319Y97731D01*
X20409Y97655D01*
X20511Y97595D01*
X20980Y97378D01*
X21469Y97211D01*
X21972Y97091D01*
X22484Y97018D01*
X23000Y96994D01*
X23002Y96994D01*
Y93000D01*
X18507D01*
Y99640D01*
X18529Y99631D01*
X18645Y99603D01*
X18763Y99594D01*
X18881Y99603D01*
X18997Y99630D01*
X19107Y99676D01*
X19208Y99738D01*
X19298Y99814D01*
X19376Y99905D01*
X19438Y100006D01*
X19484Y100115D01*
X19511Y100231D01*
X19521Y100349D01*
X19512Y100468D01*
X19484Y100583D01*
X19437Y100692D01*
X19279Y101032D01*
X19158Y101388D01*
X19070Y101753D01*
X19018Y102125D01*
X19000Y102500D01*
X19018Y102875D01*
X19070Y103247D01*
X19158Y103612D01*
X19279Y103968D01*
X19433Y104310D01*
X19480Y104418D01*
X19507Y104533D01*
X19517Y104651D01*
X19507Y104768D01*
X19479Y104883D01*
X19434Y104992D01*
X19372Y105093D01*
X19295Y105182D01*
X19205Y105259D01*
X19105Y105320D01*
X18996Y105365D01*
X18881Y105393D01*
X18763Y105402D01*
X18645Y105392D01*
X18531Y105365D01*
X18507Y105355D01*
Y110500D01*
G37*
G36*
X15500D02*X18507D01*
Y105355D01*
X18422Y105319D01*
X18321Y105257D01*
X18231Y105181D01*
X18155Y105091D01*
X18095Y104989D01*
X17878Y104520D01*
X17711Y104031D01*
X17591Y103528D01*
X17518Y103016D01*
X17494Y102500D01*
X17518Y101984D01*
X17591Y101472D01*
X17711Y100969D01*
X17878Y100480D01*
X18090Y100008D01*
X18151Y99907D01*
X18228Y99816D01*
X18318Y99739D01*
X18420Y99677D01*
X18507Y99640D01*
Y93000D01*
X15500D01*
Y110500D01*
G37*
G36*
X27750Y130000D02*X38500D01*
Y123500D01*
X29500Y114500D01*
X27750D01*
Y119248D01*
X27868Y119257D01*
X27982Y119285D01*
X28092Y119330D01*
X28192Y119391D01*
X28282Y119468D01*
X28359Y119558D01*
X28420Y119658D01*
X28465Y119768D01*
X28493Y119882D01*
X28500Y120000D01*
Y125000D01*
X28493Y125118D01*
X28465Y125232D01*
X28420Y125342D01*
X28359Y125442D01*
X28282Y125532D01*
X28192Y125609D01*
X28092Y125670D01*
X27982Y125715D01*
X27868Y125743D01*
X27750Y125752D01*
Y130000D01*
G37*
G36*
X23000D02*X27750D01*
Y125752D01*
X27632Y125743D01*
X27518Y125715D01*
X27408Y125670D01*
X27308Y125609D01*
X27218Y125532D01*
X27141Y125442D01*
X27080Y125342D01*
X27035Y125232D01*
X27007Y125118D01*
X27000Y125000D01*
Y120000D01*
X27007Y119882D01*
X27035Y119768D01*
X27080Y119658D01*
X27141Y119558D01*
X27218Y119468D01*
X27308Y119391D01*
X27408Y119330D01*
X27518Y119285D01*
X27632Y119257D01*
X27750Y119248D01*
Y114500D01*
X23000D01*
Y117000D01*
X25500D01*
X25618Y117007D01*
X25732Y117035D01*
X25842Y117080D01*
X25942Y117141D01*
X26032Y117218D01*
X26109Y117308D01*
X26170Y117408D01*
X26215Y117518D01*
X26243Y117632D01*
X26252Y117750D01*
X26243Y117868D01*
X26215Y117982D01*
X26170Y118092D01*
X26109Y118192D01*
X26032Y118282D01*
X25942Y118359D01*
X25842Y118420D01*
X25732Y118465D01*
X25618Y118493D01*
X25500Y118500D01*
X23000D01*
Y126500D01*
X25500D01*
X25618Y126507D01*
X25732Y126535D01*
X25842Y126580D01*
X25942Y126641D01*
X26032Y126718D01*
X26109Y126808D01*
X26170Y126908D01*
X26215Y127018D01*
X26243Y127132D01*
X26252Y127250D01*
X26243Y127368D01*
X26215Y127482D01*
X26170Y127592D01*
X26109Y127692D01*
X26032Y127782D01*
X25942Y127859D01*
X25842Y127920D01*
X25732Y127965D01*
X25618Y127993D01*
X25500Y128000D01*
X23000D01*
Y130000D01*
G37*
G36*
X18250D02*X23000D01*
Y128000D01*
X20500D01*
X20382Y127993D01*
X20268Y127965D01*
X20158Y127920D01*
X20058Y127859D01*
X19968Y127782D01*
X19891Y127692D01*
X19830Y127592D01*
X19785Y127482D01*
X19757Y127368D01*
X19748Y127250D01*
X19757Y127132D01*
X19785Y127018D01*
X19830Y126908D01*
X19891Y126808D01*
X19968Y126718D01*
X20058Y126641D01*
X20158Y126580D01*
X20268Y126535D01*
X20382Y126507D01*
X20500Y126500D01*
X23000D01*
Y118500D01*
X20500D01*
X20382Y118493D01*
X20268Y118465D01*
X20158Y118420D01*
X20058Y118359D01*
X19968Y118282D01*
X19891Y118192D01*
X19830Y118092D01*
X19785Y117982D01*
X19757Y117868D01*
X19748Y117750D01*
X19757Y117632D01*
X19785Y117518D01*
X19830Y117408D01*
X19891Y117308D01*
X19968Y117218D01*
X20058Y117141D01*
X20158Y117080D01*
X20268Y117035D01*
X20382Y117007D01*
X20500Y117000D01*
X23000D01*
Y114500D01*
X18250D01*
Y119248D01*
X18368Y119257D01*
X18482Y119285D01*
X18592Y119330D01*
X18692Y119391D01*
X18782Y119468D01*
X18859Y119558D01*
X18920Y119658D01*
X18965Y119768D01*
X18993Y119882D01*
X19000Y120000D01*
Y125000D01*
X18993Y125118D01*
X18965Y125232D01*
X18920Y125342D01*
X18859Y125442D01*
X18782Y125532D01*
X18692Y125609D01*
X18592Y125670D01*
X18482Y125715D01*
X18368Y125743D01*
X18250Y125752D01*
Y130000D01*
G37*
G36*
X15500Y114500D02*Y130000D01*
X18250D01*
Y125752D01*
X18132Y125743D01*
X18018Y125715D01*
X17908Y125670D01*
X17808Y125609D01*
X17718Y125532D01*
X17641Y125442D01*
X17580Y125342D01*
X17535Y125232D01*
X17507Y125118D01*
X17500Y125000D01*
Y120000D01*
X17507Y119882D01*
X17535Y119768D01*
X17580Y119658D01*
X17641Y119558D01*
X17718Y119468D01*
X17808Y119391D01*
X17908Y119330D01*
X18018Y119285D01*
X18132Y119257D01*
X18250Y119248D01*
Y114500D01*
X15500D01*
G37*
G36*
Y129500D02*Y131500D01*
X22500Y138500D01*
X26500D01*
Y129500D01*
X15500D01*
G37*
G36*
X38000Y138500D02*X44500Y145000D01*
X49000D01*
Y138000D01*
X38000D01*
Y138500D01*
G37*
G36*
X28500Y110500D02*X31500D01*
X37500Y116500D01*
X66000D01*
X74500Y125000D01*
X88500D01*
Y105000D01*
X68500D01*
X66000Y107500D01*
X49500D01*
X42500Y100500D01*
Y96000D01*
X31500D01*
Y103500D01*
X28500Y106500D01*
Y110500D01*
G37*
G36*
X56000Y144500D02*X88500D01*
Y131000D01*
X74500D01*
X61500Y118000D01*
X43500D01*
Y128000D01*
X46500Y131000D01*
X54000D01*
X56000Y133000D01*
Y144500D01*
G37*
G36*
X50500Y106000D02*X65000D01*
X68000Y103000D01*
X95500D01*
Y87000D01*
X47500D01*
Y103000D01*
X50500Y106000D01*
G37*
G54D12*X177500Y156000D02*X225000D01*
G54D13*X203000Y165500D02*Y161500D01*
X208500Y156000D01*
X157000Y176000D02*X225000D01*
G54D12*X166000Y142000D02*X181000D01*
X184500Y145500D01*
X159500Y131000D02*X172500D01*
X175000Y128500D01*
X188500D02*X192500D01*
G54D13*X198000Y135500D02*X211000Y148500D01*
X208500Y145500D02*Y134500D01*
G54D12*X183500Y129500D02*X186000Y132000D01*
X201500D01*
X204500Y129000D01*
X215000D01*
X216500Y130500D02*Y134500D01*
G54D13*X215500Y135500D02*X226000D01*
G54D12*X233500Y130500D02*Y134500D01*
G54D13*X226000Y134000D02*Y142500D01*
G54D14*X226500Y130000D02*Y133500D01*
X244000Y136500D02*Y140500D01*
Y134000D02*Y141000D01*
G54D13*X225000Y176000D02*Y166000D01*
X244000Y141000D02*X236500Y148500D01*
X244000Y140500D02*Y141000D01*
G54D14*X242500Y142500D01*
G54D12*X238500Y132000D02*Y136500D01*
X239500Y137500D01*
G54D14*X242500Y132500D02*X244000Y134000D01*
G54D12*X250500Y130000D02*Y138000D01*
X253500Y141000D01*
X249500Y143000D02*X250500Y144000D01*
G54D13*X30500Y156000D02*X38000Y163500D01*
Y171500D01*
X30500Y156000D02*Y151500D01*
X34000Y143000D02*X34500Y143500D01*
G54D12*X73000Y62500D02*Y65500D01*
X66000Y67000D02*Y69500D01*
X68000Y71000D01*
G54D13*X49000Y80000D02*X54000Y75000D01*
X34500Y143500D02*X35000D01*
X48500Y157000D01*
X54000Y75000D02*X82000D01*
G54D12*X68000Y71000D02*X83000D01*
G54D13*X34000Y143000D02*X27000D01*
X38000Y171500D02*X43500Y177000D01*
X87000D01*
X48500Y157000D02*Y167000D01*
X48000Y167500D01*
X48500Y157000D02*X105000D01*
G54D12*X111000Y142500D02*X85500D01*
G54D13*X87000Y177000D02*X98500Y165500D01*
G54D12*X110000Y142500D02*X117000D01*
G54D13*X92500Y88500D02*X97500D01*
G54D12*X83000Y71000D02*X86000Y68500D01*
G54D13*X82000Y75000D02*X86500Y79500D01*
G54D12*X121000Y63500D02*X130000D01*
G54D14*X117000Y90500D02*Y79500D01*
G54D12*X115500Y70500D02*X111000Y75000D01*
Y81000D01*
X130000Y63500D02*Y70000D01*
X131500Y71500D01*
G54D14*X128500Y98500D02*X130500Y100500D01*
G54D13*X117000Y103000D02*X121000Y99000D01*
X127000D01*
G54D14*X127500Y98500D02*X128500D01*
G54D13*X86500Y79000D02*Y83500D01*
X94500Y91500D02*Y133500D01*
X86500Y83500D02*X94500Y91500D01*
G54D12*X111000Y81000D02*X109000Y83000D01*
X106500D01*
X105500Y84000D01*
Y87500D01*
G54D13*X106500Y127000D02*Y120500D01*
X111500Y115500D01*
X117000D01*
Y109000D01*
Y121500D01*
Y109500D02*Y103000D01*
X125500Y149000D02*X129500Y153000D01*
G54D12*X136500Y161500D02*Y151500D01*
G54D14*X127500Y166000D02*X129000Y167500D01*
G54D13*X111000Y149000D02*X125500D01*
X120000Y176000D02*Y166500D01*
X120500Y166000D01*
X105000Y157000D02*X114000Y166000D01*
X120000D01*
G54D14*X127500D01*
G54D12*X143500Y147000D02*Y151000D01*
X141000Y144500D02*X143500Y147000D01*
G54D13*X153000Y165500D02*Y172000D01*
X157000Y176000D01*
G54D14*X151000Y167500D02*X153000Y165500D01*
X136500Y184000D02*Y174000D01*
X129000Y167500D02*X151000D01*
G54D12*X136500Y144500D02*X141000D01*
X126000Y140500D02*X159000D01*
X143500Y111000D02*X138000D01*
X151000D02*X149500Y112500D01*
X139000Y121000D02*X142500D01*
X147000Y116500D01*
X149500Y112500D02*Y117500D01*
X143000Y124000D01*
X168500Y127500D02*Y119500D01*
X175000Y128500D02*Y108500D01*
X159500Y116000D02*X165500D01*
X168000Y118500D01*
X147500Y126000D02*X155000D01*
G54D14*X154000Y135500D02*X158000Y131500D01*
G54D12*X143500Y150500D02*X179500D01*
X143500Y125000D02*X144500D01*
X186000Y121000D02*X189500D01*
X192500Y128500D02*X195500Y125500D01*
X192000Y118500D02*X197000D01*
X183500Y121000D02*Y129500D01*
X186000Y114000D02*X199500D01*
X125000Y121000D02*X134500D01*
X117000Y121500D02*Y125000D01*
X120000Y128000D01*
X128000D01*
X131000Y131000D01*
X135000D01*
X124500Y111000D02*X135000D01*
X117000Y122000D02*Y109000D01*
X126000Y115000D02*X128500D01*
X129500Y116000D01*
X134500D01*
X137500Y131000D02*X142500D01*
X147500Y126000D01*
G54D13*X95500Y135500D02*X198000D01*
G54D12*X198500Y137500D02*X108000D01*
X168500Y90500D02*Y97500D01*
X147000Y116500D02*Y83500D01*
G54D14*Y77500D02*X152000D01*
X152500Y77000D01*
G54D12*X151000Y74000D02*X147000Y70000D01*
X142500D01*
X142000Y103500D02*Y95000D01*
X140000Y76500D02*X139000D01*
X159500Y71500D02*X160000D01*
X162500Y69000D01*
X139500Y106000D02*X142000Y103500D01*
Y95000D02*X140500Y93500D01*
G54D14*X130500Y100500D02*X139000D01*
G54D13*X127000Y99000D02*X132500Y93500D01*
G54D12*X142500Y70000D02*X141500Y71000D01*
Y75000D01*
X140000Y76500D01*
X151000Y74000D02*X161000D01*
X164000Y71000D01*
X176000D01*
X180000Y75000D01*
Y78000D01*
X181500Y79500D01*
X185000D01*
X190000Y86000D02*Y87500D01*
X238000Y127500D02*X243500Y133000D01*
X243000Y133500D02*X237500Y128000D01*
Y127000D02*X238000Y126500D01*
X237500Y128000D02*Y127000D01*
X234500Y128000D02*X238500Y132000D01*
X240500Y125500D02*X246000D01*
X250500Y130000D01*
X253500Y118000D02*Y136500D01*
X224500Y76500D02*X226000Y75000D01*
X228000Y88500D02*Y90500D01*
X240500Y85000D02*Y76500D01*
X244500Y72500D01*
X237500Y84500D02*Y76500D01*
X233500Y64500D02*X240500D01*
G54D13*X233500Y71000D02*X234500Y70000D01*
G54D12*X244500Y72500D02*X255000D01*
X273500Y68000D02*X285000D01*
X269500Y63000D02*X282500D01*
X265000Y73500D02*X255500Y83000D01*
X268000Y64500D02*Y93500D01*
X272000Y69500D02*X273500Y68000D01*
X272000Y99500D02*Y69500D01*
X268000Y64500D02*X269500Y63000D01*
X285500Y90000D02*Y77500D01*
X255500Y83000D02*Y92500D01*
X253500Y94500D01*
X249500D01*
X268000Y93500D02*X265000Y96500D01*
X285500Y90000D02*X274500Y101000D01*
X272000Y99500D02*X270500Y101000D01*
X260500D01*
X241500Y98000D02*X233000D01*
X246000Y94500D02*X239000D01*
X243500Y100500D02*X246000D01*
Y97500D02*X242000D01*
X241500Y98000D01*
X238500Y101500D02*X242500D01*
X243500Y100500D01*
X250500Y107000D02*X263500D01*
X272500Y110000D02*X249500D01*
X250500Y116500D02*X252000D01*
X253500Y118000D01*
X250500Y113000D02*X272500D01*
X263500Y107000D02*X265000Y105500D01*
X260500Y101000D02*X257500Y104000D01*
X274500Y101000D02*Y108000D01*
X272500Y110000D01*
G54D13*X282500Y110500D02*X287000Y106000D01*
X287500D02*X299500D01*
X306000Y112500D01*
Y118500D01*
G54D12*X285500Y100000D02*X300500D01*
X312500Y112000D01*
Y124500D01*
X309000Y128000D01*
X273000Y118500D02*X276000Y115500D01*
X293000D01*
X279500Y125500D02*X275500Y129500D01*
X271000Y118500D02*X273000D01*
X271000Y124500D02*X274000D01*
X278000Y120500D01*
X292500Y125500D02*X279500D01*
X278000Y120500D02*X282000D01*
X282500Y121000D01*
X228000Y89500D02*Y95000D01*
X228500Y96000D02*Y95500D01*
X232500Y98500D02*Y100500D01*
X233000Y98000D02*X232500Y98500D01*
X233000Y93000D02*X234000Y92000D01*
X224500Y85500D02*Y76500D01*
X231000Y85500D02*Y82500D01*
X227500Y79000D01*
Y75500D01*
X224500Y81500D02*X230000D01*
X224500Y93000D02*Y87500D01*
G54D14*X228500Y94000D02*Y104500D01*
G54D12*X155500Y93500D02*X158500D01*
X165500Y100500D01*
X178500D01*
X159500Y106000D02*X164000D01*
X167000Y109000D01*
X159500Y101000D02*X162000D01*
X164500Y103500D01*
G54D14*X224500Y107000D02*Y92500D01*
X228000Y110500D02*X224500Y107000D01*
X228000Y126500D02*Y110500D01*
G54D12*X231000Y126000D02*Y128000D01*
X233500Y130500D01*
G54D14*X228000Y126000D02*Y128500D01*
X226500Y130000D01*
G54D12*X234500Y126000D02*Y128000D01*
G54D14*X228500Y104500D02*X237500Y113500D01*
Y126500D01*
G54D12*X218500Y122500D02*Y116000D01*
X221500Y122500D02*Y119000D01*
X218500Y116000D02*X219000Y115500D01*
X190000Y87500D02*X191500Y89000D01*
X202000Y98500D02*Y89000D01*
X181500Y107500D02*X193000D01*
X194000Y106500D01*
X193000Y114000D02*X203000Y104000D01*
X199500Y114000D02*X201000Y112500D01*
X189500Y121000D02*X192000Y118500D01*
X203000Y104000D02*X210000D01*
X209500Y124500D02*Y116500D01*
X206500Y113500D02*X209500D01*
X204500Y124500D02*Y115500D01*
X206500Y113500D01*
G54D13*X208500Y156000D02*X251000D01*
X258000Y163000D01*
Y169500D01*
X253000Y174500D01*
G54D14*X225000Y166000D02*X247500D01*
X232500Y182000D02*X234000Y183500D01*
X239000D01*
X231000Y182000D02*X232500D01*
G54D13*X211000Y148500D02*X269500D01*
G54D14*X253000Y174500D02*X243000D01*
G54D12*X251000Y183500D02*X261500D01*
X264500Y180500D01*
Y162000D01*
X276000Y169000D02*X281000Y174000D01*
G54D13*X272500Y180000D02*X276000Y183500D01*
X307500D01*
X311000Y180000D01*
G54D12*X286500Y170000D02*X291000Y174500D01*
G54D13*X311000Y180000D02*Y166000D01*
X309000Y164000D01*
X301000D01*
G54D12*X286500Y144000D02*Y170000D01*
X291000Y152000D02*Y164000D01*
X276000Y146500D02*Y169000D01*
X250500Y144000D02*X273500D01*
X258000Y154500D02*X265000D01*
G54D13*X269500Y148500D02*X272500Y151500D01*
G54D12*X253500Y136500D02*X255000Y138000D01*
G54D13*X272500Y151500D02*Y180000D01*
G54D12*X273500Y144000D02*X276000Y146500D01*
X253500Y141000D02*X283500D01*
X255000Y138000D02*X284000D01*
X269500Y129500D02*X265000Y134000D01*
X275500Y129500D02*X269500D01*
X302000Y128000D02*X299500Y130500D01*
X309000Y128000D02*X302000D01*
X271000Y134000D02*X279000D01*
X282500Y130500D01*
X283500Y141000D02*X286500Y144000D01*
X299500Y143500D02*X291000Y152000D01*
X284000Y138000D02*X291500Y145500D01*
X299500Y143500D02*Y130500D01*
X144500Y110000D02*X143500Y111000D01*
X151000Y106000D02*X154500D01*
X149500Y104500D02*X151000Y106000D01*
X154500Y111000D02*X151000D01*
X143000Y86500D02*X144500Y88000D01*
X138000Y86500D02*X143000D01*
X124500Y90500D02*X126000D01*
X130000Y86500D01*
X133500D01*
X124500Y79500D02*X127500D01*
X129500Y81500D01*
X135000D01*
X144500Y88000D02*Y110000D01*
X149500Y83500D02*Y104500D01*
X151500Y81500D02*X149500Y83500D01*
X138500Y81500D02*X145000D01*
X153500D02*X151500D01*
X145000D02*X147000Y83500D01*
X162500Y69000D02*X177500D01*
X162500Y66500D02*X165000Y64000D01*
X159000Y66500D02*X162500D01*
X158500Y86500D02*X166000D01*
X168000Y88500D01*
X158500Y81500D02*X168000D01*
X158000Y76500D02*X162000D01*
X165000Y73500D01*
X168000Y81500D02*X168500Y81000D01*
X174000Y73500D02*X175000Y74500D01*
X165000Y73500D02*X174000D01*
X175000Y90500D02*Y74500D01*
X149500Y63000D02*Y68500D01*
X152500Y71500D01*
X148000Y63500D02*X149500Y65000D01*
Y63000D02*X151000Y61500D01*
X154500D01*
X120000Y59500D02*X122000Y61500D01*
X134500D01*
X151000Y56500D02*X154000D01*
X147000Y58500D02*X149000D01*
X151000Y56500D01*
X144000Y63500D02*X148000D01*
X142500Y62000D02*X144000Y63500D01*
X138500Y66500D02*X141000D01*
X142500Y65000D01*
Y58000D01*
X141000Y56500D01*
X137500D01*
G54D13*X48500Y24000D02*X47500D01*
X33000Y38500D01*
X26000D01*
X49000Y80000D02*Y101500D01*
G54D12*X49500Y52000D02*Y48500D01*
G54D13*X59000Y58000D02*X65500Y64500D01*
X59000Y52000D02*Y58000D01*
X40000Y47000D02*X30000D01*
X40000D02*X63000Y24000D01*
G54D12*X49500Y48500D02*X53000Y45000D01*
G54D14*X63000Y33500D02*X59000Y37500D01*
G54D13*X98500Y24000D02*X108500Y14000D01*
X120000D01*
G54D12*X120500D01*
G54D13*X63000Y24000D02*X99000D01*
G54D12*X113000Y19000D02*X98500Y33500D01*
G54D14*X63000D01*
X98500D02*X112500Y19500D01*
G54D12*X111500Y53500D02*X113000Y55000D01*
X115500Y51000D02*X113500Y49000D01*
X119500Y40500D02*X118000Y42000D01*
X121000Y42500D02*X120000Y43500D01*
X113500Y49000D02*X106500D01*
X100000Y42500D02*X102000Y40500D01*
X118000Y42000D02*Y60500D01*
X121000Y63500D01*
X120000Y43500D02*Y59500D01*
X100000Y51500D02*Y42500D01*
X131500Y71500D02*X133000D01*
G54D13*X87500Y78500D02*X105000D01*
G54D12*X88000Y53500D02*X111500D01*
X102000Y56500D02*X105000Y59500D01*
X88000Y56500D02*X102000D01*
X93500Y61000D02*Y71000D01*
X86000Y68500D02*Y58500D01*
X98000Y53500D02*X100000Y51500D01*
X124000Y57000D02*Y55000D01*
X122500Y53500D01*
Y46000D01*
X123500Y45000D01*
X111500Y71000D02*X105500D01*
X113000Y69500D02*X111500Y71000D01*
X113000Y55000D02*Y69500D01*
X115500Y51000D02*Y70500D01*
X137000Y36500D02*Y25000D01*
G54D14*Y5500D02*Y13500D01*
G54D12*X144500Y18000D02*X132000D01*
X129500Y20500D01*
X120500Y14000D02*X127000Y20500D01*
Y37500D01*
X124000Y40500D01*
X119500D01*
X129500Y20500D02*Y39000D01*
X126000Y42500D01*
X121000D01*
X123500Y45000D02*X139500D01*
X86500Y52000D02*X88000Y53500D01*
X93500Y49000D02*X92500D01*
X88500Y45000D01*
X79000Y52000D02*X86500D01*
X86000Y58500D02*X88000Y56500D01*
X53000Y45000D02*X88500D01*
X69000Y52000D02*Y58500D01*
X73000Y62500D01*
G54D13*X224500Y24500D02*X247000D01*
X224500Y34500D02*Y24500D01*
X238000Y45500D02*X219500D01*
G54D12*X233500Y53000D02*X240500D01*
X202500Y39500D02*Y55000D01*
G54D13*X252500Y32500D02*X244000D01*
X210500Y14500D02*X250500D01*
X256000Y20000D01*
Y29000D01*
X252500Y32500D01*
G54D12*X255500Y58500D02*Y53000D01*
G54D14*X232000Y6000D02*X241500D01*
G54D12*X211500Y14500D02*X148000D01*
X144500Y18000D01*
X253500Y6000D02*X259500D01*
X264500Y11000D01*
Y26500D01*
X265000Y34000D02*Y73500D01*
G54D13*X204000Y24000D02*Y21000D01*
X210500Y14500D01*
G54D12*X202500Y39500D02*X207500Y34500D01*
X224500D01*
G54D13*X219500Y45500D02*X203000Y62000D01*
G54D12*X257500Y104000D02*X248500D01*
X292500Y60500D02*Y58000D01*
X249500Y101000D02*X255000D01*
X272500Y113000D02*X285500Y100000D01*
X255000Y101000D02*X256500Y99500D01*
X285500Y77500D02*X294500Y68500D01*
X283000Y78000D02*Y88000D01*
X285000Y68000D02*X292500Y60500D01*
X283000Y88000D02*X279000Y92000D01*
X283000Y73000D02*Y78500D01*
X237500Y76500D02*X255500Y58500D01*
X164500Y103500D02*X177500D01*
X181500Y107500D01*
X175000Y91000D02*X185500D01*
X178500Y100500D02*X182000Y104000D01*
X191500D02*X194000Y101500D01*
X191500Y95500D02*Y91000D01*
X193000Y89500D02*X196000D01*
X191500Y91000D02*X193000Y89500D01*
X191500Y89000D02*X195500D01*
X188500Y98500D02*X191500Y95500D01*
X186000Y98500D02*X188500D01*
X182000Y104000D02*X191500D01*
X228000Y94500D02*Y91000D01*
X233000Y93000D02*X228500D01*
Y94500D01*
X228000D01*
G54D13*X233500Y74500D02*Y71000D01*
G54D12*X234000Y92000D02*Y89000D01*
G54D13*X234500Y70000D02*X238500D01*
G54D12*X214500Y89500D02*X218500Y93500D01*
X208000Y80500D02*Y88500D01*
X212000Y90000D02*Y76500D01*
X213000Y94500D02*X214500D01*
X212000Y76500D02*X210000Y74500D01*
X215500Y93500D02*X212000Y90000D01*
X223000Y112000D02*X222500Y111500D01*
X217000Y101000D02*X215500D01*
X218500Y99500D02*X217000Y101000D01*
X216500D02*X212500D01*
X218500Y93500D02*Y99500D01*
X221500Y85500D02*Y67500D01*
X218500Y64500D01*
X226500Y75500D02*Y51500D01*
X215000Y129000D02*X216500Y130500D01*
X221500Y119000D02*X223000Y117500D01*
Y112000D01*
X202000Y89000D02*X203500Y87500D01*
X192500Y82500D02*X197000D01*
X189500Y72000D02*X191000Y73500D01*
X214500Y89500D02*Y72000D01*
G54D13*X203000Y62000D02*X193500D01*
G54D12*X218500Y64500D02*X207500D01*
X217000Y110000D02*X219000Y108000D01*
Y104500D01*
X213000Y110000D02*X217000D01*
X214500Y94500D02*X215500Y93500D01*
X208000Y88500D02*X205000Y91500D01*
X206000Y97500D02*X210000D01*
X205000Y96500D02*X206000Y97500D01*
X205000Y91500D02*Y96500D01*
X177500Y69000D02*X180500Y72000D01*
X189500D01*
X191000Y73500D02*Y81000D01*
X192500Y82500D01*
G54D11*G36*
X44500Y28000D02*Y20000D01*
X52500D01*
Y28000D01*
X44500D01*
G37*
G54D15*X98500Y24000D03*
G54D11*G36*
X46000Y55000D02*Y49000D01*
X52000D01*
Y55000D01*
X46000D01*
G37*
G54D16*X59000Y52000D03*
X69000D03*
X79000D03*
G54D11*G36*
X221000Y18000D02*Y11000D01*
X228000D01*
Y18000D01*
X221000D01*
G37*
G54D17*X224500Y24500D03*
Y34500D03*
G54D11*G36*
X149500Y28000D02*Y20000D01*
X157500D01*
Y28000D01*
X149500D01*
G37*
G54D15*X203500Y24000D03*
G54D18*X18000Y18000D03*
G54D11*G36*
X116500Y17500D02*Y10500D01*
X123500D01*
Y17500D01*
X116500D01*
G37*
G54D17*X120000Y24000D03*
Y34000D03*
X282500Y53000D03*
X292500Y58000D03*
Y68000D03*
G54D19*X317500Y45500D03*
G54D18*X333000Y17500D03*
G54D11*G36*
X298000Y177000D02*Y171000D01*
X304000D01*
Y177000D01*
X298000D01*
G37*
G54D16*X291000Y174000D03*
X281000D03*
X301000Y164000D03*
X291000D03*
X281000D03*
G54D11*G36*
X221500Y159500D02*Y152500D01*
X228500D01*
Y159500D01*
X221500D01*
G37*
G54D17*X225000Y166000D03*
Y176000D03*
G54D18*X332500Y173000D03*
G54D11*G36*
X149000Y169500D02*Y161500D01*
X157000D01*
Y169500D01*
X149000D01*
G37*
G54D15*X98500Y165500D03*
G54D11*G36*
X116500Y159500D02*Y152500D01*
X123500D01*
Y159500D01*
X116500D01*
G37*
G54D17*X120000Y166000D03*
Y176000D03*
G54D15*X203000Y165500D03*
G54D11*G36*
X19000Y126500D02*Y118500D01*
X27000D01*
Y126500D01*
X19000D01*
G37*
G54D15*X23000Y102500D03*
G54D11*G36*
X19000Y86500D02*Y78500D01*
X27000D01*
Y86500D01*
X19000D01*
G37*
G54D15*X23000Y62500D03*
G54D18*X16500Y173000D03*
G54D20*X57000Y102000D03*
Y112000D03*
G54D11*G36*
X53063Y125937D02*Y118063D01*
X60937D01*
Y125937D01*
X53063D01*
G37*
G36*
X44500Y169500D02*Y161500D01*
X52500D01*
Y169500D01*
X44500D01*
G37*
G54D16*X79000Y82000D03*
X69000D03*
X59000D03*
X49000D03*
G54D17*X282500Y63000D03*
Y73000D03*
X292500Y78000D03*
G54D19*X317500Y85500D03*
G54D11*G36*
X252000Y56894D02*Y49894D01*
X259000D01*
Y56894D01*
X252000D01*
G37*
G54D17*X255500Y72606D03*
X282500Y110500D03*
X292500Y115500D03*
X282500Y120500D03*
X292500Y125500D03*
X282500Y130500D03*
X292500Y135500D03*
G54D19*X317500Y103000D03*
Y143000D03*
G54D21*X65957Y66393D02*Y65607D01*
G54D22*X25500Y38800D02*Y38200D01*
X33300Y38800D02*Y38200D01*
X29400Y47000D02*Y46400D01*
G54D21*X73043Y66393D02*Y65607D01*
G54D23*X84000Y121307D02*Y115008D01*
G54D21*X75107Y100457D02*X75893D01*
X124043Y90893D02*Y90107D01*
X116957Y90893D02*Y90107D01*
X106107Y101457D02*X106893D01*
X75107Y107543D02*X75893D01*
X106107Y108543D02*X106893D01*
X124043Y109393D02*Y108607D01*
X116957Y109393D02*Y108607D01*
X106107Y134043D02*X106893D01*
X106107Y126957D02*X106893D01*
X124543Y142393D02*Y141607D01*
X117457Y142393D02*Y141607D01*
X124043Y121893D02*Y121107D01*
X116957Y121893D02*Y121107D01*
G54D24*X59400Y139600D02*Y138400D01*
X46500Y139600D02*Y138400D01*
G54D22*X26500Y143300D02*Y142700D01*
X34300Y143300D02*Y142700D01*
G54D23*X84000Y140992D02*Y134693D01*
G54D22*X30400Y151500D02*Y150900D01*
G54D25*X132500Y86500D02*X139000D01*
X132500Y81500D02*X139000D01*
X132500Y76500D02*X139000D01*
X132500Y71500D02*X139000D01*
G54D21*X124043Y79893D02*Y79107D01*
X116957Y79893D02*Y79107D01*
G54D25*X132500Y66500D02*X139000D01*
G54D21*X135819Y13595D02*X138181D01*
X135819Y25405D02*X138181D01*
X136607Y35957D02*X137393D01*
X136607Y43043D02*X137393D01*
G54D25*X132500Y61500D02*X139000D01*
G54D21*X105319Y60905D02*X107681D01*
X92319D02*X94681D01*
G54D25*X132500Y56500D02*X139000D01*
G54D21*X105319Y49095D02*X107681D01*
X92319D02*X94681D01*
G54D25*X153000Y71500D02*X159500D01*
X153000Y76500D02*X159500D01*
X153000Y81500D02*X159500D01*
X153000Y86500D02*X159500D01*
G54D21*X105043Y88893D02*Y88107D01*
X97957Y88893D02*Y88107D01*
X93107Y70957D02*X93893D01*
X93107Y78043D02*X93893D01*
X104607Y70957D02*X105393D01*
X104607Y78043D02*X105393D01*
G54D25*X153000Y56500D02*X159500D01*
X153000Y61500D02*X159500D01*
X153000Y66500D02*X159500D01*
G54D21*X196107Y89543D02*X196893D01*
X196107Y82457D02*X196893D01*
X199607Y105543D02*X200393D01*
X199607Y98457D02*X200393D01*
X185107Y91457D02*X185893D01*
X167957Y90893D02*Y90107D01*
X175043Y90893D02*Y90107D01*
X185107Y71957D02*X185893D01*
X185107Y79043D02*X185893D01*
X185107Y98543D02*X185893D01*
X175043Y109393D02*Y108607D01*
X185107Y113957D02*X185893D01*
X185107Y121043D02*X185893D01*
X167957Y109393D02*Y108607D01*
G54D25*X153500Y101000D02*X160000D01*
X153500Y106000D02*X160000D01*
G54D22*X239500Y166300D02*Y165700D01*
G54D21*X134819Y161595D02*X137181D01*
G54D22*X243400Y174500D02*Y173900D01*
G54D21*X134819Y173405D02*X137181D01*
X239595Y184681D02*Y182319D01*
X251405Y184681D02*Y182319D01*
G54D25*X133000Y131000D02*X139500D01*
X133000Y126000D02*X139500D01*
X133000Y121000D02*X139500D01*
X133000Y116000D02*X139500D01*
X133000Y111000D02*X139500D01*
X133000Y106000D02*X139500D01*
X133000Y101000D02*X139500D01*
G54D21*X136107Y151543D02*X136893D01*
X136107Y144457D02*X136893D01*
G54D25*X153500Y111000D02*X160000D01*
X153500Y116000D02*X160000D01*
X153500Y121000D02*X160000D01*
X153500Y126000D02*X160000D01*
G54D21*X167957Y120393D02*Y119607D01*
G54D25*X153500Y131000D02*X160000D01*
G54D21*X166043Y142393D02*Y141607D01*
X158957Y142393D02*Y141607D01*
X175043Y120393D02*Y119607D01*
X196607Y118457D02*X197393D01*
X196607Y125543D02*X197393D01*
X167957Y79893D02*Y79107D01*
X175043Y79893D02*Y79107D01*
G54D26*X218477Y88934D02*Y84508D01*
X221626Y88934D02*Y84508D01*
X224776Y88934D02*Y84508D01*
X227925Y88934D02*Y84508D01*
X231075Y88934D02*Y84508D01*
X234225Y88934D02*Y84508D01*
X237374Y88934D02*Y84508D01*
X240524Y88934D02*Y84508D01*
X246066Y94477D02*X250492D01*
X246066Y97626D02*X250492D01*
X246066Y100776D02*X250492D01*
X246066Y103925D02*X250492D01*
X246066Y107075D02*X250492D01*
X246066Y110225D02*X250492D01*
X246066Y113374D02*X250492D01*
G54D21*X264607Y162543D02*X265393D01*
X264607Y155457D02*X265393D01*
G54D22*X247300Y166300D02*Y165700D01*
G54D21*X208957Y135393D02*Y134607D01*
X216043Y135393D02*Y134607D01*
X233543Y135393D02*Y134607D01*
X226457Y135393D02*Y134607D01*
G54D26*X240523Y126492D02*Y122066D01*
X237374Y126492D02*Y122066D01*
X234224Y126492D02*Y122066D01*
X231075Y126492D02*Y122066D01*
X227925Y126492D02*Y122066D01*
X224775Y126492D02*Y122066D01*
X221626Y126492D02*Y122066D01*
X246066Y116524D02*X250492D01*
X218476Y126492D02*Y122066D01*
X208508Y116523D02*X212934D01*
X208508Y113374D02*X212934D01*
X208508Y110224D02*X212934D01*
X208508Y107075D02*X212934D01*
X208508Y103925D02*X212934D01*
X208508Y100775D02*X212934D01*
X208508Y97626D02*X212934D01*
X208508Y94476D02*X212934D01*
G54D21*X233543Y75393D02*Y74607D01*
Y64393D02*Y63607D01*
X226457Y75393D02*Y74607D01*
Y53393D02*Y52607D01*
Y64393D02*Y63607D01*
X241095Y8181D02*Y5819D01*
X252905Y8181D02*Y5819D01*
X264107Y26957D02*X264893D01*
X264107Y34043D02*X264893D01*
G54D22*X239500Y24800D02*Y24200D01*
X247300Y24800D02*Y24200D01*
X243400Y33000D02*Y32400D01*
G54D21*X233543Y53393D02*Y52607D01*
G54D13*X278000Y91500D03*
X238500Y102000D03*
Y94000D03*
X233000Y101000D03*
X265000Y105500D03*
Y96500D03*
X256500Y99500D03*
X271000Y118500D03*
Y124500D03*
G54D16*X306000Y118500D03*
G54D13*X85000Y45000D03*
G54D16*X59000Y38000D03*
G54D13*X119500Y69000D03*
X102500Y41000D03*
X124000Y57000D03*
X125500Y69000D03*
X37500Y111500D03*
Y104500D03*
X43000Y109000D03*
G54D16*X137000Y5500D03*
X111500Y20500D03*
G54D13*X165000Y64000D03*
G54D16*X146000Y76000D03*
G54D13*X147000Y58500D03*
X155500Y93500D03*
G54D16*X132500D03*
G54D13*X190000Y86000D03*
X204000Y87000D03*
G54D16*X232000Y6000D03*
G54D13*X208000Y64000D03*
X209500Y74000D03*
G54D16*X193500Y62000D03*
G54D13*X202500Y55000D03*
X240500Y64500D03*
X238500Y70000D03*
X240500Y53000D03*
G54D16*X238000Y45500D03*
X231000Y182000D03*
X226000Y142500D03*
G54D13*X177500Y156000D03*
X179500Y150500D03*
X185500Y146500D03*
X239500Y137500D03*
X271000Y134000D03*
X264500D03*
X249500Y143000D03*
X291500Y145500D03*
X258000Y154500D03*
X140000Y93500D03*
X143500Y125000D03*
Y150500D03*
X168500Y97000D03*
Y127500D03*
X214500Y72500D03*
X208000Y80500D03*
X194000Y100500D03*
Y107000D03*
X201000Y112500D03*
X188500Y128500D03*
X204500Y124500D03*
X209500D03*
X219000Y104500D03*
Y116000D03*
X222500Y111500D03*
G54D16*X136500Y184000D03*
X111000Y149000D03*
X129500Y153000D03*
G54D13*X117000Y115500D03*
X112000D03*
X126000Y115000D03*
X106500Y115500D03*
X76500Y122000D03*
Y117000D03*
X84000Y108000D03*
G54D27*G54D28*G54D27*G54D28*G54D27*G54D28*G54D27*G54D28*G54D27*G54D28*G54D27*G54D28*G54D27*G54D28*G54D27*G54D28*G54D27*G54D28*G54D27*G54D29*G54D30*G54D31*G54D29*G54D32*G54D31*G54D33*G54D34*G54D32*G54D35*G54D31*G54D32*G54D29*G54D31*G54D29*G54D32*G54D36*G54D29*G54D30*G54D33*G54D34*G54D27*G54D33*G54D34*M02*
