M48
INCH
T72C0.020
T71C0.045
T70C0.038
T69C0.039
T68C0.030
T67C0.128
T66C0.122
T65C0.048
T64C0.129
%
T72
X001300Y013450
X004350Y012550
X004350Y012050
X004350Y011550
X004900Y012550
X004900Y012050
X004900Y011550
X005400Y010600
X005900Y010600
X006400Y010600
X006900Y010600
X006950Y012550
X006950Y012050
X006950Y011550
X007400Y010600
X007450Y012050
X007450Y011550
X007950Y012050
X007950Y011550
X011050Y014250
X012200Y006500
X012200Y006000
X012550Y006900
X012950Y007800
X013150Y008750
X013300Y007300
X013450Y007800
X013600Y011750
X013850Y013400
X014150Y011750
X014550Y005150
X015300Y014550
X015700Y013200
X015700Y012700
X016100Y005550
X017100Y007300
X017600Y008250
X017650Y012850
X017750Y009100
X017750Y003500
X017900Y010900
X017900Y006250
X017900Y005750
X018000Y012300
X018100Y008250
X018350Y012650
X018400Y010900
X018650Y008250
X018650Y007750
X019650Y010350
X019650Y008950
X019850Y006500
X019950Y014950
X020000Y010000
X020150Y008950
X020350Y009650
X020450Y006500
X020600Y015100
X020650Y008950
X021600Y006500
X022000Y009550
X022150Y012700
X022200Y006500
X022350Y009150
X022400Y014500
X022750Y012690
X023300Y011100
X023500Y012450
X024200Y014700
X024200Y014200
X024250Y012450
X024250Y007800
X024250Y006400
X024450Y010350
X024550Y011400
X024750Y007800
X024900Y011900
X025050Y010550
X025050Y010000
X025350Y012300
X025600Y010400
X025650Y000800
X026050Y014000
X026250Y007800
X026400Y006400
X026500Y009700
X026950Y012650
X027100Y018200
X027450Y013450
X027550Y001000
X028050Y001000
X029200Y000750
X029250Y010250
X029250Y009700
X030100Y001000
X030900Y000450
X031400Y000900
T68
X006600Y009750
X006600Y008750
X006600Y007750
X006600Y006750
X007600Y009250
X007600Y008250
X007600Y007250
X007600Y006250
X028250Y013050
X028250Y012050
X028250Y011050
X028250Y007300
X028250Y006300
X028250Y005300
X029250Y013550
X029250Y012550
X029250Y011550
X029250Y007800
X029250Y006800
X029250Y005800
T70
X028050Y017550
X028050Y016550
X029050Y017550
X029050Y016550
X030050Y017550
X030050Y016550
T69
X013050Y004000
X013050Y003000
X013050Y002000
X013100Y017000
X013100Y016000
X013100Y015000
X017050Y004000
X017050Y003000
X017050Y002000
X017100Y017000
X017100Y016000
X017100Y015000
T71
X009600Y013350
X009600Y012350
X009600Y011350
T65
X002300Y012250
X002300Y010250
X002300Y008250
X002300Y006250
X005850Y002450
X005900Y016550
X010850Y002450
X010900Y016550
X019250Y016550
X019250Y002450
X024250Y016550
X024250Y002450
T66
X004100Y010250
X004100Y005750
T67
X031750Y014300
X031750Y010300
X031750Y008550
X031750Y004550
T64
X001700Y017300
X001700Y001700
X033300Y017300
X033300Y001700
M30
