G04 start of page 3 for group 1 idx 1 *
G04 Title: (unknown), solder *
G04 Creator: pcb 20110918 *
G04 CreationDate: Tue 09 Apr 2013 03:49:42 AM GMT UTC *
G04 For: railfan *
G04 Format: Gerber/RS-274X *
G04 PCB-Dimensions: 350000 190000 *
G04 PCB-Coordinate-Origin: lower left *
%MOIN*%
%FSLAX25Y25*%
%LNBOTTOM*%
%ADD54C,0.0450*%
%ADD53C,0.0380*%
%ADD52C,0.1280*%
%ADD51C,0.0300*%
%ADD50C,0.1285*%
%ADD49C,0.0390*%
%ADD48C,0.0280*%
%ADD47C,0.0480*%
%ADD46C,0.0200*%
%ADD45C,0.0787*%
%ADD44C,0.1500*%
%ADD43C,0.2937*%
%ADD42C,0.0700*%
%ADD41C,0.0600*%
%ADD40C,0.0800*%
%ADD39C,0.0250*%
%ADD38C,0.0100*%
%ADD37C,0.0400*%
%ADD36C,0.0001*%
G54D36*G36*
X128000Y187500D02*X147000D01*
Y179500D01*
X128000D01*
Y187500D01*
G37*
G36*
X236000Y160500D02*X230995D01*
Y178991D01*
X231000Y178991D01*
X231471Y179028D01*
X231930Y179138D01*
X232366Y179319D01*
X232769Y179565D01*
X233128Y179872D01*
X233435Y180231D01*
X233681Y180634D01*
X233862Y181070D01*
X233972Y181529D01*
X234000Y182000D01*
X233972Y182471D01*
X233862Y182930D01*
X233681Y183366D01*
X233435Y183769D01*
X233128Y184128D01*
X232769Y184435D01*
X232366Y184681D01*
X231930Y184862D01*
X231471Y184972D01*
X231000Y185009D01*
X230995Y185009D01*
Y187500D01*
X236000D01*
Y160500D01*
G37*
G36*
X230995D02*X229619D01*
X229564Y160564D01*
X229384Y160717D01*
X229183Y160841D01*
X228965Y160931D01*
X228735Y160986D01*
X228500Y161000D01*
X225113Y160993D01*
X225785Y161046D01*
X226550Y161230D01*
X227277Y161531D01*
X227948Y161942D01*
X228546Y162454D01*
X229058Y163052D01*
X229469Y163723D01*
X229770Y164450D01*
X229954Y165215D01*
X230000Y166000D01*
X229954Y166785D01*
X229770Y167550D01*
X229469Y168277D01*
X229058Y168948D01*
X228546Y169546D01*
X227948Y170058D01*
X227277Y170469D01*
X226550Y170770D01*
X225785Y170954D01*
X225196Y171000D01*
X225785Y171046D01*
X226550Y171230D01*
X227277Y171531D01*
X227948Y171942D01*
X228546Y172454D01*
X229058Y173052D01*
X229469Y173723D01*
X229770Y174450D01*
X229954Y175215D01*
X230000Y176000D01*
X229954Y176785D01*
X229770Y177550D01*
X229469Y178277D01*
X229058Y178948D01*
X228546Y179546D01*
X227948Y180058D01*
X227277Y180469D01*
X226550Y180770D01*
X225785Y180954D01*
X225000Y181015D01*
X224215Y180954D01*
X223450Y180770D01*
X222723Y180469D01*
X222052Y180058D01*
X221454Y179546D01*
X220942Y178948D01*
X220531Y178277D01*
X220230Y177550D01*
X220046Y176785D01*
X219985Y176000D01*
X220046Y175215D01*
X220230Y174450D01*
X220531Y173723D01*
X220942Y173052D01*
X221454Y172454D01*
X222052Y171942D01*
X222723Y171531D01*
X223450Y171230D01*
X224215Y171046D01*
X224804Y171000D01*
X224215Y170954D01*
X223450Y170770D01*
X222723Y170469D01*
X222052Y170058D01*
X221454Y169546D01*
X220942Y168948D01*
X220531Y168277D01*
X220230Y167550D01*
X220046Y166785D01*
X219985Y166000D01*
X220046Y165215D01*
X220230Y164450D01*
X220531Y163723D01*
X220942Y163052D01*
X221454Y162454D01*
X222052Y161942D01*
X222723Y161531D01*
X223450Y161230D01*
X224215Y161046D01*
X224892Y160993D01*
X221265Y160986D01*
X221035Y160931D01*
X220817Y160841D01*
X220616Y160717D01*
X220436Y160564D01*
X220381Y160500D01*
X205301D01*
X205505Y160584D01*
X206243Y161037D01*
X206901Y161599D01*
X207463Y162257D01*
X207916Y162995D01*
X208247Y163795D01*
X208449Y164637D01*
X208500Y165500D01*
X208449Y166363D01*
X208247Y167205D01*
X207916Y168005D01*
X207463Y168743D01*
X206901Y169401D01*
X206243Y169963D01*
X205505Y170416D01*
X204705Y170747D01*
X203863Y170949D01*
X203000Y171017D01*
X202137Y170949D01*
X201295Y170747D01*
X200495Y170416D01*
X199757Y169963D01*
X199099Y169401D01*
X198537Y168743D01*
X198084Y168005D01*
X197753Y167205D01*
X197551Y166363D01*
X197483Y165500D01*
X197551Y164637D01*
X197753Y163795D01*
X198084Y162995D01*
X198537Y162257D01*
X199099Y161599D01*
X199757Y161037D01*
X200495Y160584D01*
X200699Y160500D01*
X158119D01*
X158217Y160616D01*
X158341Y160817D01*
X158431Y161035D01*
X158486Y161265D01*
X158500Y161500D01*
X158486Y169735D01*
X158431Y169965D01*
X158341Y170183D01*
X158217Y170384D01*
X158064Y170564D01*
X157884Y170717D01*
X157683Y170841D01*
X157465Y170931D01*
X157235Y170986D01*
X157000Y171000D01*
X148765Y170986D01*
X148535Y170931D01*
X148317Y170841D01*
X148116Y170717D01*
X147936Y170564D01*
X147783Y170384D01*
X147659Y170183D01*
X147569Y169965D01*
X147514Y169735D01*
X147500Y169500D01*
X147514Y161265D01*
X147569Y161035D01*
X147659Y160817D01*
X147783Y160616D01*
X147881Y160500D01*
X136495D01*
Y180991D01*
X136500Y180991D01*
X136971Y181028D01*
X137430Y181138D01*
X137866Y181319D01*
X138269Y181565D01*
X138628Y181872D01*
X138935Y182231D01*
X139181Y182634D01*
X139362Y183070D01*
X139472Y183529D01*
X139500Y184000D01*
X139472Y184471D01*
X139362Y184930D01*
X139181Y185366D01*
X138935Y185769D01*
X138628Y186128D01*
X138269Y186435D01*
X137866Y186681D01*
X137430Y186862D01*
X136971Y186972D01*
X136500Y187009D01*
X136495Y187009D01*
Y187500D01*
X230995D01*
Y185009D01*
X230529Y184972D01*
X230070Y184862D01*
X229634Y184681D01*
X229231Y184435D01*
X228872Y184128D01*
X228565Y183769D01*
X228319Y183366D01*
X228138Y182930D01*
X228028Y182471D01*
X227991Y182000D01*
X228028Y181529D01*
X228138Y181070D01*
X228319Y180634D01*
X228565Y180231D01*
X228872Y179872D01*
X229231Y179565D01*
X229634Y179319D01*
X230070Y179138D01*
X230529Y179028D01*
X230995Y178991D01*
Y160500D01*
G37*
G36*
X136495D02*X124619D01*
X124564Y160564D01*
X124384Y160717D01*
X124183Y160841D01*
X123965Y160931D01*
X123735Y160986D01*
X123500Y161000D01*
X120113Y160993D01*
X120785Y161046D01*
X121550Y161230D01*
X122277Y161531D01*
X122948Y161942D01*
X123546Y162454D01*
X124058Y163052D01*
X124469Y163723D01*
X124770Y164450D01*
X124954Y165215D01*
X125000Y166000D01*
X124954Y166785D01*
X124770Y167550D01*
X124469Y168277D01*
X124058Y168948D01*
X123546Y169546D01*
X122948Y170058D01*
X122277Y170469D01*
X121550Y170770D01*
X120785Y170954D01*
X120196Y171000D01*
X120785Y171046D01*
X121550Y171230D01*
X122277Y171531D01*
X122948Y171942D01*
X123546Y172454D01*
X124058Y173052D01*
X124469Y173723D01*
X124770Y174450D01*
X124954Y175215D01*
X125000Y176000D01*
X124954Y176785D01*
X124770Y177550D01*
X124469Y178277D01*
X124058Y178948D01*
X123546Y179546D01*
X122948Y180058D01*
X122277Y180469D01*
X121550Y180770D01*
X120785Y180954D01*
X120000Y181015D01*
X119215Y180954D01*
X118450Y180770D01*
X117723Y180469D01*
X117052Y180058D01*
X116454Y179546D01*
X115942Y178948D01*
X115531Y178277D01*
X115230Y177550D01*
X115046Y176785D01*
X114985Y176000D01*
X115046Y175215D01*
X115230Y174450D01*
X115531Y173723D01*
X115942Y173052D01*
X116454Y172454D01*
X117052Y171942D01*
X117723Y171531D01*
X118450Y171230D01*
X119215Y171046D01*
X119804Y171000D01*
X119215Y170954D01*
X118450Y170770D01*
X117723Y170469D01*
X117052Y170058D01*
X116454Y169546D01*
X115942Y168948D01*
X115531Y168277D01*
X115230Y167550D01*
X115046Y166785D01*
X114985Y166000D01*
X115046Y165215D01*
X115230Y164450D01*
X115531Y163723D01*
X115942Y163052D01*
X116454Y162454D01*
X117052Y161942D01*
X117723Y161531D01*
X118450Y161230D01*
X119215Y161046D01*
X119892Y160993D01*
X116265Y160986D01*
X116035Y160931D01*
X115817Y160841D01*
X115616Y160717D01*
X115436Y160564D01*
X115381Y160500D01*
X102743D01*
X101993Y161250D01*
X102401Y161599D01*
X102963Y162257D01*
X103416Y162995D01*
X103747Y163795D01*
X103949Y164637D01*
X104000Y165500D01*
X103949Y166363D01*
X103747Y167205D01*
X103416Y168005D01*
X102963Y168743D01*
X102401Y169401D01*
X101743Y169963D01*
X101005Y170416D01*
X100205Y170747D01*
X99363Y170949D01*
X98500Y171017D01*
X97637Y170949D01*
X96795Y170747D01*
X95995Y170416D01*
X95257Y169963D01*
X94599Y169401D01*
X94037Y168743D01*
X93584Y168005D01*
X93253Y167205D01*
X93051Y166363D01*
X92983Y165500D01*
X93051Y164637D01*
X93253Y163795D01*
X93584Y162995D01*
X94037Y162257D01*
X94599Y161599D01*
X95257Y161037D01*
X95500Y160888D01*
Y160618D01*
X95491Y160500D01*
Y160500D01*
X53619D01*
X53717Y160616D01*
X53841Y160817D01*
X53931Y161035D01*
X53986Y161265D01*
X54000Y161500D01*
X53986Y169735D01*
X53931Y169965D01*
X53841Y170183D01*
X53717Y170384D01*
X53564Y170564D01*
X53500Y170619D01*
Y187500D01*
X136495D01*
Y187009D01*
X136029Y186972D01*
X135570Y186862D01*
X135134Y186681D01*
X134731Y186435D01*
X134372Y186128D01*
X134065Y185769D01*
X133819Y185366D01*
X133638Y184930D01*
X133528Y184471D01*
X133491Y184000D01*
X133528Y183529D01*
X133638Y183070D01*
X133819Y182634D01*
X134065Y182231D01*
X134372Y181872D01*
X134731Y181565D01*
X135134Y181319D01*
X135570Y181138D01*
X136029Y181028D01*
X136495Y180991D01*
Y160500D01*
G37*
G36*
X125500Y157000D02*X133500D01*
Y149000D01*
X125500D01*
Y157000D01*
G37*
G36*
X106500Y153000D02*X115000D01*
Y144000D01*
X106500D01*
Y153000D01*
G37*
G36*
X128000Y166500D02*X135000D01*
Y157500D01*
X128000D01*
Y166500D01*
G37*
G36*
X130000Y149000D02*X128559D01*
X128500Y149005D01*
X128441Y149000D01*
X125121D01*
X124000Y150121D01*
Y151084D01*
X124183Y151159D01*
X124384Y151283D01*
X124564Y151436D01*
X124717Y151616D01*
X124841Y151817D01*
X124931Y152035D01*
X124986Y152265D01*
X125000Y152500D01*
X124986Y159735D01*
X124931Y159965D01*
X124841Y160183D01*
X124717Y160384D01*
X124564Y160564D01*
X124384Y160717D01*
X124183Y160841D01*
X123965Y160931D01*
X123735Y160986D01*
X123500Y161000D01*
X122500Y160998D01*
Y161668D01*
X122948Y161942D01*
X123015Y162000D01*
X130000D01*
Y155965D01*
X129971Y155972D01*
X129500Y156009D01*
X129029Y155972D01*
X128570Y155862D01*
X128134Y155681D01*
X127731Y155435D01*
X127372Y155128D01*
X127065Y154769D01*
X126819Y154366D01*
X126638Y153930D01*
X126528Y153471D01*
X126491Y153000D01*
X126528Y152529D01*
X126638Y152070D01*
X126819Y151634D01*
X127065Y151231D01*
X127372Y150872D01*
X127731Y150565D01*
X128134Y150319D01*
X128570Y150138D01*
X129029Y150028D01*
X129500Y149991D01*
X129971Y150028D01*
X130000Y150035D01*
Y149000D01*
G37*
G36*
X237000Y188000D02*Y186000D01*
X35000D01*
Y188000D01*
X237000D01*
G37*
G36*
X183500Y158000D02*Y161000D01*
X197500D01*
Y158000D01*
X208000D01*
Y160500D01*
X219500D01*
Y151000D01*
X241500D01*
X230000Y139500D01*
X202000D01*
X183500Y158000D01*
G37*
G36*
X231000Y176500D02*X230000D01*
Y178000D01*
X226000Y182000D01*
Y187000D01*
X232000D01*
Y176500D01*
X231000D01*
G37*
G36*
X217500Y161500D02*X222798D01*
X223450Y161230D01*
X224215Y161046D01*
X224892Y160993D01*
X221265Y160986D01*
X221035Y160931D01*
X220817Y160841D01*
X220616Y160717D01*
X220436Y160564D01*
X220283Y160384D01*
X220159Y160183D01*
X220069Y159965D01*
X220014Y159735D01*
X220000Y159500D01*
X220014Y152265D01*
X220069Y152035D01*
X220159Y151817D01*
X220283Y151616D01*
X220436Y151436D01*
X220616Y151283D01*
X220817Y151159D01*
X221035Y151069D01*
X221265Y151014D01*
X221500Y151000D01*
X228735Y151014D01*
X228965Y151069D01*
X229183Y151159D01*
X229384Y151283D01*
X229564Y151436D01*
X229717Y151616D01*
X229841Y151817D01*
X229931Y152035D01*
X229986Y152265D01*
X230000Y152500D01*
X229986Y159735D01*
X229931Y159965D01*
X229841Y160183D01*
X229717Y160384D01*
X229564Y160564D01*
X229384Y160717D01*
X229183Y160841D01*
X228965Y160931D01*
X228735Y160986D01*
X228500Y161000D01*
X225113Y160993D01*
X225785Y161046D01*
X226550Y161230D01*
X227202Y161500D01*
X233000D01*
Y149243D01*
X232757Y149000D01*
X228618D01*
X228500Y149009D01*
X228382Y149000D01*
X217500D01*
Y161500D01*
G37*
G36*
X37495Y132500D02*X45000D01*
Y111237D01*
X44769Y111435D01*
X44366Y111681D01*
X43930Y111862D01*
X43471Y111972D01*
X43000Y112009D01*
X42529Y111972D01*
X42070Y111862D01*
X41634Y111681D01*
X41231Y111435D01*
X40872Y111128D01*
X40565Y110769D01*
X40319Y110366D01*
X40138Y109930D01*
X40028Y109471D01*
X39991Y109000D01*
X40028Y108529D01*
X40138Y108070D01*
X40319Y107634D01*
X40565Y107231D01*
X40872Y106872D01*
X41231Y106565D01*
X41634Y106319D01*
X42070Y106138D01*
X42529Y106028D01*
X43000Y105991D01*
X43471Y106028D01*
X43930Y106138D01*
X44366Y106319D01*
X44769Y106565D01*
X45000Y106763D01*
Y96000D01*
X37495D01*
Y101491D01*
X37500Y101491D01*
X37971Y101528D01*
X38430Y101638D01*
X38866Y101819D01*
X39269Y102065D01*
X39628Y102372D01*
X39935Y102731D01*
X40181Y103134D01*
X40362Y103570D01*
X40472Y104029D01*
X40500Y104500D01*
X40472Y104971D01*
X40362Y105430D01*
X40181Y105866D01*
X39935Y106269D01*
X39628Y106628D01*
X39269Y106935D01*
X38866Y107181D01*
X38430Y107362D01*
X37971Y107472D01*
X37500Y107509D01*
X37495Y107509D01*
Y108491D01*
X37500Y108491D01*
X37971Y108528D01*
X38430Y108638D01*
X38866Y108819D01*
X39269Y109065D01*
X39628Y109372D01*
X39935Y109731D01*
X40181Y110134D01*
X40362Y110570D01*
X40472Y111029D01*
X40500Y111500D01*
X40472Y111971D01*
X40362Y112430D01*
X40181Y112866D01*
X39935Y113269D01*
X39628Y113628D01*
X39269Y113935D01*
X38866Y114181D01*
X38430Y114362D01*
X37971Y114472D01*
X37500Y114509D01*
X37495Y114509D01*
Y132500D01*
G37*
G36*
X27493D02*X37495D01*
Y114509D01*
X37029Y114472D01*
X36570Y114362D01*
X36134Y114181D01*
X35731Y113935D01*
X35372Y113628D01*
X35065Y113269D01*
X34819Y112866D01*
X34638Y112430D01*
X34528Y111971D01*
X34491Y111500D01*
X34528Y111029D01*
X34638Y110570D01*
X34819Y110134D01*
X35065Y109731D01*
X35372Y109372D01*
X35731Y109065D01*
X36134Y108819D01*
X36570Y108638D01*
X37029Y108528D01*
X37495Y108491D01*
Y107509D01*
X37029Y107472D01*
X36570Y107362D01*
X36134Y107181D01*
X35731Y106935D01*
X35372Y106628D01*
X35065Y106269D01*
X34819Y105866D01*
X34638Y105430D01*
X34528Y104971D01*
X34491Y104500D01*
X34528Y104029D01*
X34638Y103570D01*
X34819Y103134D01*
X35065Y102731D01*
X35372Y102372D01*
X35731Y102065D01*
X36134Y101819D01*
X36570Y101638D01*
X37029Y101528D01*
X37495Y101491D01*
Y96000D01*
X27493D01*
Y99645D01*
X27578Y99681D01*
X27679Y99743D01*
X27769Y99819D01*
X27845Y99909D01*
X27905Y100011D01*
X28122Y100480D01*
X28289Y100969D01*
X28409Y101472D01*
X28482Y101984D01*
X28506Y102500D01*
X28482Y103016D01*
X28409Y103528D01*
X28289Y104031D01*
X28122Y104520D01*
X27910Y104992D01*
X27849Y105093D01*
X27772Y105184D01*
X27682Y105261D01*
X27580Y105323D01*
X27493Y105360D01*
Y117080D01*
X27683Y117159D01*
X27884Y117283D01*
X28064Y117436D01*
X28217Y117616D01*
X28341Y117817D01*
X28431Y118035D01*
X28486Y118265D01*
X28500Y118500D01*
X28486Y126735D01*
X28431Y126965D01*
X28341Y127183D01*
X28217Y127384D01*
X28064Y127564D01*
X27884Y127717D01*
X27683Y127841D01*
X27493Y127920D01*
Y132500D01*
G37*
G36*
Y96000D02*X23000D01*
Y96994D01*
X23516Y97018D01*
X24028Y97091D01*
X24531Y97211D01*
X25020Y97378D01*
X25492Y97590D01*
X25593Y97651D01*
X25684Y97728D01*
X25761Y97818D01*
X25823Y97920D01*
X25869Y98029D01*
X25897Y98145D01*
X25906Y98263D01*
X25897Y98381D01*
X25870Y98497D01*
X25824Y98607D01*
X25762Y98708D01*
X25686Y98798D01*
X25595Y98876D01*
X25494Y98938D01*
X25385Y98984D01*
X25269Y99011D01*
X25151Y99021D01*
X25032Y99012D01*
X24917Y98984D01*
X24808Y98937D01*
X24468Y98779D01*
X24112Y98658D01*
X23747Y98570D01*
X23375Y98518D01*
X23000Y98500D01*
Y106500D01*
X23375Y106482D01*
X23747Y106430D01*
X24112Y106342D01*
X24468Y106221D01*
X24810Y106067D01*
X24918Y106020D01*
X25033Y105993D01*
X25151Y105983D01*
X25268Y105993D01*
X25383Y106021D01*
X25492Y106066D01*
X25593Y106128D01*
X25682Y106205D01*
X25759Y106295D01*
X25820Y106395D01*
X25865Y106504D01*
X25893Y106619D01*
X25902Y106737D01*
X25892Y106855D01*
X25865Y106969D01*
X25819Y107078D01*
X25757Y107179D01*
X25681Y107269D01*
X25591Y107345D01*
X25489Y107405D01*
X25020Y107622D01*
X24531Y107789D01*
X24028Y107909D01*
X23516Y107982D01*
X23000Y108006D01*
Y117007D01*
X27235Y117014D01*
X27465Y117069D01*
X27493Y117080D01*
Y105360D01*
X27471Y105369D01*
X27355Y105397D01*
X27237Y105406D01*
X27119Y105397D01*
X27003Y105370D01*
X26893Y105324D01*
X26792Y105262D01*
X26702Y105186D01*
X26624Y105095D01*
X26562Y104994D01*
X26516Y104885D01*
X26489Y104769D01*
X26479Y104651D01*
X26488Y104532D01*
X26516Y104417D01*
X26563Y104308D01*
X26721Y103968D01*
X26842Y103612D01*
X26930Y103247D01*
X26982Y102875D01*
X27000Y102500D01*
X26982Y102125D01*
X26930Y101753D01*
X26842Y101388D01*
X26721Y101032D01*
X26567Y100690D01*
X26520Y100582D01*
X26493Y100467D01*
X26483Y100349D01*
X26493Y100232D01*
X26521Y100117D01*
X26566Y100008D01*
X26628Y99907D01*
X26705Y99818D01*
X26795Y99741D01*
X26895Y99680D01*
X27004Y99635D01*
X27119Y99607D01*
X27237Y99598D01*
X27355Y99608D01*
X27469Y99635D01*
X27493Y99645D01*
Y96000D01*
G37*
G36*
X23000Y132500D02*X27493D01*
Y127920D01*
X27465Y127931D01*
X27235Y127986D01*
X27000Y128000D01*
X23000Y127993D01*
Y132500D01*
G37*
G36*
X18507Y117080D02*X18535Y117069D01*
X18765Y117014D01*
X19000Y117000D01*
X23000Y117007D01*
Y108006D01*
X23000D01*
X22484Y107982D01*
X21972Y107909D01*
X21469Y107789D01*
X20980Y107622D01*
X20508Y107410D01*
X20407Y107349D01*
X20316Y107272D01*
X20239Y107182D01*
X20177Y107080D01*
X20131Y106971D01*
X20103Y106855D01*
X20094Y106737D01*
X20103Y106619D01*
X20130Y106503D01*
X20176Y106393D01*
X20238Y106292D01*
X20314Y106202D01*
X20405Y106124D01*
X20506Y106062D01*
X20615Y106016D01*
X20731Y105989D01*
X20849Y105979D01*
X20968Y105988D01*
X21083Y106016D01*
X21192Y106063D01*
X21532Y106221D01*
X21888Y106342D01*
X22253Y106430D01*
X22625Y106482D01*
X23000Y106500D01*
Y98500D01*
X22625Y98518D01*
X22253Y98570D01*
X21888Y98658D01*
X21532Y98779D01*
X21190Y98933D01*
X21082Y98980D01*
X20967Y99007D01*
X20849Y99017D01*
X20732Y99007D01*
X20617Y98979D01*
X20508Y98934D01*
X20407Y98872D01*
X20318Y98795D01*
X20241Y98705D01*
X20180Y98605D01*
X20135Y98496D01*
X20107Y98381D01*
X20098Y98263D01*
X20108Y98145D01*
X20135Y98031D01*
X20181Y97922D01*
X20243Y97821D01*
X20319Y97731D01*
X20409Y97655D01*
X20511Y97595D01*
X20980Y97378D01*
X21469Y97211D01*
X21972Y97091D01*
X22484Y97018D01*
X23000Y96994D01*
X23000D01*
Y96000D01*
X18507D01*
Y99640D01*
X18529Y99631D01*
X18645Y99603D01*
X18763Y99594D01*
X18881Y99603D01*
X18997Y99630D01*
X19107Y99676D01*
X19208Y99738D01*
X19298Y99814D01*
X19376Y99905D01*
X19438Y100006D01*
X19484Y100115D01*
X19511Y100231D01*
X19521Y100349D01*
X19512Y100468D01*
X19484Y100583D01*
X19437Y100692D01*
X19279Y101032D01*
X19158Y101388D01*
X19070Y101753D01*
X19018Y102125D01*
X19000Y102500D01*
X19018Y102875D01*
X19070Y103247D01*
X19158Y103612D01*
X19279Y103968D01*
X19433Y104310D01*
X19480Y104418D01*
X19507Y104533D01*
X19517Y104651D01*
X19507Y104768D01*
X19479Y104883D01*
X19434Y104992D01*
X19372Y105093D01*
X19295Y105182D01*
X19205Y105259D01*
X19105Y105320D01*
X18996Y105365D01*
X18881Y105393D01*
X18763Y105402D01*
X18645Y105392D01*
X18531Y105365D01*
X18507Y105355D01*
Y117080D01*
G37*
G36*
Y132500D02*X23000D01*
Y127993D01*
X18765Y127986D01*
X18535Y127931D01*
X18507Y127920D01*
Y132500D01*
G37*
G36*
X10000D02*X18507D01*
Y127920D01*
X18317Y127841D01*
X18116Y127717D01*
X17936Y127564D01*
X17783Y127384D01*
X17659Y127183D01*
X17569Y126965D01*
X17514Y126735D01*
X17500Y126500D01*
X17514Y118265D01*
X17569Y118035D01*
X17659Y117817D01*
X17783Y117616D01*
X17936Y117436D01*
X18116Y117283D01*
X18317Y117159D01*
X18507Y117080D01*
Y105355D01*
X18422Y105319D01*
X18321Y105257D01*
X18231Y105181D01*
X18155Y105091D01*
X18095Y104989D01*
X17878Y104520D01*
X17711Y104031D01*
X17591Y103528D01*
X17518Y103016D01*
X17494Y102500D01*
X17518Y101984D01*
X17591Y101472D01*
X17711Y100969D01*
X17878Y100480D01*
X18090Y100008D01*
X18151Y99907D01*
X18228Y99816D01*
X18318Y99739D01*
X18420Y99677D01*
X18507Y99640D01*
Y96000D01*
X10000D01*
Y132500D01*
G37*
G36*
Y97500D02*X20717D01*
X20980Y97378D01*
X21469Y97211D01*
X21972Y97091D01*
X22484Y97018D01*
X23000Y96994D01*
X23516Y97018D01*
X24028Y97091D01*
X24531Y97211D01*
X25020Y97378D01*
X25292Y97500D01*
X35500D01*
Y93000D01*
X10000D01*
Y97500D01*
G37*
G36*
X42995Y115000D02*X46500D01*
Y100500D01*
X42995D01*
Y105991D01*
X43000Y105991D01*
X43471Y106028D01*
X43930Y106138D01*
X44366Y106319D01*
X44769Y106565D01*
X45128Y106872D01*
X45435Y107231D01*
X45681Y107634D01*
X45862Y108070D01*
X45972Y108529D01*
X46000Y109000D01*
X45972Y109471D01*
X45862Y109930D01*
X45681Y110366D01*
X45435Y110769D01*
X45128Y111128D01*
X44769Y111435D01*
X44366Y111681D01*
X43930Y111862D01*
X43471Y111972D01*
X43000Y112009D01*
X42995Y112009D01*
Y115000D01*
G37*
G36*
X37495D02*X42995D01*
Y112009D01*
X42529Y111972D01*
X42070Y111862D01*
X41634Y111681D01*
X41231Y111435D01*
X40872Y111128D01*
X40565Y110769D01*
X40319Y110366D01*
X40138Y109930D01*
X40028Y109471D01*
X39991Y109000D01*
X40028Y108529D01*
X40138Y108070D01*
X40319Y107634D01*
X40565Y107231D01*
X40872Y106872D01*
X41231Y106565D01*
X41634Y106319D01*
X42070Y106138D01*
X42529Y106028D01*
X42995Y105991D01*
Y100500D01*
X37495D01*
Y101491D01*
X37500Y101491D01*
X37971Y101528D01*
X38430Y101638D01*
X38866Y101819D01*
X39269Y102065D01*
X39628Y102372D01*
X39935Y102731D01*
X40181Y103134D01*
X40362Y103570D01*
X40472Y104029D01*
X40500Y104500D01*
X40472Y104971D01*
X40362Y105430D01*
X40181Y105866D01*
X39935Y106269D01*
X39628Y106628D01*
X39269Y106935D01*
X38866Y107181D01*
X38430Y107362D01*
X37971Y107472D01*
X37500Y107509D01*
X37495Y107509D01*
Y108491D01*
X37500Y108491D01*
X37971Y108528D01*
X38430Y108638D01*
X38866Y108819D01*
X39269Y109065D01*
X39628Y109372D01*
X39935Y109731D01*
X40181Y110134D01*
X40362Y110570D01*
X40472Y111029D01*
X40500Y111500D01*
X40472Y111971D01*
X40362Y112430D01*
X40181Y112866D01*
X39935Y113269D01*
X39628Y113628D01*
X39269Y113935D01*
X38866Y114181D01*
X38430Y114362D01*
X37971Y114472D01*
X37500Y114509D01*
X37495Y114509D01*
Y115000D01*
G37*
G36*
X33500D02*X37495D01*
Y114509D01*
X37029Y114472D01*
X36570Y114362D01*
X36134Y114181D01*
X35731Y113935D01*
X35372Y113628D01*
X35065Y113269D01*
X34819Y112866D01*
X34638Y112430D01*
X34528Y111971D01*
X34491Y111500D01*
X34528Y111029D01*
X34638Y110570D01*
X34819Y110134D01*
X35065Y109731D01*
X35372Y109372D01*
X35731Y109065D01*
X36134Y108819D01*
X36570Y108638D01*
X37029Y108528D01*
X37495Y108491D01*
Y107509D01*
X37029Y107472D01*
X36570Y107362D01*
X36134Y107181D01*
X35731Y106935D01*
X35372Y106628D01*
X35065Y106269D01*
X34819Y105866D01*
X34638Y105430D01*
X34528Y104971D01*
X34491Y104500D01*
X34528Y104029D01*
X34638Y103570D01*
X34819Y103134D01*
X35065Y102731D01*
X35372Y102372D01*
X35731Y102065D01*
X36134Y101819D01*
X36570Y101638D01*
X37029Y101528D01*
X37495Y101491D01*
Y100500D01*
X33500D01*
Y115000D01*
G37*
G36*
X33000Y114500D02*X46000D01*
Y101500D01*
X33000D01*
Y114500D01*
G37*
G36*
X236000Y160500D02*Y188000D01*
X241500D01*
Y160500D01*
X236000D01*
G37*
G36*
X229500Y161500D02*X238000D01*
Y148000D01*
X229500D01*
Y161500D01*
G37*
G36*
X283500Y162000D02*X241500D01*
Y188000D01*
X263000D01*
X275500Y175500D01*
Y166500D01*
X280000D01*
X283500Y163000D01*
Y162000D01*
G37*
G36*
X131500D02*X147513D01*
X147514Y161265D01*
X147569Y161035D01*
X147659Y160817D01*
X147783Y160616D01*
X147936Y160436D01*
X148116Y160283D01*
X148317Y160159D01*
X148535Y160069D01*
X148765Y160014D01*
X149000Y160000D01*
X157235Y160014D01*
X157465Y160069D01*
X157683Y160159D01*
X157884Y160283D01*
X158064Y160436D01*
X158217Y160616D01*
X158341Y160817D01*
X158431Y161035D01*
X158486Y161265D01*
X158500Y161500D01*
X158499Y162000D01*
X198756D01*
X199099Y161599D01*
X199757Y161037D01*
X200495Y160584D01*
X201295Y160253D01*
X202137Y160051D01*
X203000Y159983D01*
X203863Y160051D01*
X204705Y160253D01*
X205505Y160584D01*
X206243Y161037D01*
X206901Y161599D01*
X207244Y162000D01*
X219500D01*
Y158000D01*
X179737D01*
X179628Y158128D01*
X179269Y158435D01*
X178866Y158681D01*
X178430Y158862D01*
X177971Y158972D01*
X177500Y159009D01*
X177029Y158972D01*
X176570Y158862D01*
X176134Y158681D01*
X175731Y158435D01*
X175372Y158128D01*
X175263Y158000D01*
X131500D01*
Y162000D01*
G37*
G36*
X231000Y188000D02*X236000D01*
Y175000D01*
X231000D01*
Y188000D01*
G37*
G36*
X240000Y149000D02*Y165500D01*
X256500D01*
X240000Y149000D01*
G37*
G36*
X113000Y119500D02*X120500D01*
Y112000D01*
X113000D01*
Y119500D01*
G37*
G36*
X128000Y98500D02*X137000D01*
Y86500D01*
X128000D01*
Y98500D01*
G37*
G36*
X150500Y72500D02*X141500D01*
Y80500D01*
X150500D01*
Y72500D01*
G37*
G36*
X128000Y89500D02*X150500D01*
Y72500D01*
X128000D01*
Y89500D01*
G37*
G36*
X143495Y160000D02*X165000D01*
Y72500D01*
X143495D01*
Y73000D01*
X146000D01*
X146471Y73028D01*
X146930Y73138D01*
X147366Y73319D01*
X147769Y73565D01*
X148128Y73872D01*
X148435Y74231D01*
X148681Y74634D01*
X148862Y75070D01*
X148885Y75164D01*
X149128Y75372D01*
X149435Y75731D01*
X149681Y76134D01*
X149862Y76570D01*
X149972Y77029D01*
X150000Y77500D01*
X149972Y77971D01*
X149862Y78430D01*
X149681Y78866D01*
X149435Y79269D01*
X149128Y79628D01*
X148769Y79935D01*
X148366Y80181D01*
X147930Y80362D01*
X147471Y80472D01*
X147000Y80509D01*
X146529Y80472D01*
X146070Y80362D01*
X145634Y80181D01*
X145231Y79935D01*
X144872Y79628D01*
X144565Y79269D01*
X144401Y79000D01*
X143495D01*
Y92000D01*
X152901D01*
X153065Y91731D01*
X153372Y91372D01*
X153731Y91065D01*
X154134Y90819D01*
X154570Y90638D01*
X155029Y90528D01*
X155500Y90491D01*
X155971Y90528D01*
X156430Y90638D01*
X156866Y90819D01*
X157269Y91065D01*
X157628Y91372D01*
X157935Y91731D01*
X158181Y92134D01*
X158362Y92570D01*
X158472Y93029D01*
X158500Y93500D01*
X158472Y93971D01*
X158362Y94430D01*
X158181Y94866D01*
X157935Y95269D01*
X157628Y95628D01*
X157269Y95935D01*
X156866Y96181D01*
X156430Y96362D01*
X155971Y96472D01*
X155500Y96509D01*
X155029Y96472D01*
X154570Y96362D01*
X154134Y96181D01*
X153731Y95935D01*
X153372Y95628D01*
X153065Y95269D01*
X152901Y95000D01*
X143495D01*
Y121991D01*
X143500Y121991D01*
X143971Y122028D01*
X144430Y122138D01*
X144866Y122319D01*
X145269Y122565D01*
X145628Y122872D01*
X145935Y123231D01*
X146181Y123634D01*
X146362Y124070D01*
X146472Y124529D01*
X146500Y125000D01*
X146472Y125471D01*
X146362Y125930D01*
X146181Y126366D01*
X145935Y126769D01*
X145628Y127128D01*
X145269Y127435D01*
X145000Y127599D01*
Y147901D01*
X145269Y148065D01*
X145628Y148372D01*
X145935Y148731D01*
X146181Y149134D01*
X146362Y149570D01*
X146472Y150029D01*
X146500Y150500D01*
X146472Y150971D01*
X146362Y151430D01*
X146181Y151866D01*
X145935Y152269D01*
X145628Y152628D01*
X145269Y152935D01*
X144866Y153181D01*
X144430Y153362D01*
X143971Y153472D01*
X143500Y153509D01*
X143495Y153509D01*
Y160000D01*
G37*
G36*
Y79000D02*X140243D01*
X139745Y79497D01*
Y90511D01*
X140000Y90491D01*
X140471Y90528D01*
X140930Y90638D01*
X141366Y90819D01*
X141769Y91065D01*
X142128Y91372D01*
X142435Y91731D01*
X142599Y92000D01*
X143495D01*
Y79000D01*
G37*
G36*
Y72500D02*X139745D01*
Y73000D01*
X143495D01*
Y72500D01*
G37*
G36*
X139745Y160000D02*X143495D01*
Y153509D01*
X143029Y153472D01*
X142570Y153362D01*
X142134Y153181D01*
X141731Y152935D01*
X141372Y152628D01*
X141065Y152269D01*
X140819Y151866D01*
X140638Y151430D01*
X140528Y150971D01*
X140491Y150500D01*
X140528Y150029D01*
X140638Y149570D01*
X140819Y149134D01*
X141065Y148731D01*
X141372Y148372D01*
X141731Y148065D01*
X142000Y147901D01*
Y127599D01*
X141731Y127435D01*
X141372Y127128D01*
X141065Y126769D01*
X140819Y126366D01*
X140638Y125930D01*
X140528Y125471D01*
X140491Y125000D01*
X140528Y124529D01*
X140638Y124070D01*
X140819Y123634D01*
X141065Y123231D01*
X141372Y122872D01*
X141731Y122565D01*
X142134Y122319D01*
X142570Y122138D01*
X143029Y122028D01*
X143495Y121991D01*
Y95000D01*
X142599D01*
X142435Y95269D01*
X142128Y95628D01*
X141769Y95935D01*
X141366Y96181D01*
X140930Y96362D01*
X140471Y96472D01*
X140000Y96509D01*
X139745Y96489D01*
Y160000D01*
G37*
G36*
X128000Y72500D02*Y108379D01*
X131019Y111398D01*
X131064Y111436D01*
X131217Y111615D01*
X131217Y111616D01*
X131341Y111817D01*
X131431Y112035D01*
X131486Y112265D01*
X131505Y112500D01*
X131500Y112559D01*
Y145941D01*
X131505Y146000D01*
X131486Y146235D01*
X131431Y146465D01*
X131341Y146683D01*
X131217Y146884D01*
X131064Y147064D01*
X131019Y147102D01*
X129602Y148519D01*
X129564Y148564D01*
X129384Y148717D01*
X129183Y148841D01*
X128965Y148931D01*
X128735Y148986D01*
X128500Y149005D01*
X128441Y149000D01*
X128000D01*
Y150401D01*
X128134Y150319D01*
X128570Y150138D01*
X129029Y150028D01*
X129500Y149991D01*
X129971Y150028D01*
X130430Y150138D01*
X130866Y150319D01*
X131269Y150565D01*
X131628Y150872D01*
X131935Y151231D01*
X132181Y151634D01*
X132362Y152070D01*
X132472Y152529D01*
X132500Y153000D01*
X132472Y153471D01*
X132362Y153930D01*
X132181Y154366D01*
X131935Y154769D01*
X131628Y155128D01*
X131269Y155435D01*
X130866Y155681D01*
X130430Y155862D01*
X129971Y155972D01*
X129500Y156009D01*
X129029Y155972D01*
X128570Y155862D01*
X128134Y155681D01*
X128000Y155599D01*
Y160000D01*
X139745D01*
Y96489D01*
X139529Y96472D01*
X139070Y96362D01*
X138634Y96181D01*
X138231Y95935D01*
X137872Y95628D01*
X137565Y95269D01*
X137319Y94866D01*
X137138Y94430D01*
X137028Y93971D01*
X136991Y93500D01*
X137028Y93029D01*
X137138Y92570D01*
X137319Y92134D01*
X137565Y91731D01*
X137872Y91372D01*
X138231Y91065D01*
X138634Y90819D01*
X139070Y90638D01*
X139529Y90528D01*
X139745Y90511D01*
Y79497D01*
X135500Y83743D01*
Y93500D01*
X135472Y93971D01*
X135362Y94430D01*
X135181Y94866D01*
X134935Y95269D01*
X134628Y95628D01*
X134269Y95935D01*
X133866Y96181D01*
X133430Y96362D01*
X132971Y96472D01*
X132500Y96509D01*
X132029Y96472D01*
X131570Y96362D01*
X131134Y96181D01*
X130731Y95935D01*
X130372Y95628D01*
X130065Y95269D01*
X129819Y94866D01*
X129638Y94430D01*
X129528Y93971D01*
X129528Y93971D01*
X129491Y93500D01*
X129500Y93382D01*
Y82618D01*
X129491Y82500D01*
X129528Y82029D01*
Y82029D01*
X129549Y81940D01*
X129638Y81570D01*
X129819Y81134D01*
X130065Y80731D01*
X130065Y80731D01*
X130372Y80372D01*
X130462Y80296D01*
X136796Y73962D01*
X136872Y73872D01*
X137231Y73565D01*
X137231Y73565D01*
X137634Y73319D01*
X138070Y73138D01*
X138440Y73049D01*
X138529Y73028D01*
X138529D01*
X139000Y72991D01*
X139118Y73000D01*
X139745D01*
Y72500D01*
X128000D01*
G37*
G36*
X111745Y187500D02*X120500D01*
Y180976D01*
X120000Y181015D01*
X119215Y180954D01*
X118450Y180770D01*
X117723Y180469D01*
X117052Y180058D01*
X116454Y179546D01*
X115942Y178948D01*
X115531Y178277D01*
X115230Y177550D01*
X115046Y176785D01*
X114985Y176000D01*
X115046Y175215D01*
X115230Y174450D01*
X115531Y173723D01*
X115942Y173052D01*
X116454Y172454D01*
X117052Y171942D01*
X117723Y171531D01*
X118450Y171230D01*
X119215Y171046D01*
X119804Y171000D01*
X119215Y170954D01*
X118450Y170770D01*
X117723Y170469D01*
X117052Y170058D01*
X116454Y169546D01*
X115942Y168948D01*
X115531Y168277D01*
X115230Y167550D01*
X115046Y166785D01*
X114985Y166000D01*
X115046Y165215D01*
X115230Y164450D01*
X115531Y163723D01*
X115942Y163052D01*
X116454Y162454D01*
X117052Y161942D01*
X117723Y161531D01*
X118450Y161230D01*
X119215Y161046D01*
X119892Y160993D01*
X116265Y160986D01*
X116035Y160931D01*
X115817Y160841D01*
X115616Y160717D01*
X115436Y160564D01*
X115283Y160384D01*
X115159Y160183D01*
X115069Y159965D01*
X115014Y159735D01*
X115000Y159500D01*
X115001Y159000D01*
X111745D01*
Y187500D01*
G37*
G36*
X120500Y96000D02*X111745Y105369D01*
Y112511D01*
X112000Y112491D01*
X112471Y112528D01*
X112930Y112638D01*
X113366Y112819D01*
X113769Y113065D01*
X114128Y113372D01*
X114435Y113731D01*
X114500Y113838D01*
X114565Y113731D01*
X114872Y113372D01*
X115231Y113065D01*
X115634Y112819D01*
X116070Y112638D01*
X116529Y112528D01*
X117000Y112491D01*
X117471Y112528D01*
X117930Y112638D01*
X118366Y112819D01*
X118769Y113065D01*
X119128Y113372D01*
X119435Y113731D01*
X119681Y114134D01*
X119862Y114570D01*
X119972Y115029D01*
X120000Y115500D01*
X119972Y115971D01*
X119862Y116430D01*
X119681Y116866D01*
X119435Y117269D01*
X119128Y117628D01*
X118769Y117935D01*
X118366Y118181D01*
X117930Y118362D01*
X117471Y118472D01*
X117000Y118509D01*
X116529Y118472D01*
X116070Y118362D01*
X115634Y118181D01*
X115231Y117935D01*
X114872Y117628D01*
X114565Y117269D01*
X114500Y117162D01*
X114435Y117269D01*
X114128Y117628D01*
X113769Y117935D01*
X113366Y118181D01*
X112930Y118362D01*
X112471Y118472D01*
X112000Y118509D01*
X111745Y118489D01*
Y146094D01*
X111930Y146138D01*
X112366Y146319D01*
X112769Y146565D01*
X113128Y146872D01*
X113435Y147231D01*
X113681Y147634D01*
X113862Y148070D01*
X113972Y148529D01*
X114000Y149000D01*
X113972Y149471D01*
X113862Y149930D01*
X113681Y150366D01*
X113435Y150769D01*
X113128Y151128D01*
X112769Y151435D01*
X112366Y151681D01*
X111930Y151862D01*
X111745Y151906D01*
Y153000D01*
X115012D01*
X115014Y152265D01*
X115069Y152035D01*
X115159Y151817D01*
X115283Y151616D01*
X115436Y151436D01*
X115616Y151283D01*
X115817Y151159D01*
X116035Y151069D01*
X116265Y151014D01*
X116500Y151000D01*
X120500Y151008D01*
Y96000D01*
G37*
G36*
X111745Y105369D02*X53990Y167177D01*
X53986Y169735D01*
X53931Y169965D01*
X53841Y170183D01*
X53717Y170384D01*
X53564Y170564D01*
X53384Y170717D01*
X53183Y170841D01*
X52965Y170931D01*
X52735Y170986D01*
X52500Y171000D01*
X50421Y170996D01*
X35000Y187500D01*
X111745D01*
Y159000D01*
X104243D01*
X101993Y161250D01*
X102401Y161599D01*
X102963Y162257D01*
X103416Y162995D01*
X103747Y163795D01*
X103949Y164637D01*
X104000Y165500D01*
X103949Y166363D01*
X103747Y167205D01*
X103416Y168005D01*
X102963Y168743D01*
X102401Y169401D01*
X101743Y169963D01*
X101005Y170416D01*
X100205Y170747D01*
X99363Y170949D01*
X98500Y171017D01*
X97637Y170949D01*
X96795Y170747D01*
X95995Y170416D01*
X95257Y169963D01*
X94599Y169401D01*
X94037Y168743D01*
X93584Y168005D01*
X93253Y167205D01*
X93051Y166363D01*
X92983Y165500D01*
X93051Y164637D01*
X93253Y163795D01*
X93584Y162995D01*
X94037Y162257D01*
X94599Y161599D01*
X95257Y161037D01*
X95500Y160888D01*
Y160618D01*
X95491Y160500D01*
X95528Y160029D01*
Y160029D01*
X95549Y159940D01*
X95638Y159570D01*
X95819Y159134D01*
X96065Y158731D01*
X96065Y158731D01*
X96372Y158372D01*
X96462Y158296D01*
X100796Y153962D01*
X100872Y153872D01*
X101231Y153566D01*
X101231Y153565D01*
X101634Y153319D01*
X102070Y153138D01*
X102529Y153028D01*
X103000Y152991D01*
X103118Y153000D01*
X111745D01*
Y151906D01*
X111471Y151972D01*
X111000Y152009D01*
X110529Y151972D01*
X110070Y151862D01*
X109634Y151681D01*
X109231Y151435D01*
X108872Y151128D01*
X108565Y150769D01*
X108319Y150366D01*
X108138Y149930D01*
X108028Y149471D01*
X107991Y149000D01*
X108028Y148529D01*
X108138Y148070D01*
X108319Y147634D01*
X108565Y147231D01*
X108872Y146872D01*
X109231Y146565D01*
X109634Y146319D01*
X110070Y146138D01*
X110529Y146028D01*
X111000Y145991D01*
X111471Y146028D01*
X111745Y146094D01*
Y118489D01*
X111529Y118472D01*
X111070Y118362D01*
X110634Y118181D01*
X110231Y117935D01*
X109872Y117628D01*
X109565Y117269D01*
X109319Y116866D01*
X109250Y116700D01*
X109181Y116866D01*
X108935Y117269D01*
X108628Y117628D01*
X108269Y117935D01*
X107866Y118181D01*
X107430Y118362D01*
X106971Y118472D01*
X106500Y118509D01*
X106029Y118472D01*
X105570Y118362D01*
X105134Y118181D01*
X104731Y117935D01*
X104372Y117628D01*
X104065Y117269D01*
X103819Y116866D01*
X103638Y116430D01*
X103528Y115971D01*
X103491Y115500D01*
X103528Y115029D01*
X103638Y114570D01*
X103819Y114134D01*
X104065Y113731D01*
X104372Y113372D01*
X104731Y113065D01*
X105134Y112819D01*
X105570Y112638D01*
X106029Y112528D01*
X106500Y112491D01*
X106971Y112528D01*
X107430Y112638D01*
X107866Y112819D01*
X108269Y113065D01*
X108628Y113372D01*
X108935Y113731D01*
X109181Y114134D01*
X109250Y114300D01*
X109319Y114134D01*
X109565Y113731D01*
X109872Y113372D01*
X110231Y113065D01*
X110634Y112819D01*
X111070Y112638D01*
X111529Y112528D01*
X111745Y112511D01*
Y105369D01*
G37*
G36*
Y153000D02*X115012D01*
X115014Y152265D01*
X115069Y152035D01*
X115159Y151817D01*
X115283Y151616D01*
X115436Y151436D01*
X115616Y151283D01*
X115817Y151159D01*
X116035Y151069D01*
X116265Y151014D01*
X116500Y151000D01*
X120500Y151008D01*
Y96000D01*
X111745D01*
Y112511D01*
X112000Y112491D01*
X112471Y112528D01*
X112930Y112638D01*
X113366Y112819D01*
X113769Y113065D01*
X114128Y113372D01*
X114435Y113731D01*
X114500Y113838D01*
X114565Y113731D01*
X114872Y113372D01*
X115231Y113065D01*
X115634Y112819D01*
X116070Y112638D01*
X116529Y112528D01*
X117000Y112491D01*
X117471Y112528D01*
X117930Y112638D01*
X118366Y112819D01*
X118769Y113065D01*
X119128Y113372D01*
X119435Y113731D01*
X119681Y114134D01*
X119862Y114570D01*
X119972Y115029D01*
X120000Y115500D01*
X119972Y115971D01*
X119862Y116430D01*
X119681Y116866D01*
X119435Y117269D01*
X119128Y117628D01*
X118769Y117935D01*
X118366Y118181D01*
X117930Y118362D01*
X117471Y118472D01*
X117000Y118509D01*
X116529Y118472D01*
X116070Y118362D01*
X115634Y118181D01*
X115231Y117935D01*
X114872Y117628D01*
X114565Y117269D01*
X114500Y117162D01*
X114435Y117269D01*
X114128Y117628D01*
X113769Y117935D01*
X113366Y118181D01*
X112930Y118362D01*
X112471Y118472D01*
X112000Y118509D01*
X111745Y118489D01*
Y146094D01*
X111930Y146138D01*
X112366Y146319D01*
X112769Y146565D01*
X113128Y146872D01*
X113435Y147231D01*
X113681Y147634D01*
X113862Y148070D01*
X113972Y148529D01*
X114000Y149000D01*
X113972Y149471D01*
X113862Y149930D01*
X113681Y150366D01*
X113435Y150769D01*
X113128Y151128D01*
X112769Y151435D01*
X112366Y151681D01*
X111930Y151862D01*
X111745Y151906D01*
Y153000D01*
G37*
G36*
Y188000D02*X120500D01*
Y180976D01*
X120000Y181015D01*
X119215Y180954D01*
X118450Y180770D01*
X117723Y180469D01*
X117052Y180058D01*
X116454Y179546D01*
X115942Y178948D01*
X115531Y178277D01*
X115230Y177550D01*
X115046Y176785D01*
X114985Y176000D01*
X115046Y175215D01*
X115230Y174450D01*
X115531Y173723D01*
X115942Y173052D01*
X116454Y172454D01*
X117052Y171942D01*
X117723Y171531D01*
X118450Y171230D01*
X119215Y171046D01*
X119804Y171000D01*
X119215Y170954D01*
X118450Y170770D01*
X117723Y170469D01*
X117052Y170058D01*
X116454Y169546D01*
X115942Y168948D01*
X115531Y168277D01*
X115230Y167550D01*
X115046Y166785D01*
X114985Y166000D01*
X115046Y165215D01*
X115230Y164450D01*
X115531Y163723D01*
X115942Y163052D01*
X116454Y162454D01*
X117052Y161942D01*
X117723Y161531D01*
X118450Y161230D01*
X119215Y161046D01*
X119892Y160993D01*
X116265Y160986D01*
X116035Y160931D01*
X115817Y160841D01*
X115616Y160717D01*
X115436Y160564D01*
X115283Y160384D01*
X115159Y160183D01*
X115069Y159965D01*
X115014Y159735D01*
X115000Y159500D01*
X115001Y159000D01*
X111745D01*
Y188000D01*
G37*
G36*
X83995D02*X111745D01*
Y159000D01*
X104243D01*
X101993Y161250D01*
X102401Y161599D01*
X102963Y162257D01*
X103416Y162995D01*
X103747Y163795D01*
X103949Y164637D01*
X104000Y165500D01*
X103949Y166363D01*
X103747Y167205D01*
X103416Y168005D01*
X102963Y168743D01*
X102401Y169401D01*
X101743Y169963D01*
X101005Y170416D01*
X100205Y170747D01*
X99363Y170949D01*
X98500Y171017D01*
X97637Y170949D01*
X96795Y170747D01*
X95995Y170416D01*
X95257Y169963D01*
X94599Y169401D01*
X94037Y168743D01*
X93584Y168005D01*
X93253Y167205D01*
X93051Y166363D01*
X92983Y165500D01*
X93051Y164637D01*
X93253Y163795D01*
X93584Y162995D01*
X94037Y162257D01*
X94599Y161599D01*
X95257Y161037D01*
X95500Y160888D01*
Y160618D01*
X95491Y160500D01*
X95528Y160029D01*
Y160029D01*
X95549Y159940D01*
X95638Y159570D01*
X95819Y159134D01*
X96065Y158731D01*
X96065Y158731D01*
X96372Y158372D01*
X96462Y158296D01*
X100796Y153962D01*
X100872Y153872D01*
X101231Y153566D01*
X101231Y153565D01*
X101634Y153319D01*
X102070Y153138D01*
X102529Y153028D01*
X103000Y152991D01*
X103118Y153000D01*
X111745D01*
Y151906D01*
X111471Y151972D01*
X111000Y152009D01*
X110529Y151972D01*
X110070Y151862D01*
X109634Y151681D01*
X109231Y151435D01*
X108872Y151128D01*
X108565Y150769D01*
X108319Y150366D01*
X108138Y149930D01*
X108028Y149471D01*
X107991Y149000D01*
X108028Y148529D01*
X108138Y148070D01*
X108319Y147634D01*
X108565Y147231D01*
X108872Y146872D01*
X109231Y146565D01*
X109634Y146319D01*
X110070Y146138D01*
X110529Y146028D01*
X111000Y145991D01*
X111471Y146028D01*
X111745Y146094D01*
Y118489D01*
X111529Y118472D01*
X111070Y118362D01*
X110634Y118181D01*
X110231Y117935D01*
X109872Y117628D01*
X109565Y117269D01*
X109319Y116866D01*
X109250Y116700D01*
X109181Y116866D01*
X108935Y117269D01*
X108628Y117628D01*
X108269Y117935D01*
X107866Y118181D01*
X107430Y118362D01*
X106971Y118472D01*
X106500Y118509D01*
X106029Y118472D01*
X105570Y118362D01*
X105134Y118181D01*
X104731Y117935D01*
X104372Y117628D01*
X104065Y117269D01*
X103819Y116866D01*
X103638Y116430D01*
X103528Y115971D01*
X103491Y115500D01*
X103528Y115029D01*
X103638Y114570D01*
X103819Y114134D01*
X104065Y113731D01*
X104372Y113372D01*
X104731Y113065D01*
X105134Y112819D01*
X105570Y112638D01*
X106029Y112528D01*
X106500Y112491D01*
X106971Y112528D01*
X107430Y112638D01*
X107866Y112819D01*
X108269Y113065D01*
X108628Y113372D01*
X108935Y113731D01*
X109181Y114134D01*
X109250Y114300D01*
X109319Y114134D01*
X109565Y113731D01*
X109872Y113372D01*
X110231Y113065D01*
X110634Y112819D01*
X111070Y112638D01*
X111529Y112528D01*
X111745Y112511D01*
Y96000D01*
X83995D01*
Y104991D01*
X84000Y104991D01*
X84471Y105028D01*
X84930Y105138D01*
X85366Y105319D01*
X85769Y105565D01*
X86128Y105872D01*
X86435Y106231D01*
X86681Y106634D01*
X86862Y107070D01*
X86972Y107529D01*
X87000Y108000D01*
X86972Y108471D01*
X86862Y108930D01*
X86681Y109366D01*
X86435Y109769D01*
X86128Y110128D01*
X85769Y110435D01*
X85366Y110681D01*
X84930Y110862D01*
X84471Y110972D01*
X84000Y111009D01*
X83995Y111009D01*
Y188000D01*
G37*
G36*
X76495D02*X83995D01*
Y111009D01*
X83529Y110972D01*
X83070Y110862D01*
X82634Y110681D01*
X82231Y110435D01*
X81872Y110128D01*
X81565Y109769D01*
X81319Y109366D01*
X81138Y108930D01*
X81028Y108471D01*
X80991Y108000D01*
X81028Y107529D01*
X81138Y107070D01*
X81319Y106634D01*
X81565Y106231D01*
X81872Y105872D01*
X82231Y105565D01*
X82634Y105319D01*
X83070Y105138D01*
X83529Y105028D01*
X83995Y104991D01*
Y96000D01*
X82000D01*
Y99257D01*
X82121Y99379D01*
X82435Y99731D01*
X82681Y100134D01*
X82862Y100570D01*
X82972Y101029D01*
X83009Y101500D01*
X82972Y101971D01*
X82862Y102430D01*
X82681Y102866D01*
X82435Y103269D01*
X82128Y103628D01*
X81769Y103935D01*
X81366Y104181D01*
X80930Y104362D01*
X80471Y104472D01*
X80000Y104509D01*
X79529Y104472D01*
X79070Y104362D01*
X78634Y104181D01*
X78231Y103935D01*
X77879Y103621D01*
X76962Y102704D01*
X76872Y102628D01*
X76565Y102269D01*
X76495Y102154D01*
Y113991D01*
X76500Y113991D01*
X76971Y114028D01*
X77430Y114138D01*
X77866Y114319D01*
X78269Y114565D01*
X78628Y114872D01*
X78935Y115231D01*
X79181Y115634D01*
X79362Y116070D01*
X79472Y116529D01*
X79500Y117000D01*
X79472Y117471D01*
X79362Y117930D01*
X79181Y118366D01*
X78935Y118769D01*
X78628Y119128D01*
X78269Y119435D01*
X78162Y119500D01*
X78269Y119565D01*
X78628Y119872D01*
X78935Y120231D01*
X79181Y120634D01*
X79362Y121070D01*
X79472Y121529D01*
X79500Y122000D01*
X79472Y122471D01*
X79362Y122930D01*
X79181Y123366D01*
X78935Y123769D01*
X78628Y124128D01*
X78269Y124435D01*
X77866Y124681D01*
X77430Y124862D01*
X76971Y124972D01*
X76500Y125009D01*
X76495Y125009D01*
Y188000D01*
G37*
G36*
X57000D02*X76495D01*
Y125009D01*
X76029Y124972D01*
X75570Y124862D01*
X75134Y124681D01*
X74731Y124435D01*
X74372Y124128D01*
X74065Y123769D01*
X73819Y123366D01*
X73638Y122930D01*
X73528Y122471D01*
X73491Y122000D01*
X73528Y121529D01*
X73638Y121070D01*
X73819Y120634D01*
X74065Y120231D01*
X74372Y119872D01*
X74731Y119565D01*
X74838Y119500D01*
X74731Y119435D01*
X74372Y119128D01*
X74065Y118769D01*
X73819Y118366D01*
X73638Y117930D01*
X73528Y117471D01*
X73491Y117000D01*
X73528Y116529D01*
X73638Y116070D01*
X73819Y115634D01*
X74065Y115231D01*
X74372Y114872D01*
X74731Y114565D01*
X75134Y114319D01*
X75570Y114138D01*
X76029Y114028D01*
X76495Y113991D01*
Y102154D01*
X76319Y101866D01*
X76138Y101430D01*
X76028Y100971D01*
X76028Y100970D01*
X75991Y100500D01*
X76000Y100382D01*
Y96000D01*
X57000D01*
Y96045D01*
X57233Y96063D01*
X60937D01*
X61869Y96118D01*
X62777Y96336D01*
X63641Y96694D01*
X64437Y97182D01*
X65148Y97789D01*
X65755Y98500D01*
X66243Y99296D01*
X66601Y100160D01*
X66819Y101068D01*
X66892Y102000D01*
X66819Y102932D01*
X66601Y103840D01*
X66243Y104704D01*
X65755Y105500D01*
X65148Y106211D01*
X64437Y106818D01*
X64140Y107000D01*
X64437Y107182D01*
X65148Y107789D01*
X65755Y108500D01*
X66243Y109296D01*
X66601Y110160D01*
X66819Y111068D01*
X66892Y112000D01*
X66819Y112932D01*
X66601Y113840D01*
X66243Y114704D01*
X65755Y115500D01*
X65148Y116211D01*
X64437Y116818D01*
X64140Y117000D01*
X64437Y117182D01*
X65148Y117789D01*
X65755Y118500D01*
X66243Y119296D01*
X66601Y120160D01*
X66819Y121068D01*
X66892Y122000D01*
X66819Y122932D01*
X66601Y123840D01*
X66243Y124704D01*
X65755Y125500D01*
X65148Y126211D01*
X64437Y126818D01*
X63641Y127306D01*
X62777Y127664D01*
X61869Y127882D01*
X60937Y127937D01*
X57000D01*
Y188000D01*
G37*
G36*
X42995D02*X57000D01*
Y127937D01*
X53063D01*
X52131Y127882D01*
X51223Y127664D01*
X50359Y127306D01*
X49563Y126818D01*
X48852Y126211D01*
X48245Y125500D01*
X47757Y124704D01*
X47399Y123840D01*
X47181Y122932D01*
X47108Y122000D01*
X47181Y121068D01*
X47399Y120160D01*
X47757Y119296D01*
X48245Y118500D01*
X48852Y117789D01*
X49563Y117182D01*
X49860Y117000D01*
X49563Y116818D01*
X48852Y116211D01*
X48245Y115500D01*
X47757Y114704D01*
X47399Y113840D01*
X47181Y112932D01*
X47108Y112000D01*
X47181Y111068D01*
X47399Y110160D01*
X47757Y109296D01*
X48245Y108500D01*
X48852Y107789D01*
X49563Y107182D01*
X49860Y107000D01*
X49563Y106818D01*
X48852Y106211D01*
X48245Y105500D01*
X47757Y104704D01*
X47399Y103840D01*
X47181Y102932D01*
X47108Y102000D01*
X47181Y101068D01*
X47399Y100160D01*
X47757Y99296D01*
X48245Y98500D01*
X48852Y97789D01*
X49563Y97182D01*
X50359Y96694D01*
X51223Y96336D01*
X52131Y96118D01*
X53063Y96063D01*
X56767D01*
X57000Y96045D01*
X57000D01*
Y96000D01*
X42995D01*
Y105991D01*
X43000Y105991D01*
X43471Y106028D01*
X43930Y106138D01*
X44366Y106319D01*
X44769Y106565D01*
X45128Y106872D01*
X45435Y107231D01*
X45681Y107634D01*
X45862Y108070D01*
X45972Y108529D01*
X46000Y109000D01*
X45972Y109471D01*
X45862Y109930D01*
X45681Y110366D01*
X45435Y110769D01*
X45128Y111128D01*
X44769Y111435D01*
X44366Y111681D01*
X43930Y111862D01*
X43471Y111972D01*
X43000Y112009D01*
X42995Y112009D01*
Y156813D01*
X46185Y160003D01*
X52735Y160014D01*
X52965Y160069D01*
X53183Y160159D01*
X53384Y160283D01*
X53564Y160436D01*
X53717Y160616D01*
X53841Y160817D01*
X53931Y161035D01*
X53986Y161265D01*
X54000Y161500D01*
X53986Y169735D01*
X53931Y169965D01*
X53841Y170183D01*
X53717Y170384D01*
X53564Y170564D01*
X53384Y170717D01*
X53183Y170841D01*
X52965Y170931D01*
X52735Y170986D01*
X52500Y171000D01*
X44265Y170986D01*
X44035Y170931D01*
X43817Y170841D01*
X43616Y170717D01*
X43436Y170564D01*
X43283Y170384D01*
X43159Y170183D01*
X43069Y169965D01*
X43014Y169735D01*
X43000Y169500D01*
X43011Y163193D01*
X42995Y163177D01*
Y188000D01*
G37*
G36*
Y96000D02*X35000D01*
Y102838D01*
X35065Y102731D01*
X35372Y102372D01*
X35731Y102065D01*
X36134Y101819D01*
X36570Y101638D01*
X37029Y101528D01*
X37500Y101491D01*
X37971Y101528D01*
X38430Y101638D01*
X38866Y101819D01*
X39269Y102065D01*
X39628Y102372D01*
X39935Y102731D01*
X40181Y103134D01*
X40362Y103570D01*
X40472Y104029D01*
X40500Y104500D01*
X40472Y104971D01*
X40362Y105430D01*
X40181Y105866D01*
X39935Y106269D01*
X39628Y106628D01*
X39269Y106935D01*
X38866Y107181D01*
X38430Y107362D01*
X37971Y107472D01*
X37500Y107509D01*
X37029Y107472D01*
X36570Y107362D01*
X36134Y107181D01*
X35731Y106935D01*
X35372Y106628D01*
X35065Y106269D01*
X35000Y106162D01*
Y109838D01*
X35065Y109731D01*
X35372Y109372D01*
X35731Y109065D01*
X36134Y108819D01*
X36570Y108638D01*
X37029Y108528D01*
X37500Y108491D01*
X37971Y108528D01*
X38430Y108638D01*
X38866Y108819D01*
X39269Y109065D01*
X39628Y109372D01*
X39935Y109731D01*
X40181Y110134D01*
X40362Y110570D01*
X40472Y111029D01*
X40500Y111500D01*
X40472Y111971D01*
X40362Y112430D01*
X40181Y112866D01*
X39935Y113269D01*
X39628Y113628D01*
X39269Y113935D01*
X38866Y114181D01*
X38430Y114362D01*
X37971Y114472D01*
X37500Y114509D01*
X37029Y114472D01*
X36570Y114362D01*
X36134Y114181D01*
X35731Y113935D01*
X35372Y113628D01*
X35065Y113269D01*
X35000Y113162D01*
Y148818D01*
X42995Y156813D01*
Y112009D01*
X42529Y111972D01*
X42070Y111862D01*
X41634Y111681D01*
X41231Y111435D01*
X40872Y111128D01*
X40565Y110769D01*
X40319Y110366D01*
X40138Y109930D01*
X40028Y109471D01*
X39991Y109000D01*
X40028Y108529D01*
X40138Y108070D01*
X40319Y107634D01*
X40565Y107231D01*
X40872Y106872D01*
X41231Y106565D01*
X41634Y106319D01*
X42070Y106138D01*
X42529Y106028D01*
X42995Y105991D01*
Y96000D01*
G37*
G36*
X35000Y188000D02*X42995D01*
Y163177D01*
X35000Y155182D01*
Y188000D01*
G37*
G36*
X79500Y117000D02*X92500D01*
Y104000D01*
X79500D01*
Y117000D01*
G37*
G36*
X73500Y96000D02*Y106500D01*
X87000D01*
Y96000D01*
X73500D01*
G37*
G36*
X87500D02*X82000D01*
Y99257D01*
X82121Y99379D01*
X82435Y99731D01*
X82681Y100134D01*
X82862Y100570D01*
X82972Y101029D01*
X83009Y101500D01*
X82972Y101971D01*
X82862Y102430D01*
X82681Y102866D01*
X82435Y103269D01*
X82128Y103628D01*
X81769Y103935D01*
X81366Y104181D01*
X80930Y104362D01*
X80471Y104472D01*
X80000Y104509D01*
X79529Y104472D01*
X79070Y104362D01*
X78634Y104181D01*
X78231Y103935D01*
X77879Y103621D01*
X76962Y102704D01*
X76872Y102628D01*
X76565Y102269D01*
X76319Y101866D01*
X76138Y101430D01*
X76028Y100971D01*
X76028Y100970D01*
X75991Y100500D01*
X76000Y100382D01*
Y96000D01*
X71500D01*
Y106000D01*
X81763D01*
X81872Y105872D01*
X82231Y105565D01*
X82634Y105319D01*
X83070Y105138D01*
X83529Y105028D01*
X84000Y104991D01*
X84471Y105028D01*
X84930Y105138D01*
X85366Y105319D01*
X85769Y105565D01*
X86128Y105872D01*
X86237Y106000D01*
X87500D01*
Y96000D01*
G37*
G36*
X43500Y116500D02*X71000D01*
Y107500D01*
X43500D01*
Y116500D01*
G37*
G36*
X102000Y121500D02*X115000D01*
Y108500D01*
X102000D01*
Y121500D01*
G37*
G36*
X70000Y125500D02*X83000D01*
Y112500D01*
X70000D01*
Y125500D01*
G37*
G54D37*X49000Y24000D02*X80500D01*
X153500Y23500D02*X184000D01*
X89000Y32000D02*X81000Y24000D01*
G54D38*X87000Y49000D02*X83000D01*
X88500Y47500D02*X87000Y49000D01*
X83000D02*X81000Y47000D01*
X73500D01*
G54D39*X79500Y32000D02*X84000Y36500D01*
X13500Y38000D02*X6500Y45000D01*
X27000Y38000D02*X13500D01*
X26000D02*X47500D01*
X53500Y32000D01*
X111500Y20500D02*Y9000D01*
X114500Y6000D01*
G54D38*X102500Y40500D02*X107000D01*
X109000Y42500D01*
G54D39*X117500Y36500D02*X120000Y34000D01*
X184000D01*
X84000Y36500D02*X117500D01*
G54D37*X119500Y32000D02*X89000D01*
X146500Y69000D02*X119000D01*
X139000Y76000D02*X146000D01*
G54D38*X147000Y58500D02*X131000D01*
X128000Y61500D01*
X129500Y60000D01*
X165000Y64000D02*X170000D01*
X174000Y68000D01*
G54D37*X132500Y82500D02*X139000Y76000D01*
G54D38*X115000Y50000D02*X134500D01*
X112000Y53000D02*X115000Y50000D01*
X127000D02*X126500D01*
X124500Y52000D01*
Y56500D01*
X124000Y57000D01*
X116500Y61500D02*X128000D01*
X120500Y92000D02*X114500D01*
X112000Y89500D01*
Y53000D01*
X121500Y89500D02*X116500D01*
X114500Y87500D01*
Y63500D01*
X116500Y61500D01*
G54D37*X98500Y165500D02*Y160500D01*
X103000Y156000D01*
X121000D01*
G54D38*X168500Y127500D02*X171500Y124500D01*
X143500Y150500D02*Y125000D01*
X188500Y132500D02*Y128000D01*
X185500Y131000D02*X188000Y128500D01*
X122500Y155500D02*Y149500D01*
X124500Y147500D01*
X128500D01*
X130000Y146000D01*
G54D37*X146500Y69000D02*X158500Y57000D01*
G54D38*X128500Y50000D02*X208000D01*
G54D37*X188500Y57000D02*X193500Y62000D01*
X158500Y57000D02*X188500D01*
G54D38*X210000Y47500D02*X164000D01*
G54D37*X120000Y34000D02*Y24000D01*
X184000Y23500D02*X195000Y34500D01*
X225000D01*
X224500D02*Y24500D01*
G54D39*X114500Y6000D02*X231000D01*
G54D37*X299000Y47500D02*X291000D01*
X288000D02*X292000D01*
X237500Y45500D02*X275000D01*
G54D38*X168000Y47500D02*X88500D01*
X85500Y45000D02*X212500D01*
X214500Y47000D01*
X211500Y49000D02*X210000Y47500D01*
X109000Y42500D02*X214000D01*
X217500Y46000D01*
G54D39*X220000Y39000D02*X224500Y34500D01*
X184000Y34000D02*X189000Y39000D01*
X220000D01*
G54D37*X306000Y87000D02*Y54500D01*
X292500Y78000D02*X293000D01*
X300000Y85000D01*
X306000Y54500D02*X299000Y47500D01*
X282500Y53000D02*X288000Y47500D01*
G54D38*X214500Y47000D02*Y51000D01*
G54D37*X275000Y45500D02*X282500Y53000D01*
G54D38*X256000Y53500D02*X241000D01*
X240500Y53000D01*
G54D37*X233500Y49500D02*X237500Y45500D01*
G54D38*X240500Y64500D02*X247500D01*
X255500Y72500D01*
X238500Y83500D02*Y70000D01*
G54D37*X237000D01*
X233500Y66500D01*
Y49500D01*
G54D38*X214500Y50500D02*Y72500D01*
X209500Y74000D02*Y70000D01*
X202500Y81500D02*Y54500D01*
X209500Y52000D02*Y63000D01*
Y70000D02*X211500Y68000D01*
X220000Y67000D02*X217500Y64500D01*
X211500Y68000D02*Y49000D01*
X209500Y62500D02*X207500Y64500D01*
X217500D02*Y46000D01*
X208000Y50000D02*X209500Y51500D01*
X215500Y78500D02*X220000Y74000D01*
Y67000D01*
X215500Y78500D02*X210500D01*
X209000Y80000D01*
X190000Y86000D02*X198000D01*
X202500Y81500D01*
X296000Y150000D02*Y169000D01*
G54D37*X281500Y164000D02*Y146500D01*
G54D38*X266000Y154500D02*X276000Y144500D01*
X291500Y145500D02*X296000Y150000D01*
G54D37*X228500Y146000D02*X226500Y144000D01*
G54D38*X296000Y169000D02*X301000Y174000D01*
G54D37*X306000Y159000D02*X301000Y164000D01*
X239500Y173500D02*Y151500D01*
X234000Y146000D01*
X228500D01*
G54D38*X258000Y154500D02*X266000D01*
G54D37*X281000Y164000D02*X239500D01*
X300000Y128000D02*Y85000D01*
X306000Y86000D02*Y159000D01*
X281500Y146500D02*X300000Y128000D01*
G54D38*X276000Y114500D02*Y144500D01*
X273000Y111500D02*X276000Y114500D01*
X256500Y109000D02*X259000Y111500D01*
X273000D01*
X250500D02*X257500Y118500D01*
X271000D01*
X234000Y97000D02*X238500Y101500D01*
X256500Y99500D02*Y109000D01*
X235000Y104500D02*X236500Y106000D01*
X241500D01*
X242500Y105000D01*
X265000Y105500D02*Y96500D01*
X242500Y105000D02*Y94000D01*
X235000Y87000D02*X238500Y83500D01*
X242500Y94000D02*X245000Y91500D01*
X278000D01*
X256500Y124500D02*X271000D01*
X252500Y134000D02*X264500D01*
X254000Y129500D02*X266500D01*
X271000Y134000D01*
X246000Y131000D02*X247500Y132500D01*
Y141500D01*
X249000Y143000D01*
X246500Y128000D02*X252500Y134000D01*
X250000Y125500D02*X254000Y129500D01*
X248000Y116000D02*X256500Y124500D01*
X234500Y135000D02*X191000D01*
X239500Y137500D02*X237000D01*
X234500Y135000D01*
X204500Y131000D02*X246000D01*
X213000Y128000D02*X246500D01*
X216500Y125500D02*X250000D01*
X140000Y93500D02*X155500D01*
X195500Y94500D02*X238500D01*
X198500Y97000D02*X234000D01*
X194000Y100500D02*Y96000D01*
X195500Y94500D01*
X197500Y103500D02*Y98000D01*
X198500Y97000D01*
X204000Y87000D02*X235000D01*
X232000Y100000D02*X233000Y101000D01*
X201000Y100000D02*X232000D01*
X196500Y111000D02*X200000Y107500D01*
Y101000D02*X201000Y100000D01*
X219000Y104500D02*X235000D01*
X201000Y112000D02*Y127500D01*
X204500Y131000D01*
X209500Y124500D02*X213000Y128000D01*
X204500Y125000D02*Y124000D01*
X208000Y120500D01*
X211500D01*
X222500Y111500D02*X250500D01*
X219000Y116000D02*X248000D01*
X171500Y100500D02*X168500Y97500D01*
X191000Y135000D02*X188500Y132500D01*
X211500Y120500D02*X216500Y125500D01*
X194000Y107000D02*X197500Y103500D01*
X181500Y111000D02*X196500D01*
X200000Y107500D02*Y101000D01*
G54D37*X60000Y91000D02*X69000Y82000D01*
X40500Y91000D02*X60000D01*
X59000Y73000D02*Y82000D01*
X79000Y78000D02*Y81500D01*
Y82000D02*Y100500D01*
X80000Y101500D01*
G54D39*X53500Y32000D02*X79500D01*
X59000Y52000D02*Y37500D01*
G54D38*X73500Y47000D02*X69000Y51500D01*
G54D37*X32000Y82500D02*X40500Y91000D01*
X23000Y82500D02*X32000D01*
X48000Y62000D02*X59000Y73000D01*
X23000Y62000D02*X48000D01*
X79000Y78000D02*X59000Y58000D01*
Y52000D01*
G54D39*X6500Y135500D02*X13500Y142500D01*
X6500Y45000D02*Y135500D01*
X13500Y142500D02*X25500D01*
X48500Y165500D01*
G54D38*X174000Y68000D02*Y152500D01*
X177500Y156000D01*
X171500Y100500D02*Y124500D01*
X179500Y150500D02*Y113000D01*
X185500Y146500D02*Y131000D01*
X179500Y113000D02*X181500Y111000D01*
X128000Y110500D02*X130000Y112500D01*
X126000Y115000D02*Y113500D01*
X123500Y111000D01*
Y95000D01*
X129500Y112000D02*X126000Y108500D01*
G54D37*X132500Y93500D02*Y82500D01*
G54D38*X123500Y95000D02*X120500Y92000D01*
X126000Y94000D02*X121500Y89500D01*
X126000Y108500D02*Y94000D01*
X130000Y146000D02*Y112500D01*
G54D36*G36*
X44500Y28000D02*Y20000D01*
X52500D01*
Y28000D01*
X44500D01*
G37*
G54D40*X98500Y24000D03*
G54D36*G36*
X46000Y55000D02*Y49000D01*
X52000D01*
Y55000D01*
X46000D01*
G37*
G54D41*X59000Y52000D03*
X69000D03*
X79000D03*
G54D36*G36*
X221000Y18000D02*Y11000D01*
X228000D01*
Y18000D01*
X221000D01*
G37*
G54D42*X224500Y24500D03*
Y34500D03*
G54D36*G36*
X149500Y28000D02*Y20000D01*
X157500D01*
Y28000D01*
X149500D01*
G37*
G54D40*X203500Y24000D03*
G54D43*X18000Y18000D03*
G54D36*G36*
X116500Y17500D02*Y10500D01*
X123500D01*
Y17500D01*
X116500D01*
G37*
G54D42*X120000Y24000D03*
Y34000D03*
X282500Y53000D03*
X292500Y58000D03*
Y68000D03*
G54D44*X317500Y45500D03*
G54D43*X333000Y17500D03*
G54D36*G36*
X298000Y177000D02*Y171000D01*
X304000D01*
Y177000D01*
X298000D01*
G37*
G54D41*X291000Y174000D03*
X281000D03*
X301000Y164000D03*
X291000D03*
X281000D03*
G54D36*G36*
X221500Y159500D02*Y152500D01*
X228500D01*
Y159500D01*
X221500D01*
G37*
G54D42*X225000Y166000D03*
Y176000D03*
G54D43*X332500Y173000D03*
G54D36*G36*
X149000Y169500D02*Y161500D01*
X157000D01*
Y169500D01*
X149000D01*
G37*
G54D40*X98500Y165500D03*
G54D36*G36*
X116500Y159500D02*Y152500D01*
X123500D01*
Y159500D01*
X116500D01*
G37*
G54D42*X120000Y166000D03*
Y176000D03*
G54D40*X203000Y165500D03*
G54D36*G36*
X19000Y126500D02*Y118500D01*
X27000D01*
Y126500D01*
X19000D01*
G37*
G54D40*X23000Y102500D03*
G54D36*G36*
X19000Y86500D02*Y78500D01*
X27000D01*
Y86500D01*
X19000D01*
G37*
G54D40*X23000Y62500D03*
G54D43*X16500Y173000D03*
G54D45*X57000Y102000D03*
Y112000D03*
G54D36*G36*
X53063Y125937D02*Y118063D01*
X60937D01*
Y125937D01*
X53063D01*
G37*
G36*
X44500Y169500D02*Y161500D01*
X52500D01*
Y169500D01*
X44500D01*
G37*
G54D41*X79000Y82000D03*
X69000D03*
X59000D03*
X49000D03*
G54D42*X282500Y63000D03*
Y73000D03*
X292500Y78000D03*
G54D44*X317500Y85500D03*
G54D36*G36*
X252000Y56894D02*Y49894D01*
X259000D01*
Y56894D01*
X252000D01*
G37*
G54D42*X255500Y72606D03*
X282500Y110500D03*
X292500Y115500D03*
X282500Y120500D03*
X292500Y125500D03*
X282500Y130500D03*
X292500Y135500D03*
G54D44*X317500Y103000D03*
Y143000D03*
G54D45*X53063Y112000D02*X60937D01*
X53063Y122000D02*X60937D01*
X53063Y102000D02*X60937D01*
G54D37*X278000Y91500D03*
X238500Y102000D03*
Y94000D03*
X265000Y105500D03*
Y96500D03*
X256500Y99500D03*
X271000Y118500D03*
X306000D03*
X291500Y145500D03*
X271000Y134000D03*
X264500D03*
X271000Y124500D03*
X85000Y45000D03*
X119500Y69000D03*
X117000Y115500D03*
X102500Y41000D03*
X111500Y20500D03*
X59000Y37500D03*
X106500Y115500D03*
X76500Y122000D03*
Y117000D03*
X84000Y108000D03*
X112000Y115500D03*
X37500Y111500D03*
Y104500D03*
X43000Y109000D03*
X124000Y57000D03*
X214500Y72500D03*
X208000Y64000D03*
X209500Y74000D03*
X208000Y80500D03*
X140000Y93500D03*
X147000Y58500D03*
Y77500D03*
X137000Y6000D03*
X240500Y64500D03*
Y53000D03*
X238500Y70000D03*
X238000Y45500D03*
X232000Y6000D03*
X190000Y86000D03*
X202500Y55000D03*
X193500Y62000D03*
X204000Y87000D03*
X126000Y115000D03*
X111000Y149000D03*
X129500Y153000D03*
X177500Y156000D03*
X165000Y64000D03*
X155500Y93500D03*
X168500Y97000D03*
Y127500D03*
X179500Y150500D03*
X143500Y125000D03*
Y150500D03*
X136500Y184000D03*
X194000Y100500D03*
Y107000D03*
X201000Y112500D03*
X125500Y69000D03*
X132500Y93500D03*
X185500Y146500D03*
X188500Y128500D03*
X204500Y124500D03*
X209500D03*
X219000Y104500D03*
Y116000D03*
X222500Y111500D03*
X233000Y101000D03*
X231000Y182000D03*
X239500Y137500D03*
X249500Y143000D03*
X258000Y154500D03*
X226000Y142500D03*
G54D46*G54D47*G54D48*G54D49*G54D47*G54D50*G54D49*G54D51*G54D52*G54D50*G54D53*G54D49*G54D50*G54D47*G54D49*G54D47*G54D50*G54D54*G54D47*G54D48*G54D51*G54D52*G54D46*G54D51*G54D52*M02*
